<svg xmlns="http://www.w3.org/2000/svg" viewBox="0 0 51.26 51.26"><defs><style>.cls-1{fill:none;}.cls-2{fill:#fff;}.cls-3{fill:#ececed;}</style></defs><g id="Layer_2" data-name="Layer 2"><rect class="cls-1" x="13.34" y="32.94" width="2.94" height="2.94"/><rect class="cls-1" x="7.7" y="32.94" width="2.94" height="2.94"/><rect class="cls-1" x="13.34" y="38.03" width="2.94" height="2.94"/><rect class="cls-1" x="7.7" y="38.03" width="2.94" height="2.94"/><path class="cls-1" d="M25.41,29.59A1.4,1.4,0,1,0,24,28.2,1.4,1.4,0,0,0,25.41,29.59Z"/><rect class="cls-1" x="34.54" y="38.03" width="2.94" height="2.94"/><rect class="cls-1" x="40.19" y="32.94" width="2.94" height="2.94"/><rect class="cls-1" x="40.19" y="38.03" width="2.94" height="2.94"/><rect class="cls-1" x="34.54" y="32.94" width="2.94" height="2.94"/><path class="cls-2" d="M5.43,30.84v13H18.51v-13ZM10.63,41H7.7V38h2.93Zm0-5.09H7.7V32.94h2.93ZM16.28,41H13.34V38h2.94Zm-2.94-5.09V32.94h2.94v2.94Z"/><path class="cls-2" d="M32.31,43.85H45.83v-13H32.31Zm7.88-10.91h2.93v2.94H40.19Zm0,5.09h2.93V41H40.19Zm-5.65-5.09h2.94v2.94H34.54ZM37.48,38V41H34.54V38Z"/><path class="cls-2" d="M25.19,22.65,19,26.26v1.55h.5v16H23V36.66h4.82v7.19h3.49v-16h.5V26.25Zm.22,6.94a1.4,1.4,0,1,1,1.4-1.39A1.4,1.4,0,0,1,25.41,29.59Z"/><rect class="cls-3" x="18.51" y="43.85" width="0.5"/><path class="cls-3" d="M21,15.73l3.77,3.83a1,1,0,0,0,1.24,0l3.77-3.83,3.77-3.82c.27-.28-.07-.63-.62-.63H29.34V5a.68.68,0,0,0-.68-.67H22a.67.67,0,0,0-.67.67v6.25H17.87c-.55,0-.89.35-.62.63Z"/><polygon class="cls-3" points="18.16 25.61 18.66 26.47 19.01 26.26 25.19 22.65 31.81 26.25 32.22 26.48 32.7 25.6 25.17 21.5 18.16 25.61"/><polyline class="cls-3" points="31.84 43.85 32.31 43.85 32.31 30.84 45.83 30.84 43.18 27.79 31.81 27.79 31.81 27.81 31.31 27.81 31.31 30.84 31.31 43.85 27.82 43.85 27.82 36.66 23 36.66 23 43.85 19.51 43.85 19.51 30.84 19.51 27.81 19.01 27.81 19.01 27.79 8.07 27.79 5.43 30.84 18.51 30.84 18.51 43.85 18.51 43.85 19 43.85 19.02 43.85 19.04 43.85 19.01 43.85 19.01 43.85 18.51 43.85 5.43 43.85 5.43 46.9 45.83 46.9 45.83 43.85 32.31 43.85 31.81 43.85 31.81 43.85"/></g></svg>