<svg xmlns="http://www.w3.org/2000/svg" viewBox="0 0 51.26 51.26">
  <g fill="#FFFFFF">
    <path d="M36.15 22c-.88-1.63-6.33-2-11-2.05-4.71.09-10.15.42-11 2.05s-1.84 6.55-2.15 8.23a6.5 6.5 0 0 0-.12.87c1.52-1.29 5.28-1.41 6.48-1.41a40.8 40.8 0 0 1 6.49.9 1.52 1.52 0 0 0 .6 0 44.82 44.82 0 0 1 6.48-.9c1.91 0 5 .19 6.44 1.34a7.32 7.32 0 0 0-.11-.8c-.34-1.68-1.26-6.57-2.11-8.23Z"/>
    <path d="M31.92 30.69a44.56 44.56 0 0 0-6.29.88 2.36 2.36 0 0 1-1 0 40.54 40.54 0 0 0-6.29-.88c-2.14 0-6.68.43-6.14 2.08 0 0 .39 3 12.91 2.67s12.94-2.67 12.94-2.67c.55-1.65-3.62-2.08-6.13-2.08ZM9 27.69a1.69 1.69 0 0 0-1-1.56c-.06-.79-.33-2.43-.54-3.51A27.54 27.54 0 0 1 7 19.69c0-.9 1-1.26 1.11-1.29a3.71 3.71 0 0 1 1.62-.25l1.81-.77a4.71 4.71 0 0 0-3.86-.15 2.93 2.93 0 0 0-1.95 2.42 23 23 0 0 0 .49 3.21c.17.88.44 2.52.52 3.26a1.68 1.68 0 0 0-.15 3.07 18.65 18.65 0 0 1-.32 4.43 17.54 17.54 0 0 1-1.61 4.45A2.14 2.14 0 0 0 7 39.17 3.53 3.53 0 0 0 9.52 38s-.42-6.46-1.22-8.92a1.69 1.69 0 0 0 .7-1.39Z"/>
    <path d="m5.31 20.56-1.75.74a.32.32 0 0 0 0 .59l2.09.73c-.13-.76-.26-1.47-.34-2.06ZM47.66 21.25l-21.4-9a1.62 1.62 0 0 0-1.26 0l-12.32 5.18-2.87 1.23-2.29 1v.1c0 .42.26 1.74.47 2.8.07.33.13.65.19.95l4 1.4a15.46 15.46 0 0 1 1.11-3.32c.93-1.7 4.26-2.42 11.9-2.57 7.67.15 11 .87 11.93 2.57a16.74 16.74 0 0 1 1.19 3.67l9.42-3.3a.36.36 0 0 0-.07-.71Z"/>
  </g>
</svg>
