<svg xmlns="http://www.w3.org/2000/svg" viewBox="0 0 51.26 51.26"><defs><style>.cls-1{fill:#fff;}</style></defs><g id="Layer_2" data-name="Layer 2"><path class="cls-1" d="M47.9,20.67,26.5,11.62a2.31,2.31,0,0,0-1.75,0L10.07,17.86a4.56,4.56,0,0,0-3.1,0,2.18,2.18,0,0,0-1.14,1.81L3.32,20.72a.95.95,0,0,0,.06,1.76l2.78,1,.16.05c.14.71.28,1.45.35,2A2.3,2.3,0,0,0,6,29.55a18.33,18.33,0,0,1-.32,3.95,16.63,16.63,0,0,1-1.55,4.27L4,38l.11.27a2.66,2.66,0,0,0,2.56,1.51l.42,0a4.14,4.14,0,0,0,3-1.43l.13-.18,0-.22A59.89,59.89,0,0,0,9,29.29a2.3,2.3,0,0,0-1.08-3.83c0-.4-.14-.9-.24-1.47l4.61,1.62c-.35,1.49-.64,3-.83,4l-.1.49c-.37,1.93-.23,4,3.69,5a44.32,44.32,0,0,0,10.06,1,44.39,44.39,0,0,0,10.06-1c2-.46,3-1.23,3.45-2.12h0s0-.07,0-.1a4.31,4.31,0,0,0,.18-2.75l-.09-.49c-.18-.92-.44-2.29-.76-3.66l9.84-3.44a1,1,0,0,0,0-1.85Zm-39.49,7a1.07,1.07,0,0,1-.46.88l-.39.26.14.45a52.11,52.11,0,0,1,1.18,8.5,3.31,3.31,0,0,1-1.94.76,1.67,1.67,0,0,1-1.56-.49,17.54,17.54,0,0,0,1.5-4.32,18.58,18.58,0,0,0,.33-4.57l0-.36-.32-.17a1.05,1.05,0,0,1-.59-.94,1.07,1.07,0,1,1,2.13,0ZM5.87,21c0,.32.11.69.18,1.09l-1.51-.53Zm8.76,1.33c.55-1,4.08-1.59,10.47-1.72,6.42.13,9.95.71,10.5,1.72.77,1.41,1.59,5.7,1.94,7.53l.09.49a6.31,6.31,0,0,1,.11.7c-1.61-.91-4.76-1-5.82-1a43.09,43.09,0,0,0-6.41.89,1.84,1.84,0,0,1-.74,0,40.58,40.58,0,0,0-6.42-.89c-.77,0-4.19.06-5.86,1a7.33,7.33,0,0,1,.11-.76l.09-.49C13.05,28,13.87,23.74,14.63,22.33ZM34.89,33.86a43.66,43.66,0,0,1-9.77,1,43.82,43.82,0,0,1-9.78-1,4,4,0,0,1-2.54-1.34.11.11,0,0,1,0-.1c.44-.61,2.91-1.1,5.52-1.1a39.73,39.73,0,0,1,6.17.86,3,3,0,0,0,1.23,0,44.07,44.07,0,0,1,6.18-.86H32c2.67,0,5,.45,5.46,1.06a.3.3,0,0,1,0,.08A3.93,3.93,0,0,1,34.89,33.86Zm2.83-9.12a14.71,14.71,0,0,0-1-3c-.84-1.54-4.19-2.23-11.6-2.38-7.38.15-10.73.84-11.57,2.38a13.39,13.39,0,0,0-.93,2.65L7.41,22.57c-.15-.78-.29-1.56-.34-2.08l18.17-7.72a1,1,0,0,1,.77,0L46.8,21.56Z"/></g></svg>