<svg xmlns="http://www.w3.org/2000/svg" viewBox="0 0 51.26 51.26"><defs><style>.cls-1{fill:#fff;}.cls-2{fill:#ececed;}</style></defs><g id="Layer_2" data-name="Layer 2"><path class="cls-1" d="M28.66,35.29q-1.52.08-3.33.09C26.26,35.38,27.41,35.36,28.66,35.29Z"/><path class="cls-2" d="M35.25,34.4a39.22,39.22,0,0,1-6.59.89c7.06-.36,9.35-1.7,9.61-2.59a.19.19,0,0,0,0-.08C37.88,33.36,37,34,35.25,34.4Z"/><path class="cls-2" d="M12.42,32.7h0c.2,1,3.22,2.74,12.91,2.68a45.13,45.13,0,0,1-9.92-1A4.45,4.45,0,0,1,12.42,32.7Z"/><path class="cls-2" d="M5.27,22.34l1.36.48V20.48a3.3,3.3,0,0,1,0-.47l-1.45.61A.92.92,0,0,0,5.27,22.34Z"/><path class="cls-2" d="M46.43,20.57,26.71,12.23a2.28,2.28,0,0,0-1.74,0L8.19,19.36s-.48.19-.52,1c0,.4,0,1.6,0,2.78l5.6,2h0a15.3,15.3,0,0,1,1-3.18c.89-1.63,6.34-2,11-2,4.7.09,10.15.42,11,2a16.76,16.76,0,0,1,1.13,3.52h0l8.88-3.11A1,1,0,0,0,46.43,20.57Z"/><path class="cls-2" d="M32.14,30.63a43.65,43.65,0,0,0-6.45.91,1.73,1.73,0,0,1-.68,0,42.4,42.4,0,0,0-6.45-.9c-2.14,0-6.47.37-6.14,2.07a4.45,4.45,0,0,0,3,1.7,45.13,45.13,0,0,0,9.92,1q1.82,0,3.33-.09a39.22,39.22,0,0,0,6.59-.89c1.74-.41,2.63-1,3-1.78C38.61,31,34.6,30.62,32.14,30.63Z"/><path class="cls-1" d="M38.46,30.16c-.18-.93-.54-2.86-1-4.67A16.76,16.76,0,0,0,36.36,22c-.88-1.63-6.33-2-11-2-4.7.09-10.15.42-11,2a15.3,15.3,0,0,0-1,3.18c-.47,1.9-.86,4-1.05,5a3.47,3.47,0,0,0,.22,2.54c-.33-1.7,4-2.07,6.14-2.07a42.4,42.4,0,0,1,6.45.9,1.73,1.73,0,0,0,.68,0,43.65,43.65,0,0,1,6.45-.91c2.46,0,6.47.4,6.14,2A3.57,3.57,0,0,0,38.46,30.16Z"/><path class="cls-1" d="M8.72,26.92a1.51,1.51,0,0,0-1.06-1.43c0-.51,0-1.41,0-2.31,0-1.18,0-2.38,0-2.78,0-.85.5-1,.52-1h0l1.26-.61a3.61,3.61,0,0,0-2,0A1.45,1.45,0,0,0,6.67,20a3.3,3.3,0,0,0,0,.47v5.08a1.49,1.49,0,0,0,0,2.73,15.14,15.14,0,0,1-.61,5.25c-.86,2.47-1.81,5-1.81,5a2.4,2.4,0,0,0,2.64,1.23,3.93,3.93,0,0,0,2.85-1.32s-.48-8-1.61-10.38A1.49,1.49,0,0,0,8.72,26.92Z"/></g></svg>