<svg xmlns="http://www.w3.org/2000/svg" viewBox="0 0 51.26 51.26"><defs><style>.cls-1{fill:#fff;}.cls-2{fill:#ececed;}</style></defs><g id="Layer_2" data-name="Layer 2"><polygon class="cls-1" points="26.77 16.34 10.57 32.54 10.57 32.54 10.57 32.54 16.13 38.1 32.33 21.9 32.33 21.9 32.33 21.9 26.77 16.34"/><polygon class="cls-2" points="10.57 32.54 16.13 38.1 10.57 32.54 10.57 32.54"/><rect class="cls-2" x="29.55" y="15.19" height="7.86" transform="translate(-4.87 26.5) rotate(-45)"/><path class="cls-2" d="M5.65,43.65a.63.63,0,0,0,.44-.19L7.52,42h0l8.6-3.95-5.56-5.56-3.95,8.6h0L5.21,42.58a.62.62,0,0,0,0,.88A.63.63,0,0,0,5.65,43.65Z"/><path class="cls-2" d="M41.06,13.18a.76.76,0,0,0,.09.09,3.47,3.47,0,0,1,1.45,2.18A3.24,3.24,0,0,1,41.4,18a12.53,12.53,0,0,1-4.95,2.89,12.17,12.17,0,0,0-4.7,2.7c-3,3-2.94,5.68-2.93,5.79a.62.62,0,0,0,.62.6h0a.62.62,0,0,0,.6-.65s0-2.25,2.58-4.86a11.07,11.07,0,0,1,4.25-2.41,13.75,13.75,0,0,0,5.4-3.17,4.43,4.43,0,0,0,1.55-3.58,4.63,4.63,0,0,0-1.9-3h0a3.45,3.45,0,0,0,0-4.87l-.69-.69a3.45,3.45,0,0,0-4.87,0l-9.61,9.61,5.56,5.56Z"/><path class="cls-2" d="M46.35,44.91c-15.31,0-41.06-.11-41.56,0a.64.64,0,0,0-.49.76.6.6,0,0,0,.58.48l.14,0c1-.1,30.18,0,41.33,0h0a.64.64,0,0,0,.63-.63A.63.63,0,0,0,46.35,44.91Z"/></g></svg>