<svg xmlns="http://www.w3.org/2000/svg" viewBox="0 0 51.26 51.26">
  <g fill="#FFFFFF">
    <path d="M5.65 43.64a.62.62 0 0 0 .44-.18l1-1a.62.62 0 0 0 .44.18.86.86 0 0 0 .27-.05l8.59-3.95a.42.42 0 0 0 .14-.09l16.2-16.2 8.76-8.76a3.09 3.09 0 0 1 1.07 1.87A3.26 3.26 0 0 1 41.4 18a12.65 12.65 0 0 1-4.95 2.89 12.27 12.27 0 0 0-4.7 2.69c-3 3-2.94 5.69-2.94 5.8a.64.64 0 0 0 .63.6.61.61 0 0 0 .59-.65s-.06-2.21 2.58-4.85a10.94 10.94 0 0 1 4.25-2.41 13.73 13.73 0 0 0 5.4-3.18 4.41 4.41 0 0 0 1.55-3.57 4.35 4.35 0 0 0-1.42-2.62 4.07 4.07 0 0 0 1.15-2.84A4 4 0 0 0 42.38 7l-.69-.7a4.07 4.07 0 0 0-5.75 0l-9.61 9.61L10.12 32.1a.67.67 0 0 0-.09.14l-3.98 8.63a.61.61 0 0 0 .13.7l-1 1a.64.64 0 0 0 0 .89.62.62 0 0 0 .47.18Zm21.12-26.42 4.68 4.68-15.32 15.31-4.68-4.67Zm10.05-10a2.87 2.87 0 0 1 4 0l.7.69a2.82 2.82 0 0 1 0 4L32.33 21l-4.68-4.67ZM10.76 33.61l4.29 4.3-7.38 3.39-.3-.3ZM46.35 44.9c-15.31 0-41.06-.11-41.56 0a.64.64 0 0 0-.49.76.6.6 0 0 0 .58.48H5c1-.1 30.18 0 41.33 0a.68.68 0 0 0 .63-.62.63.63 0 0 0-.61-.62Z"/>
  </g>
</svg>
