<svg xmlns="http://www.w3.org/2000/svg" viewBox="0 0 51.26 51.26"><defs><style>.cls-1{fill:#fff;}</style></defs><g id="Layer_2" data-name="Layer 2"><path class="cls-1" d="M5.65,43.64a.62.62,0,0,0,.44-.18l1-1v0a.62.62,0,0,0,.44.18.86.86,0,0,0,.27-.05l8.59-3.95,0,0a.42.42,0,0,0,.14-.09l16.2-16.2,8.76-8.76a3.09,3.09,0,0,1,1.07,1.87A3.26,3.26,0,0,1,41.4,18a12.65,12.65,0,0,1-4.95,2.89,12.27,12.27,0,0,0-4.7,2.69c-3,3-2.94,5.69-2.94,5.8a.64.64,0,0,0,.63.6h0a.61.61,0,0,0,.59-.65s-.06-2.21,2.58-4.85a10.94,10.94,0,0,1,4.25-2.41,13.73,13.73,0,0,0,5.4-3.18,4.41,4.41,0,0,0,1.55-3.57,4.35,4.35,0,0,0-1.42-2.62,4.07,4.07,0,0,0,1.15-2.84A4,4,0,0,0,42.38,7l-.69-.7a4.07,4.07,0,0,0-5.75,0l-9.61,9.61L10.12,32.1a.67.67,0,0,0-.09.14l0,0L6.05,40.87a.61.61,0,0,0,.13.7v0l-1,1a.64.64,0,0,0,0,.89A.62.62,0,0,0,5.65,43.64ZM26.77,17.22l4.68,4.68L16.13,37.21l-4.68-4.67Zm10.05-10a2.87,2.87,0,0,1,4,0l.7.69h0a2.82,2.82,0,0,1,0,4L32.33,21l-4.68-4.67ZM10.76,33.61l4.29,4.3L7.67,41.3l-.3-.3Z"/><path class="cls-1" d="M46.35,44.9c-15.31,0-41.06-.11-41.56,0a.64.64,0,0,0-.49.76.6.6,0,0,0,.58.48H5c1-.1,30.18,0,41.33,0a.68.68,0,0,0,.63-.62A.63.63,0,0,0,46.35,44.9Z"/></g></svg>