<svg xmlns="http://www.w3.org/2000/svg" viewBox="0 0 51.26 51.26">
  <g fill="#FFFFFF">
    <path d="M5.65 43.33a.59.59 0 0 0 .44-.19l1.43-1.42 8.6-3.94 16.2-16.21 8.73-8.72a.76.76 0 0 0 .09.09 3.46 3.46 0 0 1 1.45 2.18 3.27 3.27 0 0 1-1.2 2.56 12.62 12.62 0 0 1-4.95 2.88 12.32 12.32 0 0 0-4.69 2.7c-3 3-3 5.68-2.94 5.79a.62.62 0 0 0 .62.6.62.62 0 0 0 .6-.64s0-2.26 2.58-4.86a10.94 10.94 0 0 1 4.26-2.42 13.79 13.79 0 0 0 5.39-3.17A4.42 4.42 0 0 0 43.84 15a4.57 4.57 0 0 0-1.9-3 3.44 3.44 0 0 0 0-4.86l-.69-.7a3.45 3.45 0 0 0-4.87 0L26.77 16l-16.2 16.2-3.95 8.6-1.41 1.46a.62.62 0 0 0 0 .88.59.59 0 0 0 .44.19ZM46.35 44.59c-15.31-.05-41.06-.11-41.56 0a.64.64 0 0 0-.49.76.6.6 0 0 0 .58.48.36.36 0 0 0 .14 0c1-.09 30.18 0 41.33 0a.64.64 0 0 0 .63-.62.63.63 0 0 0-.63-.62Z"/>
  </g>
</svg>
