<svg xmlns="http://www.w3.org/2000/svg" viewBox="0 0 51.26 51.26"><defs><style>.cls-1{fill:none;}.cls-2{fill:#fff;}.cls-3{fill:#ececed;}</style></defs><g id="Layer_2" data-name="Layer 2"><path class="cls-1" d="M30.33,33.92v2.46a1,1,0,0,1,0,.17,4.17,4.17,0,0,1-4.15,4h-.48a4.17,4.17,0,0,1-4.15-4V32.83h-2v3a6.37,6.37,0,1,0,12.73,0v-3h-2v1.09Z"/><path class="cls-2" d="M9.34,24.68H9.25a3.89,3.89,0,0,0-3.7,4v5.55a3.89,3.89,0,0,0,3.7,4h3.19V24.68H9.34Z"/><path class="cls-2" d="M42,24.71H38.82V38.32H42a3.89,3.89,0,0,0,3.69-4V28.74A3.89,3.89,0,0,0,42,24.71Z"/><path class="cls-2" d="M26.17,22.7h-.48a4.17,4.17,0,0,0-4.15,4.16v.89h2.37a.45.45,0,1,1,0,.9H21.54v1.73h2.37a.45.45,0,0,1,.46.45.46.46,0,0,1-.46.46H21.54V33h2.37a.45.45,0,0,1,.46.45.46.46,0,0,1-.46.46H21.54v1.72h2.37a.45.45,0,0,1,.46.45.46.46,0,0,1-.46.46H21.54a4.17,4.17,0,0,0,4.15,4h.48a4.17,4.17,0,0,0,4.15-4H28a.46.46,0,0,1-.45-.46.45.45,0,0,1,.45-.45h2.38V33.92H28a.46.46,0,0,1-.45-.46A.45.45,0,0,1,28,33h2.38V31.29H28a.46.46,0,0,1-.45-.46.45.45,0,0,1,.45-.45h2.38V28.65H28a.45.45,0,0,1,0-.9h2.38v-.89A4.17,4.17,0,0,0,26.17,22.7Z"/><path class="cls-3" d="M28.25,4.52h-5.4A13.52,13.52,0,0,0,9.34,18v6.66H12V18a10.91,10.91,0,0,1,10.9-10.9h5.4A10.91,10.91,0,0,1,39.15,18v6.69h2.61V18A13.52,13.52,0,0,0,28.25,4.52Z"/><path class="cls-3" d="M13.92,23.53A1.48,1.48,0,0,0,12.44,25V38a1.48,1.48,0,0,0,3,0V25A1.48,1.48,0,0,0,13.92,23.53Z"/><path class="cls-3" d="M37.34,23.53A1.48,1.48,0,0,0,35.86,25V38a1.48,1.48,0,0,0,3,0V25A1.48,1.48,0,0,0,37.34,23.53Z"/><path class="cls-3" d="M33,29.55a.72.72,0,0,0-.72.72v1.11h-2v1.45h2v3a6.37,6.37,0,1,1-12.73,0v-3h2V31.38h-2V30.27a.73.73,0,0,0-.73-.72.72.72,0,0,0-.72.72v5.56a7.82,7.82,0,0,0,7.17,7.79v1.67H20.77a.73.73,0,0,0-.72.73.72.72,0,0,0,.72.72H31.26A.72.72,0,0,0,32,46a.73.73,0,0,0-.72-.73H26.74V43.61a7.84,7.84,0,0,0,7-7.78V30.27A.73.73,0,0,0,33,29.55Z"/><path class="cls-3" d="M24.37,28.2a.45.45,0,0,0-.46-.45H21.54v.9h2.37A.45.45,0,0,0,24.37,28.2Z"/><path class="cls-3" d="M21.54,31.29h2.37a.46.46,0,0,0,.46-.46.45.45,0,0,0-.46-.45H21.54Z"/><path class="cls-3" d="M21.54,33.92h2.37a.46.46,0,0,0,.46-.46.45.45,0,0,0-.46-.45H21.54Z"/><path class="cls-3" d="M23.91,35.64H21.54v.91h2.37a.46.46,0,0,0,.46-.46A.45.45,0,0,0,23.91,35.64Z"/><path class="cls-3" d="M28,28.65h2.38v-.9H28a.45.45,0,0,0,0,.9Z"/><path class="cls-3" d="M28,31.29h2.38v-.91H28a.45.45,0,0,0-.45.45A.46.46,0,0,0,28,31.29Z"/><path class="cls-3" d="M28,33.92h2.38V33H28a.45.45,0,0,0-.45.45A.46.46,0,0,0,28,33.92Z"/><path class="cls-3" d="M28,36.55h2.37a1,1,0,0,0,0-.17v-.74H28a.45.45,0,0,0-.45.45A.46.46,0,0,0,28,36.55Z"/></g></svg>