<svg xmlns="http://www.w3.org/2000/svg" viewBox="0 0 51.26 51.26"><defs><style>.cls-1{fill:#fff;}</style></defs><g id="Layer_2" data-name="Layer 2"><path class="cls-1" d="M41.76,23.56V17.7A13.52,13.52,0,0,0,28.25,4.2h-5.4A13.52,13.52,0,0,0,9.34,17.7v5.86H12V17.7A10.91,10.91,0,0,1,22.85,6.8h5.4a10.91,10.91,0,0,1,10.9,10.9v5.86Z"/><path class="cls-1" d="M5.55,28.39v5.54a3.89,3.89,0,0,0,3.7,4H11.9V24.36H9.25A3.89,3.89,0,0,0,5.55,28.39Z"/><path class="cls-1" d="M14.27,23.21a1.48,1.48,0,0,0-1.48,1.48v13a1.48,1.48,0,1,0,3,0v-13A1.49,1.49,0,0,0,14.27,23.21Z"/><path class="cls-1" d="M36.72,23.21a1.49,1.49,0,0,0-1.48,1.48v13a1.48,1.48,0,0,0,3,0v-13A1.49,1.49,0,0,0,36.72,23.21Z"/><path class="cls-1" d="M42,24.4H39.17V38H42a3.88,3.88,0,0,0,3.69-4V28.43A3.88,3.88,0,0,0,42,24.4Z"/><path class="cls-1" d="M32.83,29.23a.72.72,0,0,0-.72.72v1.11H31v1.45h1.08v3a6.37,6.37,0,0,1-12.74,0v-3h1V31.06h-1V30a.72.72,0,1,0-1.44,0v5.57A7.82,7.82,0,0,0,25.1,43.3V45H20.58a.73.73,0,0,0-.73.73.73.73,0,0,0,.73.72H31.06a.73.73,0,0,0,.73-.72.73.73,0,0,0-.73-.73H26.54V43.29a7.83,7.83,0,0,0,7-7.77V30A.72.72,0,0,0,32.83,29.23Z"/><path class="cls-1" d="M23.72,33.6H21.34v1.72h2.38a.46.46,0,0,1,.45.46.45.45,0,0,1-.45.45H21.35a4.17,4.17,0,0,0,4.15,4H26a4.17,4.17,0,0,0,4.15-4H27.76a.45.45,0,0,1-.45-.45.46.46,0,0,1,.45-.46h2.38V33.6H27.76a.45.45,0,0,1-.45-.45.46.46,0,0,1,.45-.46h2.38V31H27.76a.46.46,0,0,1-.45-.46.45.45,0,0,1,.45-.45h2.38V28.34H27.76a.46.46,0,0,1-.45-.46.45.45,0,0,1,.45-.45h2.38v-.89A4.17,4.17,0,0,0,26,22.38H25.5a4.17,4.17,0,0,0-4.16,4.16v.89h2.38a.45.45,0,0,1,.45.45.46.46,0,0,1-.45.46H21.34v1.72h2.38a.45.45,0,0,1,.45.45.46.46,0,0,1-.45.46H21.34v1.72h2.38a.46.46,0,0,1,.45.46A.45.45,0,0,1,23.72,33.6Z"/></g></svg>