<svg xmlns="http://www.w3.org/2000/svg" viewBox="0 0 51.26 51.26">
  <g fill="#FFFFFF">
    <path d="M42.38 24.18v-6.11A14.14 14.14 0 0 0 28.25 3.93h-5.4A14.15 14.15 0 0 0 8.71 18.07v6.08a4.55 4.55 0 0 0-3.78 4.6v5.54A4.51 4.51 0 0 0 9.25 39H12a2.1 2.1 0 0 0 4-1V25a2.09 2.09 0 0 0-3.45-1.6v-5.33a10.29 10.29 0 0 1 10.3-10.28h5.4a10.29 10.29 0 0 1 10.28 10.28v5.25a2.11 2.11 0 0 0-3.3 1.73V38a2.1 2.1 0 0 0 4 1H42a4.51 4.51 0 0 0 4.32-4.66v-5.55a4.52 4.52 0 0 0-3.94-4.61ZM6.18 34.29v-5.54a3.26 3.26 0 0 1 3.07-3.41h2.56V37.7H9.25a3.26 3.26 0 0 1-3.07-3.41Zm7.74-10.09a.85.85 0 0 1 .85.85V38a.85.85 0 0 1-.85.85.86.86 0 0 1-.86-.85V25a.86.86 0 0 1 .86-.8ZM28.25 6.54h-5.4a11.54 11.54 0 0 0-11.53 11.53v6H10v-6A12.9 12.9 0 0 1 22.85 5.18h5.4a12.89 12.89 0 0 1 12.88 12.89v6.06h-1.35v-6.06A11.54 11.54 0 0 0 28.25 6.54Zm9.09 32.34a.86.86 0 0 1-.86-.85v-13a.86.86 0 0 1 .86-.85.85.85 0 0 1 .85.85V38a.85.85 0 0 1-.85.88Zm7.74-4.55A3.26 3.26 0 0 1 42 37.74h-2.56V25.38H42a3.26 3.26 0 0 1 3.07 3.41Z"/>
    <path d="M33 29.69a.62.62 0 0 0-.62.62v1.79H31V27a5 5 0 0 0-10 0v5.1h-1.53v-1.79a.63.63 0 0 0-1.25 0v5.57a7.73 7.73 0 0 0 7.17 7.69v1.87h-4.62a.63.63 0 0 0 0 1.25h10.49a.63.63 0 0 0 0-1.25h-4.62v-1.88a7.73 7.73 0 0 0 7-7.68v-5.57a.63.63 0 0 0-.64-.62Zm-7.09-6.5a3.78 3.78 0 0 1 3.8 3.81v.48h-2.07a.63.63 0 0 0 0 1.25h2.07v1.38h-2.07a.63.63 0 0 0 0 1.25h2.07v1.34h-2.07a.63.63 0 0 0 0 1.25h2.07v1.38h-2.07a.63.63 0 0 0 0 1.25h2a3.76 3.76 0 0 1-7.43 0h2a.63.63 0 0 0 0-1.25h-2.05V34h2.07a.63.63 0 0 0 0-1.25h-2.07v-1.43h2.07a.63.63 0 0 0 0-1.25h-2.07v-1.38h2.07a.63.63 0 0 0 0-1.25h-2.07V27a3.77 3.77 0 0 1 3.77-3.81Zm0 19.15a6.47 6.47 0 0 1-6.46-6.46v-2.53h1.44V36A5 5 0 0 0 31 36v-2.65h1.4v2.53a6.47 6.47 0 0 1-6.47 6.46Z"/>
  </g>
</svg>
