<svg xmlns="http://www.w3.org/2000/svg" viewBox="0 0 51.26 51.26">
  <g fill="#FFFFFF">
    <path d="M41.76 23.56V17.7A13.52 13.52 0 0 0 28.25 4.2h-5.4A13.52 13.52 0 0 0 9.34 17.7v5.86H12V17.7A10.91 10.91 0 0 1 22.85 6.8h5.4a10.91 10.91 0 0 1 10.9 10.9v5.86ZM5.55 28.39v5.54a3.89 3.89 0 0 0 3.7 4h2.65V24.36H9.25a3.89 3.89 0 0 0-3.7 4.03Z"/>
    <path d="M14.27 23.21a1.48 1.48 0 0 0-1.48 1.48v13a1.48 1.48 0 1 0 3 0v-13a1.49 1.49 0 0 0-1.52-1.48ZM36.72 23.21a1.49 1.49 0 0 0-1.48 1.48v13a1.48 1.48 0 0 0 3 0v-13a1.49 1.49 0 0 0-1.52-1.48ZM42 24.4h-2.83V38H42a3.88 3.88 0 0 0 3.69-4v-5.57A3.88 3.88 0 0 0 42 24.4ZM32.83 29.23a.72.72 0 0 0-.72.72v1.11H31v1.45h1.08v3a6.37 6.37 0 0 1-12.74 0v-3h1v-1.45h-1V30a.72.72 0 1 0-1.44 0v5.57a7.82 7.82 0 0 0 7.2 7.73V45h-4.52a.73.73 0 0 0-.73.73.73.73 0 0 0 .73.72h10.48a.73.73 0 0 0 .73-.72.73.73 0 0 0-.73-.73h-4.52v-1.71a7.83 7.83 0 0 0 7-7.77V30a.72.72 0 0 0-.71-.77Z"/>
    <path d="M23.72 33.6h-2.38v1.72h2.38a.46.46 0 0 1 .45.46.45.45 0 0 1-.45.45h-2.37a4.17 4.17 0 0 0 4.15 4h.5a4.17 4.17 0 0 0 4.15-4h-2.39a.45.45 0 0 1-.45-.45.46.46 0 0 1 .45-.46h2.38V33.6h-2.38a.45.45 0 0 1-.45-.45.46.46 0 0 1 .45-.46h2.38V31h-2.38a.46.46 0 0 1-.45-.46.45.45 0 0 1 .45-.45h2.38v-1.75h-2.38a.46.46 0 0 1-.45-.46.45.45 0 0 1 .45-.45h2.38v-.89A4.17 4.17 0 0 0 26 22.38h-.5a4.17 4.17 0 0 0-4.16 4.16v.89h2.38a.45.45 0 0 1 .45.45.46.46 0 0 1-.45.46h-2.38v1.72h2.38a.45.45 0 0 1 .45.45.46.46 0 0 1-.45.46h-2.38v1.72h2.38a.46.46 0 0 1 .45.46.45.45 0 0 1-.45.45Z"/>
  </g>
</svg>
