<svg xmlns="http://www.w3.org/2000/svg" viewBox="0 0 51.26 51.26"><defs><style>.cls-1{fill:#fff;}.cls-2{fill:#ececed;}</style></defs><g id="Layer_2" data-name="Layer 2"><path class="cls-1" d="M12.1,8.38H37.33l.17,0a2,2,0,0,0-.43-.05h-25a4.31,4.31,0,0,0-3,1h0A4.43,4.43,0,0,1,12.1,8.38Z"/><path class="cls-1" d="M43.18,15v1.22h-9a3.5,3.5,0,0,0-3.49,3.49h0a3.5,3.5,0,0,0,3.49,3.48h9v1.9h0V15ZM34.5,20.69a1,1,0,1,1,1-1A1,1,0,0,1,34.5,20.69Z"/><path class="cls-1" d="M38.12,10.42a.79.79,0,0,0-.79-.79H12.05a3.12,3.12,0,0,0-2.1.65A2.2,2.2,0,0,0,9.33,12H38.12Z"/><path class="cls-1" d="M21.61,24.42a9.24,9.24,0,1,0,9.24,9.25A9.25,9.25,0,0,0,21.61,24.42Zm.69,13.77V39.6H20.94V38.26a3.72,3.72,0,0,1-2.37-1.09l.92-1.27a2.74,2.74,0,0,0,1.87.72c.73,0,1.05-.31,1.05-.86,0-1.24-3.51-1.36-3.51-3.7a2.4,2.4,0,0,1,2-2.5V28.17H22.3v1.35a3.37,3.37,0,0,1,2,1.14l-1,1.13a2.14,2.14,0,0,0-1.48-.64c-.58,0-.9.25-.9.8,0,1.17,3.51,1.19,3.51,3.64A2.5,2.5,0,0,1,22.3,38.19Z"/><path class="cls-2" d="M33.48,19.67a1,1,0,1,0,1-1A1,1,0,0,0,33.48,19.67Z"/><path class="cls-2" d="M20.88,32c0-.55.32-.8.9-.8a2.14,2.14,0,0,1,1.48.64l1-1.13a3.37,3.37,0,0,0-2-1.14V28.17H20.94v1.39a2.4,2.4,0,0,0-2,2.5c0,2.34,3.51,2.46,3.51,3.7,0,.55-.32.86-1.05.86a2.74,2.74,0,0,1-1.87-.72l-.92,1.27a3.72,3.72,0,0,0,2.37,1.09V39.6H22.3V38.19a2.5,2.5,0,0,0,2.09-2.6C24.39,33.14,20.88,33.12,20.88,32Z"/><path class="cls-2" d="M41.36,12h-2V10.42a2,2,0,0,0-1.87-2l-.17,0H12.1a4.43,4.43,0,0,0-3,.95l0,0a3.41,3.41,0,0,0-1,2.64.71.71,0,0,0,0,.2V36.31a1.83,1.83,0,0,0,1.82,1.82h3.59a9.24,9.24,0,1,1,16.18,0H41.36a1.82,1.82,0,0,0,1.82-1.82V23.15h-9a3.5,3.5,0,0,1-3.49-3.48h0a3.5,3.5,0,0,1,3.49-3.49h9V13.79A1.81,1.81,0,0,0,41.36,12Zm-3.24,0H9.33A2.2,2.2,0,0,1,10,10.28a3.12,3.12,0,0,1,2.1-.65H37.33a.79.79,0,0,1,.79.79Z"/></g></svg>