<svg xmlns="http://www.w3.org/2000/svg" viewBox="0 0 51.26 51.26"><defs><style>.cls-1{fill:#fff;}</style></defs><g id="Layer_2" data-name="Layer 2"><path class="cls-1" d="M33.46,19.35a1,1,0,1,0,1-1A1,1,0,0,0,33.46,19.35Z"/><path class="cls-1" d="M20.86,31.63c0-.54.32-.8.9-.8a2.14,2.14,0,0,1,1.48.64l1.05-1.13a3.42,3.42,0,0,0-2-1.14V27.85H20.92v1.39a2.41,2.41,0,0,0-2,2.5c0,2.34,3.51,2.46,3.51,3.7,0,.55-.32.86-1.05.86a2.74,2.74,0,0,1-1.87-.72l-.92,1.27a3.72,3.72,0,0,0,2.37,1.09v1.34h1.36v-1.4a2.51,2.51,0,0,0,2.09-2.61C24.37,32.82,20.86,32.8,20.86,31.63Z"/><path class="cls-1" d="M43.16,14.64V13.47a1.81,1.81,0,0,0-1.82-1.82H39.07V10.07a2,2,0,0,0-2-2h-25a4.31,4.31,0,0,0-3,1,3.48,3.48,0,0,0-1,2.65h0V36a1.82,1.82,0,0,0,1.82,1.82H13.5a9.24,9.24,0,0,0,16.18,0H41.34A1.81,1.81,0,0,0,43.16,36V24.73h0V14.64ZM21.59,41.34a8,8,0,1,1,8-8A8,8,0,0,1,21.59,41.34ZM9.35,11.65h0A2.25,2.25,0,0,1,10,9.92,3.11,3.11,0,0,1,12,9.28h25a.78.78,0,0,1,.77.79v1.58H9.35ZM41.91,22.83H34.18a3.49,3.49,0,0,1-3.49-3.48h0a3.5,3.5,0,0,1,3.49-3.49h7.73Z"/></g></svg>