<svg xmlns="http://www.w3.org/2000/svg" viewBox="0 0 51.26 51.26">
  <path fill="#FFFFFF" d="M29.92 38.21c-.53 0-1.05-.14-1.54-.41-.41-.23-.78-.54-1.15-.96-.38-.44-.72-.95-1.06-1.61-.19-.38-.37-.78-.55-1.23-.1.26-.2.5-.31.73-.38.82-.76 1.45-1.19 1.98-.41.5-.84.86-1.3 1.12-.35.19-.73.31-1.12.36-.54.07-1.09 0-1.68-.24-.48-.19-.94-.46-1.46-.86-.25-.19-.48-.4-.7-.61-.32-.3-.58-.58-.8-.85-.46-.57-.76-1.12-.91-1.69-.2-.74-.14-1.45.19-2.1.18-.36.44-.69.76-.99.29-.27.63-.5 1.01-.71-.17-.04-.34-.08-.5-.13-.72-.22-1.35-.55-1.88-.99A4.76 4.76 0 0 1 14.31 27c-.16-.42-.24-.85-.29-1.22-.06-.46-.11-.93-.16-1.39l-.06-.67-.27-3.37c-.02-.31-.04-.62-.03-.93.01-.51.09-.92.23-1.31.17-.45.44-.81.81-1.05.29-.2.64-.31 1.04-.33.53-.03 1.06.06 1.69.3.78.3 1.54.74 2.3 1.34.37.29.71.6 1.06.92.35.33.68.67 1.01 1.02.42.46.83.93 1.22 1.42.73.9 1.42 1.85 2.05 2.83.28.44.52.83.73 1.2.19-.34.39-.67.6-1 .46-.73.97-1.46 1.5-2.16.48-.63.89-1.14 1.3-1.61.28-.32.56-.64.86-.94.19-.2.38-.4.58-.59.47-.45 1.1-1.03 1.82-1.52.69-.47 1.34-.79 2-1.01.48-.16.93-.23 1.36-.2.79.04 1.4.42 1.76 1.11.19.37.27.75.3 1 .05.32.06.66.04 1.07-.01.28-.03.57-.05.85l-.4 4.54c-.04.36-.08.72-.16 1.07-.14.62-.4 1.21-.78 1.75-.51.72-1.22 1.28-2.1 1.66-.35.15-.72.26-1.11.35.47.25.85.54 1.17.86.39.4.66.85.8 1.34.14.51.14 1.04 0 1.59-.15.53-.41 1.05-.82 1.58-.14.19-.3.37-.46.54-.4.42-.79.78-1.21 1.1-.68.51-1.3.82-1.95.97-.25.06-.5.09-.74.09Zm-4.3-6.12c.21 0 .44.17.51.37l.12.33c.26.78.52 1.41.81 1.97.3.59.59 1.04.92 1.41.29.33.58.58.89.75.5.28 1.01.35 1.57.22.5-.12 1-.37 1.57-.8a8.957 8.957 0 0 0 1.49-1.45c.33-.43.54-.83.65-1.24.1-.37.1-.72 0-1.05-.09-.33-.27-.63-.55-.91-.25-.25-.55-.47-.93-.68-.56-.3-1.2-.53-1.99-.71h-.06c-.34-.01-.46-.02-.59-.11-.13-.09-.21-.24-.22-.4s.06-.31.19-.41c.15-.12.28-.13.79-.11 0 0 .11 0 .12.01h.88c.17-.01.33-.02.5-.04a5.25 5.25 0 0 0 1.57-.4c.72-.31 1.27-.74 1.68-1.32.31-.43.51-.9.62-1.39.07-.32.11-.65.14-.97l.4-4.5c.02-.27.04-.55.05-.82.02-.35 0-.62-.03-.87-.05-.3-.11-.51-.2-.69-.2-.38-.48-.56-.92-.58-.3 0-.64.04-1 .15-.57.18-1.14.47-1.75.88-.66.45-1.25.99-1.69 1.41-.19.18-.37.37-.54.55-.28.3-.56.6-.83.91-.39.45-.79.94-1.25 1.55-.52.68-1 1.39-1.45 2.1-.21.33-.41.67-.61 1.01-.12.22-.24.44-.35.67-.09.19-.33.34-.56.32-.17-.02-.34-.16-.42-.31-.3-.6-.64-1.19-1.09-1.88-.61-.95-1.28-1.87-1.99-2.74a30.9 30.9 0 0 0-1.17-1.36 17.548 17.548 0 0 0-1.95-1.83c-.68-.54-1.35-.93-2.04-1.19-.48-.18-.89-.27-1.27-.24-.22.01-.4.07-.54.16-.19.13-.33.31-.43.57-.1.28-.16.59-.17.99 0 .28.01.56.03.84l.27 3.35.06.65c.05.45.1.91.16 1.36.04.31.1.67.23 1 .25.66.62 1.19 1.13 1.6.43.36.94.62 1.53.8.34.1.69.17 1.09.22.3.03.62.04.89.04.17 0 .31 0 .44-.02h.2c.18 0 .37.11.46.28.08.16.09.36 0 .51-.08.11-.24.21-.38.23-.41.09-.79.2-1.13.33-.73.27-1.26.57-1.69.96-.24.21-.41.44-.54.69-.22.43-.25.89-.12 1.39.12.44.35.87.73 1.33.19.24.42.48.71.75.2.19.41.37.63.55.44.34.82.57 1.21.72.43.17.82.23 1.2.18.27-.03.52-.12.76-.25.36-.19.68-.47 1.01-.87.38-.46.71-1.02 1.05-1.76.22-.48.42-1 .63-1.65.02-.07.05-.14.08-.21.07-.18.29-.36.49-.36h.01Zm4.68-2.3Zm-4.29-3.3Z"/>
</svg>
