<svg xmlns="http://www.w3.org/2000/svg" viewBox="0 0 51.3 51.3">
  <g fill="#FFFFFF">
    <path d="m30.167 27.853-.003.021.225.037c.062.013.124.027.187.038.014.003.03-.007.065-.017-.095-.041-.175-.038-.255-.041a.644.644 0 0 0-.219-.038z"/>
    <path d="M25.65 6.62c-10.523 0-19.03 8.53-19.03 19.03 0 10.5 8.53 19.03 19.03 19.03s19.03-8.53 19.03-19.03c0-10.5-8.53-19.03-19.03-19.03zm11.472 11.328-.004.164-.015.266-.006.143-.014.185-.008.162-.012.144-.01.163-.01.124-.01.164-.011.122-.008.144-.012.122-.008.144-.013.122-.009.143-.012.123-.01.142c-.01.098-.023.195-.032.293-.044.493-.085.985-.13 1.477-.014.142-.04.282-.056.424-.01.098-.011.197-.021.295-.019.174-.04.348-.06.521-.014.111-.026.222-.042.332-.017.112-.042.224-.06.337-.014.086-.016.175-.035.26a4.276 4.276 0 0 1-.861 1.776c-.44.539-.989.933-1.622 1.214-.39.173-.796.294-1.213.377a7.173 7.173 0 0 1-1.541.125l-.133.002-.347-.023a15.99 15.99 0 0 0-.08-.005h-.073c.007.056.043.038.07.042l.037.007.802.216c.21.077.421.149.628.232.482.194.938.436 1.346.762.358.285.66.619.858 1.037.1.209.18.426.2.658.016.183.015.367.022.551-.017.098-.031.196-.053.293-.03.134-.068.267-.102.4l-.008.02c-.047.107-.092.215-.142.32-.166.35-.382.666-.627.964-.084.103-.17.203-.256.304l-.067.065-.286.288-.17.165c-.033.028-.068.055-.1.084a6.943 6.943 0 0 1-1.321.96c-.017.01-.03.025-.046.038l-.164.081-.387.153-.082.034c-.085.02-.17.044-.257.062-.143.028-.287.053-.43.079l-.11.005h-.226l-.164-.016a2.689 2.689 0 0 1-.65-.165c-.067-.027-.138-.047-.207-.07a4.23 4.23 0 0 1-.04-.02c-.013-.014-.022-.033-.038-.041a3.54 3.54 0 0 1-.697-.502c-.024-.022-.056-.035-.084-.053l-.138-.139c-.008-.017-.014-.038-.027-.053-.087-.103-.178-.203-.263-.309-.439-.55-.776-1.163-1.066-1.802-.06-.134-.128-.266-.182-.403-.106-.273-.204-.55-.306-.825-.028-.075-.058-.15-.085-.225l-.13-.367c-.01-.026-.032-.047-.057-.081-.019.03-.034.047-.041.067-.049.133-.095.268-.143.4-.087.237-.173.474-.263.709-.084.219-.165.439-.262.652-.116.256-.247.506-.374.758a6.377 6.377 0 0 1-.656 1.033c-.116.151-.242.294-.364.44l-.13.125a4.21 4.21 0 0 1-.632.49c-.058.033-.115.07-.172.104l-.074.042c-.023.007-.046.011-.067.02a2.896 2.896 0 0 1-.914.23h-.245a48.94 48.94 0 0 1-.143-.013 1.61 1.61 0 0 1-.381-.066c-.084-.023-.17-.04-.254-.06l-.06-.008c-.03-.018-.059-.037-.09-.053-.023-.012-.049-.018-.073-.027l-.268-.097-.172-.098c-.007-.007-.012-.016-.02-.02a6.601 6.601 0 0 1-1.188-.837c-.022-.019-.05-.03-.074-.046l-.009-.001a.472.472 0 0 0-.213-.194l-.1-.097a1.265 1.265 0 0 0-.31-.31l-.076-.08c-.018-.028-.032-.06-.053-.085-.064-.077-.133-.152-.197-.23a5.149 5.149 0 0 1-.465-.659 3.062 3.062 0 0 1-.267-.532c-.094-.266-.185-.537-.197-.824v-.41l.051-.293c.01-.053.024-.104.036-.157l.005-.013-.002-.006c.021-.06.038-.12.065-.177.11-.224.227-.446.389-.64.027-.032.047-.07.071-.106l.002-.008c.114-.082.21-.182.293-.295l-.001.001c.052-.036.106-.069.156-.108a5.515 5.515 0 0 1 1.357-.772c.122-.05.244-.098.367-.146l.225-.08c.013 0 .027 0 .04-.003l.781-.217a8.36 8.36 0 0 1 .158-.031l.226-.04.226-.04-.005-.026c-.073.015-.146.03-.219.047l-.273.03-.055.01-.08.005-.39.022-.553-.001-.163-.006-.143-.013a53.615 53.615 0 0 0-.144-.01l-.11-.017c-.162-.024-.325-.041-.486-.072a6.603 6.603 0 0 1-.495-.113c-.13-.035-.256-.081-.382-.125-.073-.025-.145-.054-.217-.083a4.583 4.583 0 0 1-1.24-.737c-.017-.014-.04-.023-.06-.035l-.019-.016c-.023-.027-.045-.057-.072-.082a4.201 4.201 0 0 1-.892-1.194 4.72 4.72 0 0 1-.28-.703 3.017 3.017 0 0 1-.112-.492c-.028-.197-.07-.393-.093-.591-.046-.395-.084-.79-.122-1.185-.045-.47-.086-.94-.13-1.411-.016-.183-.035-.365-.053-.548a52.188 52.188 0 0 0-.01-.142l-.012-.122-.008-.144-.011-.104-.01-.162-.01-.104a35.746 35.746 0 0 0-.022-.284l-.009-.164-.011-.123-.01-.161-.011-.146a71.12 71.12 0 0 0-.008-.164l-.014-.184-.006-.143-.015-.266a68.77 68.77 0 0 0-.004-.164v-.143l.004-.184c.006-.054.016-.108.018-.162.007-.28.075-.548.163-.811.066-.199.167-.377.292-.545.203-.275.487-.42.808-.501.162-.042.329-.054.496-.048.196.007.387.043.58.073.23.035.443.118.659.193.296.103.58.238.858.387.676.365 1.287.82 1.86 1.328.923.815 1.75 1.72 2.527 2.673A29.858 29.858 0 0 1 25 23.844c.21.355.4.722.598 1.083l.054.103.228-.452c.089-.157.176-.315.266-.471.71-1.23 1.52-2.39 2.397-3.506.157-.2.318-.4.477-.599l.04-.048c.005-.003.012-.006.016-.011l.542-.63c.02-.023.03-.053.045-.079l.005-.006a.489.489 0 0 0 .194-.213l.218-.21c.061-.062.12-.126.18-.19l.058-.057c.155-.156.312-.312.467-.47.075-.076.146-.157.22-.236a.516.516 0 0 0 .226-.208l-.001.002c.029-.017.06-.03.085-.05.075-.063.147-.129.22-.192a9.57 9.57 0 0 1 1.722-1.202c.573-.305 1.167-.55 1.817-.632l.064-.009.14-.01h.205l.14.014.044.007c.05-.042.078.017.117.026.098.021.194.052.291.08l.022.016c.149.05.272.142.392.239l.007.006c.048.053.098.104.143.16.179.216.29.468.355.737.05.204.075.414.111.621l.014.164.004.205v.122z"/>
  </g>
</svg>