<svg xmlns="http://www.w3.org/2000/svg" viewBox="0 0 51.26 51.26">
  <g fill="#FFFFFF">
    <path d="M40.17 19.24H11.09a.63.63 0 0 1-.63-.63v-4.47a2.07 2.07 0 0 1 2.07-2.06h26.2a2.06 2.06 0 0 1 2.06 2.06v4.47a.63.63 0 0 1-.62.63ZM11.71 18h27.83v-3.86a.81.81 0 0 0-.81-.81h-26.2a.82.82 0 0 0-.82.81Z"/>
    <path d="M38.73 40.59h-26.2a2.07 2.07 0 0 1-2.07-2.06V18.61a.63.63 0 0 1 .63-.62h29.08a.62.62 0 0 1 .62.62v19.92a2.06 2.06 0 0 1-2.06 2.06Zm-27-21.35v19.29a.82.82 0 0 0 .82.81h26.2a.81.81 0 0 0 .81-.81V19.24ZM16 15.8a.62.62 0 0 1-.62-.62v-4.53a.63.63 0 0 1 1.25 0v4.53a.63.63 0 0 1-.63.62ZM35.31 15.8a.63.63 0 0 1-.63-.62v-4.53a.63.63 0 0 1 1.25 0v4.53a.62.62 0 0 1-.62.62Z"/>
    <circle cx="19.85" cy="23.5" r=".91"/>
    <circle cx="23.7" cy="23.5" r=".91"/>
    <circle cx="27.55" cy="23.5" r=".91"/>
    <circle cx="31.41" cy="23.5" r=".91"/>
    <circle cx="35.26" cy="23.5" r=".91"/>
    <circle cx="16" cy="27.36" r=".91"/>
    <circle cx="19.83" cy="27.36" r=".91"/>
    <circle cx="23.68" cy="27.36" r=".91"/>
    <circle cx="27.53" cy="27.36" r=".91"/>
    <circle cx="31.38" cy="27.36" r=".91"/>
    <circle cx="35.26" cy="27.36" r=".91"/>
    <circle cx="16" cy="31.22" r=".91"/>
    <circle cx="19.83" cy="31.22" r=".91"/>
    <circle cx="23.68" cy="31.22" r=".91"/>
    <circle cx="27.55" cy="31.22" r=".91"/>
    <circle cx="31.41" cy="31.22" r=".91"/>
    <circle cx="35.26" cy="31.22" r=".91"/>
    <circle cx="16" cy="35.08" r=".91"/>
    <circle cx="19.85" cy="35.08" r=".91"/>
    <circle cx="23.7" cy="35.08" r=".91"/>
    <circle cx="27.55" cy="35.08" r=".91"/>
    <circle cx="31.41" cy="35.08" r=".91"/>
  </g>
</svg>
