<svg xmlns="http://www.w3.org/2000/svg" viewBox="0 0 51.26 51.26"><defs><style>.cls-1{fill:#fff;}.cls-2{fill:#ececed;}</style></defs><g id="Layer_2" data-name="Layer 2"><path class="cls-1" d="M11.09,19.24V39.16a1.43,1.43,0,0,0,1.43,1.44H38.73a1.43,1.43,0,0,0,1.44-1.44V19.24ZM16,36.62a.91.91,0,1,1,.91-.91A.91.91,0,0,1,16,36.62Zm0-3.86a.91.91,0,1,1,.91-.91A.91.91,0,0,1,16,32.76Zm0-3.86a.91.91,0,1,1,.91-.91A.91.91,0,0,1,16,28.9Zm3.83,2a.91.91,0,1,1-.91.91A.9.9,0,0,1,19.83,30.94Zm-.91-3a.91.91,0,1,1,.91.91A.91.91,0,0,1,18.92,28Zm.93,8.63a.91.91,0,1,1,.91-.91A.91.91,0,0,1,19.85,36.62Zm0-11.58a.91.91,0,1,1,.91-.91A.91.91,0,0,1,19.85,25Zm3.83,5.9a.91.91,0,1,1-.91.91A.91.91,0,0,1,23.68,30.94Zm-.91-3a.91.91,0,1,1,.91.91A.91.91,0,0,1,22.77,28Zm.93,8.63a.91.91,0,1,1,.91-.91A.91.91,0,0,1,23.7,36.62ZM23.7,25a.91.91,0,1,1,.91-.91A.91.91,0,0,1,23.7,25Zm3.85,11.58a.91.91,0,1,1,.91-.91A.9.9,0,0,1,27.55,36.62ZM26.62,28a.91.91,0,1,1,.91.91A.91.91,0,0,1,26.62,28Zm.93,4.77a.91.91,0,1,1,.91-.91A.9.9,0,0,1,27.55,32.76Zm0-7.72a.91.91,0,1,1,.91-.91A.9.9,0,0,1,27.55,25Zm3.86,11.58a.91.91,0,1,1,.9-.91A.9.9,0,0,1,31.41,36.62ZM30.47,28a.91.91,0,1,1,.91.91A.91.91,0,0,1,30.47,28Zm.94,4.77a.91.91,0,1,1,.9-.91A.91.91,0,0,1,31.41,32.76Zm0-7.72a.91.91,0,1,1,.9-.91A.91.91,0,0,1,31.41,25Zm3.85,7.72a.91.91,0,1,1,.91-.91A.91.91,0,0,1,35.26,32.76Zm0-3.86a.91.91,0,1,1,.91-.91A.91.91,0,0,1,35.26,28.9Zm0-3.86a.91.91,0,1,1,.91-.91A.91.91,0,0,1,35.26,25Z"/><path class="cls-1" d="M16,16.44a.63.63,0,0,0,.63-.63V11.28a.63.63,0,0,0-1.25,0v4.53A.63.63,0,0,0,16,16.44Z"/><path class="cls-1" d="M35.31,16.44a.63.63,0,0,0,.62-.63V11.28a.63.63,0,0,0-1.25,0v4.53A.63.63,0,0,0,35.31,16.44Z"/><path class="cls-2" d="M38.73,13.33h-2.8v2.48a.63.63,0,1,1-1.25,0V13.33H16.6v2.48a.63.63,0,1,1-1.25,0V13.33H12.52a1.43,1.43,0,0,0-1.43,1.44v4.47H40.17V14.77A1.43,1.43,0,0,0,38.73,13.33Z"/><path class="cls-2" d="M19.85,23.22a.91.91,0,1,0,.91.91A.91.91,0,0,0,19.85,23.22Z"/><path class="cls-2" d="M23.7,23.22a.91.91,0,1,0,.91.91A.91.91,0,0,0,23.7,23.22Z"/><path class="cls-2" d="M27.55,23.22a.91.91,0,1,0,.91.91A.9.9,0,0,0,27.55,23.22Z"/><path class="cls-2" d="M31.41,23.22a.91.91,0,1,0,.9.91A.91.91,0,0,0,31.41,23.22Z"/><path class="cls-2" d="M35.26,23.22a.91.91,0,1,0,.91.91A.91.91,0,0,0,35.26,23.22Z"/><path class="cls-2" d="M16,27.08a.91.91,0,1,0,.91.91A.91.91,0,0,0,16,27.08Z"/><path class="cls-2" d="M19.83,28.9a.91.91,0,1,0-.91-.91A.9.9,0,0,0,19.83,28.9Z"/><path class="cls-2" d="M23.68,28.9a.91.91,0,1,0-.91-.91A.91.91,0,0,0,23.68,28.9Z"/><path class="cls-2" d="M27.53,28.9a.91.91,0,1,0-.91-.91A.91.91,0,0,0,27.53,28.9Z"/><path class="cls-2" d="M31.38,28.9a.91.91,0,1,0-.91-.91A.91.91,0,0,0,31.38,28.9Z"/><path class="cls-2" d="M35.26,27.08a.91.91,0,1,0,.91.91A.91.91,0,0,0,35.26,27.08Z"/><path class="cls-2" d="M16,30.94a.91.91,0,1,0,.91.91A.91.91,0,0,0,16,30.94Z"/><circle class="cls-2" cx="19.83" cy="31.85" r="0.91"/><path class="cls-2" d="M23.68,32.76a.91.91,0,1,0-.91-.91A.91.91,0,0,0,23.68,32.76Z"/><circle class="cls-2" cx="27.55" cy="31.85" r="0.91"/><circle class="cls-2" cx="31.41" cy="31.85" r="0.91"/><path class="cls-2" d="M35.26,30.94a.91.91,0,1,0,.91.91A.91.91,0,0,0,35.26,30.94Z"/><path class="cls-2" d="M16,34.81a.91.91,0,1,0,.91.9A.9.9,0,0,0,16,34.81Z"/><path class="cls-2" d="M19.85,34.81a.91.91,0,1,0,.91.9A.9.9,0,0,0,19.85,34.81Z"/><path class="cls-2" d="M23.7,34.81a.91.91,0,1,0,.91.9A.9.9,0,0,0,23.7,34.81Z"/><path class="cls-2" d="M27.55,34.81a.91.91,0,1,0,.91.9A.9.9,0,0,0,27.55,34.81Z"/><path class="cls-2" d="M31.41,34.81a.91.91,0,1,0,.9.9A.9.9,0,0,0,31.41,34.81Z"/></g></svg>