<svg xmlns="http://www.w3.org/2000/svg" viewBox="0 0 51.26 51.26"><defs><style>.cls-1{fill:#fff;}</style></defs><g id="Layer_2" data-name="Layer 2"><path class="cls-1" d="M32.62,5.45h-14a4.24,4.24,0,0,0-4.23,4.23V40.94a4.24,4.24,0,0,0,4.23,4.23h14a4.24,4.24,0,0,0,4.23-4.23V9.68A4.24,4.24,0,0,0,32.62,5.45Zm-14,1.25h14a3,3,0,0,1,3,3v1.85H15.66V9.68A3,3,0,0,1,18.64,6.7Zm17,6.08V37.64H15.66V12.78Zm-3,31.14h-14a3,3,0,0,1-3-3v-2H35.6v2A3,3,0,0,1,32.62,43.92Z"/><path class="cls-1" d="M25.63,40.22a1.13,1.13,0,1,0,1.13,1.13A1.13,1.13,0,0,0,25.63,40.22Z"/></g></svg>