<?xml version="1.0" encoding="UTF-8"?>
<svg id="Layer_2" data-name="Layer 2" xmlns="http://www.w3.org/2000/svg" viewBox="0 0 40.38 39.53">
  <defs>
    <style>
      .cls-1 {
        fill: #fff;
      }
    </style>
  </defs>
  <g id="Layer_1-2" data-name="Layer 1">
    <path class="cls-1" d="m20.19,39.53C9.06,39.53,0,30.67,0,19.77S9.06,0,20.19,0s20.19,8.87,20.19,19.77-9.06,19.77-20.19,19.77Zm0-38.03C9.88,1.5,1.5,9.69,1.5,19.77s8.38,18.27,18.69,18.27,18.69-8.19,18.69-18.27S30.5,1.5,20.19,1.5Zm-3.14,29.44c-.51,0-1.02-.19-1.41-.57l-8.15-7.97c-.38-.37-.59-.87-.59-1.4s.21-1.03.59-1.4l1.77-1.74c.78-.76,2.04-.76,2.82,0l4.97,4.86,11.24-10.99c.78-.76,2.04-.76,2.82,0l1.77,1.73c.38.37.59.87.59,1.4,0,.53-.21,1.03-.59,1.4l-14.42,14.11c-.39.38-.9.57-1.41.57Zm-6.38-12.16c-.13,0-.26.05-.36.15l-1.77,1.73c-.09.09-.14.21-.14.33s.05.24.14.33l8.15,7.97c.2.2.53.2.72,0l14.42-14.11c.09-.09.14-.21.14-.33s-.05-.24-.14-.33l-1.77-1.73c-.2-.2-.52-.2-.72,0l-12.29,12.02-6.02-5.89c-.1-.1-.23-.15-.36-.15Z"/>
  </g>
</svg>