<?xml version="1.0" encoding="UTF-8"?>
<svg id="Layer_2" data-name="Layer 2" xmlns="http://www.w3.org/2000/svg" viewBox="0 0 38.88 38.03">
  <defs>
    <style>
      .cls-1 {
        fill: #fff;
      }

      .cls-2 {
        fill: #ececed;
      }
    </style>
  </defs>
  <g id="Layer_1-2" data-name="Layer 1">
    <path class="cls-2" d="m38.88,19.02c0,10.5-8.7,19.02-19.44,19.02S0,29.52,0,19.02,8.7,0,19.44,0s19.44,8.51,19.44,19.02Zm-21.69,10.07l14.42-14.11c.49-.48.49-1.26,0-1.74l-1.77-1.74c-.49-.48-1.28-.48-1.77,0l-11.76,11.51-5.49-5.37c-.49-.48-1.28-.48-1.77,0l-1.77,1.74c-.49.48-.49,1.26,0,1.74l8.15,7.97c.49.48,1.28.48,1.77,0Z"/>
    <path class="cls-1" d="m17.19,29.09l14.42-14.11c.49-.48.49-1.26,0-1.74l-1.77-1.74c-.49-.48-1.28-.48-1.77,0l-11.76,11.51-5.49-5.37c-.49-.48-1.28-.48-1.77,0l-1.77,1.74c-.49.48-.49,1.26,0,1.74l8.15,7.97c.49.48,1.28.48,1.77,0Z"/>
  </g>
</svg>