<svg xmlns="http://www.w3.org/2000/svg" viewBox="0 0 51.26 51.26">
  <g fill="#FFFFFF">
    <path d="M37.92,9.77H13.33a4.69,4.69,0,0,0-4.68,4.68V28.18a4.69,4.69,0,0,0,4.68,4.68h4.08l-.48,6.08a1.75,1.75,0,0,0,1,1.75,1.81,1.81,0,0,0,.75.16A1.75,1.75,0,0,0,20,40.32l7.37-7.46h10.6a4.69,4.69,0,0,0,4.69-4.68V14.45A4.69,4.69,0,0,0,37.92,9.77Zm3.44,18.41a3.44,3.44,0,0,1-3.44,3.43H26.79l-7.73,7.84a.5.5,0,0,1-.59.1.51.51,0,0,1-.3-.51l.59-7.43H13.33A3.44,3.44,0,0,1,9.9,28.18V14.45A3.44,3.44,0,0,1,13.33,11H37.92a3.44,3.44,0,0,1,3.44,3.43Z"/>
    <path d="M19.48,19.6a1.83,1.83,0,1,0,1.83,1.83A1.83,1.83,0,0,0,19.48,19.6Z"/>
    <path d="M25.63,19.6a1.83,1.83,0,1,0,1.83,1.83A1.83,1.83,0,0,0,25.63,19.6Z"/>
    <path d="M31.78,19.6a1.83,1.83,0,1,0,1.83,1.83A1.83,1.83,0,0,0,31.78,19.6Z"/>
  </g>
</svg>