<svg xmlns="http://www.w3.org/2000/svg" viewBox="0 0 51.26 51.26"><defs><style>.cls-1{fill:#ececed;}.cls-2{fill:#fff;}</style></defs><g id="Layer_2" data-name="Layer 2"><path class="cls-1" d="M31.78,23.58A1.83,1.83,0,1,0,30,21.75,1.83,1.83,0,0,0,31.78,23.58Z"/><path class="cls-1" d="M25.63,23.58a1.83,1.83,0,1,0-1.83-1.83A1.83,1.83,0,0,0,25.63,23.58Z"/><path class="cls-1" d="M19.48,23.58a1.83,1.83,0,1,0-1.83-1.83A1.83,1.83,0,0,0,19.48,23.58Z"/><path class="cls-2" d="M37.92,10.71H13.33a4.08,4.08,0,0,0-4.06,4.06V28.5a4.08,4.08,0,0,0,4.06,4.06h4.76l-.54,6.75a1.14,1.14,0,0,0,1.95.89l7.56-7.64H37.92A4.08,4.08,0,0,0,42,28.5V14.77A4.08,4.08,0,0,0,37.92,10.71Zm-20.27,11a1.83,1.83,0,1,1,1.83,1.83A1.83,1.83,0,0,1,17.65,21.75Zm6.15,0a1.83,1.83,0,1,1,1.83,1.83A1.83,1.83,0,0,1,23.8,21.75Zm8,1.83a1.83,1.83,0,1,1,1.83-1.83A1.83,1.83,0,0,1,31.78,23.58Z"/></g></svg>