<svg xmlns="http://www.w3.org/2000/svg" viewBox="0 0 51.26 51.26"><defs><style>.cls-1{fill:#fff;}</style></defs><g id="Layer_2" data-name="Layer 2"><path class="cls-1" d="M37.92,10.39H13.33a4.08,4.08,0,0,0-4.06,4.06V28.18a4.08,4.08,0,0,0,4.06,4.06h4.76L17.55,39a1.14,1.14,0,0,0,1.95.89l7.56-7.64H37.92A4.08,4.08,0,0,0,42,28.18V14.45A4.08,4.08,0,0,0,37.92,10.39ZM19.48,23.26a1.83,1.83,0,1,1,1.83-1.83A1.83,1.83,0,0,1,19.48,23.26Zm6.15,0a1.83,1.83,0,1,1,1.83-1.83A1.83,1.83,0,0,1,25.63,23.26Zm6.15,0a1.83,1.83,0,1,1,1.83-1.83A1.83,1.83,0,0,1,31.78,23.26Z"/></g></svg>