<svg xmlns="http://www.w3.org/2000/svg" viewBox="0 0 51.26 51.26">
  <g fill="#FFFFFF">
    <path d="M10.24 13.77h5a.63.63 0 1 0 0-1.25h-5a.63.63 0 0 0 0 1.25ZM10.24 25.78h5a.63.63 0 1 0 0-1.25h-5a.63.63 0 0 0 0 1.25Z"/>
    <path d="M38.32 6.34h-27v5.44h3.18a1.53 1.53 0 0 1 .71-.18 1.56 1.56 0 1 1 0 3.11 1.41 1.41 0 0 1-.71-.18h-3.23v9.26h3.23a1.53 1.53 0 0 1 .71-.18 1.56 1.56 0 1 1 0 3.11 1.41 1.41 0 0 1-.71-.18h-3.23v9.26h3.23a1.53 1.53 0 0 1 .71-.18 1.56 1.56 0 1 1 0 3.11 1.41 1.41 0 0 1-.71-.18h-3.23v6.39h27.05a3.32 3.32 0 0 0 3.32-3.32V9.66a3.32 3.32 0 0 0-3.32-3.32Zm2.07 35.26a2.07 2.07 0 0 1-2.07 2.07H18.54V7.59h19.78a2.07 2.07 0 0 1 2.07 2.07Z"/>
    <path d="M15.84 37.17a.63.63 0 0 0-.63-.63h-5a.63.63 0 0 0 0 1.25h5a.63.63 0 0 0 .63-.62Z"/>
    <circle cx="29.32" cy="20.71" r="3.98"/>
    <path d="M29.32 26.17a7.37 7.37 0 0 0-6.09 3.21 2.46 2.46 0 0 0-.44 1.39v2.83a1.38 1.38 0 0 0 1.38 1.4h10.31a1.37 1.37 0 0 0 1.37-1.37v-2.86a2.45 2.45 0 0 0-.43-1.39 7.37 7.37 0 0 0-6.1-3.21Z"/>
  </g>
</svg>
