<svg xmlns="http://www.w3.org/2000/svg" viewBox="0 0 51.26 51.26">
  <g fill="#FFFFFF">
    <path d="M38.31,6.34H11.26v5.38h4a1.43,1.43,0,0,1,0,2.86h-4v9.15h4a1.43,1.43,0,1,1,0,2.86h-4v9.15h4a1.43,1.43,0,0,1,0,2.86h-4v6.32H38.31a3.33,3.33,0,0,0,3.33-3.32V9.66A3.33,3.33,0,0,0,38.31,6.34ZM12.51,39.85h2.7a2.68,2.68,0,0,0,0-5.36h-2.7V27.84h2.7a2.68,2.68,0,1,0,0-5.36h-2.7V15.83h2.7a2.68,2.68,0,0,0,0-5.36h-2.7V7.59h6.41V43.67H12.51ZM40.39,41.6a2.08,2.08,0,0,1-2.08,2.07H20.17V7.59H38.31a2.07,2.07,0,0,1,2.08,2.07Z"/>
    <path d="M10.24,13.77h5a.63.63,0,1,0,0-1.25h-5a.63.63,0,0,0,0,1.25Z"/>
    <path d="M10.24,25.78h5a.63.63,0,1,0,0-1.25h-5a.63.63,0,0,0,0,1.25Z"/>
    <path d="M15.84,37.17a.63.63,0,0,0-.63-.63h-5a.63.63,0,0,0,0,1.25h5A.63.63,0,0,0,15.84,37.17Z"/>
    <path d="M30.4,25.31a4.6,4.6,0,1,0-4.6-4.6A4.61,4.61,0,0,0,30.4,25.31Zm0-7.95a3.35,3.35,0,1,1-3.35,3.35A3.36,3.36,0,0,1,30.4,17.36Z"/>
    <path d="M30.4,25.54A8,8,0,0,0,23.8,29a3,3,0,0,0-.55,1.74v2.82a2,2,0,0,0,2,2H35.56a2,2,0,0,0,2-2V30.77A3,3,0,0,0,37,29,8,8,0,0,0,30.4,25.54Zm5.91,8.05a.75.75,0,0,1-.75.75H25.25a.75.75,0,0,1-.75-.75V30.77a1.81,1.81,0,0,1,.33-1,6.76,6.76,0,0,1,11.15,0,1.83,1.83,0,0,1,.33,1Z"/>
  </g>
</svg>