<svg xmlns="http://www.w3.org/2000/svg" viewBox="0 0 51.26 51.26"><defs><style>.cls-1{fill:#fff;}</style></defs><g id="Layer_2" data-name="Layer 2"><path class="cls-1" d="M10.24,13.77h5a.63.63,0,1,0,0-1.25h-5a.63.63,0,0,0,0,1.25Z"/><path class="cls-1" d="M10.24,25.78h5a.63.63,0,1,0,0-1.25h-5a.63.63,0,0,0,0,1.25Z"/><path class="cls-1" d="M38.32,6.34h-27v5.44H14.5a1.53,1.53,0,0,1,.71-.18,1.56,1.56,0,1,1,0,3.11,1.41,1.41,0,0,1-.71-.18H11.27v9.26H14.5a1.53,1.53,0,0,1,.71-.18,1.56,1.56,0,1,1,0,3.11,1.41,1.41,0,0,1-.71-.18H11.27v9.26H14.5a1.53,1.53,0,0,1,.71-.18,1.56,1.56,0,1,1,0,3.11,1.41,1.41,0,0,1-.71-.18H11.27v6.39H38.32a3.32,3.32,0,0,0,3.32-3.32V9.66A3.32,3.32,0,0,0,38.32,6.34ZM40.39,41.6a2.07,2.07,0,0,1-2.07,2.07H18.54V7.59H38.32a2.07,2.07,0,0,1,2.07,2.07Z"/><path class="cls-1" d="M15.84,37.17a.63.63,0,0,0-.63-.63h-5a.63.63,0,0,0,0,1.25h5A.63.63,0,0,0,15.84,37.17Z"/><circle class="cls-1" cx="29.32" cy="20.71" r="3.98"/><path class="cls-1" d="M29.32,26.17a7.37,7.37,0,0,0-6.09,3.21,2.46,2.46,0,0,0-.44,1.39V33.6A1.38,1.38,0,0,0,24.17,35H34.48a1.37,1.37,0,0,0,1.37-1.37V30.77a2.45,2.45,0,0,0-.43-1.39A7.37,7.37,0,0,0,29.32,26.17Z"/></g></svg>