<svg xmlns="http://www.w3.org/2000/svg" viewBox="0 0 51.26 51.26"><defs><style>.cls-1{fill:#fff;}.cls-2{fill:#ececed;}</style></defs><g id="Layer_2" data-name="Layer 2"><path class="cls-1" d="M38.63,6.65H18.85v38.6H38.63a2.71,2.71,0,0,0,2.69-2.7V9.34A2.7,2.7,0,0,0,38.63,6.65Zm-9,10.4a4,4,0,1,1-4,4A4,4,0,0,1,29.64,17.05Zm6.53,16.86a1.38,1.38,0,0,1-1.38,1.38H24.48a1.37,1.37,0,0,1-1.37-1.38V31.09a2.45,2.45,0,0,1,.43-1.39,7.39,7.39,0,0,1,12.19,0,2.46,2.46,0,0,1,.44,1.39Z"/><path class="cls-2" d="M10.56,14.09h5a.63.63,0,1,0,0-1.25h-5a.63.63,0,1,0,0,1.25Z"/><path class="cls-2" d="M10.56,26.1h5a.63.63,0,1,0,0-1.25h-5a.63.63,0,1,0,0,1.25Z"/><path class="cls-2" d="M17.89,6.65h-6.3v5.44h3.22a1.53,1.53,0,0,1,.71-.18,1.56,1.56,0,1,1,0,3.11,1.53,1.53,0,0,1-.71-.18H11.59V24.1h3.22a1.53,1.53,0,0,1,.71-.18,1.56,1.56,0,1,1,0,3.11,1.53,1.53,0,0,1-.71-.18H11.59v9.26h3.22a1.53,1.53,0,0,1,.71-.18,1.56,1.56,0,1,1,0,3.11,1.53,1.53,0,0,1-.71-.18H11.59v6.39h7.26V6.65Z"/><path class="cls-2" d="M16.15,37.49a.63.63,0,0,0-.63-.63h-5a.63.63,0,1,0,0,1.25h5A.63.63,0,0,0,16.15,37.49Z"/><path class="cls-2" d="M29.64,25a4,4,0,1,0-4-4A4,4,0,0,0,29.64,25Z"/><path class="cls-2" d="M35.73,29.7a7.39,7.39,0,0,0-12.19,0,2.45,2.45,0,0,0-.43,1.39v2.82a1.37,1.37,0,0,0,1.37,1.38H34.79a1.38,1.38,0,0,0,1.38-1.38V31.09A2.46,2.46,0,0,0,35.73,29.7Z"/></g></svg>