<svg xmlns="http://www.w3.org/2000/svg" viewBox="0 0 51.26 51.26"><defs><style>.cls-1{fill:#fff;}</style></defs><g id="Layer_2" data-name="Layer 2"><path class="cls-1" d="M32.84,7.41H20.72V7.34a3.06,3.06,0,0,0-6.11,0v.07H10.13V46.33h31V15.69Zm-17-.07a1.81,1.81,0,0,1,3.61,0v.07H15.86Zm24,37.74H11.38V8.66h3.23v7.18A4.12,4.12,0,0,0,18.73,20a4,4,0,0,0,3.93-4.11V10.11a.63.63,0,0,0-1.25,0v5.73a2.72,2.72,0,0,1-2.68,2.86,2.87,2.87,0,0,1-2.87-2.86V8.66h3.61v6.88a.88.88,0,1,1-1.75,0V11.09a.63.63,0,1,0-1.25,0v4.45a2.13,2.13,0,1,0,4.25,0V8.66H32.33l.26.26v7h7l.25.26Z"/><path class="cls-1" d="M35.1,24.4H15.82a.63.63,0,1,0,0,1.25H35.1a.63.63,0,1,0,0-1.25Z"/><path class="cls-1" d="M35.1,29.55H15.82a.63.63,0,1,0,0,1.25H35.1a.63.63,0,1,0,0-1.25Z"/><path class="cls-1" d="M35.1,34.7H15.82a.63.63,0,1,0,0,1.25H35.1a.63.63,0,1,0,0-1.25Z"/><path class="cls-1" d="M35.1,39.85H15.82a.63.63,0,1,0,0,1.25H35.1a.63.63,0,1,0,0-1.25Z"/></g></svg>