<svg xmlns="http://www.w3.org/2000/svg" viewBox="0 0 51.26 51.26"><defs><style>.cls-1{fill:none;}.cls-2{fill:#fff;}.cls-3{fill:#ececed;}</style></defs><g id="Layer_2" data-name="Layer 2"><path class="cls-1" d="M17.67,6.17A1.81,1.81,0,0,0,15.86,8v.69h3.61V8A1.81,1.81,0,0,0,17.67,6.17Z"/><path class="cls-2" d="M32.59,16.58V8.66H20.72v7.51a2.13,2.13,0,1,1-4.25,0V11.72a.63.63,0,1,1,1.25,0v4.45a.88.88,0,1,0,1.75,0V8.66H15.86v7.81a2.87,2.87,0,0,0,2.86,2.86,2.72,2.72,0,0,0,2.69-2.86V10.75a.63.63,0,1,1,1.25,0v5.72a4,4,0,0,1-3.94,4.11,4.12,4.12,0,0,1-4.11-4.11V8.66H10.76V46.33H40.5V16.58ZM35.1,41.73H15.81a.63.63,0,0,1,0-1.25H35.1a.63.63,0,1,1,0,1.25Zm0-5.15H15.81a.63.63,0,0,1,0-1.25H35.1a.63.63,0,1,1,0,1.25Zm0-5.15H15.81a.63.63,0,0,1,0-1.25H35.1a.63.63,0,1,1,0,1.25Zm0-5.15H15.81a.63.63,0,0,1,0-1.25H35.1a.63.63,0,1,1,0,1.25Z"/><polygon class="cls-3" points="32.59 8.66 32.59 16.58 40.5 16.58 32.59 8.66"/><path class="cls-3" d="M35.1,25H15.81a.63.63,0,0,0,0,1.25H35.1a.63.63,0,1,0,0-1.25Z"/><path class="cls-3" d="M35.1,30.18H15.81a.63.63,0,0,0,0,1.25H35.1a.63.63,0,1,0,0-1.25Z"/><path class="cls-3" d="M35.1,35.33H15.81a.63.63,0,0,0,0,1.25H35.1a.63.63,0,1,0,0-1.25Z"/><path class="cls-3" d="M35.1,40.48H15.81a.63.63,0,0,0,0,1.25H35.1a.63.63,0,1,0,0-1.25Z"/><path class="cls-3" d="M18.72,20.58a4,4,0,0,0,3.94-4.11V10.75a.63.63,0,1,0-1.25,0v5.72a2.72,2.72,0,0,1-2.69,2.86,2.87,2.87,0,0,1-2.86-2.86V8a1.81,1.81,0,0,1,3.61,0v8.2a.88.88,0,1,1-1.75,0V11.72a.63.63,0,1,0-1.25,0v4.45a2.13,2.13,0,1,0,4.25,0V8a3.06,3.06,0,0,0-6.11,0v8.5A4.12,4.12,0,0,0,18.72,20.58Z"/></g></svg>