<svg xmlns="http://www.w3.org/2000/svg" viewBox="0 0 51.26 51.26">
  <g fill="#FFFFFF">
    <path d="M40.94,15.51h0L33,7.59h0l-.19-.18H20.71V7.34a3,3,0,0,0-6.1,0v.07H10.13V46.33h31V15.69Zm-7.73-6L39,15.32H33.21ZM15.86,7.34a1.8,1.8,0,0,1,3.6,0v.07h-3.6ZM11.38,45.08V8.66h3.23v7.18A4.12,4.12,0,0,0,18.72,20a4,4,0,0,0,3.94-4.11V10.11a.63.63,0,0,0-1.25,0v5.73a2.72,2.72,0,0,1-2.69,2.86,2.87,2.87,0,0,1-2.86-2.86V8.66h3.6v6.88a.87.87,0,1,1-1.74,0V11.09a.63.63,0,1,0-1.25,0v4.45a2.12,2.12,0,1,0,4.24,0V8.66H32V16a.62.62,0,0,0,.62.62h7.29V45.08Z"/>
    <path d="M35.1,24.4H15.81a.63.63,0,0,0,0,1.25H35.1a.63.63,0,1,0,0-1.25Z"/>
    <path d="M35.1,29.55H15.81a.63.63,0,0,0,0,1.25H35.1a.63.63,0,1,0,0-1.25Z"/>
    <path d="M35.1,34.7H15.81a.63.63,0,0,0,0,1.25H35.1a.63.63,0,1,0,0-1.25Z"/>
    <path d="M35.1,39.85H15.81a.63.63,0,0,0,0,1.25H35.1a.63.63,0,1,0,0-1.25Z"/>
  </g>
</svg>