<svg xmlns="http://www.w3.org/2000/svg" viewBox="0 0 51.26 51.26"><defs><style>.cls-1{fill:none;}.cls-2{fill:#fff;}.cls-3{fill:#ececed;}</style></defs><g id="Layer_2" data-name="Layer 2"><path class="cls-1" d="M29.72,7.56a.73.73,0,0,0,.38-1,.75.75,0,0,0-.4-.4.73.73,0,0,0-.56,0,8.33,8.33,0,0,0-1.5,1.44A8.49,8.49,0,0,0,29.72,7.56Z"/><path class="cls-1" d="M23.9,7.65a8.33,8.33,0,0,0-1.5-1.44.71.71,0,0,0-.28-.06.67.67,0,0,0-.28.06.7.7,0,0,0-.4.39.74.74,0,0,0,.39,1A9.15,9.15,0,0,0,23.9,7.65Z"/><path class="cls-2" d="M20.63,43.38s0-.05,0-.08H12.07a.39.39,0,0,0,.06.13Z"/><path class="cls-2" d="M30.62,43.38l8.51,0a.81.81,0,0,0,.06-.13H30.62Z"/><path class="cls-2" d="M21.11,43.3h-.47s0,.06,0,.08l-8.5,0a.39.39,0,0,1-.06-.13h-.33a.9.9,0,0,0-.9.9v2.13a.9.9,0,0,0,.9.9h9.37a.91.91,0,0,0,.9-.9V44.2A.9.9,0,0,0,21.11,43.3Z"/><path class="cls-2" d="M39.52,43.3h-.33a.81.81,0,0,1-.06.13l-8.51,0V43.3h-.47a.9.9,0,0,0-.9.9v2.13a.9.9,0,0,0,.9.9h9.37a.91.91,0,0,0,.9-.9V44.2A.91.91,0,0,0,39.52,43.3Z"/><path class="cls-2" d="M17.22,25.74a.51.51,0,0,0,.51.51h6.14V16H17.22Z"/><path class="cls-2" d="M34.13,25.74V16H27.47V26.25h6.15A.51.51,0,0,0,34.13,25.74Z"/><path class="cls-2" d="M35.19,14.84V10.46a1.12,1.12,0,0,0-1.12-1.12h-6.6v5.5h7.72Z"/><path class="cls-2" d="M17.73,9.34h-.46a1.12,1.12,0,0,0-1.11,1.12v4.38h7.71V9.34H17.73Z"/><path class="cls-3" d="M17.7,29.6c-.92-.65-3.33-2.5-3.85-1.6s.26,2.29.92,2.91,2.24,2,2.46,2.82a1.16,1.16,0,0,1,0,.18,1.24,1.24,0,0,1-.74,1.41c-.4.14-.94.09-1.59-.58-1-1-3-2.73-4.06-3.84a4.45,4.45,0,0,1-1.11-2.07L7.37,17.25a1.54,1.54,0,0,0-1.83-1.37A1.62,1.62,0,0,0,4.3,17.66l.37,14a4.46,4.46,0,0,0,1.28,3l3.1,3.15c3.38,2.63,2.81,4.77,3,5.51h8.57c.29-2.92.29-7.43.25-9.6C20.85,31.35,18.67,30.3,17.7,29.6Z"/><path class="cls-3" d="M45.72,15.88a1.54,1.54,0,0,0-1.83,1.37l-2.4,11.58a4.64,4.64,0,0,1-1.11,2.07c-1,1.11-3.1,2.85-4.07,3.84-.64.67-1.18.72-1.58.58A1.23,1.23,0,0,1,34,33.91a1.16,1.16,0,0,1,0-.18c.21-.78,1.79-2.21,2.45-2.82s1.45-2,.93-2.91-2.94.95-3.85,1.6-3.15,1.75-3.2,4.1c0,2.17,0,6.68.26,9.6h8.57c.21-.74-.36-2.88,3-5.51l3.1-3.15a4.41,4.41,0,0,0,1.28-3l.38-14A1.62,1.62,0,0,0,45.72,15.88Z"/><path class="cls-3" d="M34.13,14.84H27.47V9.34h3.38a2.84,2.84,0,0,0-.36-5.1,2.8,2.8,0,0,0-2.18,0,9.9,9.9,0,0,0-2.54,2.29,9.9,9.9,0,0,0-2.54-2.29,2.87,2.87,0,0,0-2.19,0,2.85,2.85,0,0,0-.35,5.1h3.18v5.5H17.22V16h6.65V26.25h3.6V16h6.66Zm-5-8.63a.73.73,0,0,1,.56,0,.75.75,0,0,1,.4.4.73.73,0,0,1-.38,1,8.49,8.49,0,0,1-2.08.09A8.33,8.33,0,0,1,29.14,6.21ZM21.83,7.57a.74.74,0,0,1-.39-1,.7.7,0,0,1,.4-.39.67.67,0,0,1,.28-.06.71.71,0,0,1,.28.06,8.33,8.33,0,0,1,1.5,1.44A9.15,9.15,0,0,1,21.83,7.57Z"/></g></svg>