<svg xmlns="http://www.w3.org/2000/svg" viewBox="0 0 51.26 51.26">
  <g fill="#FFFFFF">
    <path d="M20.72 42c.21-2.87.21-6.66.17-8.6 0-2.35-2.22-3.4-3.19-4.09s-3.32-2.51-3.85-1.6.26 2.28.92 2.9 2.24 2.05 2.46 2.83a1 1 0 0 1 0 .17 1.24 1.24 0 0 1-.7 1.39c-.4.15-.94.09-1.59-.58-1-1-3-2.73-4.06-3.84a4.45 4.45 0 0 1-1.11-2.07l-2.4-11.58a1.54 1.54 0 0 0-1.83-1.37 1.62 1.62 0 0 0-1.24 1.78l.37 14a4.5 4.5 0 0 0 1.28 3l3.1 3.14c2.39 1.86 2.8 3.46 2.91 4.51Z"/>
    <rect width="11.17" height="3.93" x="10.84" y="42.98" rx=".9"/>
    <path d="M45.72 15.56a1.54 1.54 0 0 0-1.83 1.37l-2.4 11.58a4.64 4.64 0 0 1-1.11 2.07c-1 1.11-3.1 2.85-4.07 3.84-.64.67-1.18.73-1.58.58a1.23 1.23 0 0 1-.73-1.41 1 1 0 0 1 0-.17c.21-.78 1.79-2.22 2.45-2.83s1.45-2 .93-2.9-2.94.94-3.85 1.6-3.15 1.74-3.2 4.09c0 1.94 0 5.73.17 8.6h8.76c.12-1 .53-2.65 2.91-4.51l3.1-3.14a4.46 4.46 0 0 0 1.28-3l.38-14a1.62 1.62 0 0 0-1.21-1.77Z"/>
    <rect width="11.17" height="3.93" x="29.25" y="42.98" rx=".9"/>
    <path d="M16.59 25.42a1.14 1.14 0 0 0 1.14 1.14h15.89a1.14 1.14 0 0 0 1.13-1.14V15.14h1.06v-5a1.74 1.74 0 0 0-1.74-1.74h-2.48a2.81 2.81 0 0 0 .46-2.95 2.85 2.85 0 0 0-3.74-1.51 9.9 9.9 0 0 0-2.54 2.29 9.9 9.9 0 0 0-2.54-2.29 2.84 2.84 0 0 0-3.74 1.52A2.8 2.8 0 0 0 20 8.4h-2.73a1.74 1.74 0 0 0-1.74 1.74v5h1.06ZM29.14 5.89a.68.68 0 0 1 .56 0 .7.7 0 0 1 .4.39.73.73 0 0 1 0 .56.7.7 0 0 1-.39.4 8.49 8.49 0 0 1-2.08.09 8.33 8.33 0 0 1 1.51-1.44Zm-7.7.39a.7.7 0 0 1 .4-.39.67.67 0 0 1 .28-.06.71.71 0 0 1 .28.06 8.33 8.33 0 0 1 1.5 1.44 9.15 9.15 0 0 1-2.07-.08.73.73 0 0 1-.39-.97Zm-3.6 9.41h6v9.62h-6Zm9.63 9.62v-9.62h6v9.62Zm7.09-15.17v3.75h-7.09V9.65h6.6a.49.49 0 0 1 .49.49Zm-17.78 0a.49.49 0 0 1 .49-.49h6.6v4.24h-7.09Z"/>
  </g>
</svg>
