<svg xmlns="http://www.w3.org/2000/svg" viewBox="0 0 51.26 51.26"><defs><style>.cls-1{fill:#fff;}</style></defs><g id="Layer_2" data-name="Layer 2"><path class="cls-1" d="M21.39,41.87c.16-2.64.17-5.9.13-8-.05-2.35-1.91-3.57-3-4.3l-.44-.29-.25-.18C16.37,28,15,27.13,14,27.33a1.08,1.08,0,0,0-.73.53c-.71,1.22.18,2.88,1.11,3.73a9.3,9.3,0,0,1,2.21,2.48l0,.12a.64.64,0,0,1-.34.71c-.26.09-.57,0-.93-.43s-1.13-1.08-1.85-1.74-1.66-1.51-2.21-2.09a4.07,4.07,0,0,1-.95-1.77L8,17.35a2.17,2.17,0,0,0-2.56-1.92,2.23,2.23,0,0,0-1.76,2.41l.38,14a5,5,0,0,0,1.46,3.44l3.16,3.2a6.34,6.34,0,0,1,2.57,3.48,1.52,1.52,0,0,0-1,1.43v2.13A1.54,1.54,0,0,0,11.74,47h9.37a1.53,1.53,0,0,0,1.52-1.53V43.36A1.51,1.51,0,0,0,21.39,41.87ZM9.5,37.52,6.4,34.37a3.84,3.84,0,0,1-1.1-2.59l-.38-14a1,1,0,0,1,.74-1.11.89.89,0,0,1,.72.17,1,1,0,0,1,.38.71l2.4,11.6a5.28,5.28,0,0,0,1.26,2.35c.58.62,1.44,1.41,2.28,2.17s1.37,1.24,1.79,1.68a2.06,2.06,0,0,0,2.25.74A1.88,1.88,0,0,0,17.89,34l-.06-.23C17.62,33,16.65,32,15.2,30.61c-.51-.47-1.08-1.5-.84-2.06h0c.28,0,1,.29,2.72,1.55l.26.18.48.32c1,.67,2.41,1.58,2.45,3.27s0,5.18-.13,8H12.5A7.14,7.14,0,0,0,9.5,37.52Zm11.88,8a.28.28,0,0,1-.27.28H11.74a.29.29,0,0,1-.28-.28V43.36a.28.28,0,0,1,.28-.27h9.37a.28.28,0,0,1,.27.27Z"/><path class="cls-1" d="M45.83,15.43a2.18,2.18,0,0,0-1.71.4,2.13,2.13,0,0,0-.84,1.46l-2.4,11.56a4,4,0,0,1-1,1.79c-.54.58-1.38,1.34-2.2,2.09s-1.4,1.27-1.85,1.74-.67.52-.93.43a.63.63,0,0,1-.34-.71l0-.12a9.55,9.55,0,0,1,2.28-2.54c.85-.79,1.74-2.45,1-3.67a1.1,1.1,0,0,0-.73-.53c-1-.2-2.34.71-3.78,1.75l-.24.18-.44.3c-1.11.72-3,1.94-3,4.29,0,2.12,0,5.38.13,8a1.53,1.53,0,0,0-1.25,1.5v2.12A1.54,1.54,0,0,0,30.15,47h9.37a1.54,1.54,0,0,0,1.53-1.53V43.37a1.52,1.52,0,0,0-1-1.44,6.42,6.42,0,0,1,2.63-3.53l3.1-3.15a5,5,0,0,0,1.46-3.44l.37-13.92A2.24,2.24,0,0,0,45.83,15.43Zm-6,30.06a.29.29,0,0,1-.28.28H30.15a.29.29,0,0,1-.28-.28V43.37a.29.29,0,0,1,.28-.28h9.37a.29.29,0,0,1,.28.28ZM46,31.78a3.84,3.84,0,0,1-1.1,2.59l-3,3.09a7.3,7.3,0,0,0-3.06,4.38H31.12c-.17-2.79-.16-6.26-.13-8s1.43-2.6,2.45-3.27l.48-.32.26-.18c1.74-1.26,2.44-1.55,2.71-1.55h0c.23.56-.33,1.6-.91,2.12C34.61,32,33.64,33,33.43,33.73a2,2,0,0,0-.06.23,1.86,1.86,0,0,0,1.15,2.12,2,2,0,0,0,2.24-.74c.43-.44,1.1-1.05,1.81-1.69s1.69-1.54,2.27-2.16a5.24,5.24,0,0,0,1.26-2.37l2.41-11.64a.92.92,0,0,1,1.09-.82,1,1,0,0,1,.74,1.15Z"/><path class="cls-1" d="M34.75,24.91V14.63h1.06v-5a1.74,1.74,0,0,0-1.74-1.74H31.2a2.45,2.45,0,0,0,.65-.81A2.38,2.38,0,0,0,32,5.22a2.42,2.42,0,0,0-3.08-1.48,9.62,9.62,0,0,0-3,2.5,9.5,9.5,0,0,0-3-2.5,2.41,2.41,0,0,0-2.33,4.14h-3.2a1.74,1.74,0,0,0-1.73,1.74v5h1.05V24.91A1.14,1.14,0,0,0,17.73,26H33.62A1.14,1.14,0,0,0,34.75,24.91ZM34.56,9.62v3.76H28.1V9.13h6A.49.49,0,0,1,34.56,9.62Zm-7.71-.49v4.25H24.5V9.13Zm2.43-4.21a1.17,1.17,0,0,1,1.49.72,1.11,1.11,0,0,1-.05.89,1.18,1.18,0,0,1-.66.6,7.38,7.38,0,0,1-3.31,0A9.42,9.42,0,0,1,29.28,4.92Zm-8.39.72A1.19,1.19,0,0,1,22,4.85a1,1,0,0,1,.38.07,9.28,9.28,0,0,1,2.54,2.17,7.38,7.38,0,0,1-3.31,0A1.18,1.18,0,0,1,20.89,5.64Zm-4.1,4a.48.48,0,0,1,.48-.49h6v4.25H16.79Zm1.05,15.17V14.63h5.41V24.79Zm6.66,0V14.63h2.35V24.79Zm3.6,0V14.63h5.4V24.79Z"/></g></svg>