<svg xmlns="http://www.w3.org/2000/svg" viewBox="0 0 51.26 51.26">
  <g fill="#FFFFFF">
    <path d="M17.53 18.86 21.39 24l4 5.31a.32.32 0 0 0 .5 0l4-5.31 3.86-5.13a.31.31 0 0 0-.25-.5h-4a.31.31 0 0 1-.31-.31V8.25a.31.31 0 0 0-.31-.31h-7.06a.31.31 0 0 0-.32.31v9.8a.31.31 0 0 1-.31.31h-3.41a.31.31 0 0 0-.25.5Z"/>
    <path d="M40.38 30.25v-.06l-1.87-19a.63.63 0 0 0-.63-.56h-6.5a.63.63 0 1 0 0 1.25h5.95l1.81 18.42h-5.85a.45.45 0 0 0-.43.36 7.38 7.38 0 0 1-14.47 0 .44.44 0 0 0-.42-.36h-5.85l1.81-18.42h5.41a.63.63 0 0 0 0-1.25h-6a.62.62 0 0 0-.62.56l-1.85 19v12.64a.49.49 0 0 0 .49.49h28.55a.49.49 0 0 0 .49-.49V30.25Z"/>
  </g>
</svg>
