<svg xmlns="http://www.w3.org/2000/svg" viewBox="0 0 51.26 51.26"><defs><style>.cls-1{fill:#fff;}.cls-2{fill:#ececed;}</style></defs><g id="Layer_2" data-name="Layer 2"><path class="cls-1" d="M29.21,17V7.17a.31.31,0,0,0-.31-.31H21.82a.31.31,0,0,0-.31.31V17a.31.31,0,0,1-.32.31H17.78a.31.31,0,0,0-.25.5l3.86,5.14,4,5.3a.31.31,0,0,0,.5,0l4-5.3,3.86-5.14a.31.31,0,0,0-.25-.5h-4A.31.31,0,0,1,29.21,17Z"/><path class="cls-2" d="M40.38,29.25s0,0,0-.06l-1.87-19a.63.63,0,0,0-.63-.56H29.21v1.25h8.12l1.81,18.42H33.29a.44.44,0,0,0-.43.36,7.38,7.38,0,0,1-14.47,0,.43.43,0,0,0-.42-.36H12.12l1.81-18.42H21.5V9.58H13.36a.62.62,0,0,0-.62.56L10.87,29.19s0,0,0,.06h0V41.83a.48.48,0,0,0,.49.48H39.91a.48.48,0,0,0,.49-.48V29.25Z"/></g></svg>