<svg xmlns="http://www.w3.org/2000/svg" viewBox="0 0 51.26 51.26"><defs><style>.cls-1{fill:#fff;}</style></defs><g id="Layer_2" data-name="Layer 2"><path class="cls-1" d="M17.53,18.86,21.39,24l4,5.31a.32.32,0,0,0,.5,0l4-5.31,3.86-5.13a.31.31,0,0,0-.25-.5h-4a.31.31,0,0,1-.31-.31V8.25a.31.31,0,0,0-.31-.31H21.82a.31.31,0,0,0-.32.31v9.8a.31.31,0,0,1-.31.31H17.78A.31.31,0,0,0,17.53,18.86Z"/><path class="cls-1" d="M40.38,30.25s0,0,0-.06l-1.87-19a.63.63,0,0,0-.63-.56H31.38a.63.63,0,1,0,0,1.25h5.95l1.81,18.42H33.29a.45.45,0,0,0-.43.36,7.38,7.38,0,0,1-14.47,0,.44.44,0,0,0-.42-.36H12.12l1.81-18.42h5.41a.63.63,0,0,0,0-1.25h-6a.62.62,0,0,0-.62.56L10.87,30.19s0,0,0,.06h0V42.83a.49.49,0,0,0,.49.49H39.91a.49.49,0,0,0,.49-.49V30.25Z"/></g></svg>