<svg xmlns="http://www.w3.org/2000/svg" viewBox="0 0 51.26 51.26">
  <g fill="#FFFFFF">
    <path  d="M41,30.22v0l-1.87-19a.62.62,0,0,0-.62-.56H32a.63.63,0,0,0,0,1.25h6l1.75,17.8H32.93a.63.63,0,0,0-.62.53,6.75,6.75,0,0,1-13.36,0,.63.63,0,0,0-.62-.53H11.54l1.75-17.8H18.7a.63.63,0,0,0,0-1.25h-6a.62.62,0,0,0-.62.56L10.23,30.19v0s0,0,0,0V43.32a.62.62,0,0,0,.62.62H40.4a.63.63,0,0,0,.63-.62V30.25S41,30.23,41,30.22ZM39.78,42.69H11.48V30.88h6.33a8,8,0,0,0,15.64,0h6.33Z"/>
    <path  d="M16.59,18.08a.63.63,0,0,0,.06.65L25.13,30a.62.62,0,0,0,.5.25.63.63,0,0,0,.5-.25L34.6,18.73a.61.61,0,0,0,.06-.65.62.62,0,0,0-.56-.35H29.83V7.94a.63.63,0,0,0-.62-.63H21.5a.63.63,0,0,0-.62.63v9.79H17.15A.65.65,0,0,0,16.59,18.08Zm4.91.9a.63.63,0,0,0,.63-.62V8.56h6.45v9.8a.63.63,0,0,0,.63.62h3.64l-7.22,9.61L18.4,19Z"/>
  </g>
</svg>