<svg xmlns="http://www.w3.org/2000/svg" viewBox="0 0 51.26 51.26"><defs><style>.cls-1{fill:#fff;}</style></defs><g id="Layer_2" data-name="Layer 2"><path class="cls-1" d="M41.37,21.94a.61.61,0,0,0-.27-.6l-4.21-2.78V12a1.77,1.77,0,0,0-1.77-1.77H16.3A1.77,1.77,0,0,0,14.53,12v6.42l-4.38,2.89a.65.65,0,0,0-.27.6s0,0,0,0V39.74a.63.63,0,0,0,.63.62H40.76a.62.62,0,0,0,.62-.62V22S41.37,22,41.37,21.94Zm-1.66,0-2.82,1.86V20.06ZM16.3,11.51H35.12a.52.52,0,0,1,.52.52V24.61l-10,6.62-9.85-6.51V12A.52.52,0,0,1,16.3,11.51ZM14.53,23.9l-3-2,3-2Zm25.6,15.21h-29v-16L21.4,29.93l-7,5.58a.63.63,0,0,0,.39,1.12.62.62,0,0,0,.39-.14l7.28-5.84,2.79,1.85a.62.62,0,0,0,.69,0l3-2,7.43,6a.62.62,0,0,0,.39.14.6.6,0,0,0,.48-.24.62.62,0,0,0-.09-.88L30,29.81l10.1-6.67Z"/><path class="cls-1" d="M25.06,25.8a5.45,5.45,0,0,0,2.7-.66L27.29,24a4.86,4.86,0,0,1-2.06.51,3.7,3.7,0,0,1-3.94-3.93,4.8,4.8,0,0,1,4.6-5,3.37,3.37,0,0,1,3.68,3.65c0,1.46-.76,2.4-1.55,2.4-.57,0-.76-.34-.59-1.1l.63-3.07H26.75l-.22.56h0a1.07,1.07,0,0,0-1.06-.69c-1.57,0-2.79,1.71-2.79,3.42A1.86,1.86,0,0,0,24.5,22.8a2.12,2.12,0,0,0,1.65-.91h0a1.51,1.51,0,0,0,1.61,1c1.47,0,3.17-1.27,3.17-3.82a4.66,4.66,0,0,0-4.92-4.93,6.17,6.17,0,0,0-6.26,6.42A4.93,4.93,0,0,0,25.06,25.8Zm.77-5c-.33.43-.59.6-.86.6s-.68-.31-.68-.87c0-.8.49-1.89,1.25-1.89a.68.68,0,0,1,.62.37Z"/></g></svg>