<svg xmlns="http://www.w3.org/2000/svg" viewBox="0 0 51.26 51.26"><defs><style>.cls-1{fill:#ececed;}.cls-2{fill:#fff;}</style></defs><g id="Layer_2" data-name="Layer 2"><path class="cls-1" d="M36.9,25.16V12.66a1.77,1.77,0,0,0-1.77-1.77H16.31a1.77,1.77,0,0,0-1.77,1.77V25.28l-4-2.67V40.37H40.76V22.61ZM37.25,37a.63.63,0,0,1-.49.24.62.62,0,0,1-.39-.14L28.73,31a.64.64,0,0,1-.2-.31l-2.9,1.92L23,30.85a.44.44,0,0,1-.12.15l-7.64,6.12a.62.62,0,0,1-.39.14.63.63,0,0,1-.39-1.12l7.48-6-6.12-4V12.66a.52.52,0,0,1,.52-.52H35.13a.52.52,0,0,1,.52.52V26l-6.13,4,7.63,6.11A.63.63,0,0,1,37.25,37Z"/><path class="cls-1" d="M31,19.75a4.66,4.66,0,0,0-4.92-4.93,6.16,6.16,0,0,0-6.26,6.41,4.93,4.93,0,0,0,5.28,5.2,5.44,5.44,0,0,0,2.69-.66l-.47-1.18a4.82,4.82,0,0,1-2.06.51,3.7,3.7,0,0,1-3.94-3.93,4.8,4.8,0,0,1,4.6-5,3.38,3.38,0,0,1,3.68,3.65c0,1.46-.76,2.4-1.55,2.4-.57,0-.76-.34-.59-1.09L28.06,18H26.75l-.21.56h0a1.06,1.06,0,0,0-1.06-.68c-1.57,0-2.79,1.7-2.79,3.42a1.86,1.86,0,0,0,1.84,2.1,2.12,2.12,0,0,0,1.65-.91h0a1.51,1.51,0,0,0,1.61,1C29.27,23.56,31,22.29,31,19.75Zm-5.14,1.73c-.33.42-.59.59-.86.59s-.67-.31-.67-.87c0-.8.48-1.89,1.25-1.89a.66.66,0,0,1,.61.37Z"/><polygon class="cls-2" points="14.54 25.28 14.54 19.93 10.5 22.6 10.5 22.61 14.54 25.28"/><polygon class="cls-2" points="36.9 25.16 40.75 22.61 40.75 22.61 36.9 20.06 36.9 25.16"/><path class="cls-2" d="M28.73,31l7.64,6.12a.62.62,0,0,0,.39.14.63.63,0,0,0,.39-1.12L29.52,30l-3.89,2.58,2.9-1.92A.64.64,0,0,0,28.73,31Z"/><path class="cls-2" d="M14.33,37a.63.63,0,0,0,.49.24.62.62,0,0,0,.39-.14L22.85,31a.44.44,0,0,0,.12-.15L20.18,29l1.73,1.15-7.48,6A.63.63,0,0,0,14.33,37Z"/></g></svg>