<svg xmlns="http://www.w3.org/2000/svg" viewBox="0 0 51.26 51.26"><defs><style>.cls-1{fill:#fff;}</style></defs><g id="Layer_2" data-name="Layer 2"><path class="cls-1" d="M40.75,22.3h0L36.9,19.74v-7.4a1.78,1.78,0,0,0-1.77-1.77H16.31a1.77,1.77,0,0,0-1.77,1.77v7.27l-4,2.67h0V40.05H40.76V22.29ZM39.62,23l-2.72,1.8v-3.6ZM14.54,21.11V25L11.63,23ZM37.25,36.7a.63.63,0,0,1-.49.24.62.62,0,0,1-.39-.14l-7.64-6.12a.64.64,0,0,1-.2-.31l-2.9,1.92L23,30.53a.44.44,0,0,1-.12.15L15.21,36.8a.62.62,0,0,1-.39.14.63.63,0,0,1-.49-.24.62.62,0,0,1,.1-.87l7.48-6-6.12-4V12.34a.52.52,0,0,1,.52-.52H35.13a.53.53,0,0,1,.52.52V25.67l-6.13,4,7.63,6.11A.62.62,0,0,1,37.25,36.7Z"/><path class="cls-1" d="M31,19.43a4.66,4.66,0,0,0-4.92-4.93,6.16,6.16,0,0,0-6.26,6.41,4.94,4.94,0,0,0,5.28,5.21,5.55,5.55,0,0,0,2.69-.66l-.47-1.19a4.82,4.82,0,0,1-2.06.51,3.7,3.7,0,0,1-3.94-3.92,4.8,4.8,0,0,1,4.6-5,3.38,3.38,0,0,1,3.68,3.65c0,1.46-.76,2.41-1.55,2.41-.57,0-.76-.35-.59-1.1l.63-3.08H26.75l-.22.56h0a1.06,1.06,0,0,0-1.06-.68c-1.57,0-2.79,1.7-2.79,3.42a1.86,1.86,0,0,0,1.84,2.1,2.12,2.12,0,0,0,1.65-.91h0a1.51,1.51,0,0,0,1.61,1.05C29.27,23.25,31,22,31,19.43Zm-5.14,1.73c-.33.42-.59.59-.86.59s-.67-.3-.67-.87c0-.79.48-1.89,1.25-1.89a.68.68,0,0,1,.61.37Z"/></g></svg>