<svg xmlns="http://www.w3.org/2000/svg" viewBox="0 0 51.26 51.26"><defs><style>.cls-1{fill:none;}.cls-2{fill:#fff;}.cls-3{fill:#ececed;}</style></defs><g id="Layer_2" data-name="Layer 2"><path class="cls-1" d="M30.87,12.22H20.3a.88.88,0,0,0-1,.78v2.48h12.5V13A.89.89,0,0,0,30.87,12.22Z"/><path class="cls-2" d="M44.68,15.48H6.57a.4.4,0,0,0-.4.4v3a9.54,9.54,0,0,0,.91,4.24c1.85,3.77,6.32,5.34,11.54,5.34h2.74v-.74a2,2,0,0,1,2-2h4.8a2,2,0,0,1,2,2v.74h2c5.49,0,10.16-1.74,12-5.8a10,10,0,0,0,.85-4.18v-2.6A.4.4,0,0,0,44.68,15.48Z"/><path class="cls-2" d="M28.18,27h-4.8a.78.78,0,0,0-.77.77v2.79a.77.77,0,0,0,.77.77h4.8a.76.76,0,0,0,.77-.77V27.72A.77.77,0,0,0,28.18,27Z"/><path class="cls-3" d="M44.23,22.66c-1.84,4.06-6.51,5.8-12,5.8h-2v-.74a2,2,0,0,0-2-2h-4.8a2,2,0,0,0-2,2v.74H18.62c-5.22,0-9.69-1.57-11.54-5.34H7v17.3A1.57,1.57,0,0,0,8.57,42H42.68a1.57,1.57,0,0,0,1.58-1.57ZM22.61,27.72a.78.78,0,0,1,.77-.77h4.8a.77.77,0,0,1,.77.77v2.79a.76.76,0,0,1-.77.77h-4.8a.77.77,0,0,1-.77-.77V27.72Z"/><path class="cls-3" d="M19.34,13a.88.88,0,0,1,1-.78H30.87a.89.89,0,0,1,1,.78v2.48h2.71V11.23A1.36,1.36,0,0,0,33.16,9.9H18a1.36,1.36,0,0,0-1.38,1.33v4.25h2.71Z"/></g></svg>