<svg xmlns="http://www.w3.org/2000/svg" viewBox="0 0 51.26 51.26">
  <path fill="#FFFFFF" d="M45.71,15.56a1,1,0,0,0-1-1H35.17V10.91a2,2,0,0,0-2-1.95H18a2,2,0,0,0-2,1.95v3.63H6.57a1,1,0,0,0-1,1v3a10.4,10.4,0,0,0,.83,4.21s0,0,0,0V40.1a2.21,2.21,0,0,0,2.2,2.2H42.68a2.21,2.21,0,0,0,2.21-2.2l0-17.38a.58.58,0,0,0,0-.18,10.57,10.57,0,0,0,.89-4.38ZM17.25,10.91a.73.73,0,0,1,.76-.7H33.16a.73.73,0,0,1,.76.7v3.63H32.46V12.68a1.51,1.51,0,0,0-1.59-1.4H20.3a1.51,1.51,0,0,0-1.59,1.4v1.86H17.25Zm14,3.63H20V12.68s.13-.15.34-.15H30.87c.22,0,.34.11.34.15ZM6.8,15.79H44.46v2.37c0,8.44-8.55,9.35-12.23,9.35h-2V27.4a2,2,0,0,0-2-2h-4.8a2,2,0,0,0-2,2v.11H18.62c-4.41,0-11.82-1.16-11.82-9ZM29,27.4v2.8a.76.76,0,0,1-.77.76h-4.8a.77.77,0,0,1-.77-.76V27.4a.78.78,0,0,1,.77-.77h4.8A.77.77,0,0,1,29,27.4ZM43.64,40.1a1,1,0,0,1-1,.95H8.57a1,1,0,0,1-1-.95V24.78c2.15,2.58,5.9,4,11,4h2.74V30.2a2,2,0,0,0,2,2h4.8a2,2,0,0,0,2-2V28.76h2c5.23,0,9.15-1.52,11.38-4.26Z"/>
</svg>