<svg xmlns="http://www.w3.org/2000/svg" viewBox="0 0 51.26 51.26"><defs><style>.cls-1{fill:#fff;}</style></defs><g id="Layer_2" data-name="Layer 2"><path class="cls-1" d="M25.57,26.88a.63.63,0,0,0-.63.63V43.43a.63.63,0,0,0,1.25,0V27.51A.63.63,0,0,0,25.57,26.88Z"/><path class="cls-1" d="M13.29,18.74a.62.62,0,1,0-.82.94C23.24,29,21.73,43.21,21.72,43.36a.62.62,0,0,0,.54.69h.08A.63.63,0,0,0,23,43.5C23,43.35,24.57,28.5,13.29,18.74Z"/><path class="cls-1" d="M11.88,29.58a.62.62,0,0,0-.87.16.63.63,0,0,0,.15.87,18,18,0,0,1,7.36,12.84.62.62,0,0,0,.62.6h0a.61.61,0,0,0,.59-.65A18.82,18.82,0,0,0,11.88,29.58Z"/><path class="cls-1" d="M39.05,19.68a.63.63,0,0,0,.07-.88.62.62,0,0,0-.88-.06C27,28.5,28.55,43.35,28.57,43.5a.61.61,0,0,0,.62.55h.07a.63.63,0,0,0,.55-.69C29.79,43.21,28.29,29,39.05,19.68Z"/><path class="cls-1" d="M40.36,30.61a.63.63,0,0,0-.71-1A18.88,18.88,0,0,0,31.76,43.4a.63.63,0,0,0,.6.65h0a.62.62,0,0,0,.62-.6A17.85,17.85,0,0,1,40.36,30.61Z"/><path class="cls-1" d="M19.08,17.65a.64.64,0,0,0,.16.64L22,20.93l-.64,3.73a.63.63,0,0,0,.25.61.61.61,0,0,0,.66,0l3.35-1.76,3.34,1.76a.67.67,0,0,0,.3.08.6.6,0,0,0,.36-.12.63.63,0,0,0,.25-.61l-.64-3.73,2.71-2.64a.64.64,0,0,0,.16-.64.63.63,0,0,0-.51-.43l-3.74-.54-1.67-3.4a.66.66,0,0,0-1.12,0l-1.68,3.4-3.74.54A.63.63,0,0,0,19.08,17.65Z"/><path class="cls-1" d="M8.66,20.21a.63.63,0,0,0,.55.33h0a.64.64,0,0,0,.55-.36l1.1-2.4,2.6-.46a.6.6,0,0,0,.49-.44.61.61,0,0,0-.17-.63l-2-1.79.38-2.62a.62.62,0,0,0-.27-.6.61.61,0,0,0-.66,0L9,12.51,6.63,11.34a.63.63,0,0,0-.66.07.61.61,0,0,0-.23.62l.52,2.59L4.42,16.51a.65.65,0,0,0-.14.65.64.64,0,0,0,.52.41l2.62.31Z"/><path class="cls-1" d="M46.81,25.91l-1.94-1.79.37-2.61a.61.61,0,0,0-.27-.6.61.61,0,0,0-.66,0L42,22.17,39.64,21a.61.61,0,0,0-.66.07.6.6,0,0,0-.23.61l.52,2.59-1.84,1.9a.64.64,0,0,0-.14.65.64.64,0,0,0,.52.41l2.62.3,1.24,2.34a.63.63,0,0,0,.55.33h0a.63.63,0,0,0,.55-.37l1.1-2.4,2.6-.45a.63.63,0,0,0,.5-.44A.66.66,0,0,0,46.81,25.91Z"/><circle class="cls-1" cx="10.84" cy="38.46" r="2.67"/><path class="cls-1" d="M40.91,33.13A2.66,2.66,0,0,0,38,35.56a2.63,2.63,0,0,0,.62,1.94,2.66,2.66,0,0,0,1.81.94h.23a2.66,2.66,0,0,0,.22-5.32Z"/><path class="cls-1" d="M31.9,14.42a2.67,2.67,0,1,0-2.67-2.67A2.67,2.67,0,0,0,31.9,14.42Z"/><path class="cls-1" d="M8.62,28.34a.63.63,0,0,0,.63-.62,1.59,1.59,0,0,1,1.59-1.59.63.63,0,0,0,0-1.25,1.59,1.59,0,0,1-1.59-1.59.63.63,0,1,0-1.25,0,1.6,1.6,0,0,1-1.59,1.59.63.63,0,1,0,0,1.25A1.59,1.59,0,0,1,8,27.72.62.62,0,0,0,8.62,28.34Z"/><path class="cls-1" d="M16.39,10.67A1.6,1.6,0,0,1,18,12.26a.63.63,0,1,0,1.25,0,1.59,1.59,0,0,1,1.59-1.59.63.63,0,0,0,0-1.25,1.59,1.59,0,0,1-1.59-1.59.63.63,0,1,0-1.25,0,1.6,1.6,0,0,1-1.6,1.59.63.63,0,0,0,0,1.25Z"/><path class="cls-1" d="M38.47,13.61a1.59,1.59,0,0,1,1.59,1.59.63.63,0,0,0,1.25,0,1.59,1.59,0,0,1,1.59-1.59.63.63,0,1,0,0-1.25,1.6,1.6,0,0,1-1.59-1.59.63.63,0,1,0-1.25,0,1.59,1.59,0,0,1-1.59,1.59.63.63,0,1,0,0,1.25Z"/></g></svg>