<svg xmlns="http://www.w3.org/2000/svg" viewBox="0 0 51.26 51.26">
  <g fill="#FFFFFF">
    <path d="M25.57 26.88a.63.63 0 0 0-.63.63v15.92a.63.63 0 0 0 1.25 0V27.51a.63.63 0 0 0-.62-.63ZM13.29 18.74a.62.62 0 1 0-.82.94c10.77 9.32 9.26 23.53 9.25 23.68a.62.62 0 0 0 .54.69h.08a.63.63 0 0 0 .66-.55c0-.15 1.57-15-9.71-24.76ZM11.88 29.58a.62.62 0 0 0-.87.16.63.63 0 0 0 .15.87 18 18 0 0 1 7.36 12.84.62.62 0 0 0 .62.6.61.61 0 0 0 .59-.65 18.82 18.82 0 0 0-7.85-13.82ZM39.05 19.68a.63.63 0 0 0 .07-.88.62.62 0 0 0-.88-.06C27 28.5 28.55 43.35 28.57 43.5a.61.61 0 0 0 .62.55h.07a.63.63 0 0 0 .55-.69c-.02-.15-1.52-14.36 9.24-23.68ZM40.36 30.61a.63.63 0 0 0-.71-1 18.88 18.88 0 0 0-7.89 13.79.63.63 0 0 0 .6.65.62.62 0 0 0 .62-.6 17.85 17.85 0 0 1 7.38-12.84ZM19.08 17.65a.64.64 0 0 0 .16.64L22 20.93l-.64 3.73a.63.63 0 0 0 .25.61.61.61 0 0 0 .66 0l3.35-1.76 3.34 1.76a.67.67 0 0 0 .3.08.6.6 0 0 0 .36-.12.63.63 0 0 0 .25-.61l-.64-3.73 2.71-2.64a.64.64 0 0 0 .16-.64.63.63 0 0 0-.51-.43l-3.74-.54-1.67-3.4a.66.66 0 0 0-1.12 0l-1.68 3.4-3.74.54a.63.63 0 0 0-.56.47ZM8.66 20.21a.63.63 0 0 0 .55.33.64.64 0 0 0 .55-.36l1.1-2.4 2.6-.46a.6.6 0 0 0 .49-.44.61.61 0 0 0-.17-.63l-2-1.79.38-2.62a.62.62 0 0 0-.27-.6.61.61 0 0 0-.66 0L9 12.51l-2.37-1.17a.63.63 0 0 0-.66.07.61.61 0 0 0-.23.62l.52 2.59-1.84 1.89a.65.65 0 0 0-.14.65.64.64 0 0 0 .52.41l2.62.31ZM46.81 25.91l-1.94-1.79.37-2.61a.61.61 0 0 0-.27-.6.61.61 0 0 0-.66 0L42 22.17 39.64 21a.61.61 0 0 0-.66.07.6.6 0 0 0-.23.61l.52 2.59-1.84 1.9a.64.64 0 0 0-.14.65.64.64 0 0 0 .52.41l2.62.3 1.24 2.34a.63.63 0 0 0 .55.33.63.63 0 0 0 .55-.37l1.1-2.4 2.6-.45a.63.63 0 0 0 .5-.44.66.66 0 0 0-.16-.63Z"/>
    <circle cx="10.84" cy="38.46" r="2.67"/>
    <path d="M40.91 33.13A2.66 2.66 0 0 0 38 35.56a2.63 2.63 0 0 0 .62 1.94 2.66 2.66 0 0 0 1.81.94h.23a2.66 2.66 0 0 0 .22-5.32ZM31.9 14.42a2.67 2.67 0 1 0-2.67-2.67 2.67 2.67 0 0 0 2.67 2.67ZM8.62 28.34a.63.63 0 0 0 .63-.62 1.59 1.59 0 0 1 1.59-1.59.63.63 0 0 0 0-1.25 1.59 1.59 0 0 1-1.59-1.59.63.63 0 1 0-1.25 0 1.6 1.6 0 0 1-1.59 1.59.63.63 0 1 0 0 1.25A1.59 1.59 0 0 1 8 27.72a.62.62 0 0 0 .62.62ZM16.39 10.67A1.6 1.6 0 0 1 18 12.26a.63.63 0 1 0 1.25 0 1.59 1.59 0 0 1 1.59-1.59.63.63 0 0 0 0-1.25 1.59 1.59 0 0 1-1.59-1.59.63.63 0 1 0-1.25 0 1.6 1.6 0 0 1-1.6 1.59.63.63 0 0 0 0 1.25ZM38.47 13.61a1.59 1.59 0 0 1 1.59 1.59.63.63 0 0 0 1.25 0 1.59 1.59 0 0 1 1.59-1.59.63.63 0 1 0 0-1.25 1.6 1.6 0 0 1-1.59-1.59.63.63 0 1 0-1.25 0 1.59 1.59 0 0 1-1.59 1.59.63.63 0 1 0 0 1.25Z"/>
  </g>
</svg>
