<svg xmlns="http://www.w3.org/2000/svg" viewBox="0 0 51.26 51.26"><defs><style>.cls-1{fill:#fff;}.cls-2{fill:#ececed;}</style></defs><g id="Layer_2" data-name="Layer 2"><path class="cls-1" d="M25.57,27.2a.63.63,0,0,0-.63.63V43.75a.63.63,0,0,0,1.25,0V27.83A.63.63,0,0,0,25.57,27.2Z"/><path class="cls-1" d="M13.29,19.05a.63.63,0,0,0-.88.07.62.62,0,0,0,.06.88c10.77,9.32,9.26,23.53,9.25,23.67a.62.62,0,0,0,.54.7h.08a.63.63,0,0,0,.62-.55C23,43.67,24.57,28.82,13.29,19.05Z"/><path class="cls-1" d="M11.88,29.9a.62.62,0,0,0-.87.16.63.63,0,0,0,.15.87,17.93,17.93,0,0,1,7.36,12.84.62.62,0,0,0,.62.6h0a.61.61,0,0,0,.59-.65A18.82,18.82,0,0,0,11.88,29.9Z"/><path class="cls-1" d="M39.05,20a.62.62,0,1,0-.81-.95C27,28.82,28.55,43.67,28.57,43.82a.61.61,0,0,0,.62.55h.07a.63.63,0,0,0,.55-.7C29.79,43.53,28.29,29.32,39.05,20Z"/><path class="cls-1" d="M40.52,30.06a.62.62,0,0,0-.87-.16,18.88,18.88,0,0,0-7.89,13.82.63.63,0,0,0,.6.65h0a.62.62,0,0,0,.62-.6,17.85,17.85,0,0,1,7.35-12.84A.62.62,0,0,0,40.52,30.06Z"/><path class="cls-2" d="M31.54,17.54,27.8,17,26.13,13.6a.66.66,0,0,0-1.12,0L23.33,17l-3.74.55a.63.63,0,0,0-.51.42.65.65,0,0,0,.16.65L22,21.25,21.31,25a.63.63,0,0,0,.91.66l3.35-1.76,3.34,1.76a.66.66,0,0,0,.3.07.6.6,0,0,0,.36-.12.62.62,0,0,0,.25-.61l-.64-3.72,2.71-2.64a.65.65,0,0,0,.16-.65A.63.63,0,0,0,31.54,17.54Z"/><path class="cls-2" d="M11.85,14.78l.38-2.62a.63.63,0,0,0-.93-.63L9,12.82,6.63,11.66a.63.63,0,0,0-.66.07.61.61,0,0,0-.23.62l.52,2.59L4.42,16.83a.64.64,0,0,0-.14.65.64.64,0,0,0,.52.41l2.62.3,1.24,2.34a.63.63,0,0,0,.55.33h0a.64.64,0,0,0,.55-.36l1.1-2.41,2.6-.45A.6.6,0,0,0,14,17.2a.64.64,0,0,0-.17-.64Z"/><path class="cls-2" d="M46.81,26.23l-1.94-1.79.37-2.61a.64.64,0,0,0-.27-.61.65.65,0,0,0-.66,0L42,22.49l-2.37-1.16a.62.62,0,0,0-.89.68l.52,2.59-1.84,1.9a.63.63,0,0,0,.38,1.06l2.62.3,1.24,2.33a.62.62,0,0,0,.55.34h0a.63.63,0,0,0,.55-.37l1.1-2.4,2.6-.45a.63.63,0,0,0,.5-.44A.66.66,0,0,0,46.81,26.23Z"/><circle class="cls-2" cx="10.84" cy="38.78" r="2.67"/><path class="cls-2" d="M40.91,33.44a2.67,2.67,0,0,0-.45,5.32h.23a2.67,2.67,0,0,0,.22-5.33Z"/><path class="cls-2" d="M31.9,9.41a2.67,2.67,0,1,0,2.66,2.66A2.67,2.67,0,0,0,31.9,9.41Z"/><path class="cls-2" d="M8.62,28.66A.63.63,0,0,0,9.25,28a1.59,1.59,0,0,1,1.59-1.59.63.63,0,0,0,0-1.25,1.6,1.6,0,0,1-1.59-1.6A.63.63,0,0,0,8,23.6a1.6,1.6,0,0,1-1.59,1.6.63.63,0,1,0,0,1.25A1.59,1.59,0,0,1,8,28,.62.62,0,0,0,8.62,28.66Z"/><path class="cls-2" d="M20.83,11a.63.63,0,0,0,0-1.25,1.59,1.59,0,0,1-1.59-1.59.63.63,0,1,0-1.25,0,1.6,1.6,0,0,1-1.6,1.59.63.63,0,0,0,0,1.25A1.6,1.6,0,0,1,18,12.58a.63.63,0,0,0,1.25,0A1.59,1.59,0,0,1,20.83,11Z"/><path class="cls-2" d="M38.47,13.93a1.59,1.59,0,0,1,1.59,1.59.63.63,0,0,0,1.25,0,1.59,1.59,0,0,1,1.59-1.59.63.63,0,1,0,0-1.25,1.6,1.6,0,0,1-1.59-1.6.63.63,0,0,0-1.25,0,1.6,1.6,0,0,1-1.59,1.6.63.63,0,1,0,0,1.25Z"/></g></svg>