<svg xmlns="http://www.w3.org/2000/svg" viewBox="0 0 51.26 51.26">
  <g fill="#FFFFFF">
    <path d="M25.57,26.88a.63.63,0,0,0-.63.63V43.43a.63.63,0,0,0,1.25,0V27.51A.63.63,0,0,0,25.57,26.88Z"/>
    <path d="M13.29,18.74a.62.62,0,1,0-.82.94C23.24,29,21.73,43.21,21.72,43.36a.62.62,0,0,0,.54.69h.08A.63.63,0,0,0,23,43.5C23,43.35,24.57,28.5,13.29,18.74Z"/>
    <path d="M11.87,29.58a.61.61,0,0,0-.86.16.63.63,0,0,0,.15.87,17.88,17.88,0,0,1,7.35,12.84.63.63,0,0,0,.63.6h0a.61.61,0,0,0,.59-.65A18.8,18.8,0,0,0,11.87,29.58Z"/>
    <path d="M39.05,19.68a.63.63,0,0,0,.07-.88.62.62,0,0,0-.88-.06C27,28.5,28.55,43.35,28.57,43.5a.61.61,0,0,0,.62.55h.07a.63.63,0,0,0,.55-.69C29.79,43.21,28.27,29,39.05,19.68Z"/>
    <path d="M40.36,30.61a.63.63,0,0,0,.16-.87.62.62,0,0,0-.87-.16A18.84,18.84,0,0,0,31.76,43.4a.62.62,0,0,0,.6.65h0a.62.62,0,0,0,.62-.6A17.85,17.85,0,0,1,40.36,30.61Z"/>
    <path d="M19.08,17.65a.64.64,0,0,0,.16.64L22,20.93l-.64,3.73a.63.63,0,0,0,.62.73.6.6,0,0,0,.29-.08l3.35-1.76,3.34,1.76a.61.61,0,0,0,.66,0,.63.63,0,0,0,.25-.61l-.64-3.73,2.71-2.64a.64.64,0,0,0,.16-.64.63.63,0,0,0-.51-.43l-3.74-.54-1.67-3.4a.66.66,0,0,0-1.12,0l-1.68,3.4-3.74.54A.63.63,0,0,0,19.08,17.65Zm4.76.22a.63.63,0,0,0,.47-.35L25.57,15l1.25,2.55a.64.64,0,0,0,.48.35l2.81.41-2,2a.65.65,0,0,0-.18.55l.48,2.81-2.51-1.33a.68.68,0,0,0-.59,0l-2.51,1.33.48-2.81a.62.62,0,0,0-.18-.55l-2-2Z"/>
    <path d="M8.66,20.21a.63.63,0,0,0,.55.33h0a.62.62,0,0,0,.55-.36l1.1-2.4,2.6-.46a.6.6,0,0,0,.49-.44.61.61,0,0,0-.17-.63l-2-1.79.38-2.62a.62.62,0,0,0-.27-.6.61.61,0,0,0-.66,0L9,12.51,6.63,11.34a.63.63,0,0,0-.66.07.61.61,0,0,0-.23.62l.52,2.59L4.42,16.51a.65.65,0,0,0-.14.65.64.64,0,0,0,.52.41l2.62.31Zm-1.27-5a.64.64,0,0,0,.16-.56L7.21,13l1.53.75a.65.65,0,0,0,.59,0l1.48-.84-.24,1.69a.59.59,0,0,0,.2.54L12,16.31l-1.68.29a.65.65,0,0,0-.46.36l-.71,1.55L8.37,17a.63.63,0,0,0-.48-.33l-1.69-.2Z"/>
    <path d="M46.81,25.91l-1.94-1.79.37-2.61a.63.63,0,0,0-.93-.63L42,22.17,39.64,21a.61.61,0,0,0-.66.07.6.6,0,0,0-.23.61l.52,2.59-1.84,1.9a.64.64,0,0,0-.14.65.64.64,0,0,0,.52.41l2.62.3,1.24,2.34a.63.63,0,0,0,.55.33h0a.64.64,0,0,0,.55-.36l1.1-2.41,2.6-.45a.63.63,0,0,0,.5-.44A.66.66,0,0,0,46.81,25.91Zm-3.46.36a.63.63,0,0,0-.46.35l-.71,1.55-.8-1.5a.6.6,0,0,0-.48-.33l-1.69-.2,1.19-1.22a.64.64,0,0,0,.16-.56l-.34-1.67,1.54.75a.63.63,0,0,0,.58,0l1.48-.83-.24,1.68a.63.63,0,0,0,.2.55L45,26Z"/>
    <path d="M10.84,35.8a2.67,2.67,0,1,0,2.67,2.66A2.67,2.67,0,0,0,10.84,35.8Zm0,4.08a1.42,1.42,0,1,1,1.42-1.42A1.43,1.43,0,0,1,10.84,39.88Z"/>
    <path d="M40.91,33.13a2.66,2.66,0,0,0-.45,5.31h.23A2.67,2.67,0,0,0,43.34,36a2.66,2.66,0,0,0-2.43-2.88ZM42.1,35.9a1.42,1.42,0,0,1-.5,1,1.38,1.38,0,0,1-1,.33,1.41,1.41,0,0,1,.11-2.82h.13A1.42,1.42,0,0,1,42.1,35.9Z"/>
    <path d="M31.9,14.42a2.67,2.67,0,1,0-2.67-2.67A2.67,2.67,0,0,0,31.9,14.42Zm0-4.08a1.42,1.42,0,1,1-1.42,1.41A1.41,1.41,0,0,1,31.9,10.34Z"/>
    <path d="M8.62,28.34a.63.63,0,0,0,.63-.62,1.59,1.59,0,0,1,1.59-1.59.63.63,0,0,0,0-1.25,1.59,1.59,0,0,1-1.59-1.59.63.63,0,1,0-1.25,0,1.6,1.6,0,0,1-1.6,1.59.63.63,0,0,0,0,1.25A1.6,1.6,0,0,1,8,27.72.62.62,0,0,0,8.62,28.34ZM8.16,25.5A2.5,2.5,0,0,0,8.62,25a2.86,2.86,0,0,0,.46.46,3.33,3.33,0,0,0-.46.46A2.86,2.86,0,0,0,8.16,25.5Z"/>
    <path d="M16.39,10.67A1.59,1.59,0,0,1,18,12.26a.63.63,0,1,0,1.25,0,1.6,1.6,0,0,1,1.6-1.59.63.63,0,0,0,0-1.25,1.6,1.6,0,0,1-1.6-1.59.63.63,0,1,0-1.25,0,1.59,1.59,0,0,1-1.59,1.59.63.63,0,0,0,0,1.25Zm2.22-1.09a2.5,2.5,0,0,0,.46.46,2.93,2.93,0,0,0-.46.47,2.93,2.93,0,0,0-.46-.47A2.5,2.5,0,0,0,18.61,9.58Z"/>
    <path d="M38.47,13.61a1.59,1.59,0,0,1,1.59,1.59.63.63,0,0,0,1.25,0,1.59,1.59,0,0,1,1.59-1.59.63.63,0,1,0,0-1.25,1.59,1.59,0,0,1-1.59-1.59.63.63,0,1,0-1.25,0,1.59,1.59,0,0,1-1.59,1.59.63.63,0,1,0,0,1.25Zm2.22-1.09a2.5,2.5,0,0,0,.46.46,2.86,2.86,0,0,0-.46.46,3.33,3.33,0,0,0-.46-.46A2.86,2.86,0,0,0,40.69,12.52Z"/>
  </g>
</svg>