<svg xmlns="http://www.w3.org/2000/svg" viewBox="0 0 51.26 51.26">
  <path fill="#FFFFFF" d="M15.71 39.09A3.81 3.81 0 0 1 13 38a3.87 3.87 0 0 1 0-5.47l7.18-7.18L13 18.13a3.84 3.84 0 0 1-1.13-2.74A3.8 3.8 0 0 1 13 12.66a3.86 3.86 0 0 1 5.46 0l7.19 7.18 7.18-7.18a3.87 3.87 0 0 1 5.47 0 3.8 3.8 0 0 1 1.13 2.73 3.84 3.84 0 0 1-1.13 2.74l-7.2 7.18 7.18 7.18A3.87 3.87 0 0 1 32.81 38l-7.18-7.18L18.44 38a3.81 3.81 0 0 1-2.73 1.09Zm0-26.31a2.62 2.62 0 0 0-1.85 4.46l8.07 8.07-8.07 8.07a2.62 2.62 0 1 0 3.7 3.7L25.63 29l8.07 8.07a2.62 2.62 0 0 0 3.7-3.7l-8.07-8.07 8.07-8.07a2.62 2.62 0 0 0-3.7-3.7l-8.07 8.07-8.07-8.07a2.6 2.6 0 0 0-1.85-.75Z"/>
</svg>
