<svg xmlns="http://www.w3.org/2000/svg" viewBox="0 0 51.26 51.26"><defs><style>.cls-1{fill:#fff;}.cls-2{fill:#ececed;}</style></defs><g id="Layer_2" data-name="Layer 2"><path class="cls-1" d="M22.73,18.55v3.1H20.32v3.93h2.41V37.13h4.63V25.53h3.23l.35-3.88H27.36V19.43c0-.91.18-1.27,1.07-1.27h2.51v-4H27.73C24.28,14.13,22.73,15.64,22.73,18.55Z"/><path class="cls-2" d="M25.63,6.6a19,19,0,0,0-19,19h0a19,19,0,0,0,38.06,0h0A19,19,0,0,0,25.63,6.6Zm5.31,11.56H28.43c-.89,0-1.07.36-1.07,1.27v2.22h3.58l-.35,3.88H27.36v11.6H22.73V25.58H20.32V21.65h2.41v-3.1c0-2.91,1.55-4.42,5-4.42h3.21Z"/></g></svg>