<svg xmlns="http://www.w3.org/2000/svg" viewBox="0 0 51.26 51.26"><defs><style>.cls-1{fill:#fff;}.cls-2{fill:#ececed;}</style></defs><g id="Layer_2" data-name="Layer 2"><rect class="cls-1" x="24.29" y="41.89" width="5.45" transform="translate(-21.13 54.79) rotate(-72.17)"/><path class="cls-1" d="M30.23,43,28.38,38.6a.43.43,0,0,0-.2-.2l0,0H10L7.7,44.48V47.8H26.19l4.26-1V43.47Zm-6.52-.91a.45.45,0,0,1-.59.22,1.46,1.46,0,0,0-.93-.14,3.36,3.36,0,0,0-.48.13,1.14,1.14,0,0,1-1.06,0,.53.53,0,0,1-.2-.52A4.18,4.18,0,0,0,20,42L20,42.1l-.12.14c-.18.2-.42.49-.79.44a.73.73,0,0,1-.57-.41.65.65,0,0,1,0-.13,1,1,0,0,1,.08-.65,2.1,2.1,0,0,0-.3.22l-.92.73a.65.65,0,0,1-.61.15.51.51,0,0,1-.37-.34.61.61,0,0,1,0-.42,6.51,6.51,0,0,0-.76.72,1,1,0,0,1-.7.37.72.72,0,0,1-.29-.06.62.62,0,0,1-.34-.4.79.79,0,0,1,.16-.66,6.43,6.43,0,0,1,.59-.7,3.45,3.45,0,0,0-.95.7l-.11.13a3.11,3.11,0,0,1-.41.4,1.59,1.59,0,0,1-1,.34.49.49,0,0,1-.32-.16c-.31-.37,0-.81.2-1.16a1.64,1.64,0,0,0,.29-.55c-.05,0-.32.14-.56.35a2,2,0,0,0-.53,1,.43.43,0,0,1-.49.38.45.45,0,0,1-.39-.49,2.84,2.84,0,0,1,.82-1.54c.95-.85,1.54-.54,1.8-.28a.87.87,0,0,1,.19.84,4.85,4.85,0,0,1,2.12-1.15,1,1,0,0,1,.51,0,.61.61,0,0,1,.39.33.7.7,0,0,1,.07.31.9.9,0,0,1,1,0,.58.58,0,0,1,.22.32,2,2,0,0,1,.48-.25,1.27,1.27,0,0,1,1.1.09.61.61,0,0,1,.23.52A1.21,1.21,0,0,1,21.07,41a.3.3,0,0,1,.08.08.74.74,0,0,1,.19.4l.09,0a3.52,3.52,0,0,1,.64-.16,2.3,2.3,0,0,1,1.42.2A.44.44,0,0,1,23.71,42.07Zm2.48,2.41,1.66-5.19,1.85,4.36Z"/><path class="cls-2" d="M27.89,23.17a9.54,9.54,0,1,0-9.54-9.54A9.54,9.54,0,0,0,27.89,23.17Z"/><polygon class="cls-2" points="26.19 44.48 29.7 43.65 27.85 39.29 26.19 44.48"/><path class="cls-2" d="M23.49,41.49a2.3,2.3,0,0,0-1.42-.2,3.52,3.52,0,0,0-.64.16l-.09,0a.74.74,0,0,0-.19-.4.3.3,0,0,0-.08-.08,1.21,1.21,0,0,0-1.38.21.61.61,0,0,0-.23-.52,1.27,1.27,0,0,0-1.1-.09,2,2,0,0,0-.48.25.58.58,0,0,0-.22-.32.9.9,0,0,0-1,0,.7.7,0,0,0-.07-.31.61.61,0,0,0-.39-.33,1,1,0,0,0-.51,0,4.85,4.85,0,0,0-2.12,1.15.87.87,0,0,0-.19-.84c-.26-.26-.85-.57-1.8.28A2.84,2.84,0,0,0,10.74,42a.45.45,0,0,0,.39.49.43.43,0,0,0,.49-.38,2,2,0,0,1,.53-1c.24-.21.51-.38.56-.35a1.64,1.64,0,0,1-.29.55c-.23.35-.51.79-.2,1.16a.49.49,0,0,0,.32.16,1.59,1.59,0,0,0,1-.34,3.11,3.11,0,0,0,.41-.4l.11-.13a3.45,3.45,0,0,1,.95-.7,6.43,6.43,0,0,0-.59.7.79.79,0,0,0-.16.66.62.62,0,0,0,.34.4.72.72,0,0,0,.29.06,1,1,0,0,0,.7-.37,6.51,6.51,0,0,1,.76-.72.61.61,0,0,0,0,.42.51.51,0,0,0,.37.34.65.65,0,0,0,.61-.15l.92-.73a2.1,2.1,0,0,1,.3-.22,1,1,0,0,0-.08.65.65.65,0,0,0,0,.13.73.73,0,0,0,.57.41c.37,0,.61-.24.79-.44L20,42.1,20,42a4.18,4.18,0,0,1,.41-.27.53.53,0,0,0,.2.52,1.14,1.14,0,0,0,1.06,0,3.36,3.36,0,0,1,.48-.13,1.46,1.46,0,0,1,.93.14.45.45,0,0,0,.59-.22A.44.44,0,0,0,23.49,41.49Z"/><path class="cls-2" d="M42.57,32.47a17.71,17.71,0,0,0-29.36,0,5.75,5.75,0,0,0-1,3.23v1.15H29.13L32,43.15v2.64h8.31a3.29,3.29,0,0,0,3.29-3.3V35.7A5.81,5.81,0,0,0,42.57,32.47Z"/></g></svg>