<svg xmlns="http://www.w3.org/2000/svg" viewBox="0 0 51.26 51.26">
  <g fill="#FFFFFF">
    <path d="m29.14 37.28-1.8 6.04 3.3-.74-1.5-5.3zM8.11 44.66v2.32h18.48l4.26-1.01v-2.32l-4.26 1.01H8.11zM28.05 37.28H10.5l-2.25 6.13h17.83ZM24.26 41a.45.45 0 0 1-.59.22 1.48 1.48 0 0 0-.93-.14 3.51 3.51 0 0 0-.49.13 1.14 1.14 0 0 1-1.06 0 .53.53 0 0 1-.2-.51 4.86 4.86 0 0 0-.41.27l-.07.06a1.58 1.58 0 0 0-.13.13c-.18.21-.42.5-.79.45a.71.71 0 0 1-.59-.41.69.69 0 0 1-.05-.13 1 1 0 0 1 .09-.65 2.18 2.18 0 0 0-.31.22l-.92.73a.65.65 0 0 1-.61.15.52.52 0 0 1-.37-.35.59.59 0 0 1 0-.41 5.77 5.77 0 0 0-.76.72 1 1 0 0 1-.71.37.58.58 0 0 1-.28-.07.56.56 0 0 1-.34-.39.79.79 0 0 1 .15-.66 7.79 7.79 0 0 1 .6-.71 3.52 3.52 0 0 0-1 .71l-.12.13a2.6 2.6 0 0 1-.41.4 1.61 1.61 0 0 1-1 .34.47.47 0 0 1-.32-.16c-.32-.38 0-.81.2-1.16a1.79 1.79 0 0 0 .28-.55c-.05 0-.32.14-.55.35a1.89 1.89 0 0 0-.53 1 .44.44 0 0 1-.88-.11 2.73 2.73 0 0 1 .81-1.54c1-.86 1.54-.54 1.81-.28a.87.87 0 0 1 .19.84 4.79 4.79 0 0 1 2.12-1.15.92.92 0 0 1 .51 0 .64.64 0 0 1 .39.33.57.57 0 0 1 .06.31.9.9 0 0 1 1 0 .62.62 0 0 1 .23.32 1.8 1.8 0 0 1 .48-.25 1.25 1.25 0 0 1 1.09.09.61.61 0 0 1 .23.52 1.21 1.21 0 0 1 1.38-.21l.09.08a.74.74 0 0 1 .19.4h.08a4.7 4.7 0 0 1 .65-.17 2.34 2.34 0 0 1 1.41.21.43.43 0 0 1 .38.53Z"/>
    <path d="M42.22 31.43a16.66 16.66 0 0 0-27.62 0 5.36 5.36 0 0 0-.93 3v1.32h16.42l2.26 7.54V44h7.7a3.1 3.1 0 0 0 3.1-3.1v-6.44a5.44 5.44 0 0 0-.93-3.03Z"/>
    <circle cx="28.41" cy="13.48" r="9.2" transform="rotate(-16.85 28.396 13.486)"/>
  </g>
</svg>
