<svg xmlns="http://www.w3.org/2000/svg" viewBox="0 0 51.26 51.26">
  <g fill="#FFFFFF">
    <path d="M25.69,41.17A2.73,2.73,0,0,0,24,40.93a5.23,5.23,0,0,0-.71.18,1,1,0,0,0-.22-.37.57.57,0,0,0-.11-.11,1.34,1.34,0,0,0-1.5.11.76.76,0,0,0-.22-.39l-.09-.07a1.6,1.6,0,0,0-1.35-.13,2.26,2.26,0,0,0-.44.22,1.23,1.23,0,0,0-.23-.28A1.09,1.09,0,0,0,18,40,1.42,1.42,0,0,0,18,39.8a.87.87,0,0,0-.52-.44,1.19,1.19,0,0,0-.64,0,5.74,5.74,0,0,0-2.19,1.11,1.19,1.19,0,0,0-.29-.73c-.33-.33-1.06-.73-2.21.32a3.33,3.33,0,0,0-1,1.83.63.63,0,0,0,.55.7.62.62,0,0,0,.69-.55A2.19,2.19,0,0,1,13,41a3,3,0,0,1,.31-.24l-.2.32c-.26.4-.63,1-.21,1.46a.59.59,0,0,0,.45.22,1.79,1.79,0,0,0,1.2-.4,3.11,3.11,0,0,0,.48-.48l.13-.14a2.2,2.2,0,0,1,.31-.3l-.1.14a1,1,0,0,0-.2.86.77.77,0,0,0,.45.53A1,1,0,0,0,16,43a1.19,1.19,0,0,0,.88-.46,7.93,7.93,0,0,1,.58-.58.58.58,0,0,0,0,.19.73.73,0,0,0,.5.48.87.87,0,0,0,.8-.2l1-.84,0,0a1.37,1.37,0,0,0,0,.45.56.56,0,0,0,.07.18.92.92,0,0,0,.73.54,1.12,1.12,0,0,0,1-.55l.13-.14.08-.06.26-.19a.68.68,0,0,0,.28.47,1.38,1.38,0,0,0,1.31,0,4,4,0,0,1,.52-.14,1.55,1.55,0,0,1,1,.14.62.62,0,1,0,.51-1.14Z"/>
    <path d="M42.66,31.47a17.29,17.29,0,0,0-28.65,0,6,6,0,0,0-1,3.39v2.65H10.4a.62.62,0,0,0-.58.42L7.59,44.05s0,.05,0,.07a.66.66,0,0,0,0,.15v2.31a.63.63,0,0,0,.63.63H26.72l.15,0,3.84-.92a.63.63,0,0,0,.48-.61V45H40a3.73,3.73,0,0,0,3.72-3.72V34.86A6,6,0,0,0,42.66,31.47ZM10.84,38.76h17l-1.61,4.88H9.07ZM28.78,40l.92,2.7H27.89Zm-20,4.87H26.1V46H8.8Zm21.14.28-2.59.62v-1l2.59-.62Zm12.51-3.92A2.48,2.48,0,0,1,40,43.72H31.19v-.38s0-.07,0-.1,0-.07,0-.1l-1.77-5.2a.61.61,0,0,0-.61-.42H14.23V34.86a4.79,4.79,0,0,1,.82-2.69,16,16,0,0,1,26.58,0,4.79,4.79,0,0,1,.82,2.69Z"/>
    <path d="M28.34,23.7a9.83,9.83,0,1,0-9.83-9.83A9.84,9.84,0,0,0,28.34,23.7Zm0-18.4a8.58,8.58,0,1,1-8.58,8.57A8.58,8.58,0,0,1,28.34,5.3Z"/>
  </g>
</svg>