<svg xmlns="http://www.w3.org/2000/svg" viewBox="0 0 51.26 51.26">
  <g fill="#FFFFFF">
    <path d="M25.63,24.44A10.36,10.36,0,1,0,15.26,14.08,10.37,10.37,0,0,0,25.63,24.44ZM25.63,5a9.11,9.11,0,1,1-9.12,9.11A9.12,9.12,0,0,1,25.63,5Z"/>
    <path d="M22.85,38.56a13.5,13.5,0,0,1,2.28,2.12l.5.63.49-.63a13.59,13.59,0,0,1,2.29-2.12c1.73-1.4,3.53-2.85,3.53-5,0-2.65-1.58-3.9-3.05-4.19a3.5,3.5,0,0,0-3.26,1,3.51,3.51,0,0,0-3.27-1c-1.47.29-3,1.54-3,4.19C19.32,35.71,21.11,37.16,22.85,38.56Zm-.25-7.92a2.42,2.42,0,0,1,.47,0,2.08,2.08,0,0,1,2,1.22l.58,1.4.58-1.4a2.15,2.15,0,0,1,2.44-1.18,2.71,2.71,0,0,1,2,3c0,1.5-1.49,2.7-3.07,4a21.09,21.09,0,0,0-2,1.75,21.09,21.09,0,0,0-2-1.75c-1.58-1.28-3.07-2.48-3.07-4S21.33,30.9,22.6,30.64Z"/>
    <path d="M41.14,33a18.72,18.72,0,0,0-31,0A6.48,6.48,0,0,0,9,36.61v6.94a4,4,0,0,0,4,4H38.26a4,4,0,0,0,4-4V36.61A6.47,6.47,0,0,0,41.14,33Zm-30,.7a17.46,17.46,0,0,1,28.94,0,5.22,5.22,0,0,1,.9,2.94v6.06L37.29,39a4.06,4.06,0,1,0-5.75,5.74l1.59,1.59H18.24l1.47-1.47A4.06,4.06,0,0,0,14,39.07l-3.72,3.72V36.61A5.23,5.23,0,0,1,11.16,33.67ZM10.4,44.4,14.85,40a2.81,2.81,0,1,1,4,4l-2.36,2.36H13A2.74,2.74,0,0,1,10.4,44.4Zm27.86,1.89H34.9l-2.47-2.47a2.81,2.81,0,1,1,4-4l4.48,4.48A2.75,2.75,0,0,1,38.26,46.29Z"/>
  </g>
</svg>