<svg xmlns="http://www.w3.org/2000/svg" viewBox="0 0 51.26 51.26"><defs><style>.cls-1{fill:none;}.cls-2{fill:#ececed;}.cls-3{fill:#fff;}</style></defs><g id="Layer_2" data-name="Layer 2"><path class="cls-1" d="M33.64,34.49h0a19.35,19.35,0,0,0-1.81-3.61l-1.42.93a17.77,17.77,0,0,1,2.29,4.35l2.11-.25a18.62,18.62,0,0,1,5-8.85l-1.38-1.21A21.83,21.83,0,0,0,33.64,34.49Z"/><path class="cls-1" d="M21.09,22.34a1.72,1.72,0,0,0,0,3.44,1.72,1.72,0,0,0,0-3.44Z"/><path class="cls-1" d="M21.37,10.75a5.19,5.19,0,0,0-3.94,1.89l1.43,1.29a3,3,0,0,1,2.19-1.1,1.61,1.61,0,0,1,1.75,1.69c0,1.93-3.29,3.16-2.83,6.3H22.2c-.28-2.77,3.07-3.72,3.07-6.47C25.27,12,23.65,10.75,21.37,10.75Z"/><path class="cls-2" d="M27.24,23.63h9.92V11a3.54,3.54,0,0,0-3.53-3.53H9.37A3.54,3.54,0,0,0,5.84,11V25.83a3.54,3.54,0,0,0,3.53,3.53h.8a1,1,0,0,1,.95,1l-.52,6.46a1,1,0,0,0,1.64.75l7.86-8a1,1,0,0,1,.68-.28h3.88V26.2A2.58,2.58,0,0,1,27.24,23.63Zm-6.15,2.15a1.72,1.72,0,0,1,0-3.44,1.72,1.72,0,0,1,0,3.44Zm1.11-5H20c-.46-3.14,2.83-4.37,2.83-6.3a1.61,1.61,0,0,0-1.75-1.69,3,3,0,0,0-2.19,1.1l-1.43-1.29a5.19,5.19,0,0,1,3.94-1.89c2.28,0,3.9,1.24,3.9,3.6C25.27,17.1,21.92,18.05,22.2,20.82Z"/><path class="cls-3" d="M42.84,23.63H27.24a2.58,2.58,0,0,0-2.58,2.57v10a2.58,2.58,0,0,0,2.58,2.57h6.89l4.79,4.85A.73.73,0,0,0,40.16,43l-.34-4.28h3a2.58,2.58,0,0,0,2.57-2.57v-10A2.58,2.58,0,0,0,42.84,23.63ZM34.76,35.91l-2.11.25a17.77,17.77,0,0,0-2.29-4.35l1.42-.93a19.35,19.35,0,0,1,1.81,3.61h0a21.83,21.83,0,0,1,4.7-8.64l1.38,1.21A18.62,18.62,0,0,0,34.76,35.91Z"/></g></svg>