<svg xmlns="http://www.w3.org/2000/svg" viewBox="0 0 51.26 51.26">
  <g fill="#FFFFFF">
    <path d="M37.16 22.06V10.65a3.54 3.54 0 0 0-3.53-3.53H9.37a3.54 3.54 0 0 0-3.53 3.53v14.86A3.54 3.54 0 0 0 9.37 29h.8a1 1 0 0 1 .95 1l-.52 6.47a1 1 0 0 0 1.64.74l7.86-8a1 1 0 0 1 .68-.28h2.63v-3.05a3.83 3.83 0 0 1 3.83-3.82Zm-16.07 3.4a1.72 1.72 0 0 1 0-3.44 1.72 1.72 0 0 1 0 3.44Zm1.11-5H20c-.46-3.14 2.83-4.37 2.83-6.3a1.61 1.61 0 0 0-1.75-1.69 3 3 0 0 0-2.19 1.11l-1.43-1.3a5.19 5.19 0 0 1 3.94-1.89c2.28 0 3.9 1.24 3.9 3.6-.03 2.79-3.38 3.74-3.1 6.51Z"/>
    <path d="M42.84 23.31h-15.6a2.58 2.58 0 0 0-2.58 2.57v10a2.58 2.58 0 0 0 2.58 2.57h6.89l4.79 4.85a.72.72 0 0 0 1.24-.56l-.34-4.29h3a2.58 2.58 0 0 0 2.57-2.57v-10a2.58 2.58 0 0 0-2.55-2.57Zm-8.08 12.28-2.11.25a17.77 17.77 0 0 0-2.29-4.35l1.42-.93a19.35 19.35 0 0 1 1.81 3.61 21.83 21.83 0 0 1 4.7-8.64l1.38 1.21a18.62 18.62 0 0 0-4.91 8.85Z"/>
  </g>
</svg>
