<svg xmlns="http://www.w3.org/2000/svg" viewBox="0 0 51.26 51.26"><defs><style>.cls-1{fill:#fff;}</style></defs><g id="Layer_2" data-name="Layer 2"><path class="cls-1" d="M37.16,22.06V10.65a3.54,3.54,0,0,0-3.53-3.53H9.37a3.54,3.54,0,0,0-3.53,3.53V25.51A3.54,3.54,0,0,0,9.37,29h.8a1,1,0,0,1,.95,1l-.52,6.47a1,1,0,0,0,1.64.74l7.86-8a1,1,0,0,1,.68-.28h2.63V25.88a3.83,3.83,0,0,1,3.83-3.82Zm-16.07,3.4a1.72,1.72,0,0,1,0-3.44,1.72,1.72,0,0,1,0,3.44Zm1.11-5H20c-.46-3.14,2.83-4.37,2.83-6.3a1.61,1.61,0,0,0-1.75-1.69,3,3,0,0,0-2.19,1.11l-1.43-1.3a5.19,5.19,0,0,1,3.94-1.89c2.28,0,3.9,1.24,3.9,3.6C25.27,16.78,21.92,17.73,22.2,20.5Z"/><path class="cls-1" d="M42.84,23.31H27.24a2.58,2.58,0,0,0-2.58,2.57v10a2.58,2.58,0,0,0,2.58,2.57h6.89l4.79,4.85a.72.72,0,0,0,1.24-.56l-.34-4.29h3a2.58,2.58,0,0,0,2.57-2.57v-10A2.58,2.58,0,0,0,42.84,23.31ZM34.76,35.59l-2.11.25a17.77,17.77,0,0,0-2.29-4.35l1.42-.93a19.35,19.35,0,0,1,1.81,3.61h0a21.83,21.83,0,0,1,4.7-8.64l1.38,1.21A18.62,18.62,0,0,0,34.76,35.59Z"/></g></svg>