<svg xmlns="http://www.w3.org/2000/svg" viewBox="0 0 51.26 51.26"><defs><style>.cls-1{fill:#fff;}</style></defs><g id="Layer_2" data-name="Layer 2"><path class="cls-1" d="M25.63,9.45A16.18,16.18,0,1,0,41.8,25.63,16.2,16.2,0,0,0,25.63,9.45Zm0,31.1A14.93,14.93,0,1,1,40.55,25.63,14.94,14.94,0,0,1,25.63,40.55Z"/><path class="cls-1" d="M30.79,17.84a5.22,5.22,0,0,0-5.16,1.85,5.2,5.2,0,0,0-5.16-1.85c-2.21.44-4.57,2.34-4.57,6.36,0,3.17,2.8,5.43,5.51,7.62a22.88,22.88,0,0,1,3.72,3.46.63.63,0,0,0,1,0,23.3,23.3,0,0,1,3.72-3.46c2.71-2.19,5.52-4.45,5.52-7.62C35.36,20.18,33,18.28,30.79,17.84Zm-1.73,13a30.14,30.14,0,0,0-3.43,3.07,30.14,30.14,0,0,0-3.43-3.07c-2.48-2-5.05-4.08-5.05-6.65,0-3.26,1.84-4.79,3.56-5.13a4.38,4.38,0,0,1,.82-.08,3.7,3.7,0,0,1,3.52,2.19.66.66,0,0,0,1.16,0,3.82,3.82,0,0,1,4.34-2.11c1.72.34,3.56,1.87,3.56,5.13C34.11,26.77,31.54,28.84,29.06,30.85Z"/></g></svg>