<svg xmlns="http://www.w3.org/2000/svg" viewBox="0 0 51.26 51.26"><defs><style>.cls-1{fill:#ececed;}.cls-2{fill:#fff;}</style></defs><g id="Layer_2" data-name="Layer 2"><path class="cls-1" d="M25.63,21.26c-1.68-4.08-9.11-3.55-9.11,3.25,0,4.45,6.37,7.16,9.11,10.7,2.74-3.54,9.1-6.25,9.1-10.7C34.73,17.71,27.31,17.18,25.63,21.26Z"/><path class="cls-2" d="M25.63,10.4A15.55,15.55,0,1,0,41.18,26,15.55,15.55,0,0,0,25.63,10.4Zm0,24.81c-2.74-3.54-9.11-6.25-9.11-10.7,0-6.8,7.43-7.33,9.11-3.25,1.68-4.08,9.1-3.55,9.1,3.25C34.73,29,28.37,31.67,25.63,35.21Z"/></g></svg>