<svg xmlns="http://www.w3.org/2000/svg" viewBox="0 0 51.26 51.26">
  <path fill="#FFFFFF" d="M42.85 17.15a2.58 2.58 0 0 0-2.57-2.57H35.5a5 5 0 0 0-5.27-8.24c-1.18.5-3 2.32-4.43 4-1.47-1.68-3.25-3.5-4.43-4a5 5 0 0 0-5.28 8.24H11a2.57 2.57 0 0 0-2.57 2.57v8.26h1.85v18.4a1.52 1.52 0 0 0 1.51 1.51h27.7A1.52 1.52 0 0 0 41 43.81v-18.4h1.85ZM31.68 9.73a1.28 1.28 0 0 1 1 0 1.31 1.31 0 0 1 .7.69 1.33 1.33 0 0 1 0 1 1.3 1.3 0 0 1-.68.7 14.92 14.92 0 0 1-3.63.14 15.12 15.12 0 0 1 2.61-2.53Zm-13.44.69a1.31 1.31 0 0 1 .7-.69 1.36 1.36 0 0 1 .48-.09 1.24 1.24 0 0 1 .5.1 14.54 14.54 0 0 1 2.62 2.5 14.82 14.82 0 0 1-3.62-.14 1.29 1.29 0 0 1-.68-1.68Zm-8.58 6.73A1.32 1.32 0 0 1 11 15.83h11.49v8.33H9.66Zm1.85 26.66v-17h11v17.26H11.77a.26.26 0 0 1-.26-.26Zm28 .26H28.76V26.82h11v17a.26.26 0 0 1-.27.25Zm2.09-19.91H28.76v-8.33h11.52a1.32 1.32 0 0 1 1.32 1.32Z"/>
</svg>
