<?xml version="1.0" encoding="UTF-8"?>
<svg id="Layer_2" data-name="Layer 2" xmlns="http://www.w3.org/2000/svg" viewBox="0 0 51.26 51.26">
  <defs>
    <style>
      .cls-1 {
        fill: none;
        fill-rule: evenodd;
        stroke: #FFFFFF;
        stroke-miterlimit: 10;
      }
    </style>
  </defs>
  <path class="cls-1" d="m25.64,7.18C15.26,7.18,6.86,15.63,6.86,26.1c0,8.36,5.38,15.44,12.84,17.95.93.19,1.27-.41,1.27-.91,0-.44-.03-1.94-.03-3.51-5.22,1.13-6.31-2.26-6.31-2.26-.84-2.19-2.08-2.76-2.08-2.76-1.71-1.16.12-1.16.12-1.16,1.9.13,2.89,1.94,2.89,1.94,1.68,2.88,4.38,2.07,5.47,1.57.16-1.22.65-2.07,1.18-2.54-4.17-.44-8.55-2.07-8.55-9.33,0-2.07.75-3.76,1.93-5.07-.19-.47-.84-2.41.19-5.01,0,0,1.59-.5,5.16,1.94,1.53-.41,3.11-.62,4.69-.63,1.59,0,3.2.22,4.69.63,3.58-2.44,5.16-1.94,5.16-1.94,1.03,2.6.37,4.54.19,5.01,1.21,1.32,1.93,3.01,1.93,5.07,0,7.27-4.38,8.86-8.58,9.33.68.6,1.27,1.72,1.27,3.51,0,2.54-.03,4.57-.03,5.2,0,.5.34,1.1,1.27.91,7.46-2.51,12.84-9.58,12.84-17.95.03-10.46-8.39-18.92-18.75-18.92Z"/>
</svg>