<svg xmlns="http://www.w3.org/2000/svg" viewBox="0 0 51.26 51.26"><defs><style>.cls-1{fill:none;}.cls-2{fill:#fff;}.cls-3{fill:#ececed;}</style></defs><g id="Layer_2" data-name="Layer 2"><path class="cls-1" d="M27.79,12.52a14.66,14.66,0,0,0-2.58-2.45,1.15,1.15,0,0,0-.48-.1,1.27,1.27,0,0,0-.47.09,1.24,1.24,0,0,0-.69.68,1.26,1.26,0,0,0,.67,1.65A14.92,14.92,0,0,0,27.79,12.52Z"/><path class="cls-1" d="M27,12.38a1.22,1.22,0,0,0,.66-.68A1.24,1.24,0,0,0,27,10.06a1.28,1.28,0,0,0-1,0,15.3,15.3,0,0,0-2.57,2.46A14.34,14.34,0,0,0,27,12.38Z"/><path class="cls-2" d="M28.7,44.62H39.57a.51.51,0,0,0,.51-.51v-17H28.7Z"/><path class="cls-2" d="M11.18,44.11a.51.51,0,0,0,.51.51H22.55V27.1H11.18Z"/><path class="cls-2" d="M40,15.72H28.7v9.39H41.89V17.62A1.9,1.9,0,0,0,40,15.72Z"/><path class="cls-2" d="M11.69,15.72h-.42a1.9,1.9,0,0,0-1.9,1.9v7.49H22.55V15.72H11.69Z"/><path class="cls-3" d="M28.7,25.11V15.72h5.78A4.87,4.87,0,0,0,30.14,7C29,7.52,27.23,9.31,25.8,11,24.36,9.31,22.61,7.52,21.45,7a4.89,4.89,0,0,0-6.4,2.59,4.88,4.88,0,0,0,2.05,6.1h5.45v9.39H11.18v2H22.55V44.62H28.7V27.1H40.08v-2Zm2.86-14.75a1.28,1.28,0,0,1,1,0,1.26,1.26,0,0,1,.68.68,1.25,1.25,0,0,1-.65,1.64,14.69,14.69,0,0,1-3.56.15A14.51,14.51,0,0,1,31.56,10.36Zm-12.5,2.32a1.26,1.26,0,0,1,0-2.33,1.36,1.36,0,0,1,.48-.09,1.18,1.18,0,0,1,.48.1,14.81,14.81,0,0,1,2.58,2.46A15.3,15.3,0,0,1,19.06,12.68Z"/></g></svg>