<svg xmlns="http://www.w3.org/2000/svg" viewBox="0 0 51.26 51.26"><defs><style>.cls-1{fill:#fff;}</style></defs><g id="Layer_2" data-name="Layer 2"><path class="cls-1" d="M42.85,17.15a2.58,2.58,0,0,0-2.57-2.57H35.5a5,5,0,0,0-5.27-8.24c-1.18.5-3,2.32-4.43,4-1.47-1.68-3.25-3.5-4.43-4a5,5,0,0,0-5.28,8.24H11a2.57,2.57,0,0,0-2.57,2.57v8.26h1.85v18.4a1.52,1.52,0,0,0,1.51,1.51H39.49A1.52,1.52,0,0,0,41,43.81V25.41h1.85ZM31.68,9.73a1.28,1.28,0,0,1,1,0,1.31,1.31,0,0,1,.7.69,1.33,1.33,0,0,1,0,1,1.3,1.3,0,0,1-.68.7,14.92,14.92,0,0,1-3.63.14A15.12,15.12,0,0,1,31.68,9.73Zm-13.44.69a1.31,1.31,0,0,1,.7-.69,1.36,1.36,0,0,1,.48-.09,1.24,1.24,0,0,1,.5.1,14.54,14.54,0,0,1,2.62,2.5,14.82,14.82,0,0,1-3.62-.14A1.29,1.29,0,0,1,18.24,10.42ZM9.66,17.15A1.32,1.32,0,0,1,11,15.83H22.49v8.33H9.66Zm1.85,26.66v-17h11V44.07H11.77A.26.26,0,0,1,11.51,43.81Zm28,.26H28.76V26.82h11v17A.26.26,0,0,1,39.49,44.07ZM41.6,24.16H28.76V15.83H40.28a1.32,1.32,0,0,1,1.32,1.32Z"/></g></svg>