<svg xmlns="http://www.w3.org/2000/svg" viewBox="0 0 51.26 51.26"><defs><style>.cls-1{fill:#fff;}</style></defs><g id="Layer_2" data-name="Layer 2"><path class="cls-1" d="M43.06,17.29a2.6,2.6,0,0,0-2.59-2.59H36.2a5.59,5.59,0,0,0-6.39-8.82,15,15,0,0,0-4.18,3.64,15,15,0,0,0-4.19-3.64,5.58,5.58,0,0,0-6.38,8.82H10.79A2.6,2.6,0,0,0,8.2,17.29v8.36h1.87V44.3a1.52,1.52,0,0,0,1.52,1.52H39.66a1.53,1.53,0,0,0,1.53-1.52V25.65h1.87ZM30.3,7a4.34,4.34,0,0,1,4,7.66h-6a2.32,2.32,0,0,0,.29-1.11v-.5s0-.07,0-.11h.3c.44,0,.93,0,1.4,0a8.92,8.92,0,0,0,2.5-.23,1.86,1.86,0,0,0,1-1,1.91,1.91,0,0,0-1.05-2.49,1.92,1.92,0,0,0-1.45,0l0,0A15.05,15.05,0,0,0,28.42,12l-.1.11a2.35,2.35,0,0,0-2.09-1.33A15.71,15.71,0,0,1,30.3,7ZM28.18,24.4h-5.1V16.05h5.1ZM23.94,13.59v-.5A1.11,1.11,0,0,1,25.05,12h1.16a1.11,1.11,0,0,1,1.11,1.11v.5a1.11,1.11,0,0,1-1.11,1.11H25.05A1.11,1.11,0,0,1,23.94,13.59Zm6.36-1.82a9,9,0,0,1,1.47-1.34.66.66,0,0,1,.48,0,.68.68,0,0,1,.36.35.65.65,0,0,1,0,.51.58.58,0,0,1-.31.34A8.27,8.27,0,0,1,30.3,11.77ZM15.24,9.35A4.37,4.37,0,0,1,17.62,7,4.28,4.28,0,0,1,21,7,15.86,15.86,0,0,1,25,10.73a2.38,2.38,0,0,0-2.1,1.33L22.84,12A14,14,0,0,0,20,9.28a1.94,1.94,0,0,0-1.46,0,1.89,1.89,0,0,0-1,1,1.94,1.94,0,0,0,0,1.46,2,2,0,0,0,1.06,1.06,8.89,8.89,0,0,0,2.36.2l1.49,0h.31s0,.07,0,.11v.5A2.32,2.32,0,0,0,23,14.7H16.93A4.35,4.35,0,0,1,15.24,9.35ZM21,11.77a8.72,8.72,0,0,1-2-.12.65.65,0,0,1-.35-.36.67.67,0,0,1,0-.5h0a.6.6,0,0,1,.35-.35.56.56,0,0,1,.25,0,.65.65,0,0,1,.22,0A8,8,0,0,1,21,11.77ZM9.45,17.29A1.34,1.34,0,0,1,10.79,16h11V24.4H9.45Zm2.14,27.28a.27.27,0,0,1-.27-.27V25.65H21.83V44.57Zm11.49,0V25.65h5.1V44.57Zm16.86-.27a.28.28,0,0,1-.28.27H29.43V25.65H39.94Zm1.87-19.9H29.43V16h11a1.34,1.34,0,0,1,1.34,1.34Z"/></g></svg>