<svg xmlns="http://www.w3.org/2000/svg" viewBox="0 0 51.26 51.26"><defs><style>.cls-1{fill:#fff;}</style></defs><g id="Layer_2" data-name="Layer 2"><path class="cls-1" d="M19,24.69v2.75h6.46c-.76,3.34-3.12,5.39-6.28,5.39a7.52,7.52,0,1,1,5.11-13L26.43,18A10.3,10.3,0,1,0,19.2,35.61c5.46,0,9.41-4.16,9.41-9.85l0-1.07Z"/><polygon class="cls-1" points="38.41 24.81 38.41 20.85 35.88 20.85 35.88 24.81 31.93 24.81 31.93 27.33 35.88 27.33 35.88 31.28 38.41 31.28 38.41 27.33 42.36 27.33 42.36 24.81 38.41 24.81"/></g></svg>