<svg xmlns="http://www.w3.org/2000/svg" viewBox="0 0 51.26 51.26"><defs><style>.cls-1{fill:#fff;}.cls-2{fill:#ececed;}</style></defs><g id="Layer_2" data-name="Layer 2"><path class="cls-1" d="M20.32,25.13v2.2h5.18a5.08,5.08,0,0,1-5,4.33,6,6,0,1,1,4.1-10.45l1.7-1.47a8.27,8.27,0,1,0-5.8,14.16C24.85,33.9,28,30.55,28,26v-.86Z"/><polygon class="cls-1" points="35.88 25.22 35.88 22.05 33.86 22.05 33.86 25.22 30.68 25.22 30.68 27.25 33.86 27.25 33.86 30.42 35.88 30.42 35.88 27.25 39.06 27.25 39.06 25.22 35.88 25.22"/><path class="cls-2" d="M25.63,6.6a19,19,0,0,0-19,19h0a19,19,0,0,0,38.06,0h0A19,19,0,0,0,25.63,6.6ZM39.06,27.25H35.88v3.17h-2V27.25H30.69v-2h3.17V22.05h2v3.17h3.18ZM12.2,25.63a8.27,8.27,0,0,1,14.07-5.89l-1.7,1.47a6,6,0,1,0-4.1,10.45,5.08,5.08,0,0,0,5-4.33H20.33v-2.2H28V26c0,4.56-3.17,7.91-7.55,7.91A8.27,8.27,0,0,1,12.2,25.63Z"/></g></svg>