<svg xmlns="http://www.w3.org/2000/svg" viewBox="0 0 51.26 51.26">
  <g fill="#FFFFFF">
    <path d="M38.75 36.27h.07a.71.71 0 0 0 .71-.71V8.44a.71.71 0 0 0-.71-.71H14.2a3.13 3.13 0 0 0-2.47 3.34V39.6v-.38c.13 2 1.54 3.67 3.26 3.67h23.76a.7.7 0 0 0 0-1.39c-1 0-1.9-1.17-1.9-2.6s.87-2.63 1.9-2.63ZM18.93 20.74h2a4.94 4.94 0 0 1 .53-1.3L20.05 18l1.67-1.66 1.38 1.37a4.63 4.63 0 0 1 1.33-.56v-1.9h2.35v1.92a4.55 4.55 0 0 1 1.34.57l1.37-1.37L31.16 18l-1.39 1.39a5.07 5.07 0 0 1 .53 1.32h2v2.39h-2a4.7 4.7 0 0 1-.54 1.26l1.45 1.44-1.67 1.67L28 26a4.77 4.77 0 0 1-1.23.51v2.09h-2.34v-2.1a4.44 4.44 0 0 1-1.23-.5l-1.48 1.49-1.67-1.69 1.47-1.46A4.55 4.55 0 0 1 21 23.1h-2.07ZM15 41.5c-1 0-1.9-1.17-1.9-2.6s.9-2.59 1.9-2.59h21.29a4.6 4.6 0 0 0 0 5.23Z"/>
    <path d="M25.62 23.42A1.59 1.59 0 1 0 24 21.84a1.59 1.59 0 0 0 1.62 1.58Z"/>
  </g>
</svg>
