<svg xmlns="http://www.w3.org/2000/svg" viewBox="0 0 51.26 51.26">
  <g fill="#FFFFFF">
    <path d="M43,22.34,26,9.87a.63.63,0,0,0-.74,0l-8.15,6v-1a.63.63,0,0,0-.63-.62H11.83a.63.63,0,0,0-.63.62v5.3L8.3,22.34a.62.62,0,0,0-.14.87.64.64,0,0,0,.88.14l2.45-1.81V40.88a.63.63,0,0,0,.63.63h9.73a.63.63,0,0,0,.62-.63V29h6.65V40.88a.63.63,0,0,0,.62.63h9.81a.63.63,0,0,0,.63-.63v-19l2,1.5a.63.63,0,0,0,.37.12A.63.63,0,0,0,43,22.34ZM12.45,15.53h3.41v1.24h0l-3.41,2.5ZM38.93,21V40.26H30.37V28.41a.63.63,0,0,0-.63-.62H21.85a.63.63,0,0,0-.63.62V40.26H12.74V21a.69.69,0,0,0-.07-.29l13-9.53,13.31,9.78S38.93,21,38.93,21Z"/>
  </g>
</svg>