<svg xmlns="http://www.w3.org/2000/svg" viewBox="0 0 51.26 51.26"><defs><style>.cls-1{fill:#fff;}.cls-2{fill:#ececed;}</style></defs><g id="Layer_2" data-name="Layer 2"><rect class="cls-1" x="21.81" y="29.46" width="7.9" height="12.47"/><polygon class="cls-2" points="11.83 19.87 11.83 14.94 16.48 14.94 16.48 16.45 11.83 19.87"/><polygon class="cls-2" points="25.63 12.21 12.09 22.16 12.09 41.93 21.81 41.93 21.81 29.46 29.71 29.46 29.71 41.93 39.52 41.93 39.52 22.42 25.63 12.21"/><path class="cls-1" d="M42.59,24.43a1,1,0,0,1-.59-.19l-16.37-12-16.37,12a1,1,0,1,1-1.18-1.61L25,10.16a1,1,0,0,1,1.18,0l17,12.47a1,1,0,0,1-.59,1.8Z"/></g></svg>