<svg xmlns="http://www.w3.org/2000/svg" viewBox="0 0 51.26 51.26"><defs><style>.cls-1{fill:#fff;}</style></defs><g id="Layer_2" data-name="Layer 2"><path class="cls-1" d="M25.63,7.76A17.55,17.55,0,1,0,43.17,25.31,17.55,17.55,0,0,0,25.63,7.76ZM33,37.61l-.65-1.21a.62.62,0,0,0-.85-.25.63.63,0,0,0-.25.85l.65,1.21a14.31,14.31,0,0,1-5.63,1.42V38.4a.63.63,0,1,0-1.25,0v1.23a14.42,14.42,0,0,1-5.93-1.57l.59-1a.61.61,0,0,0-.23-.85.62.62,0,0,0-.85.23l-.59,1a14.3,14.3,0,0,1-4.66-4.78L14.5,32a.62.62,0,0,0,.25-.85.63.63,0,0,0-.85-.25l-1.17.64a14.4,14.4,0,0,1-1.42-5.63h1.23a.63.63,0,1,0,0-1.25H11.31a14.12,14.12,0,0,1,1.57-5.94l1,.58a.6.6,0,0,0,.31.08.62.62,0,0,0,.31-1.16l-1-.58A14.36,14.36,0,0,1,18.27,13l.61,1.12a.64.64,0,0,0,.85.26.63.63,0,0,0,.25-.85l-.61-1.13A14.4,14.4,0,0,1,25,11v1.23a.63.63,0,1,0,1.25,0V11a14.51,14.51,0,0,1,5.94,1.57l-.78,1.36a.63.63,0,0,0,.24.85.64.64,0,0,0,.3.08.63.63,0,0,0,.55-.32l.77-1.35A14.49,14.49,0,0,1,37.93,18l-1.29.69a.63.63,0,0,0,.3,1.18.67.67,0,0,0,.3-.08l1.28-.69a14,14,0,0,1,1.42,5.63H38.71a.63.63,0,0,0,0,1.25h1.23a14.26,14.26,0,0,1-1.56,5.93l-1.13-.65a.62.62,0,0,0-.85.24.61.61,0,0,0,.23.85l1.13.64A14.39,14.39,0,0,1,33,37.61Z"/><path class="cls-1" d="M25.63,15.89a1,1,0,0,0-1,1v8.69L21,28.79a1,1,0,0,0,.66,1.75,1,1,0,0,0,.66-.25l4.33-3.81V16.89A1,1,0,0,0,25.63,15.89Z"/></g></svg>