<svg xmlns="http://www.w3.org/2000/svg" viewBox="0 0 51.26 51.26"><defs><style>.cls-1{fill:none;}.cls-2{fill:#fff;}.cls-3{fill:#ececed;}</style></defs><g id="Layer_2" data-name="Layer 2"><path class="cls-1" d="M38.09,25.63a.63.63,0,0,1,.62-.63h1.23a14.06,14.06,0,0,0-1.42-5.63l-1.28.7a.67.67,0,0,1-.3.08.63.63,0,0,1-.3-1.18l1.29-.7a14.46,14.46,0,0,0-4.66-4.77l-.77,1.35a.62.62,0,0,1-.85.24.64.64,0,0,1-.24-.86l.78-1.35a14.2,14.2,0,0,0-5.94-1.57v1.23a.63.63,0,1,1-1.25,0V11.31a14.4,14.4,0,0,0-5.63,1.42L20,13.86a.62.62,0,0,1-.55.92.64.64,0,0,1-.55-.33l-.61-1.12A14.36,14.36,0,0,0,13.5,18l1,.57a.62.62,0,0,1,.23.86.61.61,0,0,1-.54.31.71.71,0,0,1-.31-.08l-1-.58A14.12,14.12,0,0,0,11.31,25h1.23a.63.63,0,1,1,0,1.25H11.31a14.31,14.31,0,0,0,1.42,5.63l1.17-.63a.63.63,0,0,1,.6,1.1L13.33,33A14.39,14.39,0,0,0,18,37.76l.59-1a.62.62,0,1,1,1.08.62l-.59,1A14.26,14.26,0,0,0,25,39.94V38.71a.63.63,0,0,1,1.25,0v1.23a14,14,0,0,0,5.63-1.42l-.65-1.21a.62.62,0,0,1,1.1-.59L33,37.93a14.49,14.49,0,0,0,4.78-4.66l-1.13-.64a.63.63,0,0,1,.62-1.09l1.13.65a14.34,14.34,0,0,0,1.56-5.94H38.71A.62.62,0,0,1,38.09,25.63ZM26.63,26.8,22.3,30.61a1,1,0,0,1-.66.25A1,1,0,0,1,21,29.11l3.65-3.21V17.21a1,1,0,0,1,2,0Z"/><path class="cls-2" d="M25.63,16.21a1,1,0,0,0-1,1V25.9L21,29.11a1,1,0,0,0,.66,1.75,1,1,0,0,0,.66-.25l4.33-3.81V17.21A1,1,0,0,0,25.63,16.21Z"/><path class="cls-2" d="M19.37,12.73c-.37.18-.74.38-1.1.6l.61,1.12a.64.64,0,0,0,.85.26.63.63,0,0,0,.25-.85Z"/><path class="cls-2" d="M31.48,36.47a.62.62,0,0,0-.25.84l.65,1.21c.38-.18.75-.38,1.1-.59l-.65-1.21A.62.62,0,0,0,31.48,36.47Z"/><path class="cls-2" d="M13.9,31.25l-1.17.63a10.59,10.59,0,0,0,.6,1.1l1.17-.63a.63.63,0,0,0-.6-1.1Z"/><path class="cls-2" d="M36.94,20.15a.67.67,0,0,0,.3-.08l1.28-.7c-.18-.37-.38-.74-.59-1.1l-1.29.7a.63.63,0,0,0,.3,1.18Z"/><path class="cls-2" d="M25.63,13.17a.63.63,0,0,0,.62-.63V11.31c-.21,0-.41,0-.62,0l-.63,0v1.23A.63.63,0,0,0,25.63,13.17Z"/><path class="cls-2" d="M25.63,38.09a.63.63,0,0,0-.63.62v1.23c.21,0,.42,0,.63,0s.41,0,.62,0V38.71A.62.62,0,0,0,25.63,38.09Z"/><path class="cls-2" d="M13.17,25.63a.63.63,0,0,0-.63-.63H11.31c0,.21,0,.42,0,.63s0,.41,0,.62h1.23A.63.63,0,0,0,13.17,25.63Z"/><path class="cls-2" d="M39.94,25H38.71a.63.63,0,0,0,0,1.25h1.23c0-.21,0-.41,0-.62S40,25.21,39.94,25Z"/><path class="cls-2" d="M14.2,19.73a.61.61,0,0,0,.54-.31.62.62,0,0,0-.23-.86l-1-.57c-.22.35-.43.71-.62,1.08l1,.58A.71.71,0,0,0,14.2,19.73Z"/><path class="cls-2" d="M36.4,31.77a.62.62,0,0,0,.23.86l1.13.64c.22-.35.43-.71.62-1.08l-1.13-.65A.62.62,0,0,0,36.4,31.77Z"/><path class="cls-2" d="M19.43,36.49a.61.61,0,0,0-.85.23l-.59,1c.35.22.71.43,1.08.62l.59-1A.61.61,0,0,0,19.43,36.49Z"/><path class="cls-2" d="M31.41,14.23a.63.63,0,0,0,.54.94.65.65,0,0,0,.55-.32l.77-1.35c-.35-.22-.71-.43-1.08-.62Z"/><path class="cls-3" d="M25.63,8.08A17.55,17.55,0,1,0,43.17,25.63,17.55,17.55,0,0,0,25.63,8.08ZM38.38,32.19c-.19.37-.4.73-.62,1.08A14.49,14.49,0,0,1,33,37.93c-.35.21-.72.41-1.1.59a14,14,0,0,1-5.63,1.42c-.21,0-.41,0-.62,0s-.42,0-.63,0a14.26,14.26,0,0,1-5.93-1.56c-.37-.19-.73-.4-1.08-.62A14.39,14.39,0,0,1,13.33,33a10.59,10.59,0,0,1-.6-1.1,14.31,14.31,0,0,1-1.42-5.63c0-.21,0-.41,0-.62s0-.42,0-.63a14.12,14.12,0,0,1,1.57-5.93c.19-.37.4-.73.62-1.08a14.36,14.36,0,0,1,4.77-4.66c.36-.22.73-.42,1.1-.6A14.4,14.4,0,0,1,25,11.31l.63,0c.21,0,.41,0,.62,0a14.2,14.2,0,0,1,5.94,1.57c.37.19.73.4,1.08.62a14.46,14.46,0,0,1,4.66,4.77c.21.36.41.73.59,1.1A14.06,14.06,0,0,1,39.94,25c0,.21,0,.42,0,.63s0,.41,0,.62A14.34,14.34,0,0,1,38.38,32.19Z"/></g></svg>