<svg xmlns="http://www.w3.org/2000/svg" viewBox="0 0 51.26 51.26"><defs><style>.cls-1{fill:#fff;}</style></defs><g id="Layer_2" data-name="Layer 2"><path class="cls-1" d="M25.63,7.14A18.17,18.17,0,1,0,43.8,25.31,18.19,18.19,0,0,0,25.63,7.14Zm0,35.09A16.92,16.92,0,1,1,42.55,25.31,16.94,16.94,0,0,1,25.63,42.23Z"/><path class="cls-1" d="M25.63,16.27a.63.63,0,0,0-.63.62v8.86l-3.77,3.32a.62.62,0,0,0,.41,1.09.63.63,0,0,0,.41-.15l4.2-3.7V16.89A.62.62,0,0,0,25.63,16.27Z"/><path class="cls-1" d="M38.81,18.21a0,0,0,0,1,0,0h0a15,15,0,0,0-5.67-5.82s0,0-.07-.06l-.07,0a14.9,14.9,0,0,0-14.45-.16h0a15.19,15.19,0,0,0-5.82,5.68l-.06.07s0,0,0,.06a15,15,0,0,0-.15,14.46h0a15.15,15.15,0,0,0,5.68,5.83s0,0,.07.05l.05,0a14.94,14.94,0,0,0,14.47.16h0a15.16,15.16,0,0,0,5.84-5.7l0-.05s0,0,0-.06a14.92,14.92,0,0,0,.16-14.46Zm-1,13.35-.58-.34a.62.62,0,0,0-.85.24.61.61,0,0,0,.23.85l.58.33a14,14,0,0,1-4.53,4.42l-.35-.66a.63.63,0,0,0-1.1.6l.35.65A13.58,13.58,0,0,1,26.25,39v-.6a.63.63,0,1,0-1.25,0V39a13.52,13.52,0,0,1-5.62-1.49l.28-.49a.62.62,0,1,0-1.08-.62l-.28.49a13.74,13.74,0,0,1-4.42-4.52L14.5,32a.63.63,0,1,0-.6-1.1l-.62.34a13.66,13.66,0,0,1-1.34-5.33h.6a.63.63,0,1,0,0-1.25h-.6a13.67,13.67,0,0,1,1.48-5.63l.47.27a.6.6,0,0,0,.31.08.61.61,0,0,0,.54-.31.62.62,0,0,0-.23-.85L14.05,18a13.84,13.84,0,0,1,4.52-4.42l.31.57a.64.64,0,0,0,.85.26.63.63,0,0,0,.25-.85L19.67,13A13.67,13.67,0,0,1,25,11.62v.6a.63.63,0,1,0,1.25,0v-.6a13.48,13.48,0,0,1,5.62,1.49l-.46.81a.63.63,0,0,0,.24.85.64.64,0,0,0,.3.08.63.63,0,0,0,.55-.32l.46-.8a13.87,13.87,0,0,1,4.42,4.53l-.74.39a.63.63,0,0,0,.3,1.18.67.67,0,0,0,.3-.08l.73-.4a13.67,13.67,0,0,1,1.35,5.34h-.61a.63.63,0,0,0,0,1.25h.61A13.52,13.52,0,0,1,37.83,31.56Z"/></g></svg>