<svg xmlns="http://www.w3.org/2000/svg" viewBox="0 0 51.26 51.26"><defs><style>.cls-1{fill:#fff;}.cls-2{fill:#ececed;}</style></defs><g id="Layer_2" data-name="Layer 2"><path class="cls-1" d="M20.33,18.87A2.9,2.9,0,1,0,17.44,16,2.89,2.89,0,0,0,20.33,18.87Z"/><path class="cls-1" d="M24.78,21.69a5.36,5.36,0,0,0-8.9,0,1.68,1.68,0,0,0-.3,1v2.06a1,1,0,0,0,1,1h7.5a1,1,0,0,0,1-1V22.66A1.76,1.76,0,0,0,24.78,21.69Z"/><path class="cls-2" d="M30,10.08A14.05,14.05,0,1,0,28.3,31.34l11.3,13a3.34,3.34,0,0,0,4.72-4.72L31.44,28.17A14,14,0,0,0,30,10.08ZM27.27,27.27a10.26,10.26,0,1,1,0-14.51A10.27,10.27,0,0,1,27.27,27.27Z"/></g></svg>