<svg xmlns="http://www.w3.org/2000/svg" viewBox="0 0 51.26 51.26">
  <g fill="#FFFFFF">
    <path d="M22.12,18.66a3.52,3.52,0,1,0-3.59,0A6,6,0,0,0,15.36,21,2.37,2.37,0,0,0,15,22.34V24.4A1.63,1.63,0,0,0,16.58,26h7.5A1.62,1.62,0,0,0,25.7,24.4V22.34A2.44,2.44,0,0,0,25.3,21,6,6,0,0,0,22.12,18.66Zm-1.79-5.28a2.27,2.27,0,1,1-2.27,2.27A2.27,2.27,0,0,1,20.33,13.38Zm4.12,11a.37.37,0,0,1-.37.38h-7.5a.38.38,0,0,1-.38-.38V22.34a1.19,1.19,0,0,1,.19-.63,4.75,4.75,0,0,1,7.87,0,1.11,1.11,0,0,1,.19.63Z"/>
    <path d="M44.73,38.81,32.27,27.75a14.68,14.68,0,1,0-4.07,4.11l11,12.58a4,4,0,1,0,5.58-5.63Zm-.85,4.74a2.71,2.71,0,0,1-3.81,0L28.39,30.18l-.46.34a13.42,13.42,0,1,1,3-3L30.6,28,43.88,39.71A2.73,2.73,0,0,1,43.88,43.55Z"/>
    <path d="M27.71,12a10.88,10.88,0,1,0,3.19,7.69A10.79,10.79,0,0,0,27.71,12Zm-.88,14.5a9.63,9.63,0,1,1,2.82-6.81A9.58,9.58,0,0,1,26.83,26.5Z"/>
  </g>
</svg>