<svg xmlns="http://www.w3.org/2000/svg" viewBox="0 0 51.26 51.26"><defs><style>.cls-1{fill:#fff;}</style></defs><g id="Layer_2" data-name="Layer 2"><path class="cls-1" d="M20.33,18.55a2.9,2.9,0,1,0-2.89-2.89A2.89,2.89,0,0,0,20.33,18.55Z"/><path class="cls-1" d="M20.33,19a5.36,5.36,0,0,0-4.45,2.37,1.72,1.72,0,0,0-.3,1v2.06a1,1,0,0,0,1,1h7.5a1,1,0,0,0,1-1V22.35a1.79,1.79,0,0,0-.3-1A5.37,5.37,0,0,0,20.33,19Z"/><path class="cls-1" d="M44.32,39.28,31.44,27.86A14.06,14.06,0,1,0,28.3,31L39.6,44a3.34,3.34,0,0,0,4.72-4.72ZM27.27,27a10.26,10.26,0,1,1,0-14.5A10.25,10.25,0,0,1,27.27,27Z"/></g></svg>