<svg xmlns="http://www.w3.org/2000/svg" viewBox="0 0 51.26 51.26"><defs><style>.cls-1{fill:#ececed;}.cls-2{fill:#fff;}</style></defs><g id="Layer_2" data-name="Layer 2"><path class="cls-1" d="M45.43,20.75a3,3,0,0,0-2.06-1L19.13,17.89c-1.68-.13-2.53.56-2.7,2.15L15.11,32.35s0,0,0,.07l-.46,5.14a3,3,0,0,0,2.78,3.23l24.24,1.82h.23a3,3,0,0,0,3-2.79l.18-2.38,1.09-14.51A3,3,0,0,0,45.43,20.75Zm-27.76-.57c.09-.87.29-1.12,1.36-1L43.28,21a1.74,1.74,0,0,1,1.2.61,1.72,1.72,0,0,1,.42,1.28l-1,13L39.75,31a1.34,1.34,0,0,0-.94-.47H38.7a1.07,1.07,0,0,0-.3.06l-.14,0a1.53,1.53,0,0,0-.45.25l-4.58,3.95a.12.12,0,0,1-.17,0l-7.5-8.72a1.5,1.5,0,0,0-1-.52,1.47,1.47,0,0,0-1.07.34L16.5,31.1Z"/><path class="cls-1" d="M36.3,27.73a2,2,0,1,0-1.87-2.18A2,2,0,0,0,36.3,27.73Z"/><path class="cls-2" d="M15.09,32.42s0,0,0-.07L16.43,20c.17-1.59,1-2.28,2.7-2.15l16.55,1.25-2.56-8.78a2.39,2.39,0,0,0-3-1.63L6.82,15.53a2.4,2.4,0,0,0-1.63,3L9.93,34.75a2.39,2.39,0,0,0,3,1.62l1.89-.55Z"/></g></svg>