<svg xmlns="http://www.w3.org/2000/svg" viewBox="0 0 51.26 51.26"><defs><style>.cls-1{fill:#fff;}</style></defs><g id="Layer_2" data-name="Layer 2"><path class="cls-1" d="M46.46,22.94a3,3,0,0,0-.72-2.19,3,3,0,0,0-2.06-1l-7-.53-2.62-9a3,3,0,0,0-1.45-1.8,3,3,0,0,0-2.29-.25L7,14.92a3,3,0,0,0-1.8,1.45,3,3,0,0,0-.25,2.29L9.64,34.92a3,3,0,0,0,2.89,2.17,3.12,3.12,0,0,0,.85-.12L15,36.49l-.08,1.06a3,3,0,0,0,2.78,3.24L42,42.61h.23a3,3,0,0,0,3-2.79l.2-2.64h0Zm-1.67-1.37a1.75,1.75,0,0,1,.43,1.28l-1,13L40.06,31a1.37,1.37,0,0,0-.94-.48H39a1.54,1.54,0,0,0-.31,0l-.14,0a1.26,1.26,0,0,0-.45.25l-4.58,3.94a.14.14,0,0,1-.17,0l-7.5-8.72a1.49,1.49,0,0,0-1-.53,1.43,1.43,0,0,0-1,.31l-7,4.45L17.56,21a2.12,2.12,0,0,1,.68-1.5,1.51,1.51,0,0,1,1.11-.38L43.59,21A1.72,1.72,0,0,1,44.79,21.57ZM13,35.77a1.78,1.78,0,0,1-2.19-1.2L6.11,18.31a1.78,1.78,0,0,1,1.2-2.19L30.65,9.33a1.77,1.77,0,0,1,2.19,1.2l2.49,8.55L19.44,17.89a2.66,2.66,0,0,0-2,.68,3.4,3.4,0,0,0-1.11,2.35l-.88,10.19h0l0,.26-.11,1.29h0l-.19,2.49Zm29,5.59L17.81,39.54a1.75,1.75,0,0,1-1.62-1.89l.43-5.81,7.93-5a.26.26,0,0,1,.19-.06.25.25,0,0,1,.18.09l7.51,8.72a1.36,1.36,0,0,0,1.93.15L39,31.79h.12l5,5.81L44,39.73A1.79,1.79,0,0,1,42.06,41.36Z"/><path class="cls-1" d="M36.57,28.34h.2A2.65,2.65,0,0,0,37,23.06a2.65,2.65,0,0,0-2.21,4.37A2.63,2.63,0,0,0,36.57,28.34Zm.19-4h.11a1.41,1.41,0,0,1,1,.49,1.39,1.39,0,0,1,.33,1h0a1.39,1.39,0,0,1-.48,1,1.35,1.35,0,0,1-1,.34,1.4,1.4,0,0,1,.1-2.8Z"/></g></svg>