<svg xmlns="http://www.w3.org/2000/svg" viewBox="0 0 51.26 51.26">
  <g fill="#FFFFFF">
    <path d="M46.46 22.94a3 3 0 0 0-.72-2.19 3 3 0 0 0-2.06-1l-7-.53-2.62-9a3 3 0 0 0-1.45-1.8 3 3 0 0 0-2.29-.25L7 14.92a3 3 0 0 0-2 3.74l4.64 16.26a3 3 0 0 0 1.44 1.79 3 3 0 0 0 1.45.38 3.06 3.06 0 0 0 .85-.12l1.62-.48-.1 1.06a3 3 0 0 0 .72 2.19 3 3 0 0 0 2.06 1L42 42.61h.23a3 3 0 0 0 3-2.79l.07-.88Zm-1.67-1.37a1.75 1.75 0 0 1 .43 1.28l-1 13L40.06 31a1.37 1.37 0 0 0-.94-.48H39a1.45 1.45 0 0 0-.3 0h-.15a1.26 1.26 0 0 0-.45.25l-4.58 3.94a.12.12 0 0 1-.17 0l-7.5-8.72a1.51 1.51 0 0 0-2.11-.19l-7 5.28 1.22-11c.09-.86.29-1.11 1.37-1L43.59 21a1.72 1.72 0 0 1 1.2.57ZM13 35.77a1.78 1.78 0 0 1-2.19-1.2l-4.7-16.26a1.76 1.76 0 0 1 1.2-2.19l23.34-6.79a1.7 1.7 0 0 1 1.35.15 1.78 1.78 0 0 1 .85 1l2.49 8.55-15.9-1.14c-1.68-.13-2.53.56-2.7 2.15L15.08 35l.1-.09v.26Z"/>
    <path d="M36.61 27.72a2 2 0 1 0-1.87-2.17 2 2 0 0 0 1.87 2.17Z"/>
  </g>
</svg>
