<svg xmlns="http://www.w3.org/2000/svg" viewBox="0 0 51.26 51.26">
  <g fill="#FFFFFF">
    <path d="M10.42,21.85v-9c0-1.74.73-2.51,2.35-2.51h1A.7.7,0,0,0,13.8,9h-1C10.39,9,9,10.37,9,12.85v9C9,24,8.41,24.59,7.25,25a.69.69,0,0,0,0,1.32c1.16.37,1.78,1,1.78,3.12v9c0,2.48,1.36,3.9,3.74,3.9h1a.7.7,0,0,0,0-1.39h-1c-1.62,0-2.35-.78-2.35-2.51v-9c0-1.82-.44-3-1.43-3.78C10,24.87,10.42,23.67,10.42,21.85Z"/>
    <path d="M44,25c-1.12-.37-1.74-1-1.74-3.12v-9c0-2.52-1.35-3.9-3.81-3.9h-1a.7.7,0,0,0,0,1.39h1c1.68,0,2.43.77,2.43,2.51v9c0,1.85.41,3,1.38,3.78-1,.75-1.38,1.93-1.38,3.78v9c0,1.73-.75,2.51-2.43,2.51h-1a.7.7,0,0,0,0,1.39h1c2.46,0,3.81-1.39,3.81-3.9v-9c0-2.15.62-2.76,1.74-3.12A.69.69,0,0,0,44,25Z"/>
    <path d="M27.18,24.91a6.33,6.33,0,1,0-3.26,0,11.21,11.21,0,0,0-7.67,4.82,4,4,0,0,0-.7,2.28v4.07a2.59,2.59,0,0,0,2.6,2.59H33a2.6,2.6,0,0,0,2.6-2.59V32a4.09,4.09,0,0,0-.7-2.28A11.25,11.25,0,0,0,27.18,24.91ZM20.47,18.8a5.09,5.09,0,1,1,5.08,5.08A5.09,5.09,0,0,1,20.47,18.8ZM34.31,36.08A1.35,1.35,0,0,1,33,37.42H18.15a1.34,1.34,0,0,1-1.35-1.34V32a2.85,2.85,0,0,1,.48-1.58,10,10,0,0,1,16.54,0A2.78,2.78,0,0,1,34.31,32Z"/>
  </g>
</svg>