<svg xmlns="http://www.w3.org/2000/svg" viewBox="0 0 51.26 51.26">
  <g fill="#FFFFFF">
    <path d="M9.5 10.08C7.92 11.77 8.14 15 8.33 17.76c.18 2.63.34 4.91-.8 6.13a2.74 2.74 0 0 1-2.09.8h-.12v1.88h.11a2.75 2.75 0 0 1 2.1.8c1.14 1.22 1 3.5.8 6.13-.19 2.81-.41 6 1.17 7.68a5.19 5.19 0 0 0 4 1.35h1v-1.96h-.25a3.25 3.25 0 0 1-2.49-1c-1.31-1.4-1.12-4-.93-6.73s.4-5.55-1.08-6.51a.91.91 0 0 1-.4-.75.88.88 0 0 1 .4-.75c1.48-1 1.28-3.78 1.08-6.51s-.38-5.33.93-6.74a3.23 3.23 0 0 1 2.49-1h.25V8.77h-1a5.19 5.19 0 0 0-4 1.31ZM45.87 24.68a2.73 2.73 0 0 1-2.08-.79c-1.13-1.22-1-3.49-.79-6.12.19-2.8.41-6-1.17-7.68a5.24 5.24 0 0 0-4-1.36h-1v1.92h.26a3.31 3.31 0 0 1 2.52 1c1.31 1.41 1.13 4 .93 6.75s-.4 5.51 1.05 6.49a.89.89 0 0 1 0 1.5c-1.45 1-1.25 3.78-1.05 6.49s.39 5.33-.93 6.74a3.27 3.27 0 0 1-2.52 1h-.29v1.92h1a5.19 5.19 0 0 0 4-1.36c1.58-1.69 1.37-4.88 1.18-7.69-.18-2.63-.34-4.9.79-6.11a2.72 2.72 0 0 1 2.08-.8h.07v-1.9ZM25.57 24.84a5.71 5.71 0 1 0-5.71-5.71 5.71 5.71 0 0 0 5.71 5.71ZM25.57 25.74a10.59 10.59 0 0 0-8.79 4.67 3.48 3.48 0 0 0-.59 1.93v4.07a2 2 0 0 0 2 2H33a2 2 0 0 0 2-2v-4.07a3.48 3.48 0 0 0-.59-1.93 10.59 10.59 0 0 0-8.84-4.67Z"/>
  </g>
</svg>
