<svg xmlns="http://www.w3.org/2000/svg" viewBox="0 0 51.26 51.26"><defs><style>.cls-1{fill:#fff;}.cls-2{fill:#ececed;}</style></defs><g id="Layer_2" data-name="Layer 2"><path class="cls-1" d="M13.5,42.85a5.19,5.19,0,0,1-4-1.36c-1.58-1.69-1.36-4.86-1.17-7.67.18-2.63.34-4.91-.8-6.13a2.75,2.75,0,0,0-2.1-.8H5.32V25h.12a2.74,2.74,0,0,0,2.09-.8c1.14-1.22,1-3.5.8-6.14-.19-2.8-.41-6,1.17-7.68a5.23,5.23,0,0,1,4-1.35c.32,0,.65,0,1,0V11h-.25a3.23,3.23,0,0,0-2.49.95c-1.31,1.41-1.13,4-.93,6.74s.4,5.54-1.08,6.51a.89.89,0,0,0,0,1.49c1.48,1,1.28,3.79,1.08,6.51s-.38,5.34.93,6.74a3.25,3.25,0,0,0,2.49,1h.25v1.93c-.35,0-.68,0-1,0Z"/><path class="cls-1" d="M37.8,42.85c-.31,0-.65,0-1,0V40.88h.26a3.27,3.27,0,0,0,2.52-1c1.32-1.41,1.13-4,.93-6.75s-.4-5.51,1.05-6.48A.91.91,0,0,0,42,26a.89.89,0,0,0-.41-.75c-1.45-1-1.25-3.78-1.05-6.49s.38-5.34-.93-6.75a3.27,3.27,0,0,0-2.52-1H36.8V9.08c.35,0,.69,0,1,0a5.24,5.24,0,0,1,4,1.37c1.58,1.69,1.36,4.87,1.17,7.68-.18,2.63-.34,4.9.79,6.11a2.73,2.73,0,0,0,2.08.8h.07v1.89h-.07a2.75,2.75,0,0,0-2.08.79c-1.13,1.22-1,3.49-.79,6.12.19,2.81.4,6-1.18,7.69a5.23,5.23,0,0,1-4,1.36Z"/><circle class="cls-2" cx="25.57" cy="19.12" r="5.71"/><path class="cls-2" d="M35,36.39V32.33a3.48,3.48,0,0,0-.59-1.93,10.59,10.59,0,0,0-17.58,0,3.48,3.48,0,0,0-.59,1.93v4.06a2,2,0,0,0,2,2H33A2,2,0,0,0,35,36.39Z"/></g></svg>