<svg xmlns="http://www.w3.org/2000/svg" viewBox="0 0 51.26 51.26"><defs><style>.cls-1{fill:#fff;}</style></defs><g id="Layer_2" data-name="Layer 2"><path class="cls-1" d="M25.63,9.76A15.55,15.55,0,1,0,41.18,25.31,15.55,15.55,0,0,0,25.63,9.76ZM24.7,33.9a2,2,0,0,1-2.34-2.26,7.3,7.3,0,0,1,.2-1.51l1.34-5.4a4,4,0,0,0,.15-.95c0-.88-.56-1.23-1.79-1.23l.23-1a7.29,7.29,0,0,1,3.19-.83c1.4,0,2.16.63,2.16,2a5.54,5.54,0,0,1-.18,1.36l-1.4,6.08a4.85,4.85,0,0,0-.18,1c0,.57.33.8,1,.8.3,0,.55,0,.88-.05l.1,1A7.17,7.17,0,0,1,24.7,33.9Zm2.16-14.59a2.1,2.1,0,0,1-2.11-2.09,2.13,2.13,0,0,1,2.16-2.1,2.1,2.1,0,1,1-.05,4.19Z"/></g></svg>