<svg xmlns="http://www.w3.org/2000/svg" viewBox="0 0 51.26 51.26">
  <g fill="#FFFFFF">
    <path d="M25.63,9.13A16.18,16.18,0,1,0,41.8,25.31,16.2,16.2,0,0,0,25.63,9.13Zm0,31.11A14.93,14.93,0,1,1,40.55,25.31,15,15,0,0,1,25.63,40.24Z"/>
    <path d="M27.94,31.37H27.8c-.25,0-.45,0-.69,0a1.07,1.07,0,0,1-.39,0,.89.89,0,0,1,0-.13,5,5,0,0,1,.15-.89h0l1.4-6.08a6.42,6.42,0,0,0,.19-1.5,2.46,2.46,0,0,0-2.78-2.66,8,8,0,0,0-3.48.9.65.65,0,0,0-.32.42l-.23,1a.67.67,0,0,0,.12.53.62.62,0,0,0,.49.23c1.16,0,1.16.31,1.16.61a3.38,3.38,0,0,1-.13.8L22,30a7.29,7.29,0,0,0-.22,1.65,2.63,2.63,0,0,0,3,2.88,7.67,7.67,0,0,0,3.67-1,.61.61,0,0,0,.34-.61l-.1-1A.62.62,0,0,0,27.94,31.37Zm-3.24,1.9c-1.22,0-1.71-.47-1.71-1.63a6.44,6.44,0,0,1,.18-1.36l1.33-5.39a4.48,4.48,0,0,0,.17-1.11A1.7,1.7,0,0,0,23.06,22a6.67,6.67,0,0,1,2.62-.62c1.27,0,1.53.57,1.53,1.41A5.18,5.18,0,0,1,27.05,24l-1.4,6.08a4.81,4.81,0,0,0-.19,1.17c0,.53.21,1.42,1.65,1.42h.29A6.34,6.34,0,0,1,24.7,33.27Z"/>
    <path d="M26.91,14.49a2.77,2.77,0,0,0-2.79,2.73,2.75,2.75,0,1,0,2.79-2.73Zm-.05,4.19a1.47,1.47,0,0,1-1.49-1.46,1.52,1.52,0,0,1,1.54-1.48,1.47,1.47,0,1,1-.05,2.94Z"/>
  </g>
</svg>