<svg xmlns="http://www.w3.org/2000/svg" viewBox="0 0 51.26 51.26"><defs><style>.cls-1{fill:#ececed;}</style></defs><g id="Layer_2" data-name="Layer 2"><path class="cls-1" d="M25.63,10.08A15.55,15.55,0,1,0,41.18,25.63,15.55,15.55,0,0,0,25.63,10.08ZM24.7,34.22A2,2,0,0,1,22.36,32a7.22,7.22,0,0,1,.2-1.5l1.34-5.4a4.11,4.11,0,0,0,.15-.95c0-.88-.56-1.23-1.79-1.23l.23-1a7.16,7.16,0,0,1,3.19-.83c1.4,0,2.16.63,2.16,2a5.6,5.6,0,0,1-.18,1.36l-1.4,6.07a5.07,5.07,0,0,0-.18,1c0,.58.33.81,1,.81.3,0,.55,0,.88,0l.1,1A7.29,7.29,0,0,1,24.7,34.22Zm2.16-14.59a2.1,2.1,0,0,1-2.11-2.09,2.13,2.13,0,0,1,2.16-2.11,2.1,2.1,0,1,1-.05,4.2Z"/></g></svg>