<svg xmlns="http://www.w3.org/2000/svg" viewBox="0 0 51.26 51.26"><defs><style>.cls-1{fill:#fff;}</style></defs><g id="Layer_2" data-name="Layer 2"><path class="cls-1" d="M33.76,19.16a3.45,3.45,0,0,0-2-2,5.45,5.45,0,0,0-1.94-.36c-1.1-.05-1.43-.06-4.21-.06s-3.12,0-4.22.06a5.45,5.45,0,0,0-1.94.36,3.28,3.28,0,0,0-1.2.78,3.24,3.24,0,0,0-.78,1.2,5.88,5.88,0,0,0-.36,1.93c-.05,1.1-.06,1.43-.06,4.22s0,3.12.06,4.22a5.88,5.88,0,0,0,.36,1.93,3.24,3.24,0,0,0,.78,1.2,3.28,3.28,0,0,0,1.2.78,5.45,5.45,0,0,0,1.94.36c1.1.05,1.43.06,4.22.06s3.11,0,4.21-.06a5.45,5.45,0,0,0,1.94-.36,3.45,3.45,0,0,0,2-2,5.38,5.38,0,0,0,.36-1.93c.05-1.1.06-1.43.06-4.22s0-3.12-.06-4.22A5.38,5.38,0,0,0,33.76,19.16ZM25.63,30.67A5.36,5.36,0,1,1,31,25.31,5.36,5.36,0,0,1,25.63,30.67ZM31.2,21a1.25,1.25,0,1,1,1.25-1.25A1.25,1.25,0,0,1,31.2,21Z"/><path class="cls-1" d="M25.63,21.83a3.48,3.48,0,1,0,3.48,3.48A3.48,3.48,0,0,0,25.63,21.83Z"/><path class="cls-1" d="M25.63,6.28a19,19,0,0,0-19,19h0a19,19,0,1,0,38.06,0h0A19,19,0,0,0,25.63,6.28ZM36,29.61a7.66,7.66,0,0,1-.49,2.54A5,5,0,0,1,34.31,34a5.15,5.15,0,0,1-1.85,1.21,7.83,7.83,0,0,1-2.53.48c-1.11,0-1.47.06-4.3.06s-3.19,0-4.3-.06a8,8,0,0,1-2.54-.48,5.44,5.44,0,0,1-3-3.05,7.69,7.69,0,0,1-.48-2.54c0-1.11-.07-1.47-.07-4.3s0-3.19.07-4.3a7.57,7.57,0,0,1,.48-2.53,5.42,5.42,0,0,1,3-3.06,8,8,0,0,1,2.54-.48c1.11,0,1.46-.06,4.3-.06s3.19,0,4.3.06a7.83,7.83,0,0,1,2.53.48,5.15,5.15,0,0,1,1.85,1.21,5,5,0,0,1,1.2,1.85A7.54,7.54,0,0,1,36,21c0,1.11.06,1.47.06,4.3S36.05,28.5,36,29.61Z"/></g></svg>