<svg xmlns="http://www.w3.org/2000/svg" viewBox="0 0 51.26 51.26"><defs><style>.cls-1{fill:#fff;}</style></defs><g id="Layer_2" data-name="Layer 2"><path class="cls-1" d="M38.55,20a9.57,9.57,0,0,0-.6-3.16A6.64,6.64,0,0,0,34.14,13a9.45,9.45,0,0,0-3.15-.6c-1.39-.07-1.83-.08-5.36-.08s-4,0-5.36.08a9.52,9.52,0,0,0-3.16.6,6.66,6.66,0,0,0-3.8,3.8A9.81,9.81,0,0,0,12.7,20c-.06,1.39-.07,1.83-.07,5.36s0,4,.07,5.36a9.75,9.75,0,0,0,.61,3.16,6.66,6.66,0,0,0,3.8,3.8,9.52,9.52,0,0,0,3.16.6c1.38.07,1.83.08,5.36.08s4,0,5.36-.08a9.45,9.45,0,0,0,3.15-.6A6.64,6.64,0,0,0,38,33.83a9.52,9.52,0,0,0,.6-3.16c.07-1.39.08-1.83.08-5.36S38.62,21.34,38.55,20ZM36.21,30.56A7.22,7.22,0,0,1,35.76,33a3.81,3.81,0,0,1-1,1.49,4,4,0,0,1-1.49,1,7.3,7.3,0,0,1-2.42.44c-1.37.07-1.78.08-5.25.08s-3.88,0-5.26-.08A7.28,7.28,0,0,1,18,35.45,4.33,4.33,0,0,1,15.49,33,7.22,7.22,0,0,1,15,30.56C15,29.19,15,28.78,15,25.31s0-3.88.07-5.25a7.22,7.22,0,0,1,.45-2.42,4.13,4.13,0,0,1,1-1.49,4.07,4.07,0,0,1,1.5-1,7.28,7.28,0,0,1,2.41-.44c1.38-.07,1.79-.08,5.26-.08s3.88,0,5.25.08a7.3,7.3,0,0,1,2.42.44,4,4,0,0,1,1.49,1,3.89,3.89,0,0,1,1,1.49,7.22,7.22,0,0,1,.45,2.42c.06,1.37.08,1.78.08,5.25S36.27,29.19,36.21,30.56Z"/><path class="cls-1" d="M25.63,18.63a6.68,6.68,0,1,0,6.67,6.68A6.68,6.68,0,0,0,25.63,18.63Zm0,11A4.33,4.33,0,1,1,30,25.31,4.33,4.33,0,0,1,25.63,29.64Z"/><path class="cls-1" d="M32.57,16.81a1.56,1.56,0,1,0,1.56,1.56A1.56,1.56,0,0,0,32.57,16.81Z"/></g></svg>