<svg xmlns="http://www.w3.org/2000/svg" viewBox="0 0 51.26 51.26"><defs><style>.cls-1{fill:#fff;}.cls-2{fill:#ececed;}</style></defs><g id="Layer_2" data-name="Layer 2"><path class="cls-1" d="M36,21.33a7.66,7.66,0,0,0-.49-2.54A5,5,0,0,0,34.31,17a5.15,5.15,0,0,0-1.85-1.21,7.57,7.57,0,0,0-2.53-.48c-1.11,0-1.47-.07-4.3-.07s-3.19,0-4.3.07a7.69,7.69,0,0,0-2.54.48,5.44,5.44,0,0,0-3,3,7.69,7.69,0,0,0-.48,2.54c0,1.11-.07,1.46-.07,4.3s0,3.19.07,4.3a7.57,7.57,0,0,0,.48,2.53A5.15,5.15,0,0,0,17,34.31a5,5,0,0,0,1.84,1.2,7.66,7.66,0,0,0,2.54.49c1.11,0,1.46.06,4.3.06s3.19,0,4.3-.06a7.54,7.54,0,0,0,2.53-.49,5.29,5.29,0,0,0,3-3A7.54,7.54,0,0,0,36,29.93c0-1.11.06-1.47.06-4.3S36.05,22.44,36,21.33Zm-1.88,8.51a5.45,5.45,0,0,1-.36,1.94,3.45,3.45,0,0,1-2,2,5.45,5.45,0,0,1-1.94.36c-1.1.05-1.43.06-4.21.06s-3.12,0-4.22-.06a5.45,5.45,0,0,1-1.94-.36,3.28,3.28,0,0,1-1.2-.78,3.24,3.24,0,0,1-.78-1.2,6,6,0,0,1-.36-1.94c-.05-1.1-.06-1.43-.06-4.21s0-3.12.06-4.22a6,6,0,0,1,.36-1.94,3.45,3.45,0,0,1,2-2,6,6,0,0,1,1.94-.36c1.1-.05,1.43-.06,4.22-.06s3.11,0,4.21.06a6,6,0,0,1,1.94.36,3.24,3.24,0,0,1,1.2.78,3.28,3.28,0,0,1,.78,1.2,5.45,5.45,0,0,1,.36,1.94c.05,1.1.06,1.43.06,4.22S34.17,28.74,34.12,29.84Z"/><path class="cls-1" d="M25.63,20.27A5.36,5.36,0,1,0,31,25.63,5.36,5.36,0,0,0,25.63,20.27Zm0,8.84a3.48,3.48,0,1,1,3.48-3.48A3.48,3.48,0,0,1,25.63,29.11Z"/><path class="cls-1" d="M31.2,18.81a1.25,1.25,0,1,0,1.25,1.25A1.25,1.25,0,0,0,31.2,18.81Z"/><path class="cls-2" d="M33.76,19.47a3.28,3.28,0,0,0-.78-1.2,3.24,3.24,0,0,0-1.2-.78,6,6,0,0,0-1.94-.36c-1.1-.05-1.43-.06-4.21-.06s-3.12,0-4.22.06a6,6,0,0,0-1.94.36,3.45,3.45,0,0,0-2,2,6,6,0,0,0-.36,1.94c-.05,1.1-.06,1.43-.06,4.22s0,3.11.06,4.21a6,6,0,0,0,.36,1.94,3.24,3.24,0,0,0,.78,1.2,3.28,3.28,0,0,0,1.2.78,5.45,5.45,0,0,0,1.94.36c1.1.05,1.43.06,4.22.06s3.11,0,4.21-.06a5.45,5.45,0,0,0,1.94-.36,3.45,3.45,0,0,0,2-2,5.45,5.45,0,0,0,.36-1.94c.05-1.1.06-1.43.06-4.21s0-3.12-.06-4.22A5.45,5.45,0,0,0,33.76,19.47ZM25.63,31A5.36,5.36,0,1,1,31,25.63,5.36,5.36,0,0,1,25.63,31Zm5.57-9.68a1.25,1.25,0,1,1,1.25-1.25A1.25,1.25,0,0,1,31.2,21.31Z"/><path class="cls-2" d="M25.63,22.15a3.48,3.48,0,1,0,3.48,3.48A3.48,3.48,0,0,0,25.63,22.15Z"/><path class="cls-2" d="M25.63,6.6a19,19,0,1,0,19,19A19,19,0,0,0,25.63,6.6ZM36,29.93a7.54,7.54,0,0,1-.49,2.53,5.29,5.29,0,0,1-3,3,7.54,7.54,0,0,1-2.53.49c-1.11,0-1.47.06-4.3.06s-3.19,0-4.3-.06a7.66,7.66,0,0,1-2.54-.49A5,5,0,0,1,17,34.31a5.15,5.15,0,0,1-1.21-1.85,7.57,7.57,0,0,1-.48-2.53c0-1.11-.07-1.47-.07-4.3s0-3.19.07-4.3a7.69,7.69,0,0,1,.48-2.54,5.44,5.44,0,0,1,3-3,7.69,7.69,0,0,1,2.54-.48c1.11,0,1.46-.07,4.3-.07s3.19,0,4.3.07a7.57,7.57,0,0,1,2.53.48A5.15,5.15,0,0,1,34.31,17a5,5,0,0,1,1.2,1.84A7.66,7.66,0,0,1,36,21.33c0,1.11.06,1.46.06,4.3S36.05,28.82,36,29.93Z"/></g></svg>