<svg xmlns="http://www.w3.org/2000/svg" viewBox="0 0 51.26 51.26">
  <g fill="#FFFFFF">
    <path d="M4.56,37.31V13.81H41.49V26.58h1.25V10.31a2.63,2.63,0,0,0-2.62-2.62H5.93a2.62,2.62,0,0,0-2.62,2.62v27a2.62,2.62,0,0,0,2.62,2.62H35.44V38.68H5.93A1.37,1.37,0,0,1,4.56,37.31Zm0-27A1.37,1.37,0,0,1,5.93,8.94H40.12a1.37,1.37,0,0,1,1.37,1.37v2.25H4.56Z"/>
    <path d="M12,9.75a1,1,0,1,0,1,1A1,1,0,0,0,12,9.75Z"/>
    <path d="M9.3,9.75a1,1,0,1,0,1,1A1,1,0,0,0,9.3,9.75Z"/>
    <path d="M6.6,9.75a1,1,0,1,0,1,1A1,1,0,0,0,6.6,9.75Z"/>
    <path d="M12.89,25.43A9.89,9.89,0,0,0,15.4,32l.06.07a9.92,9.92,0,0,0,14.74,0l.06-.08a9.85,9.85,0,0,0,2.51-6.58,9.94,9.94,0,0,0-19.88,0Zm18.61-.57H29a14.59,14.59,0,0,0-.53-3.55,4.08,4.08,0,0,0,1.43-.89A8.65,8.65,0,0,1,31.5,24.86ZM29.88,30.5a4.07,4.07,0,0,0-1.41-.85A15.16,15.16,0,0,0,29,26.11h2.47A8.64,8.64,0,0,1,29.88,30.5ZM14.17,26.11h2.47a15.15,15.15,0,0,0,.56,3.54,4,4,0,0,0-1.42.85A8.73,8.73,0,0,1,14.17,26.11Zm1.57-5.69a4.08,4.08,0,0,0,1.43.89,15.1,15.1,0,0,0-.53,3.55H14.17A8.64,8.64,0,0,1,15.74,20.42Zm6.47-3.6V20.9a16.58,16.58,0,0,1-3.43-.41C19.57,18.53,20.81,17.14,22.21,16.82Zm0,5.34v2.7H17.89a14.21,14.21,0,0,1,.49-3.17A18.33,18.33,0,0,0,22.21,22.16Zm-4.32,3.95h4.32V28.8a18,18,0,0,0-3.8.47A14.2,14.2,0,0,1,17.89,26.11Zm4.32,3.95v4c-1.38-.32-2.6-1.67-3.39-3.58A17,17,0,0,1,22.21,30.06Zm1.25,4v-4a16.92,16.92,0,0,1,3.38.4C26.05,32.37,24.83,33.72,23.46,34Zm0-5.24V26.11h4.31a13.13,13.13,0,0,1-.52,3.16A17.86,17.86,0,0,0,23.46,28.8Zm4.31-3.94H23.46v-2.7a18.15,18.15,0,0,0,3.82-.47A13.15,13.15,0,0,1,27.77,24.86Zm-4.31-4V16.82c1.39.32,2.63,1.71,3.42,3.67A16.47,16.47,0,0,1,23.46,20.9Zm-4.57-3.21a10,10,0,0,0-1.32,2.42,2,2,0,0,1-1-.67A8.9,8.9,0,0,1,18.89,17.69ZM16.58,31.46a2.63,2.63,0,0,1,1-.62,9.78,9.78,0,0,0,1.29,2.33A8.83,8.83,0,0,1,16.58,31.46Zm10.19,1.71a9.78,9.78,0,0,0,1.29-2.33,2.55,2.55,0,0,1,1,.62A8.83,8.83,0,0,1,26.77,33.17Zm2.34-13.73a2,2,0,0,1-1,.67,10,10,0,0,0-1.33-2.42A8.58,8.58,0,0,1,29.11,19.44Z"/>
    <path d="M42.11,34.41A2,2,0,0,0,40.84,38l-.39,2.22H43.8L43.41,38a2,2,0,0,0,.73-1.54A2,2,0,0,0,42.11,34.41Zm.51,2.9-.31.18.3,1.72h-1l.3-1.72-.31-.17a1,1,0,1,1,1.51-.89A1,1,0,0,1,42.62,37.31Z"/>
    <path d="M46,32.07v-.61a3.93,3.93,0,1,0-7.85,0v.61a2.68,2.68,0,0,0-1.91,2.56v5.61A2.7,2.7,0,0,0,39,42.93h6.27A2.7,2.7,0,0,0,48,40.24V34.63A2.68,2.68,0,0,0,46,32.07Zm-3.93-3.29a2.68,2.68,0,0,1,2.68,2.68v.48H39.44v-.48A2.68,2.68,0,0,1,42.11,28.78ZM47,40.24a1.7,1.7,0,0,1-1.7,1.69H39a1.7,1.7,0,0,1-1.7-1.69V34.63A1.7,1.7,0,0,1,39,32.94h6.27A1.7,1.7,0,0,1,47,34.63Z"/>
  </g>
</svg>