<svg xmlns="http://www.w3.org/2000/svg" viewBox="0 0 51.26 51.26"><defs><style>.cls-1{fill:#fff;}</style></defs><g id="Layer_2" data-name="Layer 2"><path class="cls-1" d="M5,37.54V14H42v12.7H43.2V12.78h0V10.54A2.59,2.59,0,0,0,40.58,8H6.39a2.58,2.58,0,0,0-2.57,2.58v2.24h0V37.54a2.63,2.63,0,0,0,2.62,2.62H35.12V38.91H6.39A1.37,1.37,0,0,1,5,37.54ZM12.91,10a1,1,0,1,1-1,1A1,1,0,0,1,12.91,10ZM10,10a1,1,0,1,1-1,1A1,1,0,0,1,10,10Zm-3,0a1,1,0,1,1-1,1A1,1,0,0,1,7.06,10Z"/><path class="cls-1" d="M13.59,25.71a9.81,9.81,0,0,0,2.5,6.54.27.27,0,0,0,.07.08,9.85,9.85,0,0,0,14.66,0,.27.27,0,0,0,.07-.08,9.8,9.8,0,0,0,2.49-6.54,9.9,9.9,0,1,0-19.79,0Zm6.13-7.88a9.67,9.67,0,0,0-1.47,2.62,2.12,2.12,0,0,1-1.11-.73A8.77,8.77,0,0,1,19.72,17.83ZM16.4,20.62a4,4,0,0,0,1.49.92,14.84,14.84,0,0,0-.55,3.64H14.78A8.61,8.61,0,0,1,16.4,20.62Zm-1.62,5.72h2.56A15.24,15.24,0,0,0,17.91,30a4.28,4.28,0,0,0-1.47.88A8.65,8.65,0,0,1,14.78,26.34Zm2.39,5.39a2.6,2.6,0,0,1,1.11-.68,9.35,9.35,0,0,0,1.44,2.53A8.64,8.64,0,0,1,17.17,31.73Zm5.74,2.65c-1.43-.3-2.69-1.7-3.49-3.67a16,16,0,0,1,3.49-.43Zm0-5.26a18.44,18.44,0,0,0-3.88.49,14,14,0,0,1-.53-3.27h4.41Zm0-3.94H18.5A13.65,13.65,0,0,1,19,21.89a17.3,17.3,0,0,0,3.9.5Zm0-3.94a16.91,16.91,0,0,1-3.53-.44c.8-2,2.08-3.46,3.53-3.76Zm4.34,12.34a9.35,9.35,0,0,0,1.44-2.53,2.53,2.53,0,0,1,1.11.68A8.64,8.64,0,0,1,27.25,33.58Zm3.29-2.73A4.33,4.33,0,0,0,29.06,30a15.24,15.24,0,0,0,.57-3.63h2.56A8.64,8.64,0,0,1,30.54,30.85Zm0-10.23a8.69,8.69,0,0,1,1.62,4.56H29.63a15.34,15.34,0,0,0-.54-3.64A4.09,4.09,0,0,0,30.58,20.62Zm-.74-.9a2.17,2.17,0,0,1-1.11.73,9.43,9.43,0,0,0-1.48-2.62A8.82,8.82,0,0,1,29.84,19.72ZM24.07,17c1.44.3,2.72,1.73,3.53,3.76a16.91,16.91,0,0,1-3.53.44Zm0,5.35a17.38,17.38,0,0,0,3.9-.5,14.71,14.71,0,0,1,.51,3.29H24.07Zm0,3.95h4.4a13.47,13.47,0,0,1-.53,3.27,18.34,18.34,0,0,0-3.87-.49Zm0,3.94a16.09,16.09,0,0,1,3.49.43c-.81,2-2.07,3.37-3.49,3.67Z"/><path class="cls-1" d="M46.07,32.81v-1a3.92,3.92,0,0,0-7.84,0v1a2.2,2.2,0,0,0-1.41,2v5.6A2.2,2.2,0,0,0,39,42.66h6.28a2.2,2.2,0,0,0,2.19-2.2v-5.6A2.19,2.19,0,0,0,46.07,32.81Zm-3.92-3.63a2.68,2.68,0,0,1,2.67,2.67v.81H39.48v-.81A2.68,2.68,0,0,1,42.15,29.18Zm1.1,10.76H41.08L41.42,38a1.52,1.52,0,1,1,2.25-1.33A1.51,1.51,0,0,1,42.9,38Z"/></g></svg>