<svg xmlns="http://www.w3.org/2000/svg" viewBox="0 0 51.26 51.26"><defs><style>.cls-1{fill:#fff;}.cls-2{fill:#ececed;}</style></defs><g id="Layer_2" data-name="Layer 2"><path class="cls-1" d="M30,33.2a9.9,9.9,0,1,0-14.81,0l.07.08a9.86,9.86,0,0,0,14.67,0ZM13.85,27.28h2.56A15.16,15.16,0,0,0,17,30.91a4.19,4.19,0,0,0-1.47.89A8.72,8.72,0,0,1,13.85,27.28Zm1.61-5.71a4.22,4.22,0,0,0,1.49.91,15.42,15.42,0,0,0-.54,3.64H13.84A8.69,8.69,0,0,1,15.46,21.57Zm15.81,4.55H28.7a15.42,15.42,0,0,0-.54-3.64,4.22,4.22,0,0,0,1.49-.91A8.78,8.78,0,0,1,31.27,26.12Zm-3.73,0H23.13V23.34a17.9,17.9,0,0,0,3.9-.5A13.64,13.64,0,0,1,27.54,26.12Zm-4.41-3.94V18c1.45.31,2.73,1.74,3.53,3.76A16.91,16.91,0,0,1,23.13,22.18ZM22,18v4.2a16.91,16.91,0,0,1-3.53-.44C19.25,19.72,20.53,18.29,22,18Zm0,5.36v2.78H17.57a13.64,13.64,0,0,1,.51-3.28A17.9,17.9,0,0,0,22,23.34Zm-4.41,3.94H22v2.79a17.81,17.81,0,0,0-3.88.49A14.06,14.06,0,0,1,17.57,27.28ZM22,31.22v4.11c-1.43-.31-2.69-1.7-3.5-3.68A17.55,17.55,0,0,1,22,31.22Zm1.15,4.11V31.22a17.55,17.55,0,0,1,3.5.43C25.82,33.63,24.56,35,23.13,35.33Zm0-5.26V27.28h4.41A14.06,14.06,0,0,1,27,30.56,17.81,17.81,0,0,0,23.13,30.07Zm5.57-2.79h2.56A8.72,8.72,0,0,1,29.6,31.8a4.19,4.19,0,0,0-1.47-.89A15.16,15.16,0,0,0,28.7,27.28Zm.21-6.61a2.16,2.16,0,0,1-1.12.72,9.76,9.76,0,0,0-1.47-2.61A9,9,0,0,1,28.91,20.67ZM18.79,18.78a9.49,9.49,0,0,0-1.47,2.61,2.16,2.16,0,0,1-1.12-.72A8.82,8.82,0,0,1,18.79,18.78Zm-2.55,13.9A2.5,2.5,0,0,1,17.35,32a9.35,9.35,0,0,0,1.44,2.53A8.83,8.83,0,0,1,16.24,32.68Zm10.08,1.85A9.35,9.35,0,0,0,27.76,32a2.5,2.5,0,0,1,1.11.68A8.83,8.83,0,0,1,26.32,34.53Z"/><path class="cls-2" d="M4.81,37.86V14.35H41.74V26.79H43V13.1h-.05V10.85a2.58,2.58,0,0,0-2.57-2.57H6.18a2.58,2.58,0,0,0-2.57,2.57V13.1h0V37.86a2.63,2.63,0,0,0,2.62,2.62H35.23V39.23h-29A1.37,1.37,0,0,1,4.81,37.86ZM12.7,10.29a1,1,0,1,1-1,1A1,1,0,0,1,12.7,10.29Zm-2.9,0a1,1,0,1,1-1,1A1,1,0,0,1,9.8,10.29Zm-3,0a1,1,0,1,1-1,1A1,1,0,0,1,6.85,10.29Z"/><path class="cls-2" d="M46.29,33.13v-1a3.93,3.93,0,0,0-7.85,0v1a2.2,2.2,0,0,0-1.41,2v5.61A2.19,2.19,0,0,0,39.23,43H45.5a2.2,2.2,0,0,0,2.2-2.19V35.17A2.2,2.2,0,0,0,46.29,33.13Zm-2.83,7.13H41.29l.34-2A1.5,1.5,0,0,1,40.84,37a1.53,1.53,0,1,1,3,0,1.51,1.51,0,0,1-.77,1.31ZM45,33H39.69v-.81a2.68,2.68,0,0,1,5.35,0Z"/></g></svg>