<svg xmlns="http://www.w3.org/2000/svg" viewBox="0 0 51.26 51.26">
  <g fill="#FFFFFF">
    <path d="M44.68 15.17H34.55v-4.26a1.36 1.36 0 0 0-1.39-1.33H18a1.36 1.36 0 0 0-1.38 1.33v4.26H6.57a.39.39 0 0 0-.4.39v3a10 10 0 0 0 .1 1.38c.9 6.54 8.18 7.56 12.31 7.56H22v-.1a1.39 1.39 0 0 1 1.38-1.4h4.8a1.4 1.4 0 0 1 1.4 1.39v.11h2.61c3.68 0 12.89-.91 12.89-9.35v-2.6a.39.39 0 0 0-.4-.38Zm-12.84 0h-12.5v-2.49a.88.88 0 0 1 1-.78h10.54a.88.88 0 0 1 1 .78Z"/>
    <path d="M32.19 28.76h-2.61v1.44a1.4 1.4 0 0 1-1.4 1.39h-4.8A1.39 1.39 0 0 1 22 30.2v-1.44h-3.42c-5.24 0-9.3-1.48-11.58-4.2V40.1a1.57 1.57 0 0 0 1.57 1.58h34.12a1.57 1.57 0 0 0 1.57-1.58V24.23c-2.41 2.91-6.68 4.53-12.07 4.53Z"/>
    <rect width="5.44" height="3.72" x="23.11" y="26.94" rx=".9"/>
  </g>
</svg>
