<svg xmlns="http://www.w3.org/2000/svg" viewBox="0 0 51.26 51.26">
  <defs>
    <style>
      path {
        fill: none;
        stroke: #FFFFFF;
        stroke-miterlimit: 10;
      }
    </style>
  </defs>
  <path d="M33.84 39.64H17.47c-3.01 0-5.46-2.45-5.46-5.46V17.81c0-3.01 2.45-5.46 5.46-5.46h7.19c.93 0 1.69.76 1.69 1.69s-.76 1.69-1.69 1.69h-7.19c-1.15 0-2.08.93-2.08 2.08v16.37c0 1.15.93 2.08 2.08 2.08h16.37c1.15 0 2.08-.93 2.08-2.08v-7.19c0-.93.76-1.69 1.69-1.69s1.69.76 1.69 1.69v7.19c0 3.01-2.45 5.46-5.46 5.46Z"/>
  <path d="M26.29 27.13c-.45 0-.88-.18-1.19-.49a1.69 1.69 0 0 1 0-2.39l9.26-9.26h-3.85c-.93 0-1.69-.76-1.69-1.69s.76-1.69 1.69-1.69h7.85c.93 0 1.69.76 1.69 1.69v7.74c0 .93-.76 1.69-1.69 1.69s-1.69-.76-1.69-1.69v-3.59l-9.18 9.18c-.32.32-.74.49-1.19.49Z"/>
</svg>