<svg xmlns="http://www.w3.org/2000/svg" viewBox="0 0 51.26 51.26"><defs><style>.cls-1{fill:#fff;}.cls-2{fill:#ececed;}</style></defs><g id="Layer_2" data-name="Layer 2"><path class="cls-1" d="M31.07,21a4.45,4.45,0,0,0-3.84,2.1V21.39H23.46V34.11h3.77V27.43c0-1.79.83-2.85,2.4-2.85s2.15,1,2.15,2.85v6.68H35.7V26.05C35.7,22.65,33.77,21,31.07,21Z"/><path class="cls-1" d="M19,15a2.35,2.35,0,1,0,2.33,2.35A2.34,2.34,0,0,0,19,15Z"/><rect class="cls-1" x="17" y="21.39" width="3.94" height="12.72"/><path class="cls-2" d="M25.63,6.6a19,19,0,0,0-19,19h0a19,19,0,0,0,38.06,0h0A19,19,0,0,0,25.63,6.6ZM35.7,34.11H31.78V27.43c0-1.83-.7-2.85-2.15-2.85s-2.4,1.06-2.4,2.85v6.68H23.46V21.39h3.77V23.1A4.45,4.45,0,0,1,31.07,21c2.7,0,4.63,1.65,4.63,5.05ZM19,15a2.35,2.35,0,1,1-2.33,2.35A2.34,2.34,0,0,1,19,15Zm2,6.37V34.11H17V21.39Z"/></g></svg>