<svg xmlns="http://www.w3.org/2000/svg" viewBox="0 0 51.26 51.26"><defs><style>.cls-1{fill:#ececed;}</style></defs><g id="Layer_2" data-name="Layer 2"><path class="cls-1" d="M33.35,26.23a.63.63,0,0,0-.63.63v4.79a1.89,1.89,0,0,1-1.88,1.89H19.92A1.89,1.89,0,0,1,18,31.65V20.74a1.89,1.89,0,0,1,1.88-1.89h4.8a.63.63,0,0,0,0-1.25h-4.8a3.14,3.14,0,0,0-3.13,3.14V31.65a3.14,3.14,0,0,0,3.13,3.14H30.84A3.14,3.14,0,0,0,34,31.65V26.86A.63.63,0,0,0,33.35,26.23Z"/><path class="cls-1" d="M33.84,17.11H28.61a.63.63,0,1,0,0,1.25h3.78l-7,7a.64.64,0,0,0,0,.89.62.62,0,0,0,.44.18.66.66,0,0,0,.45-.18l7-7v3.6a.63.63,0,0,0,1.25,0V17.73A.63.63,0,0,0,33.84,17.11Z"/></g></svg>