<svg xmlns="http://www.w3.org/2000/svg" viewBox="0 0 51.26 51.26">
  <g fill="#FFFFFF">
    <path d="M26.07 36.94c1.86-3.13 9-15.4 9-19.91a9.4 9.4 0 0 0-18.8 0c0 4.51 7.1 16.78 9 19.91a.51.51 0 0 0 .8 0ZM22 17a3.65 3.65 0 1 1 3.65 3.64A3.65 3.65 0 0 1 22 17Z"/>
    <path d="M31.41 35a.62.62 0 0 0-.35 1.19c2 .61 3.34 1.55 3.34 2.41 0 1.48-3.6 3.12-8.77 3.12s-8.78-1.64-8.78-3.12c0-.82 1.18-1.71 3.07-2.32a.64.64 0 0 0 .41-.79.62.62 0 0 0-.79-.4c-2.54.81-3.94 2.06-3.94 3.51 0 2.49 4.31 4.37 10 4.37s10-1.88 10-4.37c.05-1.47-1.49-2.78-4.19-3.6Z"/>
  </g>
</svg>
