<svg xmlns="http://www.w3.org/2000/svg" viewBox="0 0 51.26 51.26"><defs><style>.cls-1{fill:#ececed;}.cls-2{fill:#fff;}</style></defs><g id="Layer_2" data-name="Layer 2"><path class="cls-1" d="M25.63,8a9.4,9.4,0,0,0-9.4,9.4c0,4.51,7.1,16.78,9,19.91a.51.51,0,0,0,.88,0c1.86-3.13,9-15.4,9-19.91A9.4,9.4,0,0,0,25.63,8Zm0,13a3.65,3.65,0,1,1,3.64-3.64A3.65,3.65,0,0,1,25.63,21Z"/><path class="cls-2" d="M25.63,43.31c-5.72,0-10-1.88-10-4.37,0-1.45,1.4-2.7,3.94-3.51a.62.62,0,0,1,.79.4.64.64,0,0,1-.41.79c-1.89.6-3.07,1.5-3.07,2.32,0,1.48,3.61,3.12,8.78,3.12s8.77-1.64,8.77-3.12c0-.86-1.31-1.8-3.34-2.41a.62.62,0,0,1-.42-.77.63.63,0,0,1,.78-.43c2.69.8,4.23,2.12,4.23,3.61C35.65,41.43,31.34,43.31,25.63,43.31Z"/></g></svg>