<svg xmlns="http://www.w3.org/2000/svg" viewBox="0 0 51.26 51.26">
  <g fill="#FFFFFF">
    <path d="M29.9,17.34a4.27,4.27,0,1,0-4.27,4.27A4.28,4.28,0,0,0,29.9,17.34Zm-7.29,0a3,3,0,1,1,3,3A3,3,0,0,1,22.61,17.34Z"/>
    <path d="M25.63,38.13a1.14,1.14,0,0,0,1-.56c2.12-3.57,9-15.61,9-20.23a10,10,0,0,0-20,0c0,4.62,6.93,16.66,9,20.23A1.13,1.13,0,0,0,25.63,38.13Zm0-29.56a8.77,8.77,0,0,1,8.77,8.77c0,3.39-4.51,12.23-8.77,19.43-4.26-7.2-8.78-16-8.78-19.43A8.78,8.78,0,0,1,25.63,8.57Z"/>
    <path d="M31.42,35.33a.62.62,0,0,0-.78.42.63.63,0,0,0,.42.78c2,.6,3.34,1.54,3.34,2.4,0,1.48-3.6,3.13-8.77,3.13s-8.78-1.65-8.78-3.13c0-.82,1.18-1.71,3.07-2.32a.63.63,0,0,0,.41-.79.64.64,0,0,0-.79-.4c-2.54.82-3.94,2.06-3.94,3.51,0,2.5,4.31,4.38,10,4.38s10-1.88,10-4.38C35.65,37.44,34.11,36.13,31.42,35.33Z"/>
  </g>
</svg>