<svg xmlns="http://www.w3.org/2000/svg" viewBox="0 0 51.26 51.26"><defs><style>.cls-1{fill:#fff;}.cls-2{fill:#ececed;}</style></defs><g id="Layer_2" data-name="Layer 2"><path class="cls-1" d="M38.69,36.58V35.19a3.07,3.07,0,0,0-2.47,1.39H15.16a.49.49,0,0,1-.2.05c-1.05,0-1.91,1.16-1.91,2.59s.87,2.6,1.91,2.6H36.21a3.1,3.1,0,0,0,2.48,1.39V41.82c-1,0-1.9-1.19-1.9-2.6S37.66,36.58,38.69,36.58Z"/><path class="cls-2" d="M15,36.62a.65.65,0,0,0,.2,0H38.54a1,1,0,0,0,1.05-1V8.11a.06.06,0,0,0-.06-.06H14.13a3.13,3.13,0,0,0-2.46,3.34V39.92a2.56,2.56,0,0,1,0-.39c.13,2,1.53,3.68,3.26,3.68H38.69a.7.7,0,0,0,0-1.39H15c-1,0-1.9-1.19-1.9-2.6S13.91,36.62,15,36.62Zm3.91-15.5s0-.06.05-.06H20.4a.64.64,0,0,0,.6-.46,3.93,3.93,0,0,1,.18-.43.65.65,0,0,0-.11-.74l-1-1a.06.06,0,0,1,0-.08l1.59-1.58s.05,0,.08,0l1,1a.63.63,0,0,0,.75.1,3.85,3.85,0,0,1,.47-.19.66.66,0,0,0,.44-.61V15.62a.06.06,0,0,1,.06-.06h2.24a.06.06,0,0,1,.06.06V17a.65.65,0,0,0,.45.61,3.9,3.9,0,0,1,.47.2.65.65,0,0,0,.75-.11l1-1s.05,0,.08,0l1.58,1.58a.06.06,0,0,1,0,.08l-1,1a.65.65,0,0,0-.11.74c.07.15.13.3.19.45a.64.64,0,0,0,.6.46h1.45s.05,0,.05.06v2.24a0,0,0,0,1-.05.05H30.65a.67.67,0,0,0-.61.44,3.25,3.25,0,0,1-.18.43A.64.64,0,0,0,30,25l1.08,1.08a.06.06,0,0,1,0,.08l-1.58,1.59a.06.06,0,0,1-.08,0l-1.13-1.13a.6.6,0,0,0-.7-.1l-.41.17a.61.61,0,0,0-.43.57v1.59a.06.06,0,0,1-.06.06H24.42a.06.06,0,0,1-.06-.06v-1.6a.61.61,0,0,0-.42-.57l-.41-.17a.62.62,0,0,0-.7.1L21.7,27.75a.06.06,0,0,1-.08,0L20,26.16a.06.06,0,0,1,0-.08L21.14,25a.65.65,0,0,0,.1-.72,3,3,0,0,1-.18-.41.63.63,0,0,0-.59-.44H18.92a0,0,0,0,1-.05-.05Z"/><path class="cls-2" d="M25.55,23.74A1.59,1.59,0,1,0,24,22.15,1.59,1.59,0,0,0,25.55,23.74Z"/><path class="cls-1" d="M32.16,21.06H30.71a.64.64,0,0,1-.6-.46c-.06-.15-.12-.3-.19-.45a.65.65,0,0,1,.11-.74l1-1a.06.06,0,0,0,0-.08l-1.58-1.58s-.06,0-.08,0l-1,1a.65.65,0,0,1-.75.11,3.9,3.9,0,0,0-.47-.2.65.65,0,0,1-.45-.61v-1.4a.06.06,0,0,0-.06-.06H24.42a.06.06,0,0,0-.06.06V17a.66.66,0,0,1-.44.61,3.85,3.85,0,0,0-.47.19.63.63,0,0,1-.75-.1l-1-1s-.06,0-.08,0L20,18.31a.06.06,0,0,0,0,.08l1,1a.65.65,0,0,1,.11.74,3.93,3.93,0,0,0-.18.43.64.64,0,0,1-.6.46H18.92s-.05,0-.05.06v2.24a0,0,0,0,0,.05.05h1.55a.63.63,0,0,1,.59.44,3,3,0,0,0,.18.41.65.65,0,0,1-.1.72L20,26.08a.06.06,0,0,0,0,.08l1.59,1.59a.06.06,0,0,0,.08,0l1.13-1.14a.62.62,0,0,1,.7-.1l.41.17a.61.61,0,0,1,.42.57v1.6a.06.06,0,0,0,.06.06h2.24a.06.06,0,0,0,.06-.06V27.26a.61.61,0,0,1,.43-.57l.41-.17a.6.6,0,0,1,.7.1l1.13,1.13a.06.06,0,0,0,.08,0l1.58-1.59a.06.06,0,0,0,0-.08L30,25a.64.64,0,0,1-.11-.72,3.25,3.25,0,0,0,.18-.43.67.67,0,0,1,.61-.44h1.51a0,0,0,0,0,.05-.05V21.12S32.19,21.06,32.16,21.06Zm-6.61,2.68a1.59,1.59,0,1,1,1.59-1.59A1.59,1.59,0,0,1,25.55,23.74Z"/></g></svg>