<svg xmlns="http://www.w3.org/2000/svg" viewBox="0 0 51.26 51.26"><defs><style>.cls-1{fill:#fff;}</style></defs><g id="Layer_2" data-name="Layer 2"><path class="cls-1" d="M38.79,7.39h-24c-1.72.16-3,1.86-3,4v27.9c0,2.2,1.48,4,3.29,4H38.79a.69.69,0,0,0,0-1.38c-1,0-1.9-1.17-1.9-2.6a2.41,2.41,0,0,1,1.71-2.57h.19a.69.69,0,0,0,.69-.69V8.08A.69.69,0,0,0,38.79,7.39ZM13.16,36V11.35c0-1.35.78-2.49,1.71-2.58H38.1V35.29H15.21a.37.37,0,0,0-.15,0l-.25,0h-.08a2.77,2.77,0,0,0-.7.18l-.13,0-.26.14a2.23,2.23,0,0,0-.3.2l-.15.11ZM36.3,41.85H15.06c-1.05,0-1.9-1.17-1.9-2.6a4,4,0,0,1,0-.5,2.65,2.65,0,0,1,.06-.3,1,1,0,0,0,0-.17,1.88,1.88,0,0,1,.12-.3l0-.12.14-.25.08-.14.15-.18.13-.15.13-.11.18-.13.15-.08.16-.07.26-.07H36.3a4.58,4.58,0,0,0,0,5.17Z"/><path class="cls-1" d="M25.66,24.4a2.22,2.22,0,1,0-2.22-2.22A2.22,2.22,0,0,0,25.66,24.4Zm0-3.18a1,1,0,0,1,0,1.93,1,1,0,1,1,0-1.93Z"/><path class="cls-1" d="M19,24.07h1.6a5.49,5.49,0,0,0,.21.51l-1.13,1.13a.63.63,0,0,0,0,.88l1.66,1.67a.64.64,0,0,0,.89,0l1.16-1.16.48.2v1.64a.63.63,0,0,0,.63.62h2.35a.63.63,0,0,0,.63-.62V27.31l.48-.2,1.16,1.15a.63.63,0,0,0,.88,0l1.67-1.67a.63.63,0,0,0,0-.88l-1.12-1.12a4.77,4.77,0,0,0,.22-.52h1.58a.63.63,0,0,0,.62-.63V21.09a.63.63,0,0,0-.62-.63H30.81q-.11-.29-.24-.57l1.07-1.07a.63.63,0,0,0,0-.88L30,16.27a.63.63,0,0,0-.88,0l-1,1a5.09,5.09,0,0,0-.6-.25V15.59a.63.63,0,0,0-.63-.62H24.47a.63.63,0,0,0-.63.62v1.48a5.09,5.09,0,0,0-.6.25l-1-1.05a.64.64,0,0,0-.89,0l-1.66,1.67a.63.63,0,0,0,0,.88l1.08,1.08c-.09.19-.16.38-.23.56H19a.63.63,0,0,0-.62.63v2.35A.63.63,0,0,0,19,24.07Zm.63-2.36H21a.63.63,0,0,0,.61-.48A4,4,0,0,1,22,20.1a.63.63,0,0,0-.1-.76l-1-1,.78-.78.93.93a.61.61,0,0,0,.77.09,4.4,4.4,0,0,1,1.16-.49.61.61,0,0,0,.47-.6V16.22H26.2v1.3a.62.62,0,0,0,.47.61,3.82,3.82,0,0,1,1.16.49.63.63,0,0,0,.77-.09l.93-.93.78.78-.95.95a.62.62,0,0,0-.1.75,4.29,4.29,0,0,1,.47,1.15.63.63,0,0,0,.61.48h1.35v1.11h-1.4a.64.64,0,0,0-.61.46,3.73,3.73,0,0,1-.47,1.1.64.64,0,0,0,.09.77l1,1-.78.78-1-1a.62.62,0,0,0-.75-.1,4.25,4.25,0,0,1-1.07.44.62.62,0,0,0-.47.6v1.47H25.09V26.84a.62.62,0,0,0-.47-.61,3.78,3.78,0,0,1-1.06-.44.63.63,0,0,0-.76.1l-1,1L21,26.15l1-1a.63.63,0,0,0,.09-.77,4,4,0,0,1-.46-1.08.63.63,0,0,0-.61-.46H19.6Z"/></g></svg>