<?xml version="1.0" encoding="UTF-8"?>
<svg id="Layer_2" data-name="Layer 2" xmlns="http://www.w3.org/2000/svg" viewBox="0 0 51.26 51.26">
  <defs>
    <style>
      .cls-1 {
        fill: #FFFFFF;
      }
    </style>
  </defs>
  <path class="cls-1" d="m43.07,15.3c-.54-3.98-4.05-7.12-8.21-7.73-.7-.1-3.36-.48-9.52-.48h-.05c-6.16,0-7.49.37-8.19.48-4.05.59-7.74,3.41-8.64,7.44-.43,1.99-.48,4.19-.4,6.21.11,2.9.14,5.79.4,8.67.18,1.92.5,3.82.96,5.69.85,3.45,4.3,6.33,7.68,7.5,3.62,1.22,7.51,1.43,11.24.59.41-.09.82-.2,1.22-.33.9-.28,1.97-.6,2.75-1.16.01,0,.02-.02.03-.03,0-.01,0-.02.01-.04v-2.79s0-.02,0-.04c0-.01-.01-.02-.02-.03,0,0-.02-.01-.03-.02-.01,0-.02,0-.04,0-2.39.56-4.84.85-7.29.84-4.23,0-5.36-1.98-5.69-2.81-.26-.71-.43-1.46-.49-2.21,0-.01,0-.03,0-.04,0-.01.01-.02.02-.03,0,0,.02-.01.03-.02.01,0,.03,0,.04,0,2.35.56,4.76.84,7.17.84.58,0,1.16,0,1.74-.02,2.43-.07,4.99-.19,7.38-.65.06-.01.12-.02.17-.04,3.77-.72,7.36-2.96,7.72-8.66.01-.22.05-2.35.05-2.58,0-.79.26-5.61-.04-8.57Zm-5.8,14.2h-3.97v-9.61c0-2.02-.85-3.05-2.58-3.05-1.91,0-2.86,1.22-2.86,3.63v5.26h-3.94v-5.26c0-2.41-.96-3.63-2.86-3.63-1.72,0-2.58,1.03-2.58,3.05v9.61h-3.96v-9.9c0-2.02.52-3.63,1.57-4.82,1.08-1.19,2.49-1.8,4.24-1.8,2.03,0,3.56.77,4.59,2.31l.99,1.64.99-1.64c1.02-1.54,2.56-2.31,4.58-2.31,1.75,0,3.16.61,4.24,1.8,1.04,1.19,1.57,2.8,1.57,4.82v9.9Z"/>
</svg>