<svg xmlns="http://www.w3.org/2000/svg" viewBox="0 0 51.26 51.26">
  <g fill="#FFFFFF">
    <path d="M11.6,17.15H39.66a3.87,3.87,0,0,0,0-7.74H11.6a3.87,3.87,0,0,0,0,7.74Zm0-6.49H39.66a2.62,2.62,0,0,1,0,5.24H11.6a2.62,2.62,0,1,1,0-5.24Z"/>
    <path d="M39.66,21.44H11.6a3.87,3.87,0,0,0,0,7.74H39.66a3.87,3.87,0,0,0,0-7.74Zm0,6.49H11.6a2.62,2.62,0,1,1,0-5.24H39.66a2.62,2.62,0,0,1,0,5.24Z"/>
    <path d="M39.66,33.47H11.6a3.87,3.87,0,1,0,0,7.74H39.66a3.87,3.87,0,0,0,0-7.74Zm0,6.49H11.6a2.62,2.62,0,0,1,0-5.24H39.66a2.62,2.62,0,0,1,0,5.24Z"/>
  </g>
</svg>