<svg xmlns="http://www.w3.org/2000/svg" viewBox="0 0 51.26 51.26"><defs><style>.cls-1{fill:#fff;}</style></defs><g id="Layer_2" data-name="Layer 2"><path class="cls-1" d="M25.63,43.2a3.87,3.87,0,0,1-3.87-3.86V29.18H11.6a3.87,3.87,0,0,1,0-7.74H21.76V11.28a3.87,3.87,0,0,1,7.73,0V21.44H39.66a3.87,3.87,0,0,1,0,7.74H29.49V39.34A3.86,3.86,0,0,1,25.63,43.2Zm-14-20.51a2.62,2.62,0,1,0,0,5.24H23V39.34a2.62,2.62,0,0,0,5.23,0V27.93H39.66a2.62,2.62,0,0,0,0-5.24H28.24V11.28a2.62,2.62,0,0,0-5.23,0V22.69Z"/></g></svg>