<svg xmlns="http://www.w3.org/2000/svg" viewBox="0 0 51.26 51.26"><defs><style>.cls-1{fill:#fff;}</style></defs><g id="Layer_2" data-name="Layer 2"><path class="cls-1" d="M45,10H11.85a.69.69,0,0,0-.69.69v6.22H6.3a.69.69,0,0,0-.7.69V37.33a3.25,3.25,0,0,0,3.49,3.29h32.6a3.71,3.71,0,0,0,4-3.1V10.69A.69.69,0,0,0,45,10ZM10.47,38.83l0,0a1.48,1.48,0,0,1-.25.14l-.15.07-.24.07-.2,0a3.75,3.75,0,0,1-.5,0A1.86,1.86,0,0,1,7,37.33v-19h4.17V37.47A1.91,1.91,0,0,1,10.47,38.83Zm4.2-14.68a.68.68,0,0,1,.69-.7h0l12.61,0a.69.69,0,0,1,.69.69v8.26a.68.68,0,0,1-.69.69H15.36a.69.69,0,0,1-.69-.7ZM41,37.24H15.14a.7.7,0,0,1,0-1.39H41a.71.71,0,0,1,.69.7A.69.69,0,0,1,41,37.24Zm0-4.13H31a.69.69,0,1,1,0-1.38H41a.69.69,0,1,1,0,1.38ZM41,29H31a.7.7,0,0,1-.69-.7A.69.69,0,0,1,31,27.6H41a.69.69,0,0,1,.69.69A.7.7,0,0,1,41,29Zm0-4.13H31a.7.7,0,0,1,0-1.39H41a.7.7,0,0,1,0,1.39Zm.69-4.44a.68.68,0,0,1-.2.49.71.71,0,0,1-.49.21h0l-25.65,0a.69.69,0,0,1-.69-.69V14.09a.68.68,0,0,1,.2-.49.71.71,0,0,1,.49-.21h0l25.65,0a.69.69,0,0,1,.69.69Z"/></g></svg>