<svg xmlns="http://www.w3.org/2000/svg" viewBox="0 0 51.26 51.26">
  <path fill="#FFFFFF" d="M45 10H11.85a.69.69 0 0 0-.69.69v6.22H6.3a.69.69 0 0 0-.7.69v19.73a3.25 3.25 0 0 0 3.49 3.29h32.6a3.71 3.71 0 0 0 4-3.1V10.69A.69.69 0 0 0 45 10ZM10.47 38.83a1.48 1.48 0 0 1-.25.14l-.15.07-.24.07h-.2a3.75 3.75 0 0 1-.5 0A1.86 1.86 0 0 1 7 37.33v-19h4.17v19.14a1.91 1.91 0 0 1-.7 1.36Zm4.2-14.68a.68.68 0 0 1 .69-.7h12.61a.69.69 0 0 1 .69.69v8.26a.68.68 0 0 1-.69.69H15.36a.69.69 0 0 1-.69-.7ZM41 37.24H15.14a.7.7 0 0 1 0-1.39H41a.71.71 0 0 1 .69.7.69.69 0 0 1-.69.69Zm0-4.13H31a.69.69 0 1 1 0-1.38h10a.69.69 0 1 1 0 1.38ZM41 29H31a.7.7 0 0 1-.69-.7.69.69 0 0 1 .69-.7h10a.69.69 0 0 1 .69.69.7.7 0 0 1-.69.71Zm0-4.13H31a.7.7 0 0 1 0-1.39h10a.7.7 0 0 1 0 1.39Zm.69-4.44a.68.68 0 0 1-.2.49.71.71 0 0 1-.49.21H15.35a.69.69 0 0 1-.69-.69v-6.35a.68.68 0 0 1 .2-.49.71.71 0 0 1 .49-.21H41a.69.69 0 0 1 .69.69Z"/>
</svg>
