<svg xmlns="http://www.w3.org/2000/svg" viewBox="0 0 51.26 51.26"><defs><style>.cls-1{fill:#fff;}</style></defs><g id="Layer_2" data-name="Layer 2"><path class="cls-1" d="M45,10H11.85a.69.69,0,0,0-.69.69v6.22H6.3a.69.69,0,0,0-.7.69V37.33a3.25,3.25,0,0,0,3.49,3.29h32.6a3.71,3.71,0,0,0,4-3.1V10.69A.69.69,0,0,0,45,10ZM7,37.33v-19h4.17V37.47a1.91,1.91,0,0,1-.69,1.36l0,0a1.48,1.48,0,0,1-.25.14l-.15.07-.24.07-.2,0a3.75,3.75,0,0,1-.5,0A1.86,1.86,0,0,1,7,37.33Zm34.7,1.9H12a3.24,3.24,0,0,0,.57-1.9.51.51,0,0,0,0-.13V11.39H44.26V37.46A2.41,2.41,0,0,1,41.69,39.23Z"/><path class="cls-1" d="M41,13.41l-25.65,0a.71.71,0,0,0-.49.21.68.68,0,0,0-.2.49v6.32a.69.69,0,0,0,.69.69l25.65,0a.71.71,0,0,0,.49-.21.68.68,0,0,0,.2-.49V14.1A.69.69,0,0,0,41,13.41Zm-.69,6.32-24.26,0V14.78l24.26,0Z"/><path class="cls-1" d="M15.36,33.1H28a.68.68,0,0,0,.69-.69V24.16a.69.69,0,0,0-.69-.69l-12.61,0h0a.68.68,0,0,0-.69.7V32.4A.69.69,0,0,0,15.36,33.1Zm.7-8.26,11.21,0v6.86H16.06Z"/><path class="cls-1" d="M41,23.47H31a.7.7,0,0,0,0,1.39H41a.7.7,0,0,0,0-1.39Z"/><path class="cls-1" d="M41,27.6H31a.69.69,0,0,0-.69.69A.7.7,0,0,0,31,29H41a.7.7,0,0,0,.69-.7A.69.69,0,0,0,41,27.6Z"/><path class="cls-1" d="M41,31.73H31a.69.69,0,1,0,0,1.38H41a.69.69,0,1,0,0-1.38Z"/><path class="cls-1" d="M41,35.85H15.14a.7.7,0,0,0,0,1.39H41a.69.69,0,0,0,.69-.69A.71.71,0,0,0,41,35.85Z"/></g></svg>