<svg xmlns="http://www.w3.org/2000/svg" viewBox="0 0 51.26 51.26"><defs><style>.cls-1{fill:none;}.cls-2{fill:#fff;}.cls-3{fill:#ececed;}</style></defs><g id="Layer_2" data-name="Layer 2"><polygon class="cls-1" points="11.16 17.91 11.16 17.23 11.16 17.91 11.16 17.91"/><path class="cls-1" d="M11.16,37.78v-.13a1.94,1.94,0,0,1,0,.24A.36.36,0,0,0,11.16,37.78Z"/><path class="cls-2" d="M45,10.32H11.85a.69.69,0,0,0-.69.69v6.9h0V37.65h0v.13a.36.36,0,0,1,0,.11c-.09,1.8-1.19,3-2.75,3h33.3a3.71,3.71,0,0,0,4-3.1V11A.69.69,0,0,0,45,10.32ZM41,37.56H15.14a.71.71,0,0,1-.69-.7.69.69,0,0,1,.69-.69H41a.7.7,0,0,1,0,1.39ZM14.67,32.72V24.46a.68.68,0,0,1,.69-.69h0l12.61,0a.69.69,0,0,1,.69.69v8.26a.68.68,0,0,1-.69.69H15.36A.69.69,0,0,1,14.67,32.72ZM31,27.91H41a.7.7,0,0,1,.69.7.69.69,0,0,1-.69.69H31a.69.69,0,0,1-.69-.69A.7.7,0,0,1,31,27.91Zm-.69-3.43a.69.69,0,0,1,.69-.69H41a.69.69,0,1,1,0,1.38H31A.69.69,0,0,1,30.34,24.48ZM31,32H41a.7.7,0,0,1,0,1.39H31A.7.7,0,0,1,31,32ZM41.7,20.74a.68.68,0,0,1-.69.69H15.36a.69.69,0,0,1-.69-.7V14.41a.68.68,0,0,1,.69-.7h0l25.65,0a.69.69,0,0,1,.69.69Z"/><path class="cls-3" d="M41,32H31a.7.7,0,0,0,0,1.39H41A.7.7,0,0,0,41,32Z"/><path class="cls-3" d="M15.36,33.42H28a.68.68,0,0,0,.69-.69V24.48a.69.69,0,0,0-.69-.69l-12.61,0h0a.68.68,0,0,0-.69.69v8.26A.69.69,0,0,0,15.36,33.42Z"/><path class="cls-3" d="M41,36.17H15.14a.69.69,0,0,0-.69.69.71.71,0,0,0,.69.7H41a.7.7,0,0,0,0-1.39Z"/><path class="cls-3" d="M41,27.91H31a.7.7,0,0,0-.69.7.69.69,0,0,0,.69.69H41a.69.69,0,0,0,.69-.69A.7.7,0,0,0,41,27.91Z"/><path class="cls-3" d="M41,13.73l-25.65,0h0a.68.68,0,0,0-.69.7v6.31a.69.69,0,0,0,.69.7H41a.68.68,0,0,0,.69-.69V14.42A.69.69,0,0,0,41,13.73Z"/><path class="cls-3" d="M41,23.79H31a.69.69,0,0,0,0,1.38H41a.69.69,0,1,0,0-1.38Z"/><path class="cls-3" d="M11.16,17.91h0v-.68h-5a.64.64,0,0,0-.56.69V37.65c0,1.93,1.14,3.28,2.78,3.29h0c1.56,0,2.66-1.25,2.75-3a1.94,1.94,0,0,0,0-.24V17.91Z"/><path class="cls-3" d="M11.16,37.65h0V17.92h0V37.65Z"/></g></svg>