<svg xmlns="http://www.w3.org/2000/svg" viewBox="0 0 51.26 51.26">
  <g fill="#FFFFFF">
    <path d="M37,28.76V22.17a11.38,11.38,0,0,0-8.55-11,3.06,3.06,0,0,0,.13-.84,3,3,0,0,0-5.92,0,3,3,0,0,0,.13.84,11.38,11.38,0,0,0-8.55,11v6.59L10,36.7l.28.32c.11.12,2.73,3,11.63,3.69h.13a3.76,3.76,0,0,0,7.11,0c9-.64,11.63-3.56,11.74-3.69l.28-.32ZM23.92,10.32a1.71,1.71,0,0,1,3.42,0,1.72,1.72,0,0,1-.12.59,10.59,10.59,0,0,0-3.18,0A1.72,1.72,0,0,1,23.92,10.32ZM25.64,42a2.52,2.52,0,0,1-2.09-1.11c1.36.07,2.82.09,4.14.05A2.52,2.52,0,0,1,25.64,42Zm2.44-2.48a50.92,50.92,0,0,1-6-.07c-6.69-.48-9.59-2.3-10.46-3l3.92-7.4v-6.9a10.13,10.13,0,1,1,20.26,0v6.9l3.92,7.4C38.75,37.2,35.58,39.17,28.08,39.53Z"/>
  </g>
</svg>