<svg xmlns="http://www.w3.org/2000/svg" viewBox="0 0 51.26 51.26"><defs><style>.cls-1{fill:#fff;}.cls-2{fill:#ececed;}</style></defs><g id="Layer_2" data-name="Layer 2"><path class="cls-1" d="M22.57,40.27a3.15,3.15,0,0,0,6.11.06c-.78,0-1.6.06-2.48.06Q24.24,40.39,22.57,40.27Z"/><path class="cls-2" d="M36.39,29.26V22.52a10.8,10.8,0,0,0-7.88-10.36,2.65,2.65,0,0,0,.08-.63,3,3,0,0,0-5.92,0,2.65,2.65,0,0,0,.08.63,10.8,10.8,0,0,0-7.88,10.36v6.74L10.8,37s2.45,2.83,11.2,3.47c1.11.08,2.31.13,3.63.13.87,0,1.7,0,2.48-.06C37.79,40,40.46,37,40.46,37ZM24,11.9a2.21,2.21,0,0,1,0-.37,1.71,1.71,0,0,1,3.42,0,2.21,2.21,0,0,1,0,.37,10,10,0,0,0-3.34,0Z"/></g></svg>