<svg xmlns="http://www.w3.org/2000/svg" viewBox="0 0 51.26 51.26"><defs><style>.cls-1{fill:#fff;}</style></defs><g id="Layer_2" data-name="Layer 2"><path class="cls-1" d="M22.57,40.75a3.15,3.15,0,0,0,6.11.07c-.78,0-1.6.06-2.48.06C24.89,40.88,23.68,40.83,22.57,40.75Z"/><path class="cls-1" d="M36.39,28.14V21.39A10.8,10.8,0,0,0,28.51,11a2.72,2.72,0,0,0,.08-.63,3,3,0,0,0-5.92,0,2.72,2.72,0,0,0,.08.63,10.8,10.8,0,0,0-7.88,10.35v6.75l-4.07,7.7s2.45,2.83,11.2,3.47c1.11.08,2.31.13,3.63.13.87,0,1.7,0,2.48-.06,9.68-.46,12.35-3.54,12.35-3.54ZM24,10.78a2.33,2.33,0,0,1,0-.37,1.71,1.71,0,0,1,3.42,0,2.21,2.21,0,0,1,0,.37,10,10,0,0,0-3.34,0Z"/></g></svg>