<svg xmlns="http://www.w3.org/2000/svg" viewBox="0 0 51.26 51.26"><defs><style>.cls-1{fill:#ececed;}.cls-2{fill:#fff;}</style></defs><g id="Layer_2" data-name="Layer 2"><path class="cls-1" d="M10.3,45.86l-.15-.21Z"/><path class="cls-1" d="M10,45.34c0-.07-.05-.15-.08-.22l0,0Z"/><path class="cls-1" d="M40.62,33.64a18.08,18.08,0,0,0-30,0,5.85,5.85,0,0,0-1,3.29v6.94a3.26,3.26,0,0,0,.27,1.25l4.92-4.93A2.93,2.93,0,0,1,19,44.34L16.1,47.23H35.48l-3.08-3a2.95,2.95,0,0,1,0-4.16,2.94,2.94,0,0,1,4.15,0l4.91,4.8a3.39,3.39,0,0,0,.17-1V36.93A5.85,5.85,0,0,0,40.62,33.64Zm-15,7c-1.71-2.21-5.69-3.91-5.69-6.68,0-4.25,4.64-4.58,5.69-2,1.05-2.55,5.68-2.22,5.68,2C31.31,36.7,27.34,38.4,25.63,40.61Z"/><circle class="cls-1" cx="25.63" cy="14.4" r="9.74"/><path class="cls-2" d="M10.15,45.65a3.07,3.07,0,0,1-.17-.31A3.07,3.07,0,0,0,10.15,45.65Z"/><path class="cls-2" d="M14.82,40.19l-4.94,5,.1.2a3.07,3.07,0,0,0,.17.31l.15.21c.06.09.14.18.21.27a1.29,1.29,0,0,1,.16.17c.14.12.28.24.43.35l.1.05a2.38,2.38,0,0,0,.41.23l.19.07a2.67,2.67,0,0,0,.4.13l.18,0a3.08,3.08,0,0,0,.61.06H16.1L19,44.34a2.93,2.93,0,0,0-4.15-4.15Z"/><path class="cls-2" d="M36.55,40.08a2.93,2.93,0,0,0-5,2.07,2.9,2.9,0,0,0,.86,2.08l3.08,3h2.79a3.08,3.08,0,0,0,.61-.06l.21-.05.36-.11.25-.11.26-.14c.09-.06.19-.11.28-.18l.11-.09a3.38,3.38,0,0,0,1.11-1.61h0Z"/><path class="cls-2" d="M25.63,31.9c-1.05-2.55-5.69-2.22-5.69,2,0,2.77,4,4.47,5.69,6.68,1.71-2.21,5.68-3.91,5.68-6.68C31.31,29.68,26.68,29.35,25.63,31.9Z"/></g></svg>