<svg xmlns="http://www.w3.org/2000/svg" viewBox="0 0 51.26 51.26">
  <g fill="#FFFFFF">
    <path d="M25.63 23.82a9.74 9.74 0 1 0-9.74-9.74 9.74 9.74 0 0 0 9.74 9.74ZM19 39.87a2.93 2.93 0 0 0-4.15 0l-4.94 5A3.37 3.37 0 0 0 13 46.92h3.1L19 44a2.93 2.93 0 0 0 0-4.13Z"/>
    <path d="M40.62 33.32a18.08 18.08 0 0 0-30 0 5.85 5.85 0 0 0-1 3.29v7.04l4.47-4.49a3.94 3.94 0 1 1 5.57 5.57l-2.17 2.19h16.56l-2.36-2.3a4 4 0 0 1-1.15-2.79 3.94 3.94 0 0 1 6.72-2.78l4.37 4.28v-6.72a5.85 5.85 0 0 0-1.01-3.29Zm-15 7c-1.71-2.21-5.69-3.9-5.69-6.68 0-4.24 4.64-4.57 5.69-2 1.05-2.54 5.68-2.21 5.68 2 .01 2.75-3.96 4.44-5.67 6.65Z"/>
    <path d="M32.4 39.76a2.93 2.93 0 0 0 0 4.15l3.08 3h2.78a3.36 3.36 0 0 0 3.2-2.36l-4.91-4.8a2.93 2.93 0 0 0-4.15.01Z"/>
  </g>
</svg>
