<svg xmlns="http://www.w3.org/2000/svg" viewBox="0 0 51.26 51.26"><defs><style>.cls-1{fill:#fff;}</style></defs><g id="Layer_2" data-name="Layer 2"><path class="cls-1" d="M48.67,24.83,44.79,11.21A2.23,2.23,0,0,0,42,9.68l-2.8.8A2.21,2.21,0,0,0,37.68,13,19.33,19.33,0,0,1,29,12.36a26.19,26.19,0,0,0-3.72-.73A6.24,6.24,0,0,0,21,12.77a23.4,23.4,0,0,1-7.48.24,2.55,2.55,0,0,0-1.83-2.44l-2.2-.63a2.52,2.52,0,0,0-1.92.23,2.48,2.48,0,0,0-1.21,1.52l-3.72,13a2.55,2.55,0,0,0,.23,1.93,2.51,2.51,0,0,0,1.51,1.2l2.2.63a2.37,2.37,0,0,0,.7.1,2.59,2.59,0,0,0,1.23-.32,2.73,2.73,0,0,0,.8-.71,6.11,6.11,0,0,1,3.49,2.05l-.49.57A2.53,2.53,0,0,0,11.67,32a2.56,2.56,0,0,0,.88,1.72,2.45,2.45,0,0,0,1.62.59h0a2.56,2.56,0,0,0,0,.62,2.46,2.46,0,0,0,.87,1.71,2.5,2.5,0,0,0,1.62.6h.21a2.36,2.36,0,0,0,.53-.1,2.51,2.51,0,0,0,.84,1.49,2.46,2.46,0,0,0,1.62.6h.21l.23,0a1.21,1.21,0,0,0,0,.19,2.5,2.5,0,0,0,2.5,2.31,2.53,2.53,0,0,0,1.92-.88l.83-1,.86.86a2.51,2.51,0,0,0,4.15-1.91,2.27,2.27,0,0,0,.69,0,2.5,2.5,0,0,0,2.3-2.18,2.62,2.62,0,0,0,1.33.26,2.54,2.54,0,0,0,2.31-2.71c0-.11,0-.22-.05-.33a2.52,2.52,0,0,0,.55,0A2.46,2.46,0,0,0,39.41,33a2.51,2.51,0,0,0-.27-3.53L39,29.31a19,19,0,0,1,3-1.67,2.39,2.39,0,0,0,.64.54,2.2,2.2,0,0,0,1.08.28,2.49,2.49,0,0,0,.61-.08l2.8-.8a2.24,2.24,0,0,0,1.33-1.06A2.17,2.17,0,0,0,48.67,24.83ZM8.46,26.38a1.24,1.24,0,0,1-.61.77,1.29,1.29,0,0,1-1,.12l-2.19-.63A1.27,1.27,0,0,1,3.91,26a1.29,1.29,0,0,1-.12-1L7.51,12a1.3,1.3,0,0,1,.61-.77,1.25,1.25,0,0,1,1-.11l2.2.62a1.29,1.29,0,0,1,.88,1.59Zm4.9,6.37a1.23,1.23,0,0,1-.44-.86,1.27,1.27,0,0,1,.29-.92l1.89-2.22A1.27,1.27,0,0,1,17,30.4l-1.89,2.21a1.25,1.25,0,0,1-.86.44A1.23,1.23,0,0,1,13.36,32.75ZM16.78,36a1.24,1.24,0,0,1-.92-.29,1.26,1.26,0,0,1-.14-1.78l3-3.49a1.25,1.25,0,0,1,.86-.44h.11a1.21,1.21,0,0,1,.81.3,1.27,1.27,0,0,1,.15,1.78,2,2,0,0,0-.4.37L18,35.06a2.59,2.59,0,0,0-.3.46l0,0A1.22,1.22,0,0,1,16.78,36ZM20,38a1.22,1.22,0,0,1-.92-.29,1.26,1.26,0,0,1-.3-1.51l2.64-3.09a1.21,1.21,0,0,1,.73-.28,1.26,1.26,0,0,1,.82.3,1.23,1.23,0,0,1,.44.87,1.27,1.27,0,0,1-.29.92l-2.26,2.65A1.24,1.24,0,0,1,20,38Zm3.8,2a1.28,1.28,0,0,1-1.79.14h0a1.29,1.29,0,0,1-.44-.86,1.27,1.27,0,0,1,.3-.92l1.42-1.67a1.27,1.27,0,0,1,1-.44,1.27,1.27,0,0,1,1,2.08Zm14.68-7.81a1.27,1.27,0,0,1-.86.44,1.31,1.31,0,0,1-.93-.3l-6-5-.82.94,5.69,5.2a1.25,1.25,0,0,1,.44.86,1.27,1.27,0,0,1-2.06,1.08l-5.4-5-.86.92,4.25,4A1.28,1.28,0,0,1,32,37.11a1.31,1.31,0,0,1-.87.44,1.29,1.29,0,0,1-.91-.29L26,33.54l-.83.93,3.69,3.31a1.27,1.27,0,0,1-1.6,2l-.92-.92A2.51,2.51,0,0,0,24.46,35a2.49,2.49,0,0,0-.7-2.85,2.46,2.46,0,0,0-1.62-.58,3,3,0,0,0,0-.52,2.56,2.56,0,0,0-.88-1.72A2.52,2.52,0,0,0,18.5,29a2.5,2.5,0,0,0-.8-1.33,2.53,2.53,0,0,0-3.55.28l-.58.69a7.33,7.33,0,0,0-3.81-2.26l3.47-12.13a32.73,32.73,0,0,0,3.66.22c.76,0,1.56,0,2.35-.12l-.17.18c-.22.25-.43.47-.63.67-.63.6-3.76,3.71-3.64,5.56a1.36,1.36,0,0,0,.55,1.05c1.59,1.18,4.18.13,5.43-.95,1.68-1.45,3.13-2.31,3.9-2.31a1.9,1.9,0,0,1,1.39.57L38.32,30.38A1.27,1.27,0,0,1,38.46,32.16ZM27,18.3a3.13,3.13,0,0,0-2.34-1c-1.39,0-3.33,1.42-4.72,2.62-1,.84-2.92,1.59-3.86.89,0,0-.05,0-.06-.13,0-.85,1.62-3,3.26-4.58.22-.21.45-.46.69-.73,1.11-1.22,2.51-2.74,5.21-2.49a26.38,26.38,0,0,1,3.54.71c2.7.66,5.75,1.39,9.27.67l3.5,12.25a19.82,19.82,0,0,0-3.45,1.95Zm20.37,7.61a1,1,0,0,1-.59.47L44,27.17a1,1,0,0,1-.74-.08,1,1,0,0,1-.46-.59L38.92,12.88a1,1,0,0,1,.09-.74.92.92,0,0,1,.58-.46l2.79-.8a1.26,1.26,0,0,1,.27,0,1,1,0,0,1,.94.71l3.88,13.62A1,1,0,0,1,47.39,25.91Z"/></g></svg>