<svg xmlns="http://www.w3.org/2000/svg" viewBox="0 0 51.26 51.26"><defs><style>.cls-1{fill:#fff;}</style></defs><g id="Layer_2" data-name="Layer 2"><path class="cls-1" d="M22.94,36.11l.33-.39A1.89,1.89,0,0,0,20.73,33l.06-.06a1.89,1.89,0,0,0-2.88-2.45l0,.05a1.89,1.89,0,0,0-3.25-1.76L12.73,31A1.89,1.89,0,0,0,15,33.89l0,0a1.89,1.89,0,0,0,2.87,2.45l.08-.09a1.88,1.88,0,0,0,2.92,2.26,1.89,1.89,0,0,0,3.14,2l1.42-1.67a1.88,1.88,0,0,0-2.43-2.82Z"/><rect class="cls-1" x="-1" y="16.6" width="17.36" height="6.1" rx="1.91" transform="translate(-13.32 21.65) rotate(-74.07)"/><rect class="cls-1" x="40.45" y="10.12" width="6.1" height="17.36" rx="1.6" transform="translate(-3.49 12.66) rotate(-15.93)"/><path class="cls-1" d="M26.07,19.12A1.48,1.48,0,0,0,25,18.69c-.49,0-1.75.59-3.65,2.23a6.57,6.57,0,0,1-3.95,1.56,3.18,3.18,0,0,1-1.95-.6,1.77,1.77,0,0,1-.71-1.33c-.12-2,2.85-5,3.76-5.86.17-.16.34-.34.52-.54a27.43,27.43,0,0,1-5.52,0L9.65,27.52a6.67,6.67,0,0,1,3.08,1.89l1.12-1.32a2.92,2.92,0,0,1,2.21-1,2.84,2.84,0,0,1,1.87.69,2.88,2.88,0,0,1,.79,1.08,3.36,3.36,0,0,1,.63-.06,2.89,2.89,0,0,1,1.87.68,2.86,2.86,0,0,1,1,2c0,.07,0,.13,0,.19a2.91,2.91,0,0,1,1.46.66,2.86,2.86,0,0,1,1,2,2.92,2.92,0,0,1,0,.66,2.88,2.88,0,0,1,1.44,4.66l-.3.36.69.69a1.88,1.88,0,0,0,2.83-2.42l0,0A2.1,2.1,0,0,0,32.2,38a1.9,1.9,0,0,0,.06-2.37l.7.67A2.14,2.14,0,0,0,35.82,36a1.89,1.89,0,0,0-.21-2.66,2.38,2.38,0,0,0,3-.36,1.89,1.89,0,0,0-.2-2.65Z"/><path class="cls-1" d="M25.56,12c-3.63-.34-5.13,2.18-6.39,3.39S14.72,20.11,16,21.08s3.58,0,4.64-.92,3-2.47,4.31-2.47a2.52,2.52,0,0,1,1.88.74L38.35,29.06a14.23,14.23,0,0,1,3.29-2L37.77,13.51C32.93,14.34,29,12.35,25.56,12Z"/></g></svg>