<svg xmlns="http://www.w3.org/2000/svg" viewBox="0 0 51.26 51.26"><defs><style>.cls-1{fill:#fff;}.cls-2{fill:#ececed;}</style></defs><g id="Layer_2" data-name="Layer 2"><path class="cls-1" d="M46.88,25.46,43,11.84a1.6,1.6,0,0,0-2-1.1l-2.8.8a1.61,1.61,0,0,0-1.1,2l.12.4h0l3.87,13.53h0a1.6,1.6,0,0,0,1.85.78l2.79-.79A1.6,1.6,0,0,0,46.88,25.46Z"/><path class="cls-1" d="M37.85,29.45h0L26.38,18.82a2.52,2.52,0,0,0-1.88-.74c-1.26,0-3.24,1.55-4.31,2.47s-3.33,1.89-4.64.92,1.89-4.45,3.14-5.66c.48-.46,1-1.11,1.65-1.72h-1a27.11,27.11,0,0,1-5.38,0,.86.86,0,0,1,0,.17l-3.71,13-.1.24a6.56,6.56,0,0,1,2.95,1.84l.78.64L15,28.7a1.88,1.88,0,0,1,3.24,1.75l.05-.05a1.89,1.89,0,1,1,2.87,2.45l-.05.06a1.89,1.89,0,0,1,2.54,2.76l-.34.39a1.88,1.88,0,0,1,2.43,2.82l-.38.45,1.54,1.25a1.88,1.88,0,0,0,2.83-2.42l0,0a2.1,2.1,0,0,0,2.83-.27,1.91,1.91,0,0,0,.06-2.37l.7.67A2.14,2.14,0,0,0,36.2,36,1.9,1.9,0,0,0,36,33.32,2.36,2.36,0,0,0,39,33a1.89,1.89,0,0,0-.2-2.64Z"/><path class="cls-2" d="M37.29,13.91h0c-4.82.81-8.77-1.17-12.16-1.49a5.77,5.77,0,0,0-4.74,1.67c-.65.61-1.17,1.26-1.65,1.72-1.25,1.21-4.45,4.69-3.14,5.66s3.58,0,4.64-.92,3-2.47,4.31-2.47a2.52,2.52,0,0,1,1.88.74L37.87,29.45a14.41,14.41,0,0,1,3.27-2h0Z"/><path class="cls-2" d="M23.31,36.06l.34-.39a1.89,1.89,0,0,0-2.54-2.76l.05-.06a1.89,1.89,0,1,0-2.87-2.45l-.05.05A1.88,1.88,0,0,0,15,28.7L13.89,30l-.78.91a1.89,1.89,0,0,0,2.25,2.93l0,0a1.89,1.89,0,0,0,2.87,2.45l.07-.08a1.88,1.88,0,0,0,2.93,2.25,1.88,1.88,0,0,0,3.13,2l1-1.22.38-.45a1.88,1.88,0,0,0-2.43-2.82Z"/><path class="cls-2" d="M14,14.08a1.91,1.91,0,0,0-1.34-2.19l-2.19-.63A1.94,1.94,0,0,0,8.1,12.58l-3.71,13A1.91,1.91,0,0,0,5.7,28l2.2.63a1.91,1.91,0,0,0,2.26-1.07l.1-.24,3.71-13A.86.86,0,0,0,14,14.08Z"/></g></svg>