<svg xmlns="http://www.w3.org/2000/svg" viewBox="0 0 51.26 51.26">
  <g fill="#FFFFFF">
    <path d="m22.94 36.11.33-.39A1.89 1.89 0 0 0 20.73 33l.06-.06a1.89 1.89 0 0 0-2.88-2.45v.05a1.89 1.89 0 0 0-3.25-1.76L12.73 31A1.89 1.89 0 0 0 15 33.89a1.89 1.89 0 0 0 2.87 2.45l.08-.09a1.88 1.88 0 0 0 2.92 2.26 1.89 1.89 0 0 0 3.14 2l1.42-1.67A1.88 1.88 0 0 0 23 36.02Z"/>
    <rect width="17.36" height="6.1" x="-1" y="16.6" rx="1.91" transform="rotate(-74.07 7.687 19.652)"/>
    <rect width="6.1" height="17.36" x="40.45" y="10.12" rx="1.6" transform="rotate(-15.93 43.496 18.802)"/>
    <path d="M26.07 19.12a1.48 1.48 0 0 0-1.07-.43c-.49 0-1.75.59-3.65 2.23a6.57 6.57 0 0 1-3.95 1.56 3.18 3.18 0 0 1-1.95-.6 1.77 1.77 0 0 1-.71-1.33c-.12-2 2.85-5 3.76-5.86.17-.16.34-.34.52-.54a27.43 27.43 0 0 1-5.52 0L9.65 27.52a6.67 6.67 0 0 1 3.08 1.89l1.12-1.32a2.92 2.92 0 0 1 2.21-1 2.84 2.84 0 0 1 1.87.69 2.88 2.88 0 0 1 .79 1.08 3.36 3.36 0 0 1 .63-.06 2.89 2.89 0 0 1 1.87.68 2.86 2.86 0 0 1 1 2v.19a2.91 2.91 0 0 1 1.46.66 2.86 2.86 0 0 1 1 2 2.92 2.92 0 0 1 0 .66 2.88 2.88 0 0 1 1.44 4.66l-.3.36.69.69a1.88 1.88 0 0 0 2.83-2.42A2.1 2.1 0 0 0 32.2 38a1.9 1.9 0 0 0 .06-2.37l.7.67a2.14 2.14 0 0 0 2.86-.3 1.89 1.89 0 0 0-.21-2.66 2.38 2.38 0 0 0 3-.36 1.89 1.89 0 0 0-.2-2.65Z"/>
    <path d="M25.56 12c-3.63-.34-5.13 2.18-6.39 3.39s-4.45 4.72-3.17 5.69 3.58 0 4.64-.92 3-2.47 4.31-2.47a2.52 2.52 0 0 1 1.88.74l11.52 10.63a14.23 14.23 0 0 1 3.29-2l-3.87-13.55c-4.84.83-8.77-1.16-12.21-1.51Z"/>
  </g>
</svg>
