<svg xmlns="http://www.w3.org/2000/svg" viewBox="0 0 51.26 51.26">
  <g fill="#FFFFFF">
    <path d="M41.34 11h-2.58v-.95a2 2 0 0 0-2-2H11.5a4.37 4.37 0 0 0-3 1 3.44 3.44 0 0 0-1 2.64V36a2.44 2.44 0 0 0 2.44 2.44h4a9.22 9.22 0 0 0 15.42 0h12A2.45 2.45 0 0 0 43.79 36V13.47A2.45 2.45 0 0 0 41.34 11Zm1.2 11.19h-8.36a2.86 2.86 0 0 1 0-5.72h8.36ZM11.45 9.28h25.27a.79.79 0 0 1 .79.79V11H8.78a2 2 0 0 1 .57-1.09 3.17 3.17 0 0 1 2.1-.63Zm10.14 32.06a8 8 0 1 1 8-8 8 8 0 0 1-8 8Zm19.75-4.16H30a9.09 9.09 0 0 0 .84-3.83 9.24 9.24 0 1 0-18.48 0 9.09 9.09 0 0 0 .84 3.83H9.91A1.19 1.19 0 0 1 8.72 36V12.27h32.62a1.2 1.2 0 0 1 1.2 1.2v1.77h-8.36a4.11 4.11 0 1 0 0 8.22h8.36V36a1.19 1.19 0 0 1-1.2 1.18Z"/>
    <path d="M33.46 19.35a1 1 0 1 0 1-1 1 1 0 0 0-1 1ZM20.86 31.63c0-.54.32-.8.9-.8a2.14 2.14 0 0 1 1.48.64l1-1.13a3.37 3.37 0 0 0-2-1.14v-1.35h-1.32v1.39a2.41 2.41 0 0 0-2 2.5c0 2.34 3.51 2.46 3.51 3.7 0 .55-.32.86-1.05.86a2.74 2.74 0 0 1-1.87-.72l-.92 1.27a3.72 3.72 0 0 0 2.37 1.09v1.34h1.36v-1.4a2.5 2.5 0 0 0 2.08-2.61c-.04-2.45-3.54-2.47-3.54-3.64Z"/>
  </g>
</svg>
