<?xml version="1.0" encoding="UTF-8"?>
<svg xmlns="http://www.w3.org/2000/svg" viewBox="0 0 51.26 51.26">
  <defs>
    <style>
      .cls-1 {
        fill: #FFFFFF;
      }

      .cls-2 {
        fill: none;
        stroke: #FFFFFF;
        stroke-miterlimit: 10;
      }
    </style>
  </defs>
  <g>
    <path class="cls-2" d="m23.74,38.55c0,2.07-1.55,3.36-4.04,3.36h-1.87v2.56h-2.15v-9.29h4.02c2.48,0,4.04,1.29,4.04,3.37Zm-2.18,0c0-1.02-.66-1.62-1.98-1.62h-1.75v3.23h1.75c1.31,0,1.98-.6,1.98-1.61Z"/>
    <path class="cls-2" d="m25.26,35.18h4.22c3.04,0,5.13,1.83,5.13,4.65s-2.08,4.65-5.13,4.65h-4.22v-9.29Zm4.12,7.53c1.85,0,3.05-1.1,3.05-2.88s-1.21-2.88-3.05-2.88h-1.97v5.76h1.97Z"/>
    <path class="cls-2" d="m38.37,36.91v2.46h4.3v1.73h-4.3v3.39h-2.15v-9.29h7.02v1.73h-4.87Z"/>
  </g>
  <path class="cls-1" d="m22.74,7.78v14.01h14.01v8.96H11.36v12.69h-2.35V7.78h13.73m1-1h-15.73v37.67h4.35v-12.69h25.4v-10.96h-14.01V6.78h0Z"/>
  <path class="cls-1" d="m25.75,9.13l4.9,4.72,4.75,4.92h-9.65v-9.65m-1-2.35v13h13l-6.38-6.62-6.62-6.38h0Z"/>
</svg>