<svg xmlns="http://www.w3.org/2000/svg" viewBox="0 0 51.26 51.26">
  <defs>
    <style>
      path, polygon {
        fill: #FFFFFF;
      }
    </style>
  </defs>
  <path d="m23.74,38.55c0,2.07-1.55,3.36-4.04,3.36h-1.87v2.56h-2.15v-9.29h4.02c2.48,0,4.04,1.29,4.04,3.37Zm-2.18,0c0-1.02-.66-1.62-1.98-1.62h-1.75v3.23h1.75c1.31,0,1.98-.6,1.98-1.61Z"/>
  <path d="m25.26,35.18h4.22c3.04,0,5.13,1.83,5.13,4.65s-2.08,4.65-5.13,4.65h-4.22v-9.29Zm4.12,7.53c1.85,0,3.05-1.1,3.05-2.88s-1.21-2.88-3.05-2.88h-1.97v5.76h1.97Z"/>
  <path d="m38.37,36.91v2.46h4.3v1.73h-4.3v3.39h-2.15v-9.29h7.02v1.73h-4.87Z"/>
  <polygon points="37.75 20.79 23.74 20.79 23.74 6.78 8.01 6.78 8.01 44.45 12.36 44.45 12.36 31.76 37.75 31.76 37.75 20.79"/>
  <polygon points="37.75 19.78 24.75 19.78 24.75 6.78 31.37 13.16 37.75 19.78"/>
</svg>