<svg xmlns="http://www.w3.org/2000/svg" viewBox="0 0 51.26 51.26"><defs><style>.cls-1{fill:#fff;}.cls-2{fill:#ececed;}</style></defs><g id="Layer_2" data-name="Layer 2"><path class="cls-1" d="M25.63,40.54a1.13,1.13,0,1,0,1.13,1.13A1.13,1.13,0,0,0,25.63,40.54Z"/><rect class="cls-1" x="16.66" y="13.09" width="17.92" height="24.87"/><path class="cls-2" d="M32.62,5.77h-14A4.24,4.24,0,0,0,14.41,10V41.26a4.24,4.24,0,0,0,4.23,4.23h14a4.24,4.24,0,0,0,4.23-4.23V10A4.24,4.24,0,0,0,32.62,5.77Zm-16,7.32H34.58V38H16.66ZM24.5,41.67a1.13,1.13,0,1,1,1.13,1.13A1.13,1.13,0,0,1,24.5,41.67Z"/></g></svg>