<svg xmlns="http://www.w3.org/2000/svg" viewBox="0 0 51.26 51.26"><defs><style>.cls-1{fill:#fff;}.cls-2{fill:#ececed;}</style></defs><g id="Layer_2" data-name="Layer 2"><path class="cls-1" d="M26.16,14.65c-6.17,0-9.28,4.42-9.28,8.11,0,2.23.85,4.22,2.66,4.95a.44.44,0,0,0,.65-.32l.26-1a.63.63,0,0,0-.18-.73,3.68,3.68,0,0,1-.86-2.54,6.15,6.15,0,0,1,6.39-6.22c3.49,0,5.4,2.13,5.4,5,0,3.74-1.65,6.9-4.11,6.9A2,2,0,0,1,25,26.24c.39-1.65,1.14-3.42,1.14-4.61a1.74,1.74,0,0,0-1.75-1.95c-1.39,0-2.5,1.44-2.5,3.36a5.05,5.05,0,0,0,.41,2.06l-1.67,7.07a14.5,14.5,0,0,0,0,4.93.17.17,0,0,0,.3.08,13.78,13.78,0,0,0,2.35-4.25c.16-.58.91-3.57.91-3.57A3.72,3.72,0,0,0,27.37,31c4.18,0,7-3.8,7-8.9C34.38,18.23,31.12,14.65,26.16,14.65Z"/><path class="cls-2" d="M25.63,6.92a19,19,0,0,0-19,19h0a19,19,0,0,0,38.06,0h0A19,19,0,0,0,25.63,6.92ZM27.37,31a3.72,3.72,0,0,1-3.17-1.62s-.75,3-.91,3.57a13.78,13.78,0,0,1-2.35,4.25.17.17,0,0,1-.3-.08,14.5,14.5,0,0,1,0-4.93l1.67-7.07A5.05,5.05,0,0,1,21.93,23c0-1.92,1.11-3.36,2.5-3.36a1.74,1.74,0,0,1,1.75,1.95c0,1.19-.75,3-1.14,4.61a2,2,0,0,0,2.05,2.5c2.46,0,4.11-3.16,4.11-6.9,0-2.85-1.91-5-5.4-5a6.15,6.15,0,0,0-6.39,6.22,3.68,3.68,0,0,0,.86,2.54.63.63,0,0,1,.18.73l-.26,1a.44.44,0,0,1-.65.32C17.73,27,16.88,25,16.88,22.76c0-3.69,3.11-8.11,9.28-8.11,5,0,8.22,3.58,8.22,7.43C34.38,27.18,31.55,31,27.37,31Z"/></g></svg>