<svg xmlns="http://www.w3.org/2000/svg" viewBox="0 0 51.26 51.26">
  <g fill="#FFFFFF">
    <path d="M18,27.83a.56.56,0,0,0,.81-.4c.07-.29.25-1,.33-1.3a.77.77,0,0,0-.23-.9,4.69,4.69,0,0,1-1.07-3.18,7.66,7.66,0,0,1,8-7.74c4.35,0,6.74,2.65,6.74,6.2,0,4.66-2.07,8.6-5.13,8.6A2.51,2.51,0,0,1,24.89,26c.49-2,1.43-4.26,1.43-5.74a2.17,2.17,0,0,0-2.18-2.43C22.41,17.82,21,19.61,21,22a6.17,6.17,0,0,0,.52,2.56l-2.08,8.81a18,18,0,0,0-.05,6.15.21.21,0,0,0,.38.1,17.36,17.36,0,0,0,2.92-5.3c.2-.72,1.14-4.45,1.14-4.45a4.61,4.61,0,0,0,3.95,2c5.2,0,8.73-4.74,8.73-11.09,0-4.79-4.06-9.26-10.24-9.26-7.69,0-11.56,5.51-11.56,10.1C14.73,24.43,15.78,26.91,18,27.83Z"/>
  </g>
</svg>