<svg xmlns="http://www.w3.org/2000/svg" viewBox="0 0 51.26 51.26"><defs><style>.cls-1{fill:#fff;}</style></defs><g id="Layer_2" data-name="Layer 2"><path class="cls-1" d="M25.63,6.6a19,19,0,0,0-19,19h0a19,19,0,0,0,38.06,0h0A19,19,0,0,0,25.63,6.6Zm1.74,24.06A3.72,3.72,0,0,1,24.2,29s-.75,3-.91,3.57a13.78,13.78,0,0,1-2.35,4.25.17.17,0,0,1-.3-.07,14.57,14.57,0,0,1,0-4.94l1.67-7.07a5.05,5.05,0,0,1-.41-2.06c0-1.92,1.11-3.36,2.5-3.36a1.74,1.74,0,0,1,1.75,1.95c0,1.19-.75,3-1.14,4.61a2,2,0,0,0,2.05,2.5c2.46,0,4.11-3.16,4.11-6.9,0-2.85-1.91-5-5.4-5a6.15,6.15,0,0,0-6.39,6.22,3.73,3.73,0,0,0,.86,2.55.61.61,0,0,1,.18.72l-.26,1a.45.45,0,0,1-.65.33c-1.81-.74-2.66-2.73-2.66-5,0-3.69,3.11-8.11,9.28-8.11,5,0,8.22,3.58,8.22,7.43C34.38,26.86,31.55,30.66,27.37,30.66Z"/></g></svg>