<svg xmlns="http://www.w3.org/2000/svg" viewBox="0 0 51.26 51.26">
  <g fill="#FFFFFF">
    <path d="m46.11 29-1.45-3.95a.57.57 0 0 0-.38-.33l.8-2.18a3.89 3.89 0 0 0-2.3-5l-1.24-.46a.63.63 0 0 0 0-.43l-2.77-7.49a3.2 3.2 0 0 0-4.13-1.9l-9.23 3.41a.6.6 0 0 0-.36.37l-7.43-2.75a3.9 3.9 0 0 0-5 2.3l-2.12 5.76a.64.64 0 0 0-.43 0L7 17.45a3.23 3.23 0 0 0-1.9 4.13l1.46 4a.6.6 0 0 0 .37.36L6.18 28a3.88 3.88 0 0 0 2.29 5l1.25.46a.63.63 0 0 0 0 .43l2.79 7.54a3.23 3.23 0 0 0 3 2.11 3.09 3.09 0 0 0 1.12-.21L25.84 40a.64.64 0 0 0 .37-.37l7.43 2.74a3.89 3.89 0 0 0 5-2.3l2.13-5.75a.54.54 0 0 0 .21 0 .85.85 0 0 0 .22 0l3-1.12a3.21 3.21 0 0 0 1.91-4.2Zm-11-20.61a2 2 0 0 1 1.51.06 2 2 0 0 1 1 1.1l2.31 6.27-12.5-4.57ZM6.31 21.15a2 2 0 0 1 .06-1.5 2 2 0 0 1 1.11-1L9.23 18l-2 5.53Zm9.88 21A2 2 0 0 1 13.66 41l-2.32-6.27 12.48 4.61Zm-1-25.36A3 3 0 0 1 16.52 15a2.91 2.91 0 0 1 2.25-.36 3 3 0 0 1-.7 5.88 3.25 3.25 0 0 1-.69-.08 3 3 0 0 1-2.21-3.6Zm.28 12.32 1.9-.89-.9-1.89a.63.63 0 0 1 1.14-.54l.89 1.9 1.89-.89a.62.62 0 1 1 .51 1.2l-1.9.86.89 1.89a.63.63 0 0 1-.3.84.66.66 0 0 1-.27.06.63.63 0 0 1-.56-.36l-.89-1.9-1.9.89a.58.58 0 0 1-.26.06.62.62 0 0 1-.27-1.19Zm18.44 4.51L32 36a.66.66 0 0 1-.42.23h-.07a.62.62 0 0 1-.39-.14l-2.39-1.89a.63.63 0 0 1-.09-.88.62.62 0 0 1 .88-.09l1.21 1c-.85-11.53-7.64-13.55-7.94-13.63a.63.63 0 0 1-.44-.77.64.64 0 0 1 .77-.44C23.45 19.46 31 21.65 32 34l1-1.17a.61.61 0 0 1 .87-.09.63.63 0 0 1 .02.92Zm5.29-11.79-1.89.89.89 1.9a.62.62 0 0 1-.3.83.65.65 0 0 1-.26.06.64.64 0 0 1-.57-.36l-.89-1.9-1.9.89a.58.58 0 0 1-.26.06.62.62 0 0 1-.57-.36.63.63 0 0 1 .3-.83l1.9-.89-.89-1.89a.63.63 0 1 1 1.13-.54l.89 1.9 1.89-.89a.62.62 0 1 1 .53 1.13ZM43.78 32l-1.78.64 2-5.53.87 2.36A2 2 0 0 1 43.78 32Z"/>
    <path d="M17.67 19.21a1.73 1.73 0 1 0-.5-3.16 1.75 1.75 0 0 0-.78 1.07 1.74 1.74 0 0 0 1.28 2.09Z"/>
  </g>
</svg>
