<svg xmlns="http://www.w3.org/2000/svg" viewBox="0 0 51.26 51.26"><defs><style>.cls-1{fill:#fff;}</style></defs><g id="Layer_2" data-name="Layer 2"><path class="cls-1" d="M46.11,29l-1.37-3.73.93-2.51A4.53,4.53,0,0,0,43,17l-1.54-.57L38.77,9.16a3.2,3.2,0,0,0-4.13-1.9l-9,3.33-7.8-2.88A4.5,4.5,0,0,0,12,10.37L9.8,16.43,7,17.45a3.23,3.23,0,0,0-1.9,4.13l1.38,3.73-.93,2.51a4.52,4.52,0,0,0,2.67,5.8l1.54.57,2.69,7.27a3.23,3.23,0,0,0,3,2.11,3.13,3.13,0,0,0,1.12-.21l9-3.32,7.79,2.88a4.51,4.51,0,0,0,5.8-2.67l2.24-6.06,2.75-1A3.2,3.2,0,0,0,46.11,29ZM6.37,19.65a2,2,0,0,1,1.11-1L9.23,18,7.18,23.51l-.87-2.36A2,2,0,0,1,6.37,19.65Zm9.81,22.54A2,2,0,0,1,13.66,41l-2.32-6.27,12.48,4.61ZM35.07,8.43A2,2,0,0,1,37.6,9.59l2.31,6.27-4.85-1.79-7.63-2.82Zm3,31.39a3.27,3.27,0,0,1-4.19,1.92L8.69,32.45a3.27,3.27,0,0,1-1.93-4.19l6.45-17.45A3.25,3.25,0,0,1,17.4,8.88l8,3h0l15.34,5.67h0l1.81.67a3.24,3.24,0,0,1,1.93,4.18l-1,2.73h0l-3.1,8.39h0ZM44.88,31a2,2,0,0,1-1.1,1L42,32.64l1.46-4,.58-1.56.87,2.36A2,2,0,0,1,44.88,31Z"/><path class="cls-1" d="M39.5,21a.61.61,0,0,0-.83-.3l-1.89.89-.89-1.9a.63.63,0,0,0-.83-.3.62.62,0,0,0-.3.84l.89,1.89-1.9.89A.62.62,0,0,0,34,24.2a.58.58,0,0,0,.26-.06l1.9-.89.89,1.9a.63.63,0,0,0,.56.36.66.66,0,0,0,.27-.06.62.62,0,0,0,.3-.83l-.89-1.9,1.89-.89A.62.62,0,0,0,39.5,21Z"/><path class="cls-1" d="M20.37,26.84l-1.89.89-.9-1.89a.61.61,0,0,0-.83-.3.63.63,0,0,0-.3.83l.89,1.89-1.89.89a.62.62,0,0,0,.27,1.19.58.58,0,0,0,.26-.06l1.9-.89.89,1.9a.63.63,0,0,0,.56.36.66.66,0,0,0,.27-.06.63.63,0,0,0,.3-.83L19,28.86,20.9,28a.62.62,0,1,0-.53-1.13Z"/><path class="cls-1" d="M17.48,20.74h0a3.34,3.34,0,0,0,.7.08,3,3,0,1,0-.7-.08Zm-1-3.31a1.73,1.73,0,1,1,1.28,2.09A1.73,1.73,0,0,1,16.49,17.43Z"/><path class="cls-1" d="M33,33.18l-1,1.17c-.94-12.4-8.52-14.58-8.85-14.67a.63.63,0,0,0-.77.45.62.62,0,0,0,.45.76c.07,0,7.07,2,7.93,13.62l-1.21-1a.62.62,0,0,0-.88.09.63.63,0,0,0,.1.88l2.36,1.91a.67.67,0,0,0,.39.14.62.62,0,0,0,.49-.23L34,34a.63.63,0,1,0-1-.79Z"/></g></svg>