<svg xmlns="http://www.w3.org/2000/svg" viewBox="0 0 51.26 51.26"><defs><style>.cls-1{fill:#ececed;}.cls-2{fill:#fff;}</style></defs><g id="Layer_2" data-name="Layer 2"><path class="cls-1" d="M7.26,18.36a2.58,2.58,0,0,0-1.53,3.32l1.46,3.95,3.1-8.39Z"/><path class="cls-1" d="M38.18,9.69a2.58,2.58,0,0,0-3.33-1.53l-9.22,3.41L41,17.24Z"/><path class="cls-1" d="M13.07,41.56A2.6,2.6,0,0,0,16.4,43.1l9.23-3.41L10.29,34Z"/><path class="cls-1" d="M45.53,29.57l-1.46-3.94L41,34l3-1.12A2.6,2.6,0,0,0,45.53,29.57Z"/><path class="cls-1" d="M17,20.74a2.8,2.8,0,0,0,.7.09A3,3,0,0,0,18.35,15a2.92,2.92,0,0,0-2.25.36,3,3,0,0,0-1.34,1.84A3,3,0,0,0,17,20.74Zm-1-3.3a1.68,1.68,0,0,1,.77-1.07A1.75,1.75,0,1,1,16,17.44Z"/><path class="cls-1" d="M32.5,33.19l-.94,1.17C30.61,22,23,19.78,22.7,19.69a.63.63,0,0,0-.33,1.21c.3.08,7.09,2.1,7.94,13.62l-1.2-1a.63.63,0,1,0-.79,1l2.36,1.91a.63.63,0,0,0,.4.14h.06a.6.6,0,0,0,.42-.22L33.47,34a.62.62,0,0,0-.09-.88A.63.63,0,0,0,32.5,33.19Z"/><path class="cls-2" d="M42.78,17.91,17.62,8.61a3.88,3.88,0,0,0-5,2.3L6.18,28.36a3.88,3.88,0,0,0,2.29,5l25.17,9.3a3.89,3.89,0,0,0,5-2.3L45.08,22.9A3.89,3.89,0,0,0,42.78,17.91Zm-28-.76a3,3,0,0,1,1.34-1.84A2.92,2.92,0,0,1,18.35,15a3,3,0,0,1-.69,5.88,2.8,2.8,0,0,1-.7-.09,3,3,0,0,1-2.2-3.59ZM20.9,28.29,19,29.18l.89,1.89a.62.62,0,0,1-.3.83.66.66,0,0,1-.27.06.61.61,0,0,1-.56-.36l-.89-1.89L16,30.6a.58.58,0,0,1-.26.06.62.62,0,0,1-.27-1.19l1.9-.89-.9-1.9a.63.63,0,0,1,1.14-.53l.89,1.9,1.89-.89a.6.6,0,0,1,.83.3A.62.62,0,0,1,20.9,28.29ZM33.47,34l-1.91,2.37a.6.6,0,0,1-.42.22h-.06a.63.63,0,0,1-.4-.14l-2.36-1.91a.63.63,0,1,1,.79-1l1.2,1C29.46,23,22.67,21,22.37,20.9a.63.63,0,0,1,.33-1.21c.33.09,7.91,2.27,8.86,14.67l.94-1.17a.63.63,0,0,1,.88-.1A.62.62,0,0,1,33.47,34ZM39.2,22.15,37.31,23l.89,1.89a.62.62,0,0,1-.3.83.65.65,0,0,1-.26.06.62.62,0,0,1-.57-.36l-.89-1.89-1.9.89a.58.58,0,0,1-.26.06.62.62,0,0,1-.57-.36.63.63,0,0,1,.3-.83l1.9-.89-.89-1.9a.62.62,0,0,1,.3-.83.62.62,0,0,1,.83.3l.89,1.9L38.67,21a.62.62,0,1,1,.53,1.13Z"/><path class="cls-2" d="M17.25,19.53a1.73,1.73,0,1,0-.5-3.16A1.68,1.68,0,0,0,16,17.44a1.72,1.72,0,0,0,.2,1.31A1.74,1.74,0,0,0,17.25,19.53Z"/></g></svg>