<svg xmlns="http://www.w3.org/2000/svg" viewBox="0 0 51.26 51.26">
  <defs>
    <style>
      path {
        fill: none;
        stroke: #FFFFFF;
        stroke-miterlimit: 10;
      }}
    </style>
  </defs>
  <path d="m6.37,26C6.37,15.36,14.99,6.74,25.63,6.74s19.26,8.62,19.26,19.26-8.62,19.26-19.26,19.26S6.37,36.64,6.37,26Zm14.17-8.19c-.57.32-.93.93-.93,1.57v13.24c0,.65.35,1.26.93,1.57s1.26.31,1.83-.04l10.83-6.62c.53-.33.87-.91.87-1.54s-.33-1.21-.87-1.54l-10.83-6.62c-.56-.34-1.26-.35-1.83-.04v.02Z"/>
</svg>