<svg xmlns="http://www.w3.org/2000/svg" viewBox="0 0 51.26 51.26">
  <g fill="#FFFFFF">
    <path d="M46.19,23a.55.55,0,0,0,.23-.27v0a.33.33,0,0,0,.06-.1.3.3,0,0,0,0-.1l0-.13v0s0-.05,0-.07a.61.61,0,0,0,0-.13,1,1,0,0,1,0-.1s0,0,0-.07,0,0,0-.05l-.06,0a.45.45,0,0,0-.14-.1l-.06,0a.41.41,0,0,0-.16,0h0a.59.59,0,0,1-.46-.23,3.41,3.41,0,0,1-.74-2.29c0-1,.46-1.37,1.21-1.93l.38-.29h0a1.24,1.24,0,0,0,.47-1.12,1.27,1.27,0,0,0-.74-1L28.48,6.73a1.25,1.25,0,0,0-1.3.14L6.44,23.64a.57.57,0,0,0-.2.33,1.73,1.73,0,0,0-.41.2,3.19,3.19,0,0,0-1.38,2.88,4,4,0,0,0,1.54,3A3.11,3.11,0,0,0,4.46,33,3.92,3.92,0,0,0,7,36.71l17.28,7.83a1.26,1.26,0,0,0,1.27-.14L46.15,28.86a.61.61,0,0,0,.39-.47s0-.07,0-.11h0a.58.58,0,0,0-.11-.4.64.64,0,0,0-.64-.23c-.52-.13-1.06-1.06-1.07-2.29A2.33,2.33,0,0,1,46.19,23ZM5.7,27a2,2,0,0,1,.81-1.76,1,1,0,0,1,1-.09h0L23.25,32.5a3.92,3.92,0,0,0-.88,2.67,4.33,4.33,0,0,0,.16,1.16L7.45,29.5A2.8,2.8,0,0,1,5.7,27ZM22.56,42.39,7.44,35.55A2.7,2.7,0,0,1,5.71,33a1.86,1.86,0,0,1,1.45-2l16.29,7.38A3.28,3.28,0,0,0,22.36,41,5.2,5.2,0,0,0,22.56,42.39Zm2.35.91-.1,0h0c-.55,0-1.18-1-1.19-2.31a2.2,2.2,0,0,1,1.29-2.18,1.19,1.19,0,0,0,.64-.25L43.5,25c0,.11,0,.22,0,.35a4,4,0,0,0,1.2,3Zm.16-6a.7.7,0,0,0-.25,0h0c-.56,0-1.18-.87-1.19-2.13s.48-2,1-2.12h.07a1.23,1.23,0,0,0,.75-.25L43.49,19.16s0,.05,0,.08a4.57,4.57,0,0,0,1.11,3.18l.13.1Zm-.37-5.58h-.08L8,24,28,7.86,45.53,16l0,0h0Z"/>
    <path d="M38.71,16.49l-11.61-5a.88.88,0,0,0-.93,0l-5.31,4a.74.74,0,0,0-.27.63c.07.53.71.83.84.89l11.61,5a1.18,1.18,0,0,0,.48.11A.66.66,0,0,0,34,22l5.32-4h0a.7.7,0,0,0,.26-.62C39.48,16.84,38.84,16.54,38.71,16.49Zm-5.28,4.36L22.26,16.07l4.45-3.36,11.17,4.78Z"/>
    <path d="M25.28,15.84a.38.38,0,0,0,.51.14l.46-.23a.56.56,0,0,0-.16.19.33.33,0,0,0,0,.29.34.34,0,0,0,.2.22,1.75,1.75,0,0,0,1,.05l.36-.09a.56.56,0,0,0-.2.23.52.52,0,0,0,0,.35c.17.43.76.27,1,.21s.47-.13.71-.18v0a.44.44,0,0,0,.09.38.56.56,0,0,0,.57.12l1-.19-.06,0a.51.51,0,0,0-.09.62c.2.3.59.2,1,.07A3,3,0,0,1,32,18l.11,0,.11,0a.28.28,0,0,0,0,.09.46.46,0,0,0,.11.32c.16.19.42.2.77.21a2.63,2.63,0,0,1,.49,0c.31.06.33.12.36.19a.37.37,0,0,0,.35.23.34.34,0,0,0,.14,0,.39.39,0,0,0,.21-.49,1.08,1.08,0,0,0-.92-.65l-.28,0v0a.41.41,0,0,0,0-.16.6.6,0,0,0-.16-.36.87.87,0,0,0-.65-.15.53.53,0,0,0,0-.12c0-.26-.21-.58-.81-.59h-.27a.49.49,0,0,0-.13-.34.46.46,0,0,0-.27-.15.5.5,0,0,0,0-.13.49.49,0,0,0-.08-.37.62.62,0,0,0-.46-.2,8.79,8.79,0,0,0-1.89.09.71.71,0,0,0,.11-.17.49.49,0,0,0-.09-.52c-.21-.25-.61-.27-1.48-.08a7.76,7.76,0,0,0-1.91.74A.38.38,0,0,0,25.28,15.84Z"/>
  </g>
</svg>