<svg xmlns="http://www.w3.org/2000/svg" viewBox="0 0 51.26 51.26"><defs><style>.cls-1{fill:none;}.cls-2{fill:#fff;}.cls-3{fill:#ececed;}</style></defs><g id="Layer_2" data-name="Layer 2"><path class="cls-1" d="M44.67,27.32a.54.54,0,0,1-.05-.11v0Z"/><path class="cls-1" d="M45.27,28a2,2,0,0,1-.5-.54l.37.63Z"/><path class="cls-1" d="M44.94,22.42l.37-.28a1.37,1.37,0,0,1-.22-.2v0Z"/><path class="cls-1" d="M44.25,18.34c0-.2.08-.39.13-.57l-.1.08Z"/><path class="cls-2" d="M44.67,27.32l.1.17Z"/><path class="cls-2" d="M44.18,25.35l.2-1-.1.08A3.78,3.78,0,0,0,44.18,25.35Z"/><path class="cls-2" d="M44.77,27.49l-.1-.17-.05-.09v0l-.44-1.86a3.78,3.78,0,0,1,.1-.87L25.62,38.55a1.26,1.26,0,0,1-1.28.14L7.24,30.94a1.86,1.86,0,0,0-1.46,2,2.69,2.69,0,0,0,1.74,2.58L24.86,43.4,45.14,28.12Z"/><path class="cls-2" d="M7.52,29.5l17.34,7.85.13.1,20-15L45.1,22v0l-.85-2c0-.16,0-.32,0-.49l0-1.14,0-.49L25.12,32.29a.63.63,0,0,1-.65.06L7.39,24.45a2.47,2.47,0,0,0-1.61,2.47A2.69,2.69,0,0,0,7.52,29.5Z"/><path class="cls-2" d="M21.75,16.51l11.61,5a.41.41,0,0,0,.31,0l5.31-4c.1-.07-.14-.32-.44-.44l-11.61-5c-.14-.07-.26-.08-.3,0l-5.32,4C21.22,16.13,21.46,16.38,21.75,16.51Zm3.75-1.17a7.45,7.45,0,0,1,1.9-.74c.87-.19,1.27-.17,1.49.08a.51.51,0,0,1,.08.52.62.62,0,0,1-.11.17,7.77,7.77,0,0,1,1.9-.09.64.64,0,0,1,.46.2.49.49,0,0,1,.08.37.5.5,0,0,1-.05.13.52.52,0,0,1,.27.14.54.54,0,0,1,.13.35l.27,0c.59,0,.8.33.8.6a.25.25,0,0,1,0,.12.83.83,0,0,1,.64.14.58.58,0,0,1,.17.37.32.32,0,0,1,0,.16v0l.29,0a1,1,0,0,1,.91.65.36.36,0,0,1-.2.48l-.14,0a.38.38,0,0,1-.35-.23c0-.08-.06-.14-.37-.2a3.58,3.58,0,0,0-.48,0c-.36,0-.61,0-.78-.2a.65.65,0,0,1-.11-.33s0-.06,0-.08l-.11,0L32,18a1.85,1.85,0,0,0-.32.08c-.44.12-.82.23-1-.07a.51.51,0,0,1,.09-.62l.06-.05-1,.2a.61.61,0,0,1-.58-.13.42.42,0,0,1-.08-.38v0l-.72.18c-.22.06-.8.23-1-.21a.53.53,0,0,1,0-.35.59.59,0,0,1,.19-.22l-.36.08a1.75,1.75,0,0,1-1,0,.47.47,0,0,1-.2-.22.37.37,0,0,1,0-.29.4.4,0,0,1,.15-.19l-.45.23a.37.37,0,0,1-.51-.14A.37.37,0,0,1,25.5,15.34Z"/><path class="cls-3" d="M44.28,24.48l.1-.08.12-.54A2.39,2.39,0,0,0,44.28,24.48Z"/><path class="cls-3" d="M25.36,15.85a.37.37,0,0,0,.51.14l.45-.23a.4.4,0,0,0-.15.19.37.37,0,0,0,0,.29.47.47,0,0,0,.2.22,1.75,1.75,0,0,0,1,0l.36-.08a.59.59,0,0,0-.19.22.53.53,0,0,0,0,.35c.18.44.76.27,1,.21l.72-.18v0a.42.42,0,0,0,.08.38.61.61,0,0,0,.58.13l1-.2-.06.05a.51.51,0,0,0-.09.62c.2.3.58.19,1,.07A1.85,1.85,0,0,1,32,18l.12,0,.11,0s0,.05,0,.08a.65.65,0,0,0,.11.33c.17.18.42.19.78.2a3.58,3.58,0,0,1,.48,0c.31.06.34.12.37.2a.38.38,0,0,0,.35.23l.14,0a.36.36,0,0,0,.2-.48,1,1,0,0,0-.91-.65l-.29,0v0a.32.32,0,0,0,0-.16.58.58,0,0,0-.17-.37.83.83,0,0,0-.64-.14.25.25,0,0,0,0-.12c0-.27-.21-.58-.8-.6l-.27,0a.54.54,0,0,0-.13-.35.52.52,0,0,0-.27-.14.5.5,0,0,0,.05-.13.49.49,0,0,0-.08-.37.64.64,0,0,0-.46-.2,7.77,7.77,0,0,0-1.9.09A.62.62,0,0,0,29,15.2a.51.51,0,0,0-.08-.52c-.22-.25-.62-.27-1.49-.08a7.45,7.45,0,0,0-1.9.74A.37.37,0,0,0,25.36,15.85Z"/><path class="cls-3" d="M45.68,27.74l-.23.17c-.5-.16-1-1.07-1-2.28a2.11,2.11,0,0,1,.7-1.76l.49-.36.27-.17s.06-.07.1-.11l.45-.34a.63.63,0,0,0,.13-.88.62.62,0,0,0-.8-.16l-.13,0h0c-.24,0-.51-.23-.73-.6a4.08,4.08,0,0,1-.47-1.93,4.27,4.27,0,0,1,.35-1.8l1.28-1a.66.66,0,0,0-.13-1.11L28.34,7.3a.63.63,0,0,0-.65.06L6,23.81h0a3.76,3.76,0,0,0-1.48,3.11,3.94,3.94,0,0,0,1.51,3.17A3.13,3.13,0,0,0,4.57,33a3.93,3.93,0,0,0,2.54,3.75l17.28,7.82a1.16,1.16,0,0,0,.52.11,1.23,1.23,0,0,0,.75-.25L46.43,28.74a.62.62,0,0,0,.13-.87A.64.64,0,0,0,45.68,27.74ZM21.35,16.06l5.32-4a.36.36,0,0,1,.3,0l11.61,5c.3.12.54.37.44.44l-5.31,4a.41.41,0,0,1-.31,0l-11.61-5C21.5,16.38,21.26,16.13,21.35,16.06ZM24.9,43.4,7.56,35.55A2.69,2.69,0,0,1,5.82,33a1.86,1.86,0,0,1,1.46-2l17.11,7.75a1.24,1.24,0,0,0,1.27-.14L43.18,25.34c0,.1,0,.2,0,.31a4.09,4.09,0,0,0,1.23,3.06ZM25,37.45l-.14-.1L7.56,29.5a2.69,2.69,0,0,1-1.74-2.58,2.47,2.47,0,0,1,1.61-2.47l17.08,7.9a.63.63,0,0,0,.65-.06l18-13.6c0,.2,0,.41,0,.62a5.19,5.19,0,0,0,.64,2.54,2.61,2.61,0,0,0,.76.87l-.16.13Z"/></g></svg>