<svg xmlns="http://www.w3.org/2000/svg" viewBox="0 0 51.26 51.26">
  <g fill="#FFFFFF">
    <path d="M46.67 27.94a.6.6 0 0 0-.11-.39.64.64 0 0 0-.64-.23c-.52-.13-1.06-1.06-1.07-2.29a2.33 2.33 0 0 1 1.46-2.3.62.62 0 0 0 .23-.28.33.33 0 0 0 .06-.1.42.42 0 0 0 0-.1.69.69 0 0 0 0-.13V22a.53.53 0 0 0 0-.12.37.37 0 0 0 0-.11v-.07a.28.28 0 0 0-.1-.09s-.05 0-.09-.06H46c-.23 0-.5-.23-.72-.61a4 4 0 0 1-.47-1.92 3.5 3.5 0 0 1 .69-2.31l.27-.2a.41.41 0 0 1 .18-.05.64.64 0 0 0 .62-.63.63.63 0 0 0-.63-.62h-.06L28.34 7a.63.63 0 0 0-.65.07L6 23.49a3.76 3.76 0 0 0-1.43 3.11 3.92 3.92 0 0 0 1.52 3.17 3.11 3.11 0 0 0-1.52 2.88 3.93 3.93 0 0 0 2.54 3.75L23.86 44a1.67 1.67 0 0 0 .67.29 1.22 1.22 0 0 0 .38.07 1.24 1.24 0 0 0 .75-.26l20.61-15.55a.64.64 0 0 0 .39-.48s0-.06 0-.09.01.02.01-.04Zm-2.43-6.47a2.47 2.47 0 0 0 .61.73L25.16 37a.57.57 0 0 0-.28-.08c-.56 0-1.18-1-1.2-2.44s.54-2.35 1.07-2.45a.62.62 0 0 0 .42-.1L43.66 18a6.73 6.73 0 0 0-.06.91 5.22 5.22 0 0 0 .64 2.56Zm-22.88-5.73 5.31-4h.3l11.61 5c.3.12.54.37.44.44l-5.31 4a.41.41 0 0 1-.31 0l-11.61-5c-.29-.12-.53-.36-.43-.44Zm1.26 26.31L7.56 35.24a2.7 2.7 0 0 1-1.74-2.59 1.86 1.86 0 0 1 1.46-2l16.1 7.3a3.52 3.52 0 0 0-1 2.68 5.52 5.52 0 0 0 .24 1.42Zm-.2-7.51a5.67 5.67 0 0 0 .21 1.46L7.56 29.19a2.72 2.72 0 0 1-1.74-2.59 2.48 2.48 0 0 1 1.61-2.47l16 7.39a4.52 4.52 0 0 0-1.01 3.02Zm2.49 8.54-.43-.19a3.29 3.29 0 0 1-.77-2.3 2.29 2.29 0 0 1 1-2.13 1.24 1.24 0 0 0 1-.22l18-13.54v.35a4.07 4.07 0 0 0 1.2 3.05Z"/>
    <path d="m25.91 15.67.46-.23a.42.42 0 0 0-.16.19.33.33 0 0 0 0 .29.34.34 0 0 0 .2.22 1.65 1.65 0 0 0 1 0l.36-.08a.5.5 0 0 0-.2.23.45.45 0 0 0 0 .34c.17.44.76.28 1 .22s.47-.13.71-.18a.41.41 0 0 0 .08.37.59.59 0 0 0 .58.13l1-.19h-.06a.51.51 0 0 0-.09.62c.2.3.58.19 1 .07a1.78 1.78 0 0 1 .31-.08H32.33v.08a.58.58 0 0 0 .12.33c.16.18.42.19.77.2a3.89 3.89 0 0 1 .49 0c.31.06.33.12.36.2a.38.38 0 0 0 .35.23h.14a.37.37 0 0 0 .21-.48 1.06 1.06 0 0 0-.92-.65h-.29a.41.41 0 0 0 0-.16.6.6 0 0 0-.17-.37.88.88 0 0 0-.64-.14.25.25 0 0 0 0-.12c0-.27-.2-.58-.8-.59a1.22 1.22 0 0 0-.27 0 .54.54 0 0 0-.13-.35.52.52 0 0 0-.27-.14.5.5 0 0 0 .05-.13.48.48 0 0 0-.08-.37.64.64 0 0 0-.46-.2 7.67 7.67 0 0 0-1.89.09.59.59 0 0 0 .1-.17.51.51 0 0 0-.08-.52c-.21-.25-.61-.27-1.48-.08a7.39 7.39 0 0 0-1.91.74.37.37 0 0 0 .37.65Z"/>
  </g>
</svg>
