<svg xmlns="http://www.w3.org/2000/svg" viewBox="0 0 51.26 51.26">
  <g fill="#FFFFFF">
    <path d="M23.1 26.76c0-1.05-.85-1.91-1.91-1.91s-1.91.85-1.91 1.91a1.91 1.91 0 1 0 3.82 0ZM29.99 24.85a1.91 1.91 0 1 0 1.91 1.91c0-1.06-.85-1.91-1.91-1.91ZM29.64 31.27c-1.07.78-2.36 1.2-3.71 1.2h-.53c-1.33.01-2.64-.41-3.74-1.2a.5.5 0 0 0-.65 0 .51.51 0 0 0-.07.72c1.24.94 2.74 1.42 4.28 1.44h.87c1.53-.02 3.03-.53 4.27-1.44a.51.51 0 0 0-.07-.72.5.5 0 0 0-.65 0h-.01Z"/>
    <path d="M25.63 5.82C15.11 5.82 6.6 14.35 6.6 24.85s8.53 19.03 19.03 19.03 19.03-8.53 19.03-19.03S36.13 5.82 25.63 5.82Zm11.18 21.56h-.02c.01.29.01.57 0 .85 0 4.27-4.97 7.74-11.09 7.74s-11.09-3.47-11.09-7.74c-.01-.28-.01-.56 0-.84-.28-.12-.54-.29-.75-.5a2.772 2.772 0 0 1-.12-3.93 2.772 2.772 0 0 1 3.93-.12c2.19-1.49 4.77-2.29 7.43-2.34l1.4-6.6a.58.58 0 0 1 .71-.46l4.67.94c.29-.53.84-.87 1.44-.94a1.89 1.89 0 0 1 2.09 1.68 1.89 1.89 0 0 1-1.68 2.09 1.89 1.89 0 0 1-2.09-1.68l-4.07-.85-1.23 5.93c2.62.06 5.16.87 7.32 2.34.49-.47 1.13-.75 1.81-.77 1.53-.06 2.82 1.15 2.89 2.68.01 1.07-.59 2.06-1.53 2.53Z"/>
  </g>
</svg>
