<svg xmlns="http://www.w3.org/2000/svg" viewBox="0 0 51.26 51.26">
  <path fill="#FFFFFF" d="m25.67,39.77c7.68,0,13.91-4.35,13.91-9.7.01-.35.01-.7,0-1.07h.03c1.18-.59,1.94-1.82,1.92-3.17-.08-1.91-1.7-3.42-3.62-3.35-.86.03-1.66.38-2.27.97-2.71-1.84-5.9-2.86-9.18-2.93l1.54-7.44,5.11,1.07c.14,1.31,1.32,2.26,2.62,2.11,1.31-.14,2.26-1.32,2.11-2.62-.14-1.31-1.32-2.26-2.62-2.11-.76.08-1.45.52-1.81,1.18l-5.85-1.18c-.39-.1-.8.15-.88.58l-1.75,8.28c-3.34.06-6.57,1.07-9.32,2.93-1.4-1.32-3.61-1.25-4.93.15-1.32,1.4-1.25,3.61.15,4.93.27.27.59.48.94.63-.01.35-.01.7,0,1.05,0,5.35,6.23,9.7,13.91,9.7Zm5.39-13.94c1.33,0,2.4,1.07,2.4,2.4s-1.08,2.4-2.4,2.4c-1.33-.01-2.4-1.07-2.4-2.4s1.08-2.4,2.4-2.4Zm-5.76,9.54h.66c1.68,0,3.3-.52,4.65-1.5h.01c.24-.2.58-.2.81,0,.27.21.31.63.08.9-1.54,1.15-3.42,1.78-5.35,1.81h-1.09c-1.92-.03-3.8-.63-5.36-1.81-.24-.27-.18-.67.08-.9.22-.2.56-.2.81,0,1.38.98,3.02,1.52,4.69,1.5Zm-5.29-9.56c1.33,0,2.4,1.08,2.4,2.4s-1.08,2.4-2.4,2.4c-1.33-.01-2.4-1.07-2.4-2.4s1.07-2.4,2.4-2.4Z"/>
</svg>