<?xml version="1.0" encoding="UTF-8"?>
<svg id="Layer_2" data-name="Layer 2" xmlns="http://www.w3.org/2000/svg" viewBox="0 0 38.06 38.03">
  <defs>
    <style>
      .cls-1 {
        fill: #fff;
      }

      .cls-2 {
        fill: #ececed;
      }
    </style>
  </defs>
  <g id="Layer_1-2" data-name="Layer 1">
    <path class="cls-2" d="m19,0C8.51,0,0,8.51,0,19h0c0,10.51,8.52,19.03,19.03,19.03s19.03-8.52,19.03-19.03h0C38.06,8.51,29.55,0,19.06,0c-.02,0-.04,0-.06,0Z"/>
    <g>
      <path class="cls-1" d="m22.92,17.98c-.72,0-1.27.76-1.23,1.69.04.93.58,1.27,1.3,1.27s1.35-.38,1.31-1.31c-.04-.93-.66-1.65-1.38-1.65Z"/>
      <path class="cls-1" d="m22.06,21.78c-.79-.08-1.65-.12-2.54-.12s-1.75.04-2.54.12c-.13.01-.22.15-.17.28.44,1.06,1.49,1.8,2.71,1.8s2.26-.74,2.71-1.8c.05-.13-.03-.27-.17-.28Z"/>
      <path class="cls-1" d="m17.36,19.67c.04-.93-.51-1.69-1.23-1.69s-1.34.71-1.38,1.65.59,1.31,1.31,1.31,1.26-.34,1.3-1.27Z"/>
      <path class="cls-1" d="m19.52,7.37c-6.07,0-11,4.93-11,11,0,3.04,1.23,5.79,3.22,7.78l-2.1,2.1c-.42.42-.12,1.13.47,1.13h9.41c6.07,0,11-4.93,11-11s-4.93-11-11-11Zm7.34,12.95c-.08,2.98-3.33,5.39-7.33,5.39s-7.25-2.4-7.33-5.38c-.87-.41-1.48-1.3-1.48-2.33,0-1.42,1.15-2.57,2.57-2.57.59,0,1.14.2,1.57.54,1.17-.72,2.64-1.18,4.25-1.25h0c0-1.53,1.16-2.79,2.64-2.95.17-.83.91-1.46,1.8-1.46,1.01,0,1.83.82,1.83,1.83s-.82,1.83-1.83,1.83c-.87,0-1.59-.6-1.78-1.41h0c-1.05.15-1.86,1.06-1.86,2.15h0c1.63.07,3.12.53,4.3,1.26.43-.33.98-.53,1.56-.53,1.42,0,2.57,1.15,2.57,2.57,0,1.02-.6,1.91-1.47,2.32Z"/>
    </g>
  </g>
</svg>