<?xml version="1.0" encoding="UTF-8"?>
<svg id="Layer_2" data-name="Layer 2" xmlns="http://www.w3.org/2000/svg" viewBox="0 0 32.72 32.72">
  <defs>
    <style>
      .cls-1 {
        fill: #fff;
      }
    </style>
  </defs>
  <g id="Layer_1-2" data-name="Layer 1">
    <g>
      <path class="cls-1" d="m20.14,21.44h0c-1.18-.12-2.45-.18-3.78-.18s-2.6.07-3.78.18c-.2.02-.33.23-.25.42.66,1.57,2.21,2.68,4.03,2.68s3.37-1.11,4.03-2.68c.08-.19-.05-.39-.25-.42Z"/>
      <path class="cls-1" d="m13.15,18.29c.06-1.39-.75-2.51-1.82-2.51s-1.99,1.06-2.05,2.45c-.06,1.39.87,1.95,1.94,1.95s1.87-.5,1.93-1.89Z"/>
      <path class="cls-1" d="m21.42,15.78c-1.07,0-1.89,1.12-1.82,2.51.06,1.39.86,1.89,1.93,1.89s2.01-.56,1.94-1.95c-.06-1.39-.98-2.45-2.05-2.45Z"/>
      <path class="cls-1" d="m16.36,0C7.33,0,0,7.33,0,16.36c0,4.52,1.83,8.61,4.79,11.57l-3.12,3.12c-.62.62-.18,1.68.69,1.68h13.99c9.04,0,16.36-7.33,16.36-16.36S25.4,0,16.36,0Zm10.91,19.26c-.12,4.44-4.96,8.01-10.9,8.01s-10.78-3.57-10.9-8c-1.3-.61-2.2-1.93-2.2-3.46,0-2.11,1.71-3.82,3.82-3.82.88,0,1.69.3,2.34.8,1.74-1.08,3.93-1.76,6.33-1.86h0c0-2.28,1.72-4.15,3.93-4.39.26-1.24,1.35-2.17,2.67-2.17,1.51,0,2.73,1.22,2.73,2.73s-1.22,2.73-2.73,2.73c-1.29,0-2.37-.9-2.65-2.1h0c-1.56.22-2.77,1.57-2.77,3.19h0c2.42.1,4.64.78,6.39,1.87.64-.5,1.45-.79,2.33-.79,2.11,0,3.82,1.71,3.82,3.82,0,1.52-.89,2.84-2.18,3.45Z"/>
    </g>
  </g>
</svg>