<?xml version="1.0" encoding="UTF-8"?>
<svg id="Layer_2" data-name="Layer 2" xmlns="http://www.w3.org/2000/svg" viewBox="0 0 38.06 38.03">
  <defs>
    <style>
      .cls-1 {
        fill: #fff;
      }
    </style>
  </defs>
  <g id="Layer_1-2" data-name="Layer 1">
    <g>
      <path class="cls-1" d="m24.19,15.96c-1.18-.73-2.67-1.19-4.3-1.25h0c0-1.1.81-2,1.86-2.15h0c.19.81.92,1.41,1.78,1.41,1.01,0,1.83-.82,1.83-1.83s-.82-1.83-1.83-1.83c-.89,0-1.62.63-1.8,1.46-1.48.16-2.64,1.42-2.64,2.94h0c-1.61.08-3.08.54-4.25,1.26-.43-.34-.98-.54-1.57-.54-1.42,0-2.57,1.15-2.57,2.57,0,1.03.6,1.92,1.48,2.33.09,2.98,3.33,5.38,7.33,5.38s7.25-2.4,7.33-5.39c.87-.41,1.47-1.3,1.47-2.32,0-1.42-1.15-2.57-2.57-2.57-.59,0-1.13.2-1.56.53Zm-9.44,3.67c.04-.93.66-1.65,1.38-1.65s1.27.76,1.23,1.69-.58,1.27-1.3,1.27-1.35-.38-1.31-1.31Zm4.77,4.24c-1.22,0-2.26-.74-2.71-1.8-.05-.13.03-.27.17-.28.79-.08,1.65-.12,2.54-.12s1.75.04,2.54.12c.13.01.22.15.17.28-.44,1.06-1.49,1.8-2.71,1.8Zm3.47-2.93c-.72,0-1.26-.34-1.3-1.27-.04-.93.51-1.69,1.23-1.69s1.34.71,1.38,1.65c.04.93-.59,1.31-1.31,1.31Z"/>
      <path class="cls-1" d="m19.06,0s-.04,0-.06,0C8.51,0,0,8.51,0,19s8.52,19.03,19.03,19.03,19.03-8.52,19.03-19.03S29.55,0,19.06,0Zm.46,29.37h-9.41c-.59,0-.88-.71-.47-1.13l2.1-2.1c-1.99-1.99-3.22-4.74-3.22-7.78,0-6.07,4.93-11,11-11s11,4.93,11,11-4.93,11-11,11Z"/>
    </g>
  </g>
</svg>