<svg xmlns="http://www.w3.org/2000/svg" viewBox="0 0 51.26 51.26"><defs><style>.cls-1{fill:#ececed;}.cls-2{fill:#fff;}</style></defs><g id="Layer_2" data-name="Layer 2"><polygon class="cls-1" points="28.54 23.48 31.31 20.7 31.31 20.69 28.54 23.48"/><path class="cls-1" d="M29.52,25l2.78-2.79a.38.38,0,0,0,0-.55l-1-1-2.77,2.78L28,24l1,1A.4.4,0,0,0,29.52,25Z"/><path class="cls-1" d="M15.39,10.65l2.54-2.54L15.18,5.36a.4.4,0,0,0-.56,0l-2,2a.39.39,0,0,0,0,.56Z"/><path class="cls-1" d="M15.38,15.61a2.88,2.88,0,0,0-.11.78A3.36,3.36,0,1,0,18.63,13a3.35,3.35,0,0,0-3.25,2.57Zm2.26.09a1.2,1.2,0,0,1,1-.54,1.23,1.23,0,0,1,1.23,1.23,1.21,1.21,0,0,1-.53,1,1.15,1.15,0,0,1-.7.25,1.23,1.23,0,0,1-1.23-1.24A1.2,1.2,0,0,1,17.64,15.7Z"/><path class="cls-1" d="M39,22.43a.62.62,0,0,0-.88,0L25,35.25a4.62,4.62,0,0,0-2.69-.87h-.39a4.48,4.48,0,0,0-4.43,4.43v2.26H14.84a5.58,5.58,0,0,0-5.58,5.58H35.55A5.57,5.57,0,0,0,30,41.07H27a14,14,0,0,0,8.2-5.77l-.9-.9A12.72,12.72,0,0,1,27,39.76V39a4.63,4.63,0,0,0-1.06-2.93l13-12.8A.62.62,0,0,0,39,22.43ZM22.25,40a1.23,1.23,0,1,1,1.23-1.23A1.23,1.23,0,0,1,22.25,40Z"/><path class="cls-2" d="M12.34,27.54a10.42,10.42,0,0,1,4.31-8.45,3.34,3.34,0,0,1-1.38-2.7,2.88,2.88,0,0,1,.11-.78,14,14,0,0,0,1.93,24.86l.2.1V38.81A4.43,4.43,0,0,1,18,36.88l-.06-.11A10.44,10.44,0,0,1,12.34,27.54Z"/><path class="cls-2" d="M29.57,17a.1.1,0,0,0,0-.05L19.6,7A.39.39,0,0,0,19,7L17.93,8.11l-2.54,2.54,0-.05-1.17,1.18a.4.4,0,0,0,0,.56L16,14.06l.12.12a3.35,3.35,0,1,1,4.73,4.72L21,19l3.24,3.23.05,0,2.93,2.09a.38.38,0,0,0,.51,0l.85-.85,2.77-2.79h0l.31-.32a.38.38,0,0,0,.05-.5Z"/><path class="cls-2" d="M42.46,28.57,41,27.12a.19.19,0,0,0-.28,0L34,33.83a.19.19,0,0,0,0,.28l.27.28.9.9.27.27a.21.21,0,0,0,.29,0l6.71-6.71A.19.19,0,0,0,42.46,28.57Z"/><path class="cls-2" d="M22.25,37.5a1.23,1.23,0,1,0,1.23,1.23A1.23,1.23,0,0,0,22.25,37.5Z"/><path class="cls-2" d="M18.63,15.16a1.29,1.29,0,0,0-1.23,1.23,1.23,1.23,0,0,0,1.23,1.24,1.15,1.15,0,0,0,.7-.25,1.21,1.21,0,0,0,.53-1A1.23,1.23,0,0,0,18.63,15.16Z"/></g></svg>