<svg xmlns="http://www.w3.org/2000/svg" viewBox="0 0 51.26 51.26"><defs><style>.cls-1{fill:#fff;}</style></defs><g id="Layer_2" data-name="Layer 2"><path class="cls-1" d="M42.75,28.4l-1.53-1.53a.6.6,0,0,0-.88,0l-6.19,6.19a.6.6,0,0,0-.19.44.63.63,0,0,0,.19.44l.32.33a13.42,13.42,0,0,1-6.84,5.67V39a5.22,5.22,0,0,0-1.22-3.33L39.19,23.14a.63.63,0,0,0-.88-.89L25.51,34.81a5.22,5.22,0,0,0-3.16-1.08,5,5,0,0,0-4.15,2.18,9.79,9.79,0,0,1-1.14-16.35,4,4,0,0,0,1.92.51,3.9,3.9,0,0,0,2.16-.65l3,3,.07.06,3.23,2.31a.62.62,0,0,0,.81-.07l.09-.08.82.82a.63.63,0,0,0,.44.18.67.67,0,0,0,.44-.18l3.34-3.34a.62.62,0,0,0,.18-.44.63.63,0,0,0-.18-.45l-.83-.82.11-.11a.62.62,0,0,0,.06-.81l-2.3-3.21a.27.27,0,0,0-.07-.08L20.11,6a.64.64,0,0,0-.89,0l-.94,1L15.69,4.33a.66.66,0,0,0-.89,0L12.26,6.87a.63.63,0,0,0,0,.88l2.6,2.6-1,1a.63.63,0,0,0-.19.44.6.6,0,0,0,.19.44l1.74,1.74a3.69,3.69,0,0,0-.46,1,14.64,14.64,0,0,0,.87,25.31h-1a6.21,6.21,0,0,0-6.2,6.21.62.62,0,0,0,.62.62H35.76a.63.63,0,0,0,.63-.62,6.21,6.21,0,0,0-6.2-6.21h-.28a14.71,14.71,0,0,0,5.47-5.1l.3.3a.63.63,0,0,0,.88,0l6.19-6.19A.61.61,0,0,0,42.75,28.4ZM29.59,24.11l-.38-.38,2.45-2.45.38.38Zm-11,14.67a3.8,3.8,0,0,1,3.8-3.8,4,4,0,0,1,4,4v1.26H18.55ZM16.24,16.09A2.74,2.74,0,1,1,19,18.82,2.74,2.74,0,0,1,16.24,16.09ZM13.59,7.31l1.65-1.65L17.39,7.8,15.74,9.46Zm2.59,3.48h0l2.54-2.54,0,0,.93-.93L29.42,17l2,2.74-3.66,3.67-2.76-2-2.91-2.9a3.89,3.89,0,0,0,.9-2.48,4,4,0,0,0-4-4,4,4,0,0,0-2.5.91l-1.26-1.26ZM9.57,27.36A13.33,13.33,0,0,1,15,16.58a4,4,0,0,0,1,2.19A11,11,0,0,0,17.63,37a4.91,4.91,0,0,0-.33,1.76v.72A13.38,13.38,0,0,1,9.57,27.36ZM35.1,45.85h-25a5,5,0,0,1,4.91-4.33H30.19A5,5,0,0,1,35.1,45.85Zm1-11.71-.65-.64,5.31-5.31.65.65Z"/></g></svg>