<svg xmlns="http://www.w3.org/2000/svg" viewBox="0 0 51.26 51.26"><defs><style>.cls-1{fill:#fff;}</style></defs><g id="Layer_2" data-name="Layer 2"><path class="cls-1" d="M29.71,41.35H14.58A5.58,5.58,0,0,0,9,46.93H35.29A5.58,5.58,0,0,0,29.71,41.35Z"/><path class="cls-1" d="M16.6,39.57V38.33a5.31,5.31,0,0,1,.64-2.53A10.39,10.39,0,0,1,15.91,19a4.34,4.34,0,0,1-1.61-3.34,14,14,0,0,0,2.3,23.92Z"/><path class="cls-1" d="M42.63,29,40,26.44l-6.19,6.19.48.47a13.56,13.56,0,0,1-6.68,4.78,5.17,5.17,0,0,1,0,.68v1.65A15.34,15.34,0,0,0,36,34.74l.48.48Z"/><path class="cls-1" d="M25.58,34.18a5.62,5.62,0,0,1,.82.79l.35.42L39.63,22.75A1.08,1.08,0,0,0,40,22a1.14,1.14,0,0,0-.32-.8,1.16,1.16,0,0,0-.81-.33,1.1,1.1,0,0,0-.78.32L25.12,33.83Z"/><path class="cls-1" d="M15.45,9.88,14,11.31l1.42,1.42a4.34,4.34,0,1,1,6.15,6.12l2.66,2.66,2.86,2a.53.53,0,0,0,.69-.06l.21-.2,1.1,1.1a.24.24,0,0,0,.33,0l3-3a.22.22,0,0,0,0-.32l-1.11-1.11.2-.2A.58.58,0,0,0,31.6,19l-2-2.76a.36.36,0,0,0-.08-.09L19.35,6,18,7.36l-3-3L12.39,6.87l3,3Z"/><path class="cls-1" d="M26.68,38.56A4.65,4.65,0,0,0,22,33.91a4.43,4.43,0,0,0-4.43,4.42v2.13h9.08ZM22.14,39a1.24,1.24,0,1,1,1.24-1.24A1.24,1.24,0,0,1,22.14,39Z"/><path class="cls-1" d="M22,15.64A3.36,3.36,0,1,0,18.66,19,3.37,3.37,0,0,0,22,15.64Zm-4.58,0a1.24,1.24,0,1,1,1.23,1.24A1.23,1.23,0,0,1,17.44,15.64Z"/></g></svg>