<svg xmlns="http://www.w3.org/2000/svg" viewBox="0 0 51.26 51.26"><defs><style>.cls-1{fill:#fff;}</style></defs><g id="Layer_2" data-name="Layer 2"><path class="cls-1" d="M38.75,36.27h.07a.71.71,0,0,0,.71-.71V8.44a.71.71,0,0,0-.71-.71H14.2a3.13,3.13,0,0,0-2.47,3.34V39.6c0-.13,0-.26,0-.39.13,2,1.54,3.68,3.26,3.68H38.75a.7.7,0,1,0,0-1.39c-1,0-1.9-1.17-1.9-2.6S37.72,36.27,38.75,36.27ZM34.9,8.88V19.27l-3-2.1-3,2.15V8.88ZM15,41.5c-1,0-1.9-1.17-1.9-2.6S14,36.31,15,36.31v0H36.29a4.6,4.6,0,0,0,0,5.23Z"/></g></svg>