<svg xmlns="http://www.w3.org/2000/svg" viewBox="0 0 51.26 51.26"><defs><style>.cls-1{fill:none;}.cls-2{fill:#ececed;}.cls-3{fill:#fff;}</style></defs><g id="Layer_2" data-name="Layer 2"><path class="cls-1" d="M25.64,25.65a.08.08,0,0,1,0,0v0Z"/><path class="cls-1" d="M25.63,25.66v0Z"/><path class="cls-2" d="M25.75,43.14l-.15-.21h-.09Z"/><path class="cls-2" d="M15,36.63a.8.8,0,0,0,.21-.05H38.54a1,1,0,0,0,1.05-1V8.11a.06.06,0,0,0-.06-.06H34.8V19.73l-.24-.17-2.73-1.93-3,2.15V8.05H14.13a3.13,3.13,0,0,0-2.46,3.34V39.92a2.56,2.56,0,0,1,0-.39c.13,2,1.53,3.68,3.26,3.68H38.69a.7.7,0,0,0,0-1.39H37.2l.15.21-.24-.21H15c-1.05,0-1.9-1.17-1.9-2.6S13.91,36.63,15,36.63Z"/><path class="cls-3" d="M36.42,40.82v0a4,4,0,0,1-.33-1.57c0-.15,0-.29,0-.43v-.06a3.74,3.74,0,0,1,.82-2l.17-.18H15.17a.8.8,0,0,1-.21.05c-1.05,0-1.9,1.16-1.9,2.59s.85,2.6,1.9,2.6H37.11a3.36,3.36,0,0,1-.67-1Z"/><polygon class="cls-3" points="34.55 19.56 34.79 19.73 34.79 8.05 28.87 8.05 28.87 12.93 28.87 19.78 31.83 17.63 34.55 19.56"/></g></svg>