<svg xmlns="http://www.w3.org/2000/svg" viewBox="0 0 51.26 51.26">
  <g fill="#FFFFFF">
    <path d="M38.79,7.39h-24a3.72,3.72,0,0,0-3,4v27.9c0,2.2,1.48,4,3.29,4H38.79a.69.69,0,0,0,0-1.38c-1,0-1.9-1.17-1.9-2.6a2.41,2.41,0,0,1,1.71-2.57h.19a.69.69,0,0,0,.69-.69V8.08A.69.69,0,0,0,38.79,7.39ZM29.94,8.77h4.53v9.65L32.6,17.09a.68.68,0,0,0-.8,0l-1.86,1.34ZM13.16,11.35c0-1.35.78-2.49,1.71-2.58H28.55v11a.71.71,0,0,0,.69.7.76.76,0,0,0,.41-.13l2.56-1.86,2.55,1.81a.65.65,0,0,0,.72.05.69.69,0,0,0,.38-.61v-11h2.23V35.29H15.21a.37.37,0,0,0-.15,0l-.24,0h-.09a2.61,2.61,0,0,0-.68.17l-.15.06-.26.13a2.11,2.11,0,0,0-.31.21l-.14.1,0,0ZM36.3,41.85H15.06c-1.05,0-1.9-1.17-1.9-2.6a4,4,0,0,1,0-.5,2.47,2.47,0,0,1,.06-.29,1.16,1.16,0,0,0,0-.18c0-.1.07-.2.11-.3a.5.5,0,0,0,.05-.13l.14-.24.09-.14.13-.17.14-.16.13-.11.18-.13.15-.08.16-.07a1.22,1.22,0,0,1,.26-.06H36.3a4.58,4.58,0,0,0,0,5.17Z"/>
  </g>
</svg>