<svg xmlns="http://www.w3.org/2000/svg" viewBox="0 0 51.26 51.26"><defs><style>.cls-1{fill:#fff;}.cls-2{fill:#ececed;}</style></defs><g id="Layer_2" data-name="Layer 2"><path class="cls-1" d="M42.77,31.21l-6.14-3.05,1.13,3.47.31.87C38,34,32.87,35.7,25.59,35.7S13.23,34,13.12,32.5l1.49-4.31h0v0L8.48,31.21a1.49,1.49,0,0,0-.83,1.36,1.48,1.48,0,0,0,.78,1.31l14.46,7.87a5.73,5.73,0,0,0,5.48,0l14.45-7.87a1.48,1.48,0,0,0,.79-1.31A1.5,1.5,0,0,0,42.77,31.21Z"/><polygon class="cls-1" points="32.47 15.39 32.47 15.39 32.51 15.51 32.47 15.39"/><polygon class="cls-1" points="35.59 24.95 35.59 24.95 35.59 24.95 35.59 24.95"/><path class="cls-1" d="M16.85,25.34v0c1.66.87,4.95,1.46,8.73,1.46s7.16-.61,8.79-1.49a2.28,2.28,0,0,0,1-.92l-2.79-8.53c-.35,1-3.35,1.77-7,1.77s-6.49-.74-7-1.69l-2.79,8.52A2.39,2.39,0,0,0,16.85,25.34Z"/><ellipse class="cls-1" cx="25.63" cy="8.48" rx="3.19" ry="0.54"/><path class="cls-1" d="M16.86,25.3v0c1.64.88,4.93,1.49,8.74,1.49s7.17-.67,8.79-1.56c-1.63.88-5,1.49-8.79,1.49S18.52,26.17,16.86,25.3Z"/><polygon class="cls-2" points="35.4 24.34 35.4 24.35 35.59 24.95 35.4 24.34"/><polygon class="cls-2" points="32.61 15.82 32.51 15.51 32.61 15.82 32.61 15.82"/><path class="cls-2" d="M43.61,32.58h0a1.48,1.48,0,0,1-.79,1.31L28.37,41.75a5.73,5.73,0,0,1-5.48,0L8.43,33.88a1.48,1.48,0,0,1-.78-1.31h0v2.1A1.5,1.5,0,0,0,8.43,36l14.46,7.87a5.73,5.73,0,0,0,5.48,0L42.82,36a1.5,1.5,0,0,0,.79-1.36V32.58Z"/><path class="cls-2" d="M37.76,31.63l-1.13-3.47L36,26.35,35.59,25h0l-.19-.6a2.28,2.28,0,0,1-1,.92c-1.62.89-4.93,1.56-8.79,1.56s-7.1-.61-8.74-1.49a2.39,2.39,0,0,1-1-.92l-.65,2s0,0,0,.07l-.55,1.67v0h0L13.12,32.5c.11,1.52,5.2,3.2,12.47,3.2S38,34,38.07,32.5Z"/><path class="cls-2" d="M25.59,17.59c3.67,0,6.67-.78,7-1.77l-.1-.31,0-.12-2.28-7c-.05-1.29-2.48-1.75-4.56-1.75s-4.55.47-4.57,1.78l0,0-2.42,7.4h0C19.1,16.85,22,17.59,25.59,17.59Zm0-9.65a7.46,7.46,0,0,1,3.19.54A7.46,7.46,0,0,1,25.63,9a7.46,7.46,0,0,1-3.19-.54A7.46,7.46,0,0,1,25.63,7.94Z"/></g></svg>