<svg xmlns="http://www.w3.org/2000/svg" viewBox="0 0 51.26 51.26">
  <g fill="#FFFFFF">
    <path d="M44.23,32a2.09,2.09,0,0,0-1.18-1.86L36.76,27,32.89,15.13v0a.57.57,0,0,0-.13-.36l-2.29-7C30.28,6.47,27.78,6,25.63,6S21,6.47,20.79,7.74l-2.29,7a.57.57,0,0,0-.14.36s0,0,0,0L14.5,27,8.2,30.09A2.13,2.13,0,0,0,7,32v0H7v2.1A2.11,2.11,0,0,0,8.13,36l14.46,7.87a6.37,6.37,0,0,0,6.07,0L43.12,36a2.13,2.13,0,0,0,1.11-1.9V32h0S44.24,32,44.23,32ZM15.6,27.61h0l.89-2.71c1.6,1.3,5.38,2,9.14,2s7.54-.67,9.14-2l2.3,7c-.14,1.2-4.56,2.88-11.44,2.88s-11.3-1.68-11.44-2.88ZM21.67,9.07a9.45,9.45,0,0,0,4,.7,9.48,9.48,0,0,0,4-.7l2,6.1c-.29.41-2.24,1.27-6,1.27s-5.68-.86-6-1.26Zm4,8.62c2.46,0,5.05-.4,6.37-1.26l2.31,7.06h0c0,.72-3.07,2.12-8.68,2.12S17,24.21,17,23.49h0l2.31-7.06C20.58,17.29,23.17,17.69,25.63,17.69Zm0-10.42a7.62,7.62,0,0,1,3.52.62,7.57,7.57,0,0,1-3.52.63,7.54,7.54,0,0,1-3.52-.63A7.58,7.58,0,0,1,25.63,7.27ZM8.76,31.21,14,28.63l-1,3a.28.28,0,0,0,0,.09.44.44,0,0,0,0,.1v0s0,0,0,.07c.14,2.68,6.45,4.09,12.69,4.09S38.17,34.64,38.32,32v-.07s0,0,0,0,0-.06,0-.1,0-.06,0-.09l-1-3,5.2,2.58A.83.83,0,0,1,43,32a.86.86,0,0,1-.45.79L28.07,40.64a5.09,5.09,0,0,1-4.88,0L8.73,32.77A.87.87,0,0,1,8.27,32,.85.85,0,0,1,8.76,31.21Zm33.77,3.65L28.07,42.73a5.09,5.09,0,0,1-4.88,0L8.73,34.86a.88.88,0,0,1-.46-.77v-.15l14.32,7.8a6.37,6.37,0,0,0,6.07,0L43,33.94v.13A.86.86,0,0,1,42.53,34.86Z"/>
  </g>
</svg>