<svg xmlns="http://www.w3.org/2000/svg" viewBox="0 0 51.26 51.26">
  <g fill="#FFFFFF">
    <path d="M25.59 35.38c7.28 0 12.37-1.67 12.48-3.2l-.31-.87L36 26 30.19 8.12c-.05-1.29-2.48-1.75-4.56-1.75s-4.55.47-4.57 1.78L15.18 26.1v.07l-.56 1.7-1.49 4.31c.1 1.53 5.19 3.2 12.46 3.2Zm0-27.76a7.46 7.46 0 0 1 3.19.54 7.3 7.3 0 0 1-3.19.54 7.3 7.3 0 0 1-3.19-.54 7.46 7.46 0 0 1 3.23-.54Zm-6 8.8a16.21 16.21 0 0 0 5.93.91 16.12 16.12 0 0 0 6-.93L34.4 25c-1.62.89-4.95 1.51-8.81 1.51s-7.1-.61-8.74-1.49Z"/>
    <path d="M43.61 32.26a1.47 1.47 0 0 0-.84-1.34l-4.56-2.27.79 2.27.38 1.1v.25c-.21 3-7.26 4.36-13.73 4.36s-13.51-1.36-13.72-4.36V32L13 28.67l-4.52 2.25a1.48 1.48 0 0 0-.83 1.34v2.1a1.49 1.49 0 0 0 .78 1.32l14.46 7.87a5.73 5.73 0 0 0 5.48 0l14.45-7.87a1.49 1.49 0 0 0 .79-1.35v-2.07Z"/>
  </g>
</svg>
