<svg xmlns="http://www.w3.org/2000/svg" viewBox="0 0 51.26 51.26"><defs><style>.cls-1{fill:#fff;}</style></defs><g id="Layer_2" data-name="Layer 2"><path class="cls-1" d="M46.76,12v0s0,0,0-.05a.25.25,0,0,0,0-.08.43.43,0,0,1,0,0v0l0,0,0,0s0,0,0-.05h0l0,0,0-.06-.06-.06h0l-.08,0-.08,0h-.12a.27.27,0,0,0-.09,0H46L5,20.18a.64.64,0,0,0-.49.53.61.61,0,0,0,.33.63l11.49,6.17,1.56,11.83a0,0,0,0,1,0,0,.42.42,0,0,0,0,.1.32.32,0,0,0,0,.09l.06.08.06.07,0,0,0,0,.11.07.09,0,.07,0h.08a.59.59,0,0,0,.34-.1h0l8.65-5.6,8.12,5.59a.66.66,0,0,0,.36.11l.18,0a.63.63,0,0,0,.4-.38L46.72,12.21a.13.13,0,0,0,0-.06.24.24,0,0,0,0-.08S46.76,12,46.76,12ZM22.08,29.48a.49.49,0,0,0-.11.14.71.71,0,0,0-.07.09h0l-3.07,7.19-1.25-9.44L40,15.88,22.09,29.47A0,0,0,0,0,22.08,29.48ZM41.69,13.59,16.9,26.41l-10-5.36Zm-21.81,24L21,35l1.76-4.13.89.61,2.75,1.9Zm15.79.67L23.54,29.94,37.66,19.22,44.8,13.8Z"/></g></svg>