<svg xmlns="http://www.w3.org/2000/svg" viewBox="0 0 51.26 51.26">
  <g fill="#FFFFFF">
    <path d="m44.62 29.46-3.33-.74A10.49 10.49 0 0 0 41 27l2.88-1.83a.58.58 0 0 0 .18-.8l-2.6-4.1a.59.59 0 0 0-.81-.18L37.73 22a9.51 9.51 0 0 0-1.38-1l.75-3.37a.57.57 0 0 0-.44-.68l-4.75-1.06a.56.56 0 0 0-.68.43l-.75 3.37a10.11 10.11 0 0 0-1.66.29L27 17.07a.57.57 0 0 0-.79-.18l-4.1 2.61a.58.58 0 0 0-.18.8l1.83 2.88a9.82 9.82 0 0 0-1 1.4l-3.31-.74a.6.6 0 0 0-.71.45L17.66 29a.6.6 0 0 0 .45.71l3.27.73a9.07 9.07 0 0 0 .3 1.73L18.84 34a.57.57 0 0 0-.18.79l2.61 4.11a.57.57 0 0 0 .79.18l2.82-1.79a10 10 0 0 0 1.45 1l-.72 3.24a.58.58 0 0 0 .44.69l4.73 1.06a.59.59 0 0 0 .7-.44l.72-3.24a10.17 10.17 0 0 0 1.8-.31l1.78 2.79a.6.6 0 0 0 .82.19l4.08-2.6a.59.59 0 0 0 .18-.81L39 36a9 9 0 0 0 1-1.43l3.29.73a.57.57 0 0 0 .71-.4l1.06-4.76a.57.57 0 0 0-.44-.68Zm-8.9 1.1a4.47 4.47 0 1 1-3.39-5.34 4.47 4.47 0 0 1 3.39 5.34ZM19.2 20.24l-1-1.59a5.88 5.88 0 0 0 .57-.81l1.84.42A.34.34 0 0 0 21 18l.59-2.67a.32.32 0 0 0-.24-.38l-1.87-.42a6.1 6.1 0 0 0-.17-.95l1.62-1a.35.35 0 0 0 .1-.46l-1.47-2.3a.33.33 0 0 0-.45-.1l-1.63 1a5.91 5.91 0 0 0-.77-.54l.42-1.9a.32.32 0 0 0-.25-.38l-2.66-.59a.32.32 0 0 0-.39.24l-.43 1.92a5.65 5.65 0 0 0-.93.17L11.43 8a.33.33 0 0 0-.43-.1L8.67 9.37a.32.32 0 0 0-.1.44l1 1.62a6.19 6.19 0 0 0-.55.79l-1.83-.42a.34.34 0 0 0-.4.26L6.2 14.7a.33.33 0 0 0 .25.4l1.84.41a4.59 4.59 0 0 0 .17 1l-1.6 1a.33.33 0 0 0-.1.45l1.47 2.3a.31.31 0 0 0 .44.1l1.58-1a6.74 6.74 0 0 0 .82.58l-.41 1.82a.34.34 0 0 0 .25.39l2.66.59a.32.32 0 0 0 .39-.25l.41-1.82a6.48 6.48 0 0 0 1-.17l1 1.57a.34.34 0 0 0 .46.1l2.29-1.46a.32.32 0 0 0 .08-.47Zm-2.86-4.67a2.51 2.51 0 1 1-1.9-3 2.51 2.51 0 0 1 1.9 3Z"/>
  </g>
</svg>
