<svg xmlns="http://www.w3.org/2000/svg" viewBox="0 0 51.26 51.26">
  <g fill="#FFFFFF">
    <path d="M44.75,28.85l-2.89-.65c0-.29-.1-.59-.17-.88l2.5-1.59a1.2,1.2,0,0,0,.54-.76,1.22,1.22,0,0,0-.16-.91L42,20a1.22,1.22,0,0,0-1.67-.38L37.77,21.2c-.24-.18-.47-.35-.71-.5l.65-2.93a1.22,1.22,0,0,0-.16-.91,1.18,1.18,0,0,0-.75-.52l-4.75-1.06a1.19,1.19,0,0,0-1.43.91L30,19.12l-.86.15-1.61-2.53a1.2,1.2,0,0,0-1.66-.37L21.73,19a1.22,1.22,0,0,0-.53.76,1.19,1.19,0,0,0,.16.9L23,23.14c-.18.24-.36.48-.52.73l-2.87-.64a1.23,1.23,0,0,0-1.46.93l-1.05,4.71A1.21,1.21,0,0,0,18,30.32L20.8,31c0,.31.1.62.17.93L18.5,33.45a1.12,1.12,0,0,0-.52.75,1.19,1.19,0,0,0,.15.9l2.62,4.11a1.17,1.17,0,0,0,.75.53,1.24,1.24,0,0,0,.9-.16L24.83,38c.26.2.52.39.79.56L25,41.39a1.2,1.2,0,0,0,.92,1.44l4.73,1.06.26,0a1.21,1.21,0,0,0,1.18-1l.62-2.8c.32,0,.64-.1,1-.17l1.54,2.42a1.2,1.2,0,0,0,1.67.37L41,40.2a1.22,1.22,0,0,0,.38-1.68l-1.56-2.44c.2-.26.38-.52.54-.77l2.85.63A1.21,1.21,0,0,0,44.6,35l1.06-4.75A1.2,1.2,0,0,0,44.75,28.85Zm-1.31,5.87-3.73-.83-.23.4a9.43,9.43,0,0,1-.95,1.34l-.29.35,2,3.17-4,2.6-2-3.19-.44.12a9.61,9.61,0,0,1-1.64.3l-.46,0-.77,3.65-4.7-1L27,38l-.4-.23a9.58,9.58,0,0,1-1.36-1l-.35-.3-3.13,2-2.63-4,3.23-2L22.28,32A9.66,9.66,0,0,1,22,30.39l0-.46-3.69-.79,1-4.69,3.75.84.23-.39a9.15,9.15,0,0,1,.93-1.31l.3-.35L22.4,20l4-2.62,2.09,3.29.44-.11a10.5,10.5,0,0,1,1.56-.28l.46,0,.79-3.77,4.71,1-.85,3.81.4.23a9.51,9.51,0,0,1,1.29.91l.35.29,3.23-2.1,2.62,4-3.27,2.08.12.44a9.45,9.45,0,0,1,.28,1.59l.05.45,3.72.83Z"/>
    <path d="M32.46,24.61a5.1,5.1,0,0,0-2.22,10,5.38,5.38,0,0,0,1.11.12,5.1,5.1,0,0,0,1.11-10.07Zm2.65,5.81a3.85,3.85,0,1,1-2.92-4.59A3.85,3.85,0,0,1,35.11,30.42Z"/>
    <path d="M19.43,21.22a1,1,0,0,0,.3-1.32L19,18.69l.09-.14,1.42.31a.94.94,0,0,0,1.13-.71l.59-2.67a1,1,0,0,0-.12-.72,1,1,0,0,0-.59-.41L20,14l0-.15,1.24-.79a.94.94,0,0,0,.29-1.31l-1.46-2.3a.94.94,0,0,0-.59-.42.91.91,0,0,0-.72.13l-1.26.8-.11-.08.33-1.46A1,1,0,0,0,17,7.32l-2.67-.6a1,1,0,0,0-1.13.72l-.33,1.47-.12,0L12,7.66a1,1,0,0,0-1.31-.29L8.34,8.84a1,1,0,0,0-.29,1.31l.79,1.24-.08.12-1.43-.32a1,1,0,0,0-1.15.73l-.59,2.65a1,1,0,0,0,.73,1.14l1.4.31,0,.17L6.53,17a1,1,0,0,0-.42.6.9.9,0,0,0,.13.71L7.7,20.58a1,1,0,0,0,.59.42A1,1,0,0,0,9,20.87l1.2-.76.15.1-.3,1.39a.92.92,0,0,0,.12.72,1,1,0,0,0,.6.42l2.65.59.22,0a.91.91,0,0,0,.5-.15.88.88,0,0,0,.42-.59l.31-1.39.18,0,.76,1.2a1,1,0,0,0,1.32.29Zm-2.71.25-1.09-1.72-.44.12a4.53,4.53,0,0,1-.88.16l-.45,0-.44,2-2.08-.46.44-2-.4-.23a5.67,5.67,0,0,1-.72-.52l-.35-.29L8.59,19.65,7.45,17.86l1.73-1.1-.12-.44a4.57,4.57,0,0,1-.15-.86l0-.46-2-.45.47-2.07,2,.45.23-.4a5.41,5.41,0,0,1,.49-.69l.3-.35L9.26,9.73l1.8-1.14,1.12,1.77.44-.12a5.63,5.63,0,0,1,.83-.15l.46,0,.45-2,2.08.46-.45,2,.39.23a3.89,3.89,0,0,1,.69.48l.35.29,1.77-1.12,1.14,1.8-1.76,1.11.12.45a5,5,0,0,1,.16.84l0,.45,2,.45-.47,2.08-2-.45-.23.4a3.73,3.73,0,0,1-.5.72l-.29.35,1.1,1.72Z"/>
    <path d="M14.57,12a3.15,3.15,0,0,0-3.74,2.39,3.13,3.13,0,0,0,2.38,3.74,3.21,3.21,0,0,0,.68.07,3.14,3.14,0,0,0,.68-6.2Zm1.16,3.48a1.89,1.89,0,0,1-3.68-.82,1.85,1.85,0,0,1,.83-1.19,1.82,1.82,0,0,1,1.42-.24A1.87,1.87,0,0,1,15.73,15.44Z"/>
  </g>
</svg>