<svg xmlns="http://www.w3.org/2000/svg" viewBox="0 0 51.26 51.26"><defs><style>.cls-1{fill:#ececed;}.cls-2{fill:#fff;}</style></defs><g id="Layer_2" data-name="Layer 2"><path class="cls-1" d="M44.62,29.78,41.29,29A10.58,10.58,0,0,0,41,27.35l2.88-1.83a.59.59,0,0,0,.18-.81l-2.6-4.09a.59.59,0,0,0-.81-.18l-2.9,1.85a9.51,9.51,0,0,0-1.38-1L37.1,18a.58.58,0,0,0-.44-.69l-4.75-1.05a.56.56,0,0,0-.68.43L30.48,20a10.11,10.11,0,0,0-1.66.29L27,17.39a.57.57,0,0,0-.79-.18l-4.1,2.61a.58.58,0,0,0-.18.8l1.83,2.88a9.29,9.29,0,0,0-1,1.4l-3.31-.74a.6.6,0,0,0-.71.45l-1.05,4.71a.6.6,0,0,0,.45.71l3.27.73a9.21,9.21,0,0,0,.3,1.73l-2.84,1.8a.57.57,0,0,0-.18.79l2.61,4.11a.57.57,0,0,0,.79.18l2.82-1.79a10,10,0,0,0,1.45,1l-.72,3.24a.58.58,0,0,0,.44.69l4.73,1.06a.59.59,0,0,0,.7-.44l.72-3.24A9.31,9.31,0,0,0,34,39.6l1.78,2.8a.59.59,0,0,0,.82.18L40.63,40a.59.59,0,0,0,.18-.81L39,36.35a9.47,9.47,0,0,0,1-1.43l3.29.73a.57.57,0,0,0,.68-.44l1.06-4.75A.57.57,0,0,0,44.62,29.78ZM30.38,34.27a4.47,4.47,0,1,1,5.34-3.39A4.47,4.47,0,0,1,30.38,34.27Z"/><path class="cls-2" d="M21.34,15.28l-1.87-.42a6.1,6.1,0,0,0-.17-.95l1.62-1a.33.33,0,0,0,.1-.45l-1.47-2.3a.33.33,0,0,0-.45-.1l-1.63,1a6,6,0,0,0-.77-.55l.42-1.89a.32.32,0,0,0-.25-.38l-2.66-.6a.32.32,0,0,0-.39.25L13.4,9.79a5.65,5.65,0,0,0-.93.16l-1-1.63a.33.33,0,0,0-.45-.1L8.67,9.68a.33.33,0,0,0-.1.45l1,1.62a5.56,5.56,0,0,0-.55.79l-1.86-.42a.33.33,0,0,0-.4.26L6.2,15a.33.33,0,0,0,.25.4l1.84.41a4.59,4.59,0,0,0,.17,1l-1.6,1a.33.33,0,0,0-.1.45l1.47,2.3a.31.31,0,0,0,.44.1l1.58-1a6.74,6.74,0,0,0,.82.58l-.41,1.81a.33.33,0,0,0,.25.39l2.66.6a.32.32,0,0,0,.39-.25L14.37,21a5.45,5.45,0,0,0,1-.18l1,1.58a.34.34,0,0,0,.46.1L19.1,21a.34.34,0,0,0,.1-.46l-1-1.58a5.88,5.88,0,0,0,.57-.81l1.84.41a.32.32,0,0,0,.39-.24l.59-2.67A.31.31,0,0,0,21.34,15.28Zm-8,2.52a2.52,2.52,0,1,1,3-1.91A2.52,2.52,0,0,1,13.34,17.8Z"/></g></svg>