<svg xmlns="http://www.w3.org/2000/svg" viewBox="0 0 51.26 51.26">
  <path fill="#FFFFFF" d="M40.1 36.6H17a2 2 0 1 1 0-4.06.6.6 0 0 0 .27-.07v.09h23.37L43.49 14h-27.8l-.95-6.14H8.39a.63.63 0 0 0 0 1.25h5.28l.87 5.6 2.59 16.59H17a3.28 3.28 0 1 0 0 6.56h2.67A2.64 2.64 0 0 0 21 42.8a2.64 2.64 0 0 0 1.31-4.95h13a2.66 2.66 0 1 0 2.61 0h2.18a.63.63 0 1 0 0-1.25Zm-7.46-15.79-.55 5.25h-6.36l-.66-5.25Zm-7.72-1.25-.55-4.35h8.87l-.46 4.35Zm15.45 6.5h-7l.55-5.25h7.27ZM32 27.31l-.43 4h-5.19l-.5-4Zm-7.49-1.25h-6.93l-.82-5.25h7Zm-6.7 1.25h6.85l.5 4h-6.77Zm15 4 .42-4h7l-.61 4Zm8.57-11.73H34l.46-4.35H42Zm-18.26-4.37.54 4.35h-7.09l-.68-4.35Z"/>
</svg>
