<svg xmlns="http://www.w3.org/2000/svg" viewBox="0 0 51.26 51.26"><defs><style>.cls-1{fill:#fff;}</style></defs><g id="Layer_2" data-name="Layer 2"><path class="cls-1" d="M40.1,36.6H17a2,2,0,1,1,0-4.06.6.6,0,0,0,.27-.07v.09H40.64L43.49,14H15.69l-.95-6.14H8.39a.63.63,0,0,0,0,1.25h5.28l.87,5.6v0L17.13,31.3H17a3.28,3.28,0,1,0,0,6.56h2.67A2.64,2.64,0,0,0,21,42.8a2.64,2.64,0,0,0,1.31-4.95h13a2.66,2.66,0,1,0,2.61,0H40.1a.63.63,0,1,0,0-1.25ZM32.64,20.81l-.55,5.25H25.73l-.66-5.25Zm-7.72-1.25-.55-4.35h8.87l-.46,4.35Zm15.45,6.5h-7l.55-5.25h7.27ZM32,27.31l-.43,4H26.38l-.5-4Zm-7.49-1.25H17.58l-.82-5.25h7Zm-6.7,1.25h6.85l.5,4H18.39Zm15,4,.42-4h7l-.61,4Zm8.57-11.73-.09,0H34l.46-4.35H42ZM23.12,15.21l.54,4.35H16.57l-.68-4.35Z"/></g></svg>