<svg xmlns="http://www.w3.org/2000/svg" viewBox="0 0 51.26 51.26">
  <g fill="#FFFFFF">
    <path d="M40.1,36.29H17a2,2,0,0,1,0-4.07.6.6,0,0,0,.27-.06v.09H40.64l2.85-18.6H15.7l-1-6.15H8.39a.63.63,0,0,0,0,1.25h5.28l.87,5.59a.07.07,0,0,0,0,.05L17.13,31,17,31a3.29,3.29,0,0,0,0,6.57h1.64a3.23,3.23,0,0,0-.95,2.3,3.28,3.28,0,1,0,5.62-2.3h10.9a3.29,3.29,0,1,0,4.67,0H40.1a.63.63,0,1,0,0-1.25ZM32.64,20.5l-.55,5.25H25.73l-.66-5.25Zm-7.72-1.25-.55-4.35h8.87l-.46,4.35Zm15.45,6.5h-7l.55-5.25h7.27ZM32,27l-.43,4H26.38l-.5-4Zm-7.49-1.25H17.58l-.82-5.25h7ZM17.77,27h6.85l.5,4H18.39Zm15,4,.42-4h7l-.61,4Zm8.57-11.73-.09,0H34l.46-4.35H42ZM23.12,14.9l.54,4.35H16.57l-.68-4.35ZM21,41.87a2,2,0,1,1,2-2A2,2,0,0,1,21,41.87Zm15.58,0a2,2,0,1,1,2-2A2,2,0,0,1,36.59,41.87Z"/>
  </g>
</svg>