<svg xmlns="http://www.w3.org/2000/svg" viewBox="0 0 51.26 51.26"><defs><style>.cls-1{fill:none;}.cls-2{fill:#ececed;}.cls-3{fill:#fff;}</style></defs><g id="Layer_2" data-name="Layer 2"><polygon class="cls-1" points="32.79 31.63 39.57 31.63 40.18 27.63 33.21 27.63 32.79 31.63"/><path class="cls-1" d="M41.36,19.9,42,15.53H34.49L34,19.88h7.24Z"/><polygon class="cls-1" points="26.38 31.63 31.54 31.63 31.96 27.63 25.88 27.63 26.38 31.63"/><polygon class="cls-1" points="41.17 21.13 33.9 21.13 33.35 26.38 40.37 26.38 41.17 21.13"/><polygon class="cls-1" points="17.77 27.63 18.39 31.63 25.12 31.63 24.62 27.63 17.77 27.63"/><polygon class="cls-1" points="25.73 26.38 32.09 26.38 32.64 21.13 25.07 21.13 25.73 26.38"/><polygon class="cls-1" points="32.78 19.88 33.24 15.53 24.38 15.53 24.92 19.88 32.78 19.88"/><polygon class="cls-1" points="24.47 26.38 23.81 21.13 16.76 21.13 17.58 26.38 24.47 26.38"/><polygon class="cls-1" points="23.12 15.53 15.89 15.53 16.57 19.88 23.66 19.88 23.12 15.53"/><path class="cls-2" d="M40.1,36.92H17a2,2,0,0,1,0-4.07.6.6,0,0,0,.27-.06v.09H40.64l2.85-18.6H15.7l-1-6.15H8.39a.63.63,0,0,0,0,1.25h5.28L14.54,15a.07.07,0,0,0,0,0l2.58,16.6-.09,0a3.29,3.29,0,0,0,0,6.57h2.67a2.58,2.58,0,0,1,1.3-.36,2.65,2.65,0,0,1,1.31.36h13a2.55,2.55,0,0,1,2.61,0H40.1a.63.63,0,1,0,0-1.25ZM18.39,31.63l-.62-4h6.85l.5,4Zm13.14,0H26.38l-.5-4H32Zm.56-5.25H25.73l-.66-5.25h7.57Zm7.48,5.25H32.79l.42-4h7Zm-5.08-16.1H42l-.67,4.37-.09,0H34Zm-.59,5.6h7.27l-.8,5.25h-7Zm-.66-5.6-.46,4.35H24.92l-.55-4.35Zm-17.35,0h7.23l.54,4.35H16.57Zm.87,5.6h7l.66,5.25H17.58Z"/><path class="cls-3" d="M37.89,38.17a2.64,2.64,0,1,0,1.35,2.3A2.64,2.64,0,0,0,37.89,38.17Z"/><path class="cls-3" d="M22.32,38.17A2.65,2.65,0,0,0,21,37.81a2.58,2.58,0,0,0-1.3.36,2.62,2.62,0,0,0-1.35,2.3,2.66,2.66,0,1,0,4-2.3Z"/></g></svg>