<svg xmlns="http://www.w3.org/2000/svg" viewBox="0 0 51.26 51.26"><defs><style>.cls-1{fill:#fff;}</style></defs><g id="Layer_2" data-name="Layer 2"><path class="cls-1" d="M25.63,6.6h0a19,19,0,0,0-19,19h0a19,19,0,0,0,19,19h0a19,19,0,0,0,19-19h0A19,19,0,0,0,25.63,6.6ZM36.8,31.81h0a1.39,1.39,0,0,1-.66.44h0a6.77,6.77,0,0,1-1.62.45h0a.66.66,0,0,0-.42.13,3,3,0,0,0-.39,1s0,0,0,0,0,0,0,.05a.35.35,0,0,1-.07.14.38.38,0,0,1-.23.13h-.07a12.68,12.68,0,0,0-2-.1h0a3.93,3.93,0,0,0-1,.11h0c-.82.36-1.57.94-2.41,1.42h0a2.86,2.86,0,0,1-1.24.42h0a13.78,13.78,0,0,1-1.58,0h0a3.87,3.87,0,0,1-1.86-.68h0a9.69,9.69,0,0,0-2.33-1.26,6.19,6.19,0,0,0-2.49.09h0a.61.61,0,0,1-.38,0,.31.31,0,0,1-.21-.19c-.1-.35-.14-.68-.24-1l-.1-.26a5.36,5.36,0,0,0-1-.25h0a6.27,6.27,0,0,1-1.57-.55h0a.68.68,0,0,1-.26-.2.51.51,0,0,1-.1-.47l0-.07A.93.93,0,0,1,15,31h0a5.48,5.48,0,0,0,1.7-.78,7.3,7.3,0,0,0,2.32-2.65h0a1.86,1.86,0,0,0,.27-1.17,1.12,1.12,0,0,0-.68-.65,6.94,6.94,0,0,1-1.53-.66h0c-.05-.05-.15-.1-.25-.19a.71.71,0,0,1-.25-.4h0s0,0,0-.06a.72.72,0,0,1,.4-.59h0s0,0,0,0a.86.86,0,0,1,.72-.16h0a7.14,7.14,0,0,0,.74.21h0a2.89,2.89,0,0,0,1,0,.13.13,0,0,1,0-.05,14.6,14.6,0,0,0-.05-2,6.93,6.93,0,0,1,.31-3h0a6.24,6.24,0,0,1,1.88-2.46,6.34,6.34,0,0,1,3.88-1.23c.33,0,.67,0,1,0a5.8,5.8,0,0,1,2.83,1,5.54,5.54,0,0,1,2.32,3.43h0a14.66,14.66,0,0,1,.06,2.47h0c0,.53-.05,1,0,1.54h0c0,.08,0,.15,0,.18a1.72,1.72,0,0,0,.82,0h0a5.09,5.09,0,0,0,.72-.22h0a1,1,0,0,1,.81.08h0a1.05,1.05,0,0,1,.47.45h0a.48.48,0,0,1,0,.35l0,.1a.91.91,0,0,1-.2.25h0a3.79,3.79,0,0,1-1.36.71h0a2.08,2.08,0,0,0-1,.64h0A.85.85,0,0,0,32,27h0a7,7,0,0,0,1,1.76,6.12,6.12,0,0,0,2.94,2.13s0,0,0,0a2.73,2.73,0,0,1,.71.26h0A.46.46,0,0,1,36.8,31.81Z"/></g></svg>