<svg xmlns="http://www.w3.org/2000/svg" viewBox="0 0 51.26 51.26"><defs><style>.cls-1{fill:#fff;}.cls-2{fill:#ececed;}</style></defs><g id="Layer_2" data-name="Layer 2"><path class="cls-1" d="M33,29.05a7,7,0,0,1-1-1.76h0a.84.84,0,0,1,0-.75h0a2.08,2.08,0,0,1,1-.64h0a4,4,0,0,0,1.36-.71h0a1,1,0,0,0,.2-.26l0-.09a.51.51,0,0,0,0-.36h0a1.14,1.14,0,0,0-.47-.46h0a1,1,0,0,0-.81-.07h0a4.91,4.91,0,0,1-.72.21h0a1.72,1.72,0,0,1-.82,0s0-.1,0-.18h0c0-.5,0-1,0-1.54h0a14.64,14.64,0,0,0-.06-2.47h0a5.54,5.54,0,0,0-2.32-3.43,5.8,5.8,0,0,0-2.83-1c-.35,0-.69,0-1,0a6.34,6.34,0,0,0-3.88,1.23,6.24,6.24,0,0,0-1.88,2.46h0a6.93,6.93,0,0,0-.31,3,14.6,14.6,0,0,1,.05,2,.08.08,0,0,0,0,0,2.65,2.65,0,0,1-1,0h0a7.14,7.14,0,0,1-.74-.21h0a.86.86,0,0,0-.72.16s0,0,0,0h0a.72.72,0,0,0-.4.59s0,0,0,.06h0a.74.74,0,0,0,.25.41c.1.09.2.14.25.19h0a7.45,7.45,0,0,0,1.53.66,1.12,1.12,0,0,1,.68.65,1.86,1.86,0,0,1-.27,1.17h0a7.3,7.3,0,0,1-2.32,2.65,5.46,5.46,0,0,1-1.7.77h0a1,1,0,0,0-.6.36l0,.06a.53.53,0,0,0,.1.48.68.68,0,0,0,.26.2h0a5.86,5.86,0,0,0,1.57.54,0,0,0,0,1,0,0,5.41,5.41,0,0,1,1,.24s0,.12.1.27.14.61.24.95a.32.32,0,0,0,.21.2.51.51,0,0,0,.38,0h0a6,6,0,0,1,2.48-.08,9.56,9.56,0,0,1,2.34,1.26h0a3.88,3.88,0,0,0,1.86.69h0a13.78,13.78,0,0,0,1.58,0h0A2.86,2.86,0,0,0,27.8,36h0a25.61,25.61,0,0,1,2.41-1.42h0a3.89,3.89,0,0,1,1-.12h0a12.69,12.69,0,0,1,2,.11h.07a.38.38,0,0,0,.23-.13.33.33,0,0,0,.07-.15c0-.06,0-.09,0,0s0,0,0,0a3,3,0,0,1,.39-1,.6.6,0,0,1,.42-.13h0a7.26,7.26,0,0,0,1.62-.45h0a1.39,1.39,0,0,0,.66-.44h0a.46.46,0,0,0-.14-.66h0a2.41,2.41,0,0,0-.71-.26s0,0,0,0A6.18,6.18,0,0,1,33,29.05Z"/><path class="cls-2" d="M25.63,6.92a19,19,0,1,0,19,19A19,19,0,0,0,25.63,6.92ZM34.46,33a.6.6,0,0,0-.42.13,3,3,0,0,0-.39,1s0,0,0,0,0,0,0,0a.33.33,0,0,1-.07.15.38.38,0,0,1-.23.13h-.07a12.69,12.69,0,0,0-2-.11h0a3.89,3.89,0,0,0-1,.12h0A25.61,25.61,0,0,0,27.82,36h0a2.86,2.86,0,0,1-1.24.42h0a13.78,13.78,0,0,1-1.58,0h0a3.88,3.88,0,0,1-1.86-.69h0a9.56,9.56,0,0,0-2.34-1.26,6,6,0,0,0-2.48.08h0a.51.51,0,0,1-.38,0,.32.32,0,0,1-.21-.2c-.1-.34-.14-.67-.24-.95s-.09-.25-.1-.27a5.41,5.41,0,0,0-1-.24,0,0,0,0,0,0,0,5.86,5.86,0,0,1-1.57-.54h0a.68.68,0,0,1-.26-.2.53.53,0,0,1-.1-.48l0-.06a1,1,0,0,1,.6-.36h0a5.46,5.46,0,0,0,1.7-.77,7.3,7.3,0,0,0,2.32-2.65h0a1.86,1.86,0,0,0,.27-1.17,1.12,1.12,0,0,0-.68-.65,7.45,7.45,0,0,1-1.53-.66h0c-.05-.05-.15-.1-.25-.19a.74.74,0,0,1-.25-.41h0s0,0,0-.06a.72.72,0,0,1,.4-.59h0s0,0,0,0a.86.86,0,0,1,.72-.16h0a7.14,7.14,0,0,0,.74.21h0a2.65,2.65,0,0,0,1,0,.08.08,0,0,1,0,0,14.6,14.6,0,0,0-.05-2,6.93,6.93,0,0,1,.31-3h0a6.24,6.24,0,0,1,1.88-2.46,6.34,6.34,0,0,1,3.88-1.23c.33,0,.67,0,1,0a5.8,5.8,0,0,1,2.83,1,5.54,5.54,0,0,1,2.32,3.43h0a14.64,14.64,0,0,1,.06,2.47h0c0,.53-.05,1,0,1.54h0c0,.08,0,.15,0,.18a1.72,1.72,0,0,0,.82,0h0a4.91,4.91,0,0,0,.72-.21h0a1,1,0,0,1,.81.07h0a1.14,1.14,0,0,1,.47.46h0a.51.51,0,0,1,0,.36l0,.09a1,1,0,0,1-.2.26h0a4,4,0,0,1-1.36.71h0a2.08,2.08,0,0,0-1,.64h0a.84.84,0,0,0,0,.75h0a7,7,0,0,0,1,1.76,6.18,6.18,0,0,0,2.94,2.13s0,0,0,0a2.41,2.41,0,0,1,.71.26h0a.46.46,0,0,1,.14.66h0a1.39,1.39,0,0,1-.66.44h0A7.26,7.26,0,0,1,34.5,33Z"/></g></svg>