<svg xmlns="http://www.w3.org/2000/svg" viewBox="0 0 51.26 51.26"><defs><style>.cls-1{fill:#fff;fill-rule:evenodd;}</style></defs><g id="Layer_2" data-name="Layer 2"><path class="cls-1" d="M39.37,32.51h0l0,0h0a3.75,3.75,0,0,0-.89-.32h0a7.65,7.65,0,0,1-3.66-2.66,8.49,8.49,0,0,1-1.25-2.18v0a1.06,1.06,0,0,1,0-.93h0a2.69,2.69,0,0,1,1.26-.8h0a4.91,4.91,0,0,0,1.7-.87h0a1.11,1.11,0,0,0,.25-.32.35.35,0,0,0,0-.11.64.64,0,0,0,0-.45h0a1.38,1.38,0,0,0-.59-.57h0a1.22,1.22,0,0,0-1-.09h0a6.88,6.88,0,0,1-.9.26h0a2.08,2.08,0,0,1-1,0,1.16,1.16,0,0,0,0-.23h0c0-.62,0-1.26,0-1.92h0a17.74,17.74,0,0,0-.08-3.08h0a6.93,6.93,0,0,0-2.89-4.28,7.31,7.31,0,0,0-3.53-1.26h0c-.43,0-.85-.05-1.27-.05a7.92,7.92,0,0,0-4.82,1.54,7.78,7.78,0,0,0-2.36,3.06h0a8.73,8.73,0,0,0-.38,3.74h0A17.22,17.22,0,0,1,18,23.36a.09.09,0,0,1,0,.05,3.53,3.53,0,0,1-1.21,0h0c-.28-.05-.58-.17-.93-.26h0a1.11,1.11,0,0,0-.9.21h0s0,0,0,0a.91.91,0,0,0-.5.74s0,0,0,.07h0a.87.87,0,0,0,.31.51c.12.11.24.18.31.24h0a9.09,9.09,0,0,0,1.9.82h0a1.36,1.36,0,0,1,.85.82A2.29,2.29,0,0,1,17.47,28h0a9,9,0,0,1-2.89,3.3,6.91,6.91,0,0,1-2.12,1h0a1.22,1.22,0,0,0-.76.44l0,.09a.64.64,0,0,0,.12.59,1,1,0,0,0,.32.25h0a7.62,7.62,0,0,0,2,.68h0a6.22,6.22,0,0,1,1.22.3s.05.14.13.33c.11.35.17.76.29,1.19a.41.41,0,0,0,.27.24.7.7,0,0,0,.47,0h0a7.54,7.54,0,0,1,3.09-.11h0a12.2,12.2,0,0,1,2.91,1.57h0a4.75,4.75,0,0,0,2.32.85h0a16.1,16.1,0,0,0,2-.05h0a3.7,3.7,0,0,0,1.55-.52,0,0,0,0,1,0,0c1.05-.6,2-1.31,3-1.76h0a4.65,4.65,0,0,1,1.2-.14h0a15.34,15.34,0,0,1,2.54.12.14.14,0,0,0,.09,0,.49.49,0,0,0,.29-.16.5.5,0,0,0,.09-.18c0-.08,0-.12,0-.05a.16.16,0,0,0,0-.07,3.23,3.23,0,0,1,.49-1.25.74.74,0,0,1,.52-.16h0a9.5,9.5,0,0,0,2-.57h0a1.77,1.77,0,0,0,.81-.55h0a.57.57,0,0,0-.17-.82Z"/></g></svg>