<svg xmlns="http://www.w3.org/2000/svg" viewBox="0 0 51.26 51.26">
  <path fill="#FFFFFF" d="m25.63,5.82C15.12,5.82,6.6,14.35,6.6,24.85s8.53,19.03,19.03,19.03,19.03-8.53,19.03-19.03S36.13,5.82,25.63,5.82Zm7.33,28c-.32,0-.52-.1-.82-.28-4.79-2.89-10.36-3.01-15.86-1.88-.3.08-.69.2-.91.2-.74,0-1.21-.59-1.21-1.21,0-.79.47-1.17,1.04-1.29,6.28-1.39,12.71-1.27,18.19,2.01.47.3.74.57.74,1.27s-.54,1.18-1.17,1.18Zm2.06-5.03c-.4,0-.67-.18-.94-.32-4.8-2.84-11.95-3.98-18.31-2.26-.37.1-.57.2-.91.2-.82,0-1.49-.67-1.49-1.49s.4-1.37,1.19-1.59c2.13-.6,4.31-1.04,7.5-1.04,4.98,0,9.79,1.24,13.58,3.49.62.37.87.84.87,1.51,0,.83-.65,1.5-1.49,1.5Zm2.38-5.85c-.4,0-.64-.1-.99-.3-5.46-3.26-15.23-4.04-21.56-2.28-.28.08-.62.2-.99.2-1.01,0-1.79-.79-1.79-1.81s.64-1.63,1.34-1.83c2.7-.79,5.72-1.17,9.02-1.17,5.6,0,11.47,1.17,15.76,3.67.6.35.99.82.99,1.73,0,1.04-.84,1.79-1.78,1.79Z"/>
</svg>