<svg xmlns="http://www.w3.org/2000/svg" viewBox="0 0 51.26 51.26"><defs><style>.cls-1{fill:none;}.cls-2{fill:#fff;}.cls-3{fill:#ececed;}</style></defs><g id="Layer_2" data-name="Layer 2"><path class="cls-1" d="M25.43,7c-2.74,0-3.17,1.43-3.2,2.87h6.39C28.61,8.22,28.31,7,25.43,7Z"/><rect class="cls-2" x="23.6" y="15.67" width="4.06" height="4.06" rx="0.46" transform="translate(-5.01 23.31) rotate(-45)"/><path class="cls-2" d="M32.41,27.14H18.85c-.86,0-1,.37-1,.83v2.12h15.6V28C33.43,27.51,33.26,27.14,32.41,27.14Z"/><path class="cls-2" d="M17.83,40.6c0,.46.16.83,1,.83H32.41c.85,0,1-.37,1-.83V31.29H17.83Z"/><path class="cls-2" d="M10,28.85V39.72c0,.86.37,1,.83,1h2.05V27.83H10.84C10.38,27.83,10,28,10,28.85Z"/><path class="cls-2" d="M40.42,27.83H38.37V40.74h2.05c.46,0,.83-.16.83-1V28.85C41.25,28,40.88,27.83,40.42,27.83Z"/><path class="cls-3" d="M30.24,9.89c0-1.32-.11-4.51-4.81-4.51-2.19,0-4.79.79-4.81,4.56a8.91,8.91,0,0,0-7.73,8.81V44.36A2.16,2.16,0,0,0,15,46.52H36.22a2.16,2.16,0,0,0,2.15-2.16V18.75A8.92,8.92,0,0,0,30.24,9.89ZM25.43,7c2.88,0,3.18,1.23,3.19,2.87H22.23C22.26,8.42,22.69,7,25.43,7Zm2.74,11L26,20.25a.46.46,0,0,1-.65,0L23.08,18a.46.46,0,0,1,0-.65l2.22-2.22a.46.46,0,0,1,.65,0l2.22,2.22A.46.46,0,0,1,28.17,18ZM33.43,40.6c0,.46-.17.83-1,.83H18.85c-.86,0-1-.37-1-.83V31.29h15.6Zm0-10.51H17.83V28c0-.46.16-.83,1-.83H32.41c.85,0,1,.37,1,.83Z"/></g></svg>