<svg xmlns="http://www.w3.org/2000/svg" viewBox="0 0 51.26 51.26"><defs><style>.cls-1{fill:#fff;}</style></defs><g id="Layer_2" data-name="Layer 2"><path class="cls-1" d="M40.42,27.51H38.37V18.43a8.91,8.91,0,0,0-8.13-8.85c0-1.33-.11-4.52-4.81-4.52-2.19,0-4.79.79-4.81,4.56a8.91,8.91,0,0,0-7.73,8.81v9.08H10.84c-.46,0-.83.16-.83,1V39.4c0,.86.37,1,.83,1h2.05v3.63A2.15,2.15,0,0,0,15,46.2H36.22a2.16,2.16,0,0,0,2.15-2.15V40.42h2.05c.46,0,.83-.16.83-1V28.53C41.25,27.67,40.88,27.51,40.42,27.51Zm-15-20.84c2.88,0,3.18,1.24,3.19,2.87H22.23C22.26,8.1,22.69,6.67,25.43,6.67Zm2.74,11L26,19.93a.46.46,0,0,1-.65,0l-2.22-2.22a.46.46,0,0,1,0-.65l2.22-2.22a.46.46,0,0,1,.65,0l2.22,2.22A.46.46,0,0,1,28.17,17.71Zm5.26,22.58c0,.45-.17.82-1,.82H18.85c-.86,0-1-.37-1-.82V31h15.6Zm0-10.52H17.83V27.65c0-.46.16-.83,1-.83H32.41c.85,0,1,.37,1,.83Z"/></g></svg>