<svg xmlns="http://www.w3.org/2000/svg" viewBox="0 0 51.26 51.26">
  <g fill="#FFFFFF">
    <path d="M40.42,26.71H39V18.26a9.58,9.58,0,0,0-8.74-9.48H30c-.07-1.53-.57-4.16-4.39-4.16-2.62,0-4.16,1.48-4.38,4.18l-.71,0a9.54,9.54,0,0,0-8.28,9.43v8.45H10.84c-.55,0-1.46.22-1.46,1.65V39.23c0,1.43.91,1.65,1.46,1.65h1.42v3A2.79,2.79,0,0,0,15,46.65H36.22A2.78,2.78,0,0,0,39,43.87v-3h1.43c.54,0,1.45-.22,1.45-1.65V28.36C41.87,26.93,41,26.71,40.42,26.71ZM10.84,39.63h-.15a.86.86,0,0,1-.06-.39V28.36a1.3,1.3,0,0,1,0-.38.55.55,0,0,1,.16,0h1.42V39.63ZM25.63,5.86c2.36,0,3,1,3.14,2.88H22.51A2.79,2.79,0,0,1,25.63,5.86Zm12.11,38a1.52,1.52,0,0,1-1.52,1.53H15a1.53,1.53,0,0,1-1.53-1.53V18.26a8.29,8.29,0,0,1,7.14-8.19L22.23,10h6.39l1.57,0a8.31,8.31,0,0,1,7.55,8.23Zm2.88-4.64a1.76,1.76,0,0,1,0,.38.55.55,0,0,1-.16,0H39V28h1.57s.06.12.06.39Z"/>
    <path d="M24.86,20.2a1.09,1.09,0,0,0,1.54,0L28.62,18h0a1.1,1.1,0,0,0,0-1.54l-2.23-2.22a1.12,1.12,0,0,0-1.53,0l-2.22,2.22a1.09,1.09,0,0,0,0,1.54Zm.77-5,2,2-2,2-2-2Z"/>
    <path d="M32.41,26H18.85c-1.44,0-1.65.91-1.65,1.46V40.11c0,.55.21,1.46,1.65,1.46H32.41c1.43,0,1.65-.91,1.65-1.46V27.48C34.06,26.93,33.84,26,32.41,26Zm.4,14.09c0,.1,0,.14,0,.15a.86.86,0,0,1-.39.06H18.85a1,1,0,0,1-.38,0h0s0-.05,0-.16V30.8H32.81Zm0-10.56H18.45V27.48a1,1,0,0,1,0-.15.82.82,0,0,1,.39-.06H32.41a.84.84,0,0,1,.38.05.55.55,0,0,1,0,.16Z"/>
  </g>
</svg>