<svg xmlns="http://www.w3.org/2000/svg" viewBox="0 0 51.26 51.26">
  <path fill="#FFFFFF" d="M40.42 27.51h-2.05v-9.08a8.91 8.91 0 0 0-8.13-8.85c0-1.33-.11-4.52-4.81-4.52-2.19 0-4.79.79-4.81 4.56a8.91 8.91 0 0 0-7.73 8.81v9.08h-2.05c-.46 0-.83.16-.83 1V39.4c0 .86.37 1 .83 1h2.05v3.63A2.15 2.15 0 0 0 15 46.2h21.22a2.16 2.16 0 0 0 2.15-2.15v-3.63h2.05c.46 0 .83-.16.83-1V28.53c0-.86-.37-1.02-.83-1.02Zm-15-20.84c2.88 0 3.18 1.24 3.19 2.87h-6.38c.03-1.44.46-2.87 3.2-2.87Zm2.74 11L26 19.93a.46.46 0 0 1-.65 0l-2.22-2.22a.46.46 0 0 1 0-.65l2.22-2.22a.46.46 0 0 1 .65 0l2.22 2.22a.46.46 0 0 1-.05.65Zm5.26 22.58c0 .45-.17.82-1 .82H18.85c-.86 0-1-.37-1-.82V31h15.6Zm0-10.52H17.83v-2.08c0-.46.16-.83 1-.83h13.58c.85 0 1 .37 1 .83Z"/>
</svg>
