<svg xmlns="http://www.w3.org/2000/svg" viewBox="0 0 51.26 51.26"><defs><style>.cls-1{fill:#ececed;}.cls-2{fill:#fff;}</style></defs><g id="Layer_2" data-name="Layer 2"><path class="cls-1" d="M32.93,28.4a7.38,7.38,0,0,1-14.6,0H8.85V42.46H42.4V28.4Z"/><path class="cls-2" d="M22.16,18.82V26a.45.45,0,0,0,.45.45h6.56a.45.45,0,0,0,.45-.45V18.82a.45.45,0,0,1,.45-.45h2.81a.45.45,0,0,0,.34-.73l-3.49-4.18L26,9a.46.46,0,0,0-.69,0l-3.75,4.51L18,17.64a.44.44,0,0,0,.34.73h3.34A.45.45,0,0,1,22.16,18.82Z"/></g></svg>