<svg xmlns="http://www.w3.org/2000/svg" viewBox="0 0 51.26 51.26"><defs><style>.cls-1{fill:#fff;}</style></defs><g id="Layer_2" data-name="Layer 2"><path class="cls-1" d="M42.4,27.58H32.93a.63.63,0,0,0-.62.53,6.75,6.75,0,0,1-13.36,0,.63.63,0,0,0-.62-.53H8.85a.62.62,0,0,0-.62.62V42.27a.62.62,0,0,0,.62.62H42.4a.63.63,0,0,0,.63-.62V28.2A.63.63,0,0,0,42.4,27.58Zm-.62,14.06H9.48V28.83h8.33a8,8,0,0,0,15.64,0h8.33Z"/><path class="cls-1" d="M17.43,18.8h4.11v7.46a.63.63,0,0,0,.62.63h7.46a.63.63,0,0,0,.62-.63V18.8h3.59a.64.64,0,0,0,.57-.36.61.61,0,0,0-.09-.66l-8.2-9.84a.65.65,0,0,0-1,0L17,17.78a.61.61,0,0,0-.09.66A.62.62,0,0,0,17.43,18.8Zm8.2-9.48,6.87,8.23H29.62a.63.63,0,0,0-.63.63v7.46h-6.2V18.18a.63.63,0,0,0-.63-.63h-3.4Z"/></g></svg>