<svg xmlns="http://www.w3.org/2000/svg" viewBox="0 0 51.26 51.26"><defs><style>.cls-1{fill:#fff;}</style></defs><g id="Layer_2" data-name="Layer 2"><path class="cls-1" d="M47.29,29.18a15.3,15.3,0,0,0-12.61-6.75,8.54,8.54,0,0,0-.09-17.07,9.07,9.07,0,0,0-7.12,3.83A8.57,8.57,0,0,0,25.63,9a8.39,8.39,0,0,0-1.82.2,9.36,9.36,0,0,0-7.15-3.83,8.54,8.54,0,0,0-.08,17.07A15.3,15.3,0,0,0,4,29.18a5.33,5.33,0,0,0-.93,3v5.64A3.37,3.37,0,0,0,6.4,41.2H12v.7a3.36,3.36,0,0,0,3.36,3.36H35.89a3.37,3.37,0,0,0,3.36-3.36v-.7h5.61a3.37,3.37,0,0,0,3.36-3.36V32.2A5.33,5.33,0,0,0,47.29,29.18Zm-14.53-7a8.24,8.24,0,0,0,1.77.22,15.19,15.19,0,0,0-2.09.22C32.55,22.51,32.66,22.36,32.76,22.21Zm1.83-15.6a7.29,7.29,0,0,1,0,14.58,7.19,7.19,0,0,1-1.21-.12,8.42,8.42,0,0,0,.78-3.55,8.55,8.55,0,0,0-5.42-7.94A7.79,7.79,0,0,1,34.59,6.61ZM32.91,17.52a7.29,7.29,0,1,1-7.28-7.28A7.29,7.29,0,0,1,32.91,17.52ZM18.79,22.61a17.6,17.6,0,0,0-2.06-.18,8.24,8.24,0,0,0,1.77-.22C18.59,22.35,18.69,22.48,18.79,22.61ZM9.38,13.9a7.29,7.29,0,0,1,7.28-7.29,8.1,8.1,0,0,1,5.87,3,8.5,8.5,0,0,0-4.66,11.49,7.09,7.09,0,0,1-1.21.12A7.29,7.29,0,0,1,9.38,13.9ZM6.4,40a2.12,2.12,0,0,1-2.11-2.11V32.2A4.17,4.17,0,0,1,5,29.88a14.08,14.08,0,0,1,11.66-6.2,21,21,0,0,1,3.57.45A8.49,8.49,0,0,0,25,26v.48a15.32,15.32,0,0,0-12.07,6.73,5.42,5.42,0,0,0-.92,3V40ZM38,41.9A2.12,2.12,0,0,1,35.89,44H15.37a2.11,2.11,0,0,1-2.11-2.11V36.26A4.09,4.09,0,0,1,14,33.94a14.06,14.06,0,0,1,23.32,0A4.17,4.17,0,0,1,38,36.26Zm9-4.06A2.12,2.12,0,0,1,44.86,40H39.25V36.26a5.35,5.35,0,0,0-.93-3,15.31,15.31,0,0,0-12.07-6.73V26a8.48,8.48,0,0,0,4.66-1.82,21.83,21.83,0,0,1,3.68-.53,14.06,14.06,0,0,1,11.66,6.2A4.1,4.1,0,0,1,47,32.2Z"/></g></svg>