<svg xmlns="http://www.w3.org/2000/svg" viewBox="0 0 51.26 51.26">
  <g fill="#FFFFFF">
    <circle cx="25.63" cy="17.96" r="7.91"/>
    <path d="M25.63 27.11a14.67 14.67 0 0 0-12.18 6.48 4.8 4.8 0 0 0-.82 2.67v5.64a2.74 2.74 0 0 0 2.74 2.73h20.52a2.74 2.74 0 0 0 2.74-2.73v-5.64a4.73 4.73 0 0 0-.83-2.67 14.65 14.65 0 0 0-12.17-6.48ZM14.66 21.81a7.88 7.88 0 0 0 2.13-.3 9.48 9.48 0 0 1 4.45-12 7.91 7.91 0 1 0-6.58 12.31ZM35.16 18a9.51 9.51 0 0 1-.69 3.55 7.81 7.81 0 0 0 2.12.3A7.91 7.91 0 1 0 30 9.5a9.55 9.55 0 0 1 5.16 8.5Z"/>
    <path d="M48.77 29.53a14.67 14.67 0 0 0-12.18-6.48 14.37 14.37 0 0 0-3.16.35 9.8 9.8 0 0 1-3 2.81 16.28 16.28 0 0 1 8.75 6.47 6.35 6.35 0 0 1 1.1 3.58v4.31h6.61a2.73 2.73 0 0 0 2.73-2.73V32.2a4.72 4.72 0 0 0-.85-2.67ZM20.86 26.21a9.69 9.69 0 0 1-3-2.81 14.39 14.39 0 0 0-3.17-.35 14.65 14.65 0 0 0-12.2 6.48 4.73 4.73 0 0 0-.83 2.67v5.64a2.74 2.74 0 0 0 2.74 2.73H11v-4.31a6.42 6.42 0 0 1 1.09-3.58 16.3 16.3 0 0 1 8.77-6.47Z"/>
  </g>
</svg>
