<svg xmlns="http://www.w3.org/2000/svg" viewBox="0 0 51.26 51.26"><defs><style>.cls-1{fill:#ececed;}.cls-2{fill:#fff;}</style></defs><g id="Layer_2" data-name="Layer 2"><path class="cls-1" d="M33.54,17.84a7.82,7.82,0,0,1-1.09,4h0a7.81,7.81,0,0,0,2.12.3,7.91,7.91,0,1,0,0-15.82,8.47,8.47,0,0,0-6.76,3.77l-.14.13A7.9,7.9,0,0,1,33.54,17.84Z"/><path class="cls-1" d="M16.66,22.13a7.88,7.88,0,0,0,2.13-.3h0a7.91,7.91,0,0,1,4.76-11.62h0a8.85,8.85,0,0,0-6.9-3.89,7.91,7.91,0,0,0,0,15.82Z"/><path class="cls-1" d="M46.77,29.84a14.69,14.69,0,0,0-12.18-6.47,22.31,22.31,0,0,0-3.93.58,7.92,7.92,0,0,1-10.15-.08h0a21.12,21.12,0,0,0-3.84-.5A14.67,14.67,0,0,0,4.49,29.84a4.76,4.76,0,0,0-.83,2.68v5.64A2.74,2.74,0,0,0,6.4,40.89h6.23V36.58a4.8,4.8,0,0,1,.82-2.67,14.68,14.68,0,0,1,24.35,0,4.73,4.73,0,0,1,.83,2.67v4.31h6.23a2.73,2.73,0,0,0,2.73-2.73V32.52A4.75,4.75,0,0,0,46.77,29.84Z"/><path class="cls-2" d="M20.51,23.87A7.92,7.92,0,0,0,30.66,24a8.08,8.08,0,0,0,1.79-2.12,7.82,7.82,0,0,0,1.09-4,7.9,7.9,0,0,0-5.85-7.63,7.75,7.75,0,0,0-4.13,0A7.91,7.91,0,0,0,18.8,21.83,8.18,8.18,0,0,0,20.51,23.87Z"/><path class="cls-2" d="M37.8,33.91a14.68,14.68,0,0,0-24.35,0,4.8,4.8,0,0,0-.82,2.67v5.64A2.73,2.73,0,0,0,15.36,45H35.89a2.74,2.74,0,0,0,2.74-2.73V36.58A4.73,4.73,0,0,0,37.8,33.91Z"/></g></svg>