<svg xmlns="http://www.w3.org/2000/svg" viewBox="0 0 51.26 51.26">
  <path fill="#FFFFFF" d="m26.03,25.93c-1.99.11-2.64,1.07-2.6,1.94.06,1.16,1.32,1.7,2.52,1.63,1.18-.06,2.52-.53,2.75-3.39-.61-.13-1.29-.2-2.01-.2-.22,0-.44,0-.67.02Z"/>
  <path fill="#FFFFFF" d="m25.63,6.6C15.11,6.6,6.6,15.13,6.6,25.63s8.53,19.03,19.03,19.03,19.03-8.53,19.03-19.03S36.13,6.6,25.63,6.6Zm-5.77,25.66c1.3,1.65,3.29,2.49,5.93,2.51,2.38-.02,3.95-.58,5.26-1.89,1.49-1.49,1.47-3.32.99-4.44-.28-.66-.79-1.2-1.48-1.62-.17,1.25-.55,2.24-1.14,3-.79,1.01-1.92,1.55-3.36,1.63-1.09.06-2.14-.2-2.96-.74-.96-.64-1.53-1.61-1.59-2.74-.12-2.23,1.65-3.84,4.41-4,.98-.06,1.89-.01,2.74.13-.11-.69-.34-1.23-.68-1.62-.47-.54-1.19-.82-2.14-.82,0,0-.02,0-.03,0-.77,0-1.81.21-2.47,1.22l-1.59-1.09c.89-1.35,2.33-2.09,4.06-2.09h.04c2.9.02,4.62,1.83,4.79,4.98.1.04.2.09.29.13,1.35.65,2.34,1.63,2.86,2.84.72,1.69.79,4.43-1.4,6.62-1.68,1.67-3.71,2.43-6.6,2.45h-.01c-3.25-.02-5.74-1.12-7.42-3.25-1.49-1.9-2.26-4.54-2.29-7.85h0s0-.02,0-.02c.03-3.31.8-5.95,2.29-7.85,1.68-2.13,4.17-3.22,7.42-3.25h.01c3.25.02,5.78,1.11,7.5,3.23.85,1.05,1.48,2.31,1.88,3.78l-1.87.5c-.33-1.19-.83-2.21-1.49-3.03-1.35-1.66-3.38-2.51-6.03-2.53-2.64.02-4.63.87-5.93,2.51-1.21,1.54-1.84,3.77-1.87,6.63.02,2.85.65,5.08,1.87,6.63Z"/>
</svg>