<svg xmlns="http://www.w3.org/2000/svg" viewBox="0 0 51.26 51.26">
  <path fill="#FFFFFF" d="m32.56,24.57c-.12-.06-.25-.12-.38-.17-.22-4.12-2.48-6.48-6.26-6.51-.02,0-.03,0-.05,0-2.26,0-4.14.97-5.3,2.72l2.08,1.43c.86-1.31,2.22-1.59,3.22-1.59.01,0,.02,0,.03,0,1.25,0,2.18.37,2.79,1.08.44.51.74,1.22.89,2.12-1.1-.19-2.3-.25-3.57-.17-3.6.21-5.91,2.3-5.75,5.22.08,1.48.82,2.75,2.07,3.58,1.06.7,2.43,1.05,3.86.97,1.88-.1,3.36-.82,4.38-2.13.78-1,1.28-2.29,1.49-3.91.9.54,1.56,1.25,1.93,2.11.62,1.45.66,3.84-1.29,5.79-1.71,1.71-3.76,2.45-6.87,2.47-3.44-.03-6.05-1.13-7.74-3.28-1.59-2.02-2.4-4.93-2.43-8.65.03-3.73.85-6.64,2.43-8.65,1.69-2.15,4.3-3.26,7.74-3.28,3.47.03,6.12,1.14,7.87,3.3.86,1.06,1.51,2.39,1.94,3.95l2.44-.65c-.52-1.91-1.34-3.56-2.45-4.93-2.25-2.77-5.55-4.19-9.79-4.22h-.02c-4.24.03-7.5,1.46-9.69,4.24-1.95,2.48-2.95,5.92-2.99,10.24h0s0,.02,0,.02c.03,4.32,1.04,7.76,2.99,10.24,2.19,2.78,5.45,4.21,9.69,4.24h.02c3.77-.03,6.42-1.01,8.61-3.2,2.86-2.86,2.78-6.44,1.83-8.64-.68-1.58-1.97-2.86-3.73-3.71Zm-6.5,6.12c-1.58.09-3.21-.62-3.29-2.13-.06-1.12.8-2.38,3.39-2.53.3-.02.59-.03.87-.03.94,0,1.82.09,2.62.27-.3,3.73-2.05,4.33-3.59,4.42Z"/>
</svg>