<svg xmlns="http://www.w3.org/2000/svg" viewBox="0 0 51.26 51.26"><defs><style>.cls-1{fill:#fff;}</style></defs><g id="Layer_2" data-name="Layer 2"><path class="cls-1" d="M29.59,30.87l-.29,1.72,1.54-.81a.64.64,0,0,1,.58,0l1.54.81-.3-1.72a.65.65,0,0,1,.18-.55l1.25-1.22-1.72-.25a.59.59,0,0,1-.47-.34L31.13,27l-.77,1.56a.59.59,0,0,1-.47.34l-1.72.25,1.24,1.22A.6.6,0,0,1,29.59,30.87Z"/><path class="cls-1" d="M46.38,29.46V22.8H16.74a.6.6,0,0,1-.18.44.63.63,0,0,1-1.07-.44H8.79v6.66a2.22,2.22,0,0,1,0,4.43v6.65H15.5a.67.67,0,0,1,0-.24.7.7,0,0,1,.34-.34.66.66,0,0,1,.48,0,.56.56,0,0,1,.2.14.48.48,0,0,1,.14.2.69.69,0,0,1,.05.24H46.38V33.89a2.22,2.22,0,0,1,0-4.43Zm-20.15-1a.62.62,0,0,1,.5-.42l2.65-.38,1.19-2.41a.66.66,0,0,1,1.12,0l1.18,2.41,2.65.38a.63.63,0,0,1,.51.42.65.65,0,0,1-.16.65L34,31l.46,2.64a.65.65,0,0,1-.25.62.7.7,0,0,1-.37.11.59.59,0,0,1-.29-.07L31.13,33l-2.37,1.24a.63.63,0,0,1-.66,0,.65.65,0,0,1-.25-.62L28.3,31l-1.91-1.86A.63.63,0,0,1,26.23,28.47ZM16.12,39.19a.63.63,0,1,1,0-1.25.63.63,0,1,1,0,1.25Zm0-2a.63.63,0,1,1,.63-.63A.63.63,0,0,1,16.12,37.22Zm0-2a.63.63,0,1,1,0-1.25.63.63,0,1,1,0,1.25Zm0-2a.63.63,0,1,1,.63-.63A.63.63,0,0,1,16.12,33.28Zm0-2a.63.63,0,1,1,.63-.63A.63.63,0,0,1,16.12,31.31Zm0-2a.63.63,0,1,1,.63-.63A.63.63,0,0,1,16.12,29.34Zm0-2a.63.63,0,1,1,.63-.63A.63.63,0,0,1,16.12,27.37Zm0-2a.63.63,0,1,1,.63-.63A.63.63,0,0,1,16.12,25.4ZM39.54,38H22.71a.63.63,0,0,1,0-1.25H39.54a.63.63,0,1,1,0,1.25Z"/><path class="cls-1" d="M14.85,21.38a.57.57,0,0,1,.24.19H29.56l1.22-1.1a.65.65,0,0,1,1,.42l.05.68h8.24L18.86,13a.61.61,0,0,1-.33.34.58.58,0,0,1-.48,0,.6.6,0,0,1-.34-.34.59.59,0,0,1,0-.47l-6.22-2.5L9,16.25a2.22,2.22,0,0,1-1.65,4.12L4.87,26.54l2.67,1.07v-6h6.59A.61.61,0,0,1,14.85,21.38Zm2.12-7a.62.62,0,0,1,.81-.34.64.64,0,0,1,.36.81.63.63,0,0,1-.82.35A.61.61,0,0,1,17,14.4Zm-.74,1.83a.63.63,0,0,1,1.17.47.63.63,0,1,1-1.17-.47Zm-.73,1.83a.61.61,0,0,1,.81-.34.62.62,0,1,1-.46,1.16A.63.63,0,0,1,15.5,18.06Zm-.74,1.83a.64.64,0,0,1,1.18.47.65.65,0,0,1-.82.35A.63.63,0,0,1,14.76,19.89Z"/></g></svg>