<svg xmlns="http://www.w3.org/2000/svg" viewBox="0 0 51.26 51.26">
  <g fill="#FFFFFF">
    <path d="m29.59 30.87-.29 1.72 1.54-.81a.64.64 0 0 1 .58 0l1.54.81-.3-1.72a.65.65 0 0 1 .18-.55l1.25-1.22-1.72-.25a.59.59 0 0 1-.47-.34L31.13 27l-.77 1.56a.59.59 0 0 1-.47.34l-1.72.25 1.24 1.22a.6.6 0 0 1 .18.5Z"/>
    <path d="M46.38 29.46V22.8H16.74a.6.6 0 0 1-.18.44.63.63 0 0 1-1.07-.44h-6.7v6.66a2.22 2.22 0 0 1 0 4.43v6.65h6.71a.67.67 0 0 1 0-.24.7.7 0 0 1 .34-.34.66.66 0 0 1 .48 0 .56.56 0 0 1 .2.14.48.48 0 0 1 .14.2.69.69 0 0 1 .05.24h29.67v-6.65a2.22 2.22 0 0 1 0-4.43Zm-20.15-1a.62.62 0 0 1 .5-.42l2.65-.38 1.19-2.41a.66.66 0 0 1 1.12 0l1.18 2.41 2.65.38a.63.63 0 0 1 .51.42.65.65 0 0 1-.16.65L34 31l.46 2.64a.65.65 0 0 1-.25.62.7.7 0 0 1-.37.11.59.59 0 0 1-.29-.07L31.13 33l-2.37 1.24a.63.63 0 0 1-.66 0 .65.65 0 0 1-.25-.62L28.3 31l-1.91-1.86a.63.63 0 0 1-.16-.67ZM16.12 39.19a.63.63 0 1 1 0-1.25.63.63 0 1 1 0 1.25Zm0-2a.63.63 0 1 1 .63-.63.63.63 0 0 1-.63.66Zm0-2a.63.63 0 1 1 0-1.25.63.63 0 1 1 0 1.25Zm0-2a.63.63 0 1 1 .63-.63.63.63 0 0 1-.63.72Zm0-2a.63.63 0 1 1 .63-.63.63.63 0 0 1-.63.75Zm0-2a.63.63 0 1 1 .63-.63.63.63 0 0 1-.63.78Zm0-2a.63.63 0 1 1 .63-.63.63.63 0 0 1-.63.81Zm0-2a.63.63 0 1 1 .63-.63.63.63 0 0 1-.63.84ZM39.54 38H22.71a.63.63 0 0 1 0-1.25h16.83a.63.63 0 1 1 0 1.25Z"/>
    <path d="M14.85 21.38a.57.57 0 0 1 .24.19h14.47l1.22-1.1a.65.65 0 0 1 1 .42l.05.68h8.24L18.86 13a.61.61 0 0 1-.33.34.58.58 0 0 1-.48 0 .6.6 0 0 1-.34-.34.59.59 0 0 1 0-.47l-6.22-2.5L9 16.25a2.22 2.22 0 0 1-1.65 4.12l-2.48 6.17 2.67 1.07v-6h6.59a.61.61 0 0 1 .72-.23Zm2.12-7a.62.62 0 0 1 .81-.34.64.64 0 0 1 .36.81.63.63 0 0 1-.82.35.61.61 0 0 1-.32-.8Zm-.74 1.83a.63.63 0 0 1 1.17.47.63.63 0 1 1-1.17-.47Zm-.73 1.83a.61.61 0 0 1 .81-.34.62.62 0 1 1-.46 1.16.63.63 0 0 1-.35-.8Zm-.74 1.83a.64.64 0 0 1 1.18.47.65.65 0 0 1-.82.35.63.63 0 0 1-.36-.8Z"/>
  </g>
</svg>
