<svg xmlns="http://www.w3.org/2000/svg" viewBox="0 0 51.26 51.26">
  <g fill="#FFFFFF">
    <path d="M46.37,30a.63.63,0,0,0,.63-.62V22.74a.63.63,0,0,0-.63-.63h-3L11.64,9.57a.62.62,0,0,0-.81.35L8.38,16.1a.66.66,0,0,0,0,.48.63.63,0,0,0,.35.33A1.6,1.6,0,0,1,9.63,19a1.55,1.55,0,0,1-.85.87,1.57,1.57,0,0,1-1.22,0,.64.64,0,0,0-.47,0,.63.63,0,0,0-.34.34L4.31,26.41a.62.62,0,0,0,0,.48.63.63,0,0,0,.35.33L8.15,28.6v.79a.62.62,0,0,0,.62.62,1.6,1.6,0,1,1,0,3.19.62.62,0,0,0-.62.62v6.65a.63.63,0,0,0,.62.63h37.6a.63.63,0,0,0,.63-.63V33.82a.63.63,0,0,0-.63-.62,1.6,1.6,0,0,1,0-3.19ZM5.7,26.29l2-5.09a2.85,2.85,0,0,0,3.05-3.94,2.79,2.79,0,0,0-1-1.21l2-5.09L18,13.41a.78.78,0,0,0,0,.22.61.61,0,0,0,.19.44.56.56,0,0,0,.2.14.6.6,0,0,0,.24,0,.63.63,0,0,0,.44-.19.69.69,0,0,0,.13-.2L40,22.11H29.76l-.1-1.84a.63.63,0,0,0-1-.44l-2,1.75L24,20.89a.63.63,0,0,0-.63.2.64.64,0,0,0-.1.65l.15.37H8.77a.63.63,0,0,0-.62.63v4.52Zm22.81-4.18h-.62l.59-.51ZM45.75,34.38v5.47H9.4V34.38a2.84,2.84,0,0,0,0-5.55V23.36H45.75v5.47a2.84,2.84,0,0,0,0,5.55Z"/>
    <path d="M16.11,35.91a.63.63,0,0,0,0,1.25.63.63,0,1,0,0-1.25Z"/>
    <path d="M16.11,33.94a.63.63,0,0,0,0,1.25.63.63,0,1,0,0-1.25Z"/>
    <path d="M16.11,37.88a.63.63,0,0,0,0,1.25.63.63,0,1,0,0-1.25Z"/>
    <path d="M16.11,24.09a.63.63,0,0,0,0,1.25.63.63,0,1,0,0-1.25Z"/>
    <path d="M16.11,32a.63.63,0,0,0,0,1.25.63.63,0,1,0,0-1.25Z"/>
    <path d="M16.11,28a.63.63,0,0,0,0,1.25.63.63,0,1,0,0-1.25Z"/>
    <path d="M16.11,26.06a.61.61,0,0,0-.62.62.62.62,0,0,0,.62.63.63.63,0,0,0,.63-.63A.62.62,0,0,0,16.11,26.06Z"/>
    <path d="M16.11,30a.63.63,0,0,0,0,1.25.63.63,0,1,0,0-1.25Z"/>
    <path d="M15.8,19.66a.58.58,0,0,0,.26.06.63.63,0,1,0-.26-.06Z"/>
    <path d="M15,21.49a.6.6,0,0,0,.26.05.61.61,0,0,0,.57-.36.63.63,0,1,0-.83.31Z"/>
    <path d="M16.63,17.84a.58.58,0,0,0,.26.06.63.63,0,0,0,.57-.37.62.62,0,0,0-.31-.82.61.61,0,0,0-.83.31A.62.62,0,0,0,16.63,17.84Z"/>
    <path d="M17.46,16a.58.58,0,0,0,.26.06.63.63,0,0,0,.57-.37.62.62,0,0,0-.31-.82.61.61,0,0,0-.83.31A.62.62,0,0,0,17.46,16Z"/>
    <path d="M28.29,30.92l-.45,2.64a.61.61,0,0,0,.25.61.63.63,0,0,0,.66,0L31.12,33l2.37,1.25a.73.73,0,0,0,.29.07.58.58,0,0,0,.36-.12.61.61,0,0,0,.25-.61l-.45-2.64,1.92-1.87A.63.63,0,0,0,35.51,28l-2.65-.38-1.18-2.4a.66.66,0,0,0-1.13,0l-1.18,2.4L26.72,28a.63.63,0,0,0-.35,1.07Zm1.58-2.13a.65.65,0,0,0,.48-.34l.77-1.57.77,1.57a.62.62,0,0,0,.47.34l1.72.25-1.25,1.21a.63.63,0,0,0-.18.55l.3,1.72-1.54-.81a.62.62,0,0,0-.29-.07.63.63,0,0,0-.3.07l-1.54.81.3-1.72a.63.63,0,0,0-.18-.55L28.15,29Z"/>
    <path d="M39.53,36.63H22.7a.63.63,0,0,0,0,1.25H39.53a.63.63,0,1,0,0-1.25Z"/>
  </g>
</svg>