<svg xmlns="http://www.w3.org/2000/svg" viewBox="0 0 51.26 51.26"><defs><style>.cls-1{fill:none;}.cls-2{fill:#ececed;}.cls-3{fill:#fff;}</style></defs><g id="Layer_2" data-name="Layer 2"><path class="cls-1" d="M16.46,19.84a.64.64,0,0,0,.82-.35A.63.63,0,0,0,16.11,19,.63.63,0,0,0,16.46,19.84Z"/><path class="cls-1" d="M17.2,18a.62.62,0,1,0-.36-.82A.63.63,0,0,0,17.2,18Z"/><path class="cls-1" d="M17.93,16.18a.63.63,0,0,0,.82-.35.64.64,0,0,0-.36-.81.62.62,0,1,0-.46,1.16Z"/><path class="cls-1" d="M15.73,21.67a.65.65,0,0,0,.82-.35.63.63,0,0,0-.36-.81.61.61,0,0,0-.81.34A.63.63,0,0,0,15.73,21.67Z"/><path class="cls-1" d="M15.46,22.33a.63.63,0,0,0-.67.15h.09s0,0,0,0h.81A.65.65,0,0,0,15.46,22.33Z"/><path class="cls-1" d="M32.43,21.85a.65.65,0,0,0-1-.42l-1.17,1.05h2.26Z"/><polygon class="cls-2" points="30.22 22.48 30.17 22.52 32.48 22.52 32.48 22.48 30.22 22.48"/><path class="cls-2" d="M14.79,22.48a.1.1,0,0,1,0,0h.15s0,0,0,0Z"/><path class="cls-2" d="M29,30.55l-.3,1.71,1.54-.81a.64.64,0,0,1,.58,0l1.54.81-.29-1.71a.6.6,0,0,1,.18-.55l1.24-1.22-1.72-.25a.64.64,0,0,1-.47-.34l-.77-1.56-.77,1.56a.64.64,0,0,1-.47.34l-1.72.25L28.81,30A.65.65,0,0,1,29,30.55Z"/><path class="cls-2" d="M45.78,29.13V22.48H40.61l.11,0H16.13a.6.6,0,0,1-.18.4.6.6,0,0,1-.88,0,.7.7,0,0,1-.18-.4H8.18v6.61a2.22,2.22,0,0,1,0,4.44v6.65H14.9a.66.66,0,0,1,0-.24.7.7,0,0,1,.34-.34.66.66,0,0,1,.48,0,.56.56,0,0,1,.2.14.48.48,0,0,1,.14.2.69.69,0,0,1,.05.24H45.78V33.57a2.22,2.22,0,0,1,0-4.44Zm-20.16-1a.63.63,0,0,1,.51-.42l2.65-.39L30,24.94a.65.65,0,0,1,1.12,0l1.19,2.4,2.65.39a.62.62,0,0,1,.5.42.61.61,0,0,1-.16.64l-1.91,1.87.45,2.64a.63.63,0,0,1-.62.73.59.59,0,0,1-.29-.07l-2.37-1.25L28.15,34a.63.63,0,0,1-.91-.66l.46-2.64-1.92-1.87A.63.63,0,0,1,25.62,28.15ZM15.51,38.87a.63.63,0,1,1,0-1.25.63.63,0,1,1,0,1.25Zm0-2a.63.63,0,1,1,.63-.63A.63.63,0,0,1,15.51,36.9Zm0-2a.63.63,0,1,1,0-1.25.63.63,0,1,1,0,1.25Zm0-2a.63.63,0,1,1,.63-.63A.63.63,0,0,1,15.51,33Zm0-2a.63.63,0,1,1,.63-.63A.63.63,0,0,1,15.51,31Zm0-2a.63.63,0,1,1,.63-.63A.63.63,0,0,1,15.51,29Zm0-2a.63.63,0,1,1,.63-.63A.63.63,0,0,1,15.51,27.05Zm0-2a.63.63,0,1,1,.63-.63A.63.63,0,0,1,15.51,25.08ZM38.94,37.63H22.11a.63.63,0,1,1,0-1.25H38.94a.63.63,0,0,1,0,1.25Z"/><path class="cls-3" d="M14.74,22.52a.1.1,0,0,0,0,0H8.18v0h6.56Z"/><path class="cls-3" d="M35.42,28.15a.63.63,0,0,0-.51-.42l-2.65-.39-1.18-2.4a.66.66,0,0,0-1.13,0l-1.18,2.4-2.65.39a.62.62,0,0,0-.35,1.06l1.92,1.87-.45,2.64a.61.61,0,0,0,.25.61.63.63,0,0,0,.66.05l2.37-1.25L32.89,34a.59.59,0,0,0,.29.07.58.58,0,0,0,.36-.12.61.61,0,0,0,.25-.61l-.45-2.64,1.92-1.87A.63.63,0,0,0,35.42,28.15ZM32.23,30a.62.62,0,0,0-.18.55l.3,1.71-1.54-.81a.77.77,0,0,0-.29-.07.82.82,0,0,0-.3.07l-1.54.81.3-1.71A.62.62,0,0,0,28.8,30l-1.25-1.22,1.72-.25a.65.65,0,0,0,.48-.34l.77-1.56.76,1.56a.65.65,0,0,0,.48.34l1.72.25Z"/><path class="cls-3" d="M16,39.78a.56.56,0,0,0-.2-.14.66.66,0,0,0-.48,0,.7.7,0,0,0-.34.34.67.67,0,0,0,0,.24h1.25a.69.69,0,0,0-.05-.24A.48.48,0,0,0,16,39.78Z"/><path class="cls-3" d="M15.51,37.62a.63.63,0,1,0,.63.63A.63.63,0,0,0,15.51,37.62Z"/><path class="cls-3" d="M15.51,29.74a.63.63,0,1,0,0,1.25.63.63,0,1,0,0-1.25Z"/><path class="cls-3" d="M15.51,35.65a.63.63,0,1,0,0,1.25.63.63,0,1,0,0-1.25Z"/><path class="cls-3" d="M15.51,27.77a.63.63,0,1,0,0,1.25.63.63,0,1,0,0-1.25Z"/><path class="cls-3" d="M15.51,25.8a.63.63,0,1,0,0,1.25.63.63,0,1,0,0-1.25Z"/><path class="cls-3" d="M38.93,36.38H22.1a.63.63,0,0,0,0,1.25H38.93a.63.63,0,1,0,0-1.25Z"/><path class="cls-3" d="M15.51,23.83a.63.63,0,1,0,0,1.25.63.63,0,1,0,0-1.25Z"/><path class="cls-3" d="M15.51,31.71a.63.63,0,1,0,0,1.25.63.63,0,1,0,0-1.25Z"/><path class="cls-3" d="M15.51,33.68a.63.63,0,1,0,.63.63A.63.63,0,0,0,15.51,33.68Z"/><path class="cls-3" d="M15.45,22.33a.79.79,0,0,1,.25.19h.42s0,0,0,0h0v0h14l0,0h0l1.17-1.05a.65.65,0,0,1,1,.42l0,.63h0v0h8.24l-.11,0h0L19.46,14a.58.58,0,0,1-.33.34.55.55,0,0,1-.47,0,.57.57,0,0,1-.34-.34.61.61,0,0,1,0-.48L12.08,11,9.61,17.21A2.22,2.22,0,0,1,8,21.33L5.48,27.5l2.66,1.07V22.52h0v0h6.61A.63.63,0,0,1,15.45,22.33Zm2.12-7a.63.63,0,0,1,1.17.47.63.63,0,0,1-1.17-.47Zm-.73,1.83a.61.61,0,0,1,.81-.34A.62.62,0,1,1,17.19,18,.63.63,0,0,1,16.84,17.19ZM16.1,19a.63.63,0,0,1,.82-.34.62.62,0,0,1,.35.81A.63.63,0,0,1,16.1,19Zm-.73,1.83a.63.63,0,0,1,1.17.47.64.64,0,0,1-.82.35A.63.63,0,0,1,15.37,20.85Z"/></g></svg>