<?xml version="1.0" encoding="UTF-8"?>
<svg id="Layer_2" data-name="Layer 2" xmlns="http://www.w3.org/2000/svg" viewBox="0 0 51.26 51.26">
  <defs>
    <style>
      .cls-1 {
        fill: #fff;
      }

      .cls-2 {
        fill: #707372;
      }
    </style>
  </defs>
  <path class="cls-2" d="m26.19,7.7c-10.52,0-19.03,8.53-19.03,19.03s8.53,19.03,19.03,19.03,19.03-8.53,19.03-19.03S36.69,7.7,26.19,7.7Zm9.27,17.11s-1.29-.06-2.25-.31c-1.33-.36-2.19-.91-2.19-.91,0,0-.59-.39-.64-.42v7.55c0,.42-.11,1.47-.44,2.34-.29.75-.71,1.45-1.23,2.05,0,0-.81,1.02-2.26,1.7-1.29.62-2.44.6-2.78.62,0,0-1.97.08-3.75-1.13h0c-.6-.42-1.13-.93-1.59-1.5-.56-.72-.91-1.56-.99-1.83-.14-.43-.44-1.45-.4-2.44.06-1.74.65-2.81.81-3.09.4-.74.94-1.39,1.57-1.94,1.46-1.23,3.37-1.79,5.26-1.54v3.75c-.31-.1-.64-.15-.96-.15-1.71,0-3.1,1.4-3.1,3.12s1.39,3.12,3.1,3.12c.53,0,1.05-.14,1.52-.4.91-.51,1.49-1.45,1.57-2.49v-.09c0-.18,0-.38,0-.57v-14.22h3.68s-.04.35.04.9c.11.65.42,1.6,1.22,2.52.33.35.69.65,1.08.92.14.09.28.17.42.25h0v-.02c.94.47,1.86.61,2.31.56v3.65Z"/>
  <path class="cls-1" d="m33.15,20.61c-.14-.08-.28-.16-.42-.25-.4-.26-.76-.57-1.08-.92-.81-.92-1.11-1.86-1.22-2.52h0c-.09-.55-.05-.9-.04-.9h-3.68v14.22c0,.19,0,.38,0,.57v.09h0c-.08,1.04-.67,1.98-1.57,2.49-.47.26-.99.4-1.52.4-1.71,0-3.1-1.4-3.1-3.12s1.39-3.12,3.1-3.12c.32,0,.64.05.96.15v-3.75c-1.89-.25-3.8.31-5.26,1.54-.64.55-1.17,1.2-1.57,1.94-.16.27-.74,1.34-.81,3.09-.04.99.25,2.01.4,2.44h0c.09.26.43,1.11.99,1.83.46.58.99,1.08,1.59,1.5h0c1.78,1.22,3.75,1.13,3.75,1.13.35-.01,1.49,0,2.78-.62,1.45-.68,2.26-1.7,2.26-1.7.52-.6.94-1.3,1.23-2.05.33-.88.44-1.93.44-2.34v-7.55s.64.42.64.42c0,0,.86.55,2.19.91.96.25,2.25.31,2.25.31v-3.65c-.45.05-1.37-.09-2.31-.56h0v.02Z"/>
</svg>