<svg xmlns="http://www.w3.org/2000/svg" viewBox="0 0 51.26 51.26">
  <path fill="#FFFFFF" d="m34.7,17.65c-.19-.1-.37-.21-.55-.32-.52-.34-.98-.74-1.41-1.2-1.05-1.2-1.44-2.43-1.59-3.28h0c-.11-.71-.07-1.17-.06-1.17h-4.79v18.53c0,.25,0,.5,0,.74v.12h0c-.11,1.35-.87,2.58-2.05,3.24-.61.34-1.29.53-1.98.53-2.23,0-4.04-1.82-4.04-4.07s1.81-4.07,4.04-4.07c.42,0,.84.07,1.25.2v-4.88c-2.46-.32-4.95.41-6.85,2.01-.83.72-1.53,1.57-2.05,2.53-.21.35-.97,1.75-1.05,4.02-.06,1.29.33,2.63.52,3.18h0c.11.34.57,1.44,1.3,2.38.6.76,1.29,1.41,2.08,1.96h0c2.32,1.58,4.89,1.48,4.89,1.48.45-.02,1.95,0,3.63-.8,1.89-.89,2.95-2.22,2.95-2.22.68-.79,1.23-1.7,1.61-2.68.43-1.14.57-2.51.57-3.05v-9.84c.06.04.83.55.83.55,0,0,1.12.71,2.86,1.18,1.25.33,2.93.4,2.93.4v-4.76c-.58.07-1.79-.12-3.01-.73v.02h0Z"/>
</svg>