<svg xmlns="http://www.w3.org/2000/svg" viewBox="0 0 51.26 51.26">
  <path fill="#FFFFFF" d="M24.59 5.74c-10.52 0-19.03 8.53-19.03 19.03S14.09 43.8 24.59 43.8s19.03-8.53 19.03-19.03S35.09 5.74 24.59 5.74Zm9.27 17.11s-1.29-.06-2.25-.31c-1.33-.36-2.19-.91-2.19-.91s-.59-.39-.64-.42v7.55c0 .42-.11 1.47-.44 2.34-.29.75-.71 1.45-1.23 2.05 0 0-.81 1.02-2.26 1.7-1.29.62-2.44.6-2.78.62 0 0-1.97.08-3.75-1.13a7.8 7.8 0 0 1-1.59-1.5c-.56-.72-.91-1.56-.99-1.83-.14-.43-.44-1.45-.4-2.44.06-1.74.65-2.81.81-3.09.4-.74.94-1.39 1.57-1.94A6.786 6.786 0 0 1 22.98 22v3.75c-.31-.1-.64-.15-.96-.15-1.71 0-3.1 1.4-3.1 3.12s1.39 3.12 3.1 3.12c.53 0 1.05-.14 1.52-.4.91-.51 1.49-1.45 1.57-2.49V14.07h3.68s-.04.35.04.9c.11.65.42 1.6 1.22 2.52.33.35.69.65 1.08.92.14.09.28.17.42.25v-.02c.94.47 1.86.61 2.31.56v3.65Z"/>
</svg>
