<svg xmlns="http://www.w3.org/2000/svg" viewBox="0 0 51.26 51.26"><defs><style>.cls-1{fill:#fff;}</style></defs><g id="Layer_2" data-name="Layer 2"><path class="cls-1" d="M11.63,27.33a6.17,6.17,0,1,0-6.16-6.17A6.18,6.18,0,0,0,11.63,27.33Zm0-11.08a4.92,4.92,0,1,1-4.91,4.91A4.92,4.92,0,0,1,11.63,16.25Z"/><path class="cls-1" d="M46.68,9.92H21.31a2.67,2.67,0,0,0-2.67,2.67v1.58a2.66,2.66,0,0,0,2.46,2.65v11H11.63A10.91,10.91,0,0,0,2.54,32.7a3.9,3.9,0,0,0-.63,2.15V38.8a2.54,2.54,0,0,0,2.54,2.54H18.82a2.53,2.53,0,0,0,2.46-1.92,2.2,2.2,0,0,0,0-1.08L19.9,33h1.2v1.23a.63.63,0,0,0,.62.63H46.26a.63.63,0,0,0,.63-.63V16.82a2.67,2.67,0,0,0,2.46-2.65V12.59A2.68,2.68,0,0,0,46.68,9.92ZM18.49,32.55l1.56,6.1a1.09,1.09,0,0,1,0,.47,1.29,1.29,0,0,1-1.25,1H4.45A1.29,1.29,0,0,1,3.16,38.8V34.85a2.62,2.62,0,0,1,.42-1.46,9.68,9.68,0,0,1,8.08-4.32H25.39a1.35,1.35,0,0,1,0,2.7H19.1a.64.64,0,0,0-.5.24A.63.63,0,0,0,18.49,32.55Zm3.86,1.08V33h3a2.6,2.6,0,0,0,0-5.2h-3v-11H45.64V33.63ZM48.1,14.17a1.42,1.42,0,0,1-1.42,1.42H21.31a1.41,1.41,0,0,1-1.42-1.42V12.59a1.41,1.41,0,0,1,1.42-1.42H46.68a1.42,1.42,0,0,1,1.42,1.42Z"/><path class="cls-1" d="M43.46,19.09H24.94a.63.63,0,1,0,0,1.25H43.46a.63.63,0,1,0,0-1.25Z"/><path class="cls-1" d="M43.46,22.58H24.94a.63.63,0,1,0,0,1.25H43.46a.63.63,0,1,0,0-1.25Z"/><path class="cls-1" d="M43.46,26.08H24.94a.63.63,0,1,0,0,1.25H43.46a.63.63,0,1,0,0-1.25Z"/><path class="cls-1" d="M43.46,29.57H29.94a.63.63,0,1,0,0,1.25H43.46a.63.63,0,1,0,0-1.25Z"/></g></svg>