<svg xmlns="http://www.w3.org/2000/svg" viewBox="0 0 51.26 51.26">
  <g fill="#FFFFFF">
    <path d="M39.34 10.17H31V8.6a2.16 2.16 0 0 0-2.16-2.16h-6.57a2.16 2.16 0 0 0-2.16 2.16v1.57h-8.19a1.72 1.72 0 0 0-1.72 1.72v1.31h30.85v-1.31a1.71 1.71 0 0 0-1.71-1.72Zm-10.34 0h-6.89V8.6a.16.16 0 0 1 .16-.16h6.59a.16.16 0 0 1 .14.16ZM14.49 43.23a1.05 1.05 0 0 0 1.07 1h20a1.05 1.05 0 0 0 1.07-1l2.55-29H11.94Zm18.78-25.76a.63.63 0 0 1 1.25.08L33 40.08a.63.63 0 0 1-.63.58.63.63 0 0 1-.58-.67ZM25 17.29a.63.63 0 0 1 1.25 0V40A.63.63 0 0 1 25 40Zm-7.8-.4a.61.61 0 0 1 .67.58L19.42 40a.63.63 0 0 1-.58.67.63.63 0 0 1-.63-.58l-1.59-22.54a.62.62 0 0 1 .58-.66Z"/>
  </g>
</svg>
