<svg xmlns="http://www.w3.org/2000/svg" viewBox="0 0 51.26 51.26"><defs><style>.cls-1{fill:#fff;}.cls-2{fill:#ececed;}</style></defs><g id="Layer_2" data-name="Layer 2"><path class="cls-1" d="M39.34,11.08H31V9.5a2.16,2.16,0,0,0-2.16-2.16H22.27A2.16,2.16,0,0,0,20.11,9.5v1.58H11.92a1.72,1.72,0,0,0-1.72,1.71v1.32H41.05V12.79A1.71,1.71,0,0,0,39.34,11.08ZM22.11,9.5a.17.17,0,0,1,.16-.16h6.59A.16.16,0,0,1,29,9.5v1.58H22.11Z"/><path class="cls-2" d="M12,14l2.55,29a1.05,1.05,0,0,0,1.07.95h20A1.06,1.06,0,0,0,36.71,43l2.54-29Zm6.9,26.4h0a.62.62,0,0,1-.62-.58L16.68,17.28a.61.61,0,0,1,.58-.66.6.6,0,0,1,.66.58l1.56,22.53A.62.62,0,0,1,18.9,40.39Zm7.41-.62a.63.63,0,0,1-1.25,0V17a.63.63,0,0,1,1.25,0Zm6.71,0a.62.62,0,0,1-.62.58h0a.61.61,0,0,1-.58-.66L33.33,17.2a.61.61,0,0,1,.67-.58.62.62,0,0,1,.58.66Z"/></g></svg>