<svg xmlns="http://www.w3.org/2000/svg" viewBox="0 0 51.26 51.26">
  <g fill="#FFFFFF">
    <path d="M32.3,40.14h0a.63.63,0,0,0,.63-.59l1.55-23.32a.62.62,0,0,0-.58-.66.63.63,0,0,0-.67.58L31.72,39.47A.63.63,0,0,0,32.3,40.14Z"/>
    <path d="M18.8,40.14h0a.63.63,0,0,0,.58-.67L17.87,16.15a.61.61,0,0,0-.67-.58.62.62,0,0,0-.58.66l1.55,23.32A.64.64,0,0,0,18.8,40.14Z"/>
    <path d="M39.34,9.17H30.65V8a1.79,1.79,0,0,0-1.79-1.79H22.27A1.79,1.79,0,0,0,20.49,8V9.17H11.92a2.34,2.34,0,0,0-2.34,2.34v1.31a.63.63,0,0,0,.62.63h1.17l2.49,29.42a1.72,1.72,0,0,0,1.7,1.56h20a1.72,1.72,0,0,0,1.7-1.56l2.49-29.42h1.28a.63.63,0,0,0,.63-.63V11.51A2.34,2.34,0,0,0,39.34,9.17ZM21.74,8a.54.54,0,0,1,.53-.54h6.59A.54.54,0,0,1,29.4,8V9.17H21.74ZM36,42.77a.46.46,0,0,1-.45.41h-20a.46.46,0,0,1-.45-.41L12.62,13.45h25.9Zm4.4-30.57H10.83v-.69a1.09,1.09,0,0,1,1.09-1.09H39.34a1.09,1.09,0,0,1,1.09,1.09Z"/>
    <path d="M25.63,40.14a.63.63,0,0,0,.62-.63V16A.63.63,0,0,0,25,16V39.51A.63.63,0,0,0,25.63,40.14Z"/>
  </g>
</svg>