<svg xmlns="http://www.w3.org/2000/svg" viewBox="0 0 51.26 51.26"><defs><style>.cls-1{fill:#fff;}</style></defs><g id="Layer_2" data-name="Layer 2"><path class="cls-1" d="M25.63,6.28a19,19,0,0,0-19,19h0a19,19,0,1,0,38.06,0h0A19,19,0,0,0,25.63,6.28Zm8.06,14.89a11.83,11.83,0,0,1-18.2,10.51A8.37,8.37,0,0,0,21.65,30a4.18,4.18,0,0,1-3.89-2.89A4.23,4.23,0,0,0,19.64,27a4.18,4.18,0,0,1-3.34-4.13,4.3,4.3,0,0,0,1.89.52,4.18,4.18,0,0,1-1.29-5.56,11.79,11.79,0,0,0,8.58,4.35,4.17,4.17,0,0,1,7.09-3.8,8.21,8.21,0,0,0,2.64-1,4.17,4.17,0,0,1-1.83,2.31A8.73,8.73,0,0,0,35.77,19,8.34,8.34,0,0,1,33.69,21.17Z"/></g></svg>