<svg xmlns="http://www.w3.org/2000/svg" viewBox="0 0 51.26 51.26"><defs><style>.cls-1{fill:#fff;}</style></defs><g id="Layer_2" data-name="Layer 2"><path class="cls-1" d="M13,33.25A14.75,14.75,0,0,0,35.68,20.16a10.48,10.48,0,0,0,2.58-2.69,10.63,10.63,0,0,1-3,.82,5.16,5.16,0,0,0,2.27-2.87,10.4,10.4,0,0,1-3.29,1.26,5.18,5.18,0,0,0-8.83,4.73A14.73,14.73,0,0,1,14.75,16a5.19,5.19,0,0,0,1.61,6.92A5.07,5.07,0,0,1,14,22.26a5.18,5.18,0,0,0,4.16,5.15,5.1,5.1,0,0,1-2.34.09,5.17,5.17,0,0,0,4.84,3.6A10.45,10.45,0,0,1,13,33.25Z"/></g></svg>