<svg xmlns="http://www.w3.org/2000/svg" viewBox="0 0 51.26 51.26"><defs><style>.cls-1{fill:#fff;}.cls-2{fill:#ececed;}</style></defs><g id="Layer_2" data-name="Layer 2"><path class="cls-1" d="M35.21,17.69a8.21,8.21,0,0,1-2.64,1,4.17,4.17,0,0,0-7.09,3.8,11.83,11.83,0,0,1-8.58-4.35,4.16,4.16,0,0,0,1.29,5.55,4.17,4.17,0,0,1-1.89-.52,4.19,4.19,0,0,0,3.34,4.14,4.23,4.23,0,0,1-1.88.07,4.18,4.18,0,0,0,3.89,2.89A8.37,8.37,0,0,1,15.49,32a11.83,11.83,0,0,0,18.2-10.51,8.5,8.5,0,0,0,2.08-2.15,8.37,8.37,0,0,1-2.39.65A4.15,4.15,0,0,0,35.21,17.69Z"/><path class="cls-2" d="M25.63,6.6a19,19,0,0,0-19,19h0a19,19,0,0,0,38.06,0h0A19,19,0,0,0,25.63,6.6Zm8.06,14.89A11.83,11.83,0,0,1,15.49,32a8.37,8.37,0,0,0,6.16-1.72,4.18,4.18,0,0,1-3.89-2.89,4.23,4.23,0,0,0,1.88-.07,4.19,4.19,0,0,1-3.34-4.14,4.17,4.17,0,0,0,1.89.52,4.16,4.16,0,0,1-1.29-5.55,11.83,11.83,0,0,0,8.58,4.35,4.17,4.17,0,0,1,7.09-3.8,8.21,8.21,0,0,0,2.64-1A4.15,4.15,0,0,1,33.38,20a8.37,8.37,0,0,0,2.39-.65A8.5,8.5,0,0,1,33.69,21.49Z"/></g></svg>