<svg xmlns="http://www.w3.org/2000/svg" viewBox="0 0 51.26 51.26"><defs><style>.cls-1{fill:#fff;}</style></defs><g id="Layer_2" data-name="Layer 2"><path class="cls-1" d="M14.83,38.35a2.19,2.19,0,1,0-2.19-2.19A2.2,2.2,0,0,0,14.83,38.35Z"/><path class="cls-1" d="M5.38,45.68H24.26V26.8H5.38Zm2.25-10.6a.63.63,0,0,1,.62-.63h1.5c.06-.18.14-.36.22-.54l-1.06-1a.64.64,0,0,1,0-.89l1.64-1.64a.64.64,0,0,1,.89,0l1,1a4.11,4.11,0,0,1,.57-.25V29.67a.63.63,0,0,1,.63-.62H16a.62.62,0,0,1,.62.62V31.1a4.35,4.35,0,0,1,.59.25l1-1a.64.64,0,0,1,.89,0L20.72,32a.62.62,0,0,1,0,.89l-1,1a4.28,4.28,0,0,1,.23.55h1.48a.63.63,0,0,1,.62.63V37.4a.62.62,0,0,1-.62.62H19.85c-.07.18-.14.34-.22.51l1.09,1.09a.61.61,0,0,1,0,.88l-1.63,1.64a.62.62,0,0,1-.89,0L17.07,41a3.9,3.9,0,0,1-.47.2v1.6a.62.62,0,0,1-.62.62H13.66a.63.63,0,0,1-.63-.62V41.2L12.57,41l-1.13,1.13a.62.62,0,0,1-.89,0L8.91,40.5a.63.63,0,0,1,0-.88L10,38.51c-.07-.16-.14-.32-.2-.49H8.25a.62.62,0,0,1-.62-.62Z"/><path class="cls-1" d="M16.86,18.59h4.23V9H8.57v9.61h8.29ZM9.45,17.27v-7A.59.59,0,0,1,10,9.71h9.58a.59.59,0,0,1,.59.59v7a.58.58,0,0,1-.59.59H10A.58.58,0,0,1,9.45,17.27Z"/><rect class="cls-1" x="10.63" y="10.89" width="8.41" height="5.79"/><rect class="cls-1" x="13.7" y="19.84" width="2.54" height="1.4"/><path class="cls-1" d="M5.38,24.46H24.26V5.58H5.38ZM7.32,8.36a.63.63,0,0,1,.62-.63H21.72a.63.63,0,0,1,.62.63V19.21a.63.63,0,0,1-.62.63H17.49v1.39h2.43v1.25H9.74V21.23h2.71V19.84H7.94a.63.63,0,0,1-.62-.63Z"/><path class="cls-1" d="M31.51,16.19c-1,1.9-1.13,3.51-.44,4.2s2.3.54,4.2-.44a17.34,17.34,0,0,1-3.76-3.76Z"/><path class="cls-1" d="M36.44,14.09a.93.93,0,0,0,0,1.86.93.93,0,0,0,0-1.86Z"/><path class="cls-1" d="M33.24,11.82a17.08,17.08,0,0,1,2-1.73,8.92,8.92,0,0,0-1.2-.54,5.43,5.43,0,0,0-1.71-.34,1.78,1.78,0,0,0-1.29.44c-.69.69-.55,2.3.44,4.19A18.59,18.59,0,0,1,33.24,11.82Z"/><path class="cls-1" d="M41.37,13.84c1-1.89,1.12-3.5.44-4.19a1.79,1.79,0,0,0-1.3-.44,5.38,5.38,0,0,0-1.7.34,8.39,8.39,0,0,0-1.2.54,17.59,17.59,0,0,1,3.76,3.75Z"/><path class="cls-1" d="M39.63,18.21a17.66,17.66,0,0,1-2,1.74c1.89,1,3.51,1.13,4.2.44s.54-2.3-.44-4.2A16.1,16.1,0,0,1,39.63,18.21Z"/><path class="cls-1" d="M40.66,15a16.12,16.12,0,0,0-4.22-4.23,15.57,15.57,0,0,0-2.31,1.92A16.19,16.19,0,0,0,32.21,15a16.19,16.19,0,0,0,1.92,2.31,15,15,0,0,0,2.31,1.91A15.88,15.88,0,0,0,40.66,15ZM36.44,17.2A2.18,2.18,0,1,1,38.62,15,2.18,2.18,0,0,1,36.44,17.2Z"/><path class="cls-1" d="M27,5.58V24.46H45.88V5.58ZM42.69,21.27a2.94,2.94,0,0,1-2.16.79,8.44,8.44,0,0,1-4.09-1.35,8.44,8.44,0,0,1-4.09,1.35,2.92,2.92,0,0,1-2.16-.79c-1.27-1.26-1-3.7.55-6.25-1.52-2.56-1.82-5-.55-6.25.91-.92,2.44-1.06,4.3-.4a11.93,11.93,0,0,1,1.95.94,11.19,11.19,0,0,1,2-.94c1.86-.66,3.39-.52,4.3.4,1.26,1.26,1,3.69-.55,6.25C43.65,17.57,44,20,42.69,21.27Z"/><path class="cls-1" d="M31.47,38.77a.63.63,0,0,1,.48.61v1.15l1.88-1.47a.6.6,0,0,1,.47-.23h3.12A2.1,2.1,0,0,0,39,38.11l-.63-.49H35.46a3.06,3.06,0,0,1-3.05-3v-.82h-.53a1.81,1.81,0,0,0-1.8,1.8V37A1.79,1.79,0,0,0,31.47,38.77Z"/><path class="cls-1" d="M35.46,36.37h3.12a.6.6,0,0,1,.5.26l1.85,1.44V36.92a.61.61,0,0,1,.48-.6,1.81,1.81,0,0,0,1.38-1.75V33.1A1.8,1.8,0,0,0,41,31.3H35.46a1.8,1.8,0,0,0-1.8,1.8v1.47A1.81,1.81,0,0,0,35.46,36.37Z"/><path class="cls-1" d="M27,45.68H45.88V26.8H27Zm1.83-10.13a3.06,3.06,0,0,1,3.05-3h.59a3,3,0,0,1,3-2.45H41a3.06,3.06,0,0,1,3,3.05v1.47a3,3,0,0,1-1.86,2.8v2a.62.62,0,0,1-.35.56.67.67,0,0,1-.28.06.6.6,0,0,1-.38-.13l-1.24-1a3.27,3.27,0,0,1-2.51,1.2H34.56L31.71,42.3a.7.7,0,0,1-.39.13.62.62,0,0,1-.62-.63v-2A3,3,0,0,1,28.83,37Z"/></g></svg>