<svg xmlns="http://www.w3.org/2000/svg" viewBox="0 0 51.26 51.26">
  <g fill="#FFFFFF">
    <path d="M14.83 38.35a2.19 2.19 0 1 0-2.19-2.19 2.2 2.2 0 0 0 2.19 2.19Z"/>
    <path d="M5.38 45.68h18.88V26.8H5.38Zm2.25-10.6a.63.63 0 0 1 .62-.63h1.5c.06-.18.14-.36.22-.54l-1.06-1a.64.64 0 0 1 0-.89l1.64-1.64a.64.64 0 0 1 .89 0l1 1a4.11 4.11 0 0 1 .57-.25v-1.46a.63.63 0 0 1 .63-.62H16a.62.62 0 0 1 .62.62v1.43a4.35 4.35 0 0 1 .59.25l1-1a.64.64 0 0 1 .89 0L20.72 32a.62.62 0 0 1 0 .89l-1 1a4.28 4.28 0 0 1 .23.55h1.48a.63.63 0 0 1 .62.63v2.33a.62.62 0 0 1-.62.62h-1.58c-.07.18-.14.34-.22.51l1.09 1.09a.61.61 0 0 1 0 .88l-1.63 1.64a.62.62 0 0 1-.89 0L17.07 41a3.9 3.9 0 0 1-.47.2v1.6a.62.62 0 0 1-.62.62h-2.32a.63.63 0 0 1-.63-.62v-1.6l-.46-.2-1.13 1.13a.62.62 0 0 1-.89 0L8.91 40.5a.63.63 0 0 1 0-.88L10 38.51c-.07-.16-.14-.32-.2-.49H8.25a.62.62 0 0 1-.62-.62ZM16.86 18.59h4.23V9H8.57v9.61h8.29Zm-7.41-1.32v-7a.59.59 0 0 1 .55-.56h9.58a.59.59 0 0 1 .59.59v7a.58.58 0 0 1-.59.59H10a.58.58 0 0 1-.55-.62Z"/>
    <path d="M10.63 10.89h8.41v5.79h-8.41zM13.7 19.84h2.54v1.4H13.7z"/>
    <path d="M5.38 24.46h18.88V5.58H5.38Zm1.94-16.1a.63.63 0 0 1 .62-.63h13.78a.63.63 0 0 1 .62.63v10.85a.63.63 0 0 1-.62.63h-4.23v1.39h2.43v1.25H9.74v-1.25h2.71v-1.39H7.94a.63.63 0 0 1-.62-.63ZM31.51 16.19c-1 1.9-1.13 3.51-.44 4.2s2.3.54 4.2-.44a17.34 17.34 0 0 1-3.76-3.76ZM36.44 14.09a.93.93 0 0 0 0 1.86.93.93 0 0 0 0-1.86ZM33.24 11.82a17.08 17.08 0 0 1 2-1.73 8.92 8.92 0 0 0-1.2-.54 5.43 5.43 0 0 0-1.71-.34 1.78 1.78 0 0 0-1.29.44c-.69.69-.55 2.3.44 4.19a18.59 18.59 0 0 1 1.76-2.02ZM41.37 13.84c1-1.89 1.12-3.5.44-4.19a1.79 1.79 0 0 0-1.3-.44 5.38 5.38 0 0 0-1.7.34 8.39 8.39 0 0 0-1.2.54 17.59 17.59 0 0 1 3.76 3.75ZM39.63 18.21a17.66 17.66 0 0 1-2 1.74c1.89 1 3.51 1.13 4.2.44s.54-2.3-.44-4.2a16.1 16.1 0 0 1-1.76 2.02Z"/>
    <path d="M40.66 15a16.12 16.12 0 0 0-4.22-4.23 15.57 15.57 0 0 0-2.31 1.92A16.19 16.19 0 0 0 32.21 15a16.19 16.19 0 0 0 1.92 2.31 15 15 0 0 0 2.31 1.91A15.88 15.88 0 0 0 40.66 15Zm-4.22 2.2a2.18 2.18 0 1 1 2.18-2.2 2.18 2.18 0 0 1-2.18 2.2Z"/>
    <path d="M27 5.58v18.88h18.88V5.58Zm15.69 15.69a2.94 2.94 0 0 1-2.16.79 8.44 8.44 0 0 1-4.09-1.35 8.44 8.44 0 0 1-4.09 1.35 2.92 2.92 0 0 1-2.16-.79c-1.27-1.26-1-3.7.55-6.25-1.52-2.56-1.82-5-.55-6.25.91-.92 2.44-1.06 4.3-.4a11.93 11.93 0 0 1 1.95.94 11.19 11.19 0 0 1 2-.94c1.86-.66 3.39-.52 4.3.4 1.26 1.26 1 3.69-.55 6.25 1.46 2.55 1.81 4.98.5 6.25ZM31.47 38.77a.63.63 0 0 1 .48.61v1.15l1.88-1.47a.6.6 0 0 1 .47-.23h3.12a2.1 2.1 0 0 0 1.58-.72l-.63-.49h-2.91a3.06 3.06 0 0 1-3.05-3v-.82h-.53a1.81 1.81 0 0 0-1.8 1.8V37a1.79 1.79 0 0 0 1.39 1.77Z"/>
    <path d="M35.46 36.37h3.12a.6.6 0 0 1 .5.26l1.85 1.44v-1.15a.61.61 0 0 1 .48-.6 1.81 1.81 0 0 0 1.38-1.75V33.1A1.8 1.8 0 0 0 41 31.3h-5.54a1.8 1.8 0 0 0-1.8 1.8v1.47a1.81 1.81 0 0 0 1.8 1.8Z"/>
    <path d="M27 45.68h18.88V26.8H27Zm1.83-10.13a3.06 3.06 0 0 1 3.05-3h.59a3 3 0 0 1 3-2.45H41a3.06 3.06 0 0 1 3 3.05v1.47a3 3 0 0 1-1.86 2.8v2a.62.62 0 0 1-.35.56.67.67 0 0 1-.28.06.6.6 0 0 1-.38-.13l-1.24-1a3.27 3.27 0 0 1-2.51 1.2h-2.82l-2.85 2.19a.7.7 0 0 1-.39.13.62.62 0 0 1-.62-.63v-2a3 3 0 0 1-1.87-2.8Z"/>
  </g>
</svg>
