<svg xmlns="http://www.w3.org/2000/svg" viewBox="0 0 51.26 51.26"><defs><style>.cls-1{fill:none;}.cls-2{fill:#fff;}.cls-3{fill:#ececed;}</style></defs><g id="Layer_2" data-name="Layer 2"><path class="cls-1" d="M42.69,9.08c-.91-.91-2.44-1.05-4.3-.39a11.19,11.19,0,0,0-2,.94,11.93,11.93,0,0,0-1.95-.94c-1.86-.66-3.39-.52-4.3.39-1.27,1.27-1,3.7.55,6.26-1.52,2.55-1.82,5-.55,6.25a2.92,2.92,0,0,0,2.16.79A8.44,8.44,0,0,0,36.44,21a8.44,8.44,0,0,0,4.09,1.35,2.94,2.94,0,0,0,2.16-.79c1.26-1.26,1-3.7-.55-6.25C43.65,12.78,44,10.35,42.69,9.08Zm-3.88.79a5.11,5.11,0,0,1,1.7-.34,1.79,1.79,0,0,1,1.3.44c.68.69.54,2.3-.44,4.19a17.66,17.66,0,0,0-1.74-2,16.87,16.87,0,0,0-2-1.73A8.39,8.39,0,0,1,38.81,9.87Zm-7.74.1a1.78,1.78,0,0,1,1.29-.44,5.16,5.16,0,0,1,1.71.34,8.92,8.92,0,0,1,1.2.54,16.2,16.2,0,0,0-2,1.73,18.59,18.59,0,0,0-1.73,2C30.52,12.27,30.38,10.66,31.07,10Zm0,10.74c-.69-.69-.55-2.31.44-4.2a18.59,18.59,0,0,0,1.73,2,16.81,16.81,0,0,0,2,1.73C33.37,21.25,31.76,21.39,31.07,20.71Zm5.37-1.15a15.55,15.55,0,0,1-2.31-1.91,16.19,16.19,0,0,1-1.92-2.31,16.36,16.36,0,0,1,4.23-4.23A15.57,15.57,0,0,1,38.75,13a15,15,0,0,1,1.91,2.31,15.44,15.44,0,0,1-1.91,2.31A16.08,16.08,0,0,1,36.44,19.56Zm5.37,1.15c-.69.68-2.31.54-4.2-.45a17.54,17.54,0,0,0,2-1.73,17.66,17.66,0,0,0,1.74-2C42.35,18.4,42.49,20,41.81,20.71Z"/><path class="cls-1" d="M30.7,40.15v2a.61.61,0,0,0,.35.56.52.52,0,0,0,.27.07.7.7,0,0,0,.39-.13l2.85-2.23h2.86a3.34,3.34,0,0,0,1.67-.49,2.69,2.69,0,0,0,.84-.7l-1-.77-.63-.49H35.46a3.06,3.06,0,0,1-3.05-3v-.82l.06-1.25h-.59a3.06,3.06,0,0,0-3.05,3v1.47A3,3,0,0,0,30.7,40.15Z"/><path class="cls-2" d="M5.38,46H24.26V27.11H5.38ZM7.63,35.4a.63.63,0,0,1,.62-.63h1.5c.06-.18.14-.36.22-.54L8.91,33.17a.63.63,0,0,1,0-.88l1.64-1.64a.62.62,0,0,1,.44-.18.63.63,0,0,1,.45.18l1,1a5.72,5.72,0,0,1,.57-.24V30a.63.63,0,0,1,.63-.63H16a.63.63,0,0,1,.62.63v1.43a4.35,4.35,0,0,1,.59.25l1-1a.64.64,0,0,1,.89,0l1.63,1.64a.61.61,0,0,1,0,.88l-1,1a4.41,4.41,0,0,1,.23.56h1.48a.63.63,0,0,1,.62.63v2.32a.62.62,0,0,1-.62.62H19.85c-.07.17-.14.34-.22.51l1.09,1.09a.61.61,0,0,1,0,.88l-1.63,1.64a.62.62,0,0,1-.89,0l-1.13-1.13-.47.2v1.59a.63.63,0,0,1-.62.63H13.66a.63.63,0,0,1-.63-.63v-1.6a4.58,4.58,0,0,1-.46-.2l-1.13,1.14a.62.62,0,0,1-.89,0L8.91,40.82a.63.63,0,0,1,0-.88L10,38.83c-.07-.16-.14-.32-.2-.49H8.25a.62.62,0,0,1-.62-.62Z"/><path class="cls-2" d="M14.83,38.66a2.19,2.19,0,1,0-2.19-2.19A2.19,2.19,0,0,0,14.83,38.66Z"/><path class="cls-2" d="M7.94,20.16h4.51v1.39H9.74V22.8H19.92V21.55H17.49V20.16h4.23a.63.63,0,0,0,.62-.63V8.68a.63.63,0,0,0-.62-.63H7.94a.63.63,0,0,0-.62.63V19.53A.63.63,0,0,0,7.94,20.16Zm1.51-9.54A.59.59,0,0,1,10,10h9.58a.59.59,0,0,1,.59.59v7a.59.59,0,0,1-.59.59H10a.59.59,0,0,1-.59-.59Z"/><path class="cls-2" d="M40.66,15.34A15,15,0,0,0,38.75,13a15.57,15.57,0,0,0-2.31-1.92,16.36,16.36,0,0,0-4.23,4.23,16.19,16.19,0,0,0,1.92,2.31,15.55,15.55,0,0,0,2.31,1.91,16.08,16.08,0,0,0,2.31-1.91A15.44,15.44,0,0,0,40.66,15.34Zm-4.22,1.73a1.74,1.74,0,1,1,1.74-1.73A1.74,1.74,0,0,1,36.44,17.07Z"/><path class="cls-2" d="M31.51,16.51c-1,1.89-1.13,3.51-.44,4.2s2.3.54,4.2-.45a16.81,16.81,0,0,1-2-1.73A18.59,18.59,0,0,1,31.51,16.51Z"/><path class="cls-2" d="M33.24,12.14a16.2,16.2,0,0,1,2-1.73,8.92,8.92,0,0,0-1.2-.54,5.16,5.16,0,0,0-1.71-.34,1.78,1.78,0,0,0-1.29.44c-.69.69-.55,2.3.44,4.19A18.59,18.59,0,0,1,33.24,12.14Z"/><path class="cls-2" d="M41.37,14.16c1-1.89,1.12-3.5.44-4.19a1.79,1.79,0,0,0-1.3-.44,5.11,5.11,0,0,0-1.7.34,8.39,8.39,0,0,0-1.2.54,16.87,16.87,0,0,1,2,1.73A17.66,17.66,0,0,1,41.37,14.16Z"/><path class="cls-2" d="M39.63,18.53a17.54,17.54,0,0,1-2,1.73c1.89,1,3.51,1.13,4.2.45s.54-2.31-.44-4.2A17.66,17.66,0,0,1,39.63,18.53Z"/><path class="cls-2" d="M27,5.89V24.78H45.88V5.89Zm15.69,15.7a2.94,2.94,0,0,1-2.16.79A8.44,8.44,0,0,1,36.44,21a8.44,8.44,0,0,1-4.09,1.35,2.92,2.92,0,0,1-2.16-.79c-1.27-1.26-1-3.7.55-6.25-1.52-2.56-1.82-5-.55-6.26.91-.91,2.44-1.05,4.3-.39a11.93,11.93,0,0,1,1.95.94,11.19,11.19,0,0,1,2-.94c1.86-.66,3.39-.52,4.3.39,1.26,1.27,1,3.7-.55,6.26C43.65,17.89,44,20.33,42.69,21.59Z"/><path class="cls-2" d="M41,30.37H35.46a3,3,0,0,0-3,2.45l-.06,1.25v.82a3.06,3.06,0,0,0,3.05,3h2.86l.63.49,1,.77,1.24,1a.6.6,0,0,0,.38.13.67.67,0,0,0,.28-.06.63.63,0,0,0,.35-.56v-2A3,3,0,0,0,44,34.89V33.42A3,3,0,0,0,41,30.37Z"/><path class="cls-3" d="M21.39,34.77H19.91a4.41,4.41,0,0,0-.23-.56l1-1a.61.61,0,0,0,0-.88l-1.63-1.64a.64.64,0,0,0-.89,0l-1,1a4.35,4.35,0,0,0-.59-.25V30a.63.63,0,0,0-.62-.63H13.66A.63.63,0,0,0,13,30v1.44a5.72,5.72,0,0,0-.57.24l-1-1a.63.63,0,0,0-.45-.18.62.62,0,0,0-.44.18L8.91,32.29a.63.63,0,0,0,0,.88L10,34.23c-.08.18-.16.36-.22.54H8.25a.63.63,0,0,0-.62.63v2.32a.62.62,0,0,0,.62.62H9.82c.06.17.13.33.2.49L8.91,39.94a.63.63,0,0,0,0,.88l1.64,1.64a.62.62,0,0,0,.89,0l1.13-1.14a4.58,4.58,0,0,0,.46.2v1.6a.63.63,0,0,0,.63.63H16a.63.63,0,0,0,.62-.63V41.53l.47-.2,1.13,1.13a.62.62,0,0,0,.89,0l1.63-1.64a.61.61,0,0,0,0-.88l-1.09-1.09c.08-.17.15-.34.22-.51h1.54a.62.62,0,0,0,.62-.62V35.4A.63.63,0,0,0,21.39,34.77Zm-6.56,3.89A2.19,2.19,0,1,1,17,36.47,2.19,2.19,0,0,1,14.83,38.66Z"/><rect class="cls-3" x="9.45" y="10.03" width="10.76" height="8.15" rx="0.59"/><path class="cls-3" d="M5.38,24.78H24.26V5.89H5.38ZM7.32,8.68a.63.63,0,0,1,.62-.63H21.72a.63.63,0,0,1,.62.63V19.53a.63.63,0,0,1-.62.63H17.49v1.39h2.43V22.8H9.74V21.55h2.71V20.16H7.94a.63.63,0,0,1-.62-.63Z"/><path class="cls-3" d="M36.44,17.07a1.74,1.74,0,1,0-1.74-1.73A1.74,1.74,0,0,0,36.44,17.07Z"/><path class="cls-3" d="M27,27.11V46H45.88V27.11Zm17,7.78a3,3,0,0,1-1.86,2.8v2a.63.63,0,0,1-.35.56.67.67,0,0,1-.28.06.6.6,0,0,1-.38-.13l-1.24-1a2.69,2.69,0,0,1-.84.7,3.34,3.34,0,0,1-1.67.49H34.56l-2.85,2.23a.7.7,0,0,1-.39.13.52.52,0,0,1-.27-.07.61.61,0,0,1-.35-.56v-2a3,3,0,0,1-1.87-2.81V35.87a3.06,3.06,0,0,1,3.05-3h.59a3,3,0,0,1,3-2.45H41a3,3,0,0,1,3,3.05Z"/></g></svg>