<svg xmlns="http://www.w3.org/2000/svg" viewBox="0 0 51.26 51.26"><defs><style>.cls-1{fill:#fff;}</style></defs><g id="Layer_2" data-name="Layer 2"><path class="cls-1" d="M24.26,5H5.38a.63.63,0,0,0-.63.63V24.46a.63.63,0,0,0,.63.62H24.26a.63.63,0,0,0,.63-.62V5.58A.63.63,0,0,0,24.26,5Zm-.62,18.88H6V6.2H23.64Z"/><path class="cls-1" d="M45.88,5H27a.63.63,0,0,0-.63.63V24.46a.63.63,0,0,0,.63.62H45.88a.62.62,0,0,0,.62-.62V5.58A.63.63,0,0,0,45.88,5Zm-.63,18.88H27.62V6.2H45.25Z"/><path class="cls-1" d="M24.26,26.17H5.38a.63.63,0,0,0-.63.63V45.68a.63.63,0,0,0,.63.62H24.26a.63.63,0,0,0,.63-.62V26.8A.63.63,0,0,0,24.26,26.17Zm-.62,18.88H6V27.42H23.64Z"/><path class="cls-1" d="M45.88,26.17H27a.63.63,0,0,0-.63.63V45.68a.63.63,0,0,0,.63.62H45.88a.62.62,0,0,0,.62-.62V26.8A.63.63,0,0,0,45.88,26.17Zm-.63,18.88H27.62V27.42H45.25Z"/><path class="cls-1" d="M14.83,38.35a2.19,2.19,0,1,0-2.19-2.19A2.2,2.2,0,0,0,14.83,38.35Zm0-3.13a.94.94,0,1,1-.94.94A.94.94,0,0,1,14.83,35.22Z"/><path class="cls-1" d="M8.25,38H9.82c.06.17.13.33.2.49L8.91,39.62a.63.63,0,0,0,0,.88l1.64,1.64a.62.62,0,0,0,.89,0L12.57,41l.46.19v1.61a.63.63,0,0,0,.63.62H16a.62.62,0,0,0,.62-.62v-1.6a3.9,3.9,0,0,0,.47-.2l1.13,1.13a.61.61,0,0,0,.88,0l1.64-1.64a.6.6,0,0,0,.19-.44.63.63,0,0,0-.19-.44l-1.09-1.09c.08-.17.15-.33.22-.51h1.54A.62.62,0,0,0,22,37.4V35.08a.63.63,0,0,0-.62-.63H19.91a4.28,4.28,0,0,0-.23-.55l1-1a.62.62,0,0,0,0-.89l-1.64-1.64a.63.63,0,0,0-.88,0l-1,1a4.35,4.35,0,0,0-.59-.25V29.67a.62.62,0,0,0-.62-.62H13.66a.63.63,0,0,0-.63.62v1.44a4.11,4.11,0,0,0-.57.25l-1-1a.66.66,0,0,0-.89,0L8.91,32a.64.64,0,0,0,0,.89l1.06,1c-.08.18-.16.36-.22.54H8.25a.63.63,0,0,0-.62.63V37.4A.62.62,0,0,0,8.25,38Zm.63-2.32h1.34a.63.63,0,0,0,.61-.48,4.32,4.32,0,0,1,.45-1.11.62.62,0,0,0-.1-.75l-.94-1,.75-.75.92.91a.62.62,0,0,0,.77.09,4.18,4.18,0,0,1,1.13-.48.62.62,0,0,0,.47-.6V30.3h1.07v1.27a.63.63,0,0,0,.48.6,4.38,4.38,0,0,1,1.14.48.62.62,0,0,0,.77-.09l.9-.9.76.75-.93.93a.62.62,0,0,0-.09.76,3.81,3.81,0,0,1,.45,1.12.63.63,0,0,0,.61.48h1.32v1.07H19.39a.62.62,0,0,0-.6.46,4.19,4.19,0,0,1-.46,1.08.61.61,0,0,0,.09.77l1,1-.76.76-1-1a.62.62,0,0,0-.75-.1,4.47,4.47,0,0,1-1,.43.63.63,0,0,0-.48.6v1.44H14.28V40.74a.62.62,0,0,0-.47-.61,4.08,4.08,0,0,1-1-.43.64.64,0,0,0-.76.1l-1,1-.75-.76,1-1a.63.63,0,0,0,.09-.77,3.91,3.91,0,0,1-.46-1.06.62.62,0,0,0-.6-.46H8.88Z"/><path class="cls-1" d="M7.94,19.84h4.51v1.39H9.74v1.25H19.92V21.23H17.49V19.84h4.23a.63.63,0,0,0,.62-.63V8.36a.63.63,0,0,0-.62-.63H7.94a.63.63,0,0,0-.62.63V19.21A.63.63,0,0,0,7.94,19.84Zm8.3,1.39H13.7V19.84h2.54ZM8.57,9H21.09v9.61H8.57Z"/><path class="cls-1" d="M20.55,17.49V10.08a.63.63,0,0,0-.63-.62H9.74a.63.63,0,0,0-.63.62v7.41a.63.63,0,0,0,.63.62H19.92A.63.63,0,0,0,20.55,17.49Zm-1.25-.63H10.36V10.71H19.3Z"/><path class="cls-1" d="M30.18,21.27h0a2.93,2.93,0,0,0,2.17.81,6.36,6.36,0,0,0,2.13-.42,11.63,11.63,0,0,0,2-.94,8.35,8.35,0,0,0,4.08,1.34,3,3,0,0,0,2.16-.79h0c1.26-1.26,1-3.7-.55-6.25,1.51-2.56,1.81-5,.55-6.25s-3.69-1-6.25.54a11.55,11.55,0,0,0-1.95-.94c-1.86-.66-3.39-.52-4.3.4s-1.06,2.44-.4,4.3A11.93,11.93,0,0,0,30.73,15,11.19,11.19,0,0,0,29.79,17C29.13,18.83,29.27,20.36,30.18,21.27Zm11.63-.88c-.69.69-2.31.54-4.2-.44a17.1,17.1,0,0,0,2-1.74,16.1,16.1,0,0,0,1.74-2C42.35,18.08,42.49,19.7,41.81,20.39Zm-5.37-1.14a16.19,16.19,0,0,1-2.31-1.92A15.57,15.57,0,0,1,32.21,15a16.19,16.19,0,0,1,4.24-4.23,16.72,16.72,0,0,1,2.3,1.92A16.08,16.08,0,0,1,40.66,15a16.08,16.08,0,0,1-1.91,2.31A16.22,16.22,0,0,1,36.44,19.25Zm4.08-10a1.76,1.76,0,0,1,1.29.43c.68.69.54,2.3-.44,4.19a17.66,17.66,0,0,0-1.74-2,18.92,18.92,0,0,0-2-1.73A6.63,6.63,0,0,1,40.52,9.22ZM31,12.65c-.48-1.36-.45-2.45.1-3a1.78,1.78,0,0,1,1.29-.44,5.32,5.32,0,0,1,1.7.34,7.92,7.92,0,0,1,1.2.54,17.54,17.54,0,0,0-2,1.73,16.2,16.2,0,0,0-1.73,2A8.92,8.92,0,0,1,31,12.65Zm0,4.74a8.39,8.39,0,0,1,.54-1.2A17.34,17.34,0,0,0,35.27,20a9.68,9.68,0,0,1-1.21.53c-1.35.49-2.45.45-3-.09h0C30.52,19.84,30.49,18.75,31,17.39Z"/><path class="cls-1" d="M36.44,12.84A2.18,2.18,0,1,0,38.62,15,2.18,2.18,0,0,0,36.44,12.84Zm0,3.11a.93.93,0,1,1,.93-.93A.93.93,0,0,1,36.44,16Z"/><path class="cls-1" d="M30.7,39.83v2a.62.62,0,0,0,.62.63.65.65,0,0,0,.38-.13l2.86-2.22h2.86a3.27,3.27,0,0,0,2.51-1.2l1.24,1a.6.6,0,0,0,.38.13.67.67,0,0,0,.28-.06.62.62,0,0,0,.35-.56v-2A3,3,0,0,0,44,34.57V33.1a3.06,3.06,0,0,0-3-3.05H35.46a3,3,0,0,0-3,2.45h-.59a3.06,3.06,0,0,0-3.05,3V37A3,3,0,0,0,30.7,39.83Zm3-6.73a1.8,1.8,0,0,1,1.8-1.8H41a1.8,1.8,0,0,1,1.8,1.8v1.47a1.81,1.81,0,0,1-1.38,1.75.61.61,0,0,0-.48.6v1.15l-1.85-1.44a.6.6,0,0,0-.5-.26H35.46a1.81,1.81,0,0,1-1.8-1.8Zm-3.58,2.45a1.81,1.81,0,0,1,1.8-1.8h.53v.82a3.06,3.06,0,0,0,3.05,3h2.86l.63.49a2.1,2.1,0,0,1-1.53.72H34.3a.6.6,0,0,0-.47.23L32,40.53V39.38a.63.63,0,0,0-.48-.61A1.79,1.79,0,0,1,30.08,37Z"/></g></svg>