<svg xmlns="http://www.w3.org/2000/svg" viewBox="0 0 51.26 51.26">
  <g>
    <path fill="#FFFFFF" d="M25.63,24.22a9.88,9.88,0,1,0-9.88-9.88A9.89,9.89,0,0,0,25.63,24.22Zm0-18.51A8.63,8.63,0,1,1,17,14.34,8.64,8.64,0,0,1,25.63,5.71Z"/>
    <path fill="#FFFFFF" d="M40.39,32.27a17.8,17.8,0,0,0-29.52,0A6.15,6.15,0,0,0,9.8,35.74v6.6a3.83,3.83,0,0,0,3.83,3.82h24a3.83,3.83,0,0,0,3.82-3.82v-6.6A6.22,6.22,0,0,0,40.39,32.27ZM40.2,42.34a2.58,2.58,0,0,1-2.57,2.57h-24a2.58,2.58,0,0,1-2.58-2.57v-6.6A4.9,4.9,0,0,1,11.91,33a16.54,16.54,0,0,1,27.44,0,4.89,4.89,0,0,1,.85,2.77Z"/>
  </g>
</svg>