<svg xmlns="http://www.w3.org/2000/svg" viewBox="0 0 51.26 51.26">
  <g fill="#FFFFFF">
    <path d="M8.1 33.24h35.06a1 1 0 0 0 1-1V12.23a1 1 0 0 0-1-1H8.1a.94.94 0 0 0-.95 1v20.06a.94.94 0 0 0 .95.95Zm13.83-11v-3.19a.62.62 0 0 1 .92-.53l2.78 1.61 2.78 1.6a.62.62 0 0 1 0 1.06l-2.78 1.6L22.85 26a.62.62 0 0 1-.92-.53ZM44.11 37.27H13.4a1.46 1.46 0 0 0-1.3-.82 1.44 1.44 0 0 0-1.3.82H7.15a.63.63 0 1 0 0 1.25h3.65a1.42 1.42 0 0 0 1.3.82 1.44 1.44 0 0 0 1.3-.82h30.71a.63.63 0 0 0 0-1.25Z"/>
  </g>
</svg>
