<svg xmlns="http://www.w3.org/2000/svg" viewBox="0 0 51.26 51.26"><defs><style>.cls-1{fill:#ececed;}.cls-2{fill:#fff;}</style></defs><g id="Layer_2" data-name="Layer 2"><path class="cls-1" d="M8.1,33.56H43.16a1,1,0,0,0,1-1V12.55a1,1,0,0,0-1-1H8.1a1,1,0,0,0-.95,1V32.61A1,1,0,0,0,8.1,33.56Zm13.5-11v-4a.39.39,0,0,1,.58-.34l3.45,2,3.45,2a.39.39,0,0,1,0,.67l-3.45,2-3.45,2a.38.38,0,0,1-.58-.33Z"/><path class="cls-1" d="M7.15,37.59a.63.63,0,1,0,0,1.25H10.8a1.38,1.38,0,0,1,0-1.25Z"/><path class="cls-1" d="M44.11,37.59H13.4a1.47,1.47,0,0,1,0,1.25H44.11a.63.63,0,0,0,0-1.25Z"/><path class="cls-2" d="M29.08,22.24l-3.45-2-3.45-2a.39.39,0,0,0-.58.34v8a.38.38,0,0,0,.58.33l3.45-2,3.45-2A.39.39,0,0,0,29.08,22.24Z"/><path class="cls-2" d="M12.1,36.77a1.44,1.44,0,0,0-1.3.82,1.38,1.38,0,0,0,0,1.25,1.42,1.42,0,0,0,1.3.82,1.45,1.45,0,0,0,1.3-2.07A1.46,1.46,0,0,0,12.1,36.77Z"/></g></svg>