<svg xmlns="http://www.w3.org/2000/svg" viewBox="0 0 51.26 51.26"><defs><style>.cls-1{fill:#fff;}</style></defs><g id="Layer_2" data-name="Layer 2"><path class="cls-1" d="M43.16,11H8.1a1.58,1.58,0,0,0-1.58,1.58V32.6A1.58,1.58,0,0,0,8.1,34.18H43.16a1.57,1.57,0,0,0,1.57-1.58V12.54A1.57,1.57,0,0,0,43.16,11Zm.32,21.64a.32.32,0,0,1-.32.33H8.1a.33.33,0,0,1-.33-.33V12.54a.33.33,0,0,1,.33-.33H43.16a.32.32,0,0,1,.32.33Z"/><path class="cls-1" d="M29.05,22l-6.21-3.59a.63.63,0,0,0-.94.55v7.17a.63.63,0,0,0,.31.54.71.71,0,0,0,.31.08.72.72,0,0,0,.32-.08l6.21-3.59a.62.62,0,0,0,.31-.54A.63.63,0,0,0,29.05,22Zm-5.9,3v-5l4.33,2.5Z"/><path class="cls-1" d="M44.11,37.59H13.4a1.45,1.45,0,0,0-1.3-.83,1.43,1.43,0,0,0-1.3.83H7.15a.63.63,0,1,0,0,1.25H10.8a1.44,1.44,0,0,0,1.3.82,1.46,1.46,0,0,0,1.3-.82H44.11a.63.63,0,0,0,0-1.25Z"/></g></svg>