<svg xmlns="http://www.w3.org/2000/svg" viewBox="0 0 51.26 51.26">
  <g fill="#FFFFFF">
    <path d="M31.87,9.63a1.82,1.82,0,0,0-1.82-.05L15.88,18H12.29a2.8,2.8,0,0,0-2.8,2.79v9.11a2.8,2.8,0,0,0,2.8,2.79H16l14.11,8.38a1.92,1.92,0,0,0,.84.2,1.84,1.84,0,0,0,1.83-1.83V11.19A1.8,1.8,0,0,0,31.87,9.63ZM10.74,29.89V20.78a1.55,1.55,0,0,1,1.55-1.54h3.13V31.43H12.29A1.55,1.55,0,0,1,10.74,29.89ZM31.5,39.43a.57.57,0,0,1-.28.49.51.51,0,0,1-.53,0l-14-8.31V19l14-8.3a.57.57,0,0,1,.56,0,.59.59,0,0,1,.28.5Z"/>
    <path d="M35.24,15.66a.63.63,0,0,0-.81.35.62.62,0,0,0,.34.81,9.15,9.15,0,0,1,0,17A.62.62,0,0,0,35,35a.66.66,0,0,0,.23,0,10.4,10.4,0,0,0,0-19.3Z"/>
    <path d="M34.54,29.8A.65.65,0,0,0,35,30a.59.59,0,0,0,.41-.16,6.07,6.07,0,0,0,0-9.06.62.62,0,1,0-.83.93,4.83,4.83,0,0,1,0,7.2A.63.63,0,0,0,34.54,29.8Z"/>
  </g>
</svg>