<svg xmlns="http://www.w3.org/2000/svg" viewBox="0 0 51.26 51.26"><defs><style>.cls-1{fill:#fff;}.cls-2{fill:#ececed;}</style></defs><g id="Layer_2" data-name="Layer 2"><rect class="cls-1" x="24.97" y="18.9" width="1.32" height="13.45"/><path class="cls-2" d="M16.74,32.32l13.31,8.5a1.21,1.21,0,0,0,1.76-1.07V11.51a1.21,1.21,0,0,0-1.76-1.07L16.74,18.93Z"/><path class="cls-2" d="M12,18.93h3.44a0,0,0,0,1,0,0V32.38a0,0,0,0,1,0,0H12a2.17,2.17,0,0,1-2.17-2.17V21.1A2.17,2.17,0,0,1,12,18.93Z"/><path class="cls-1" d="M34.69,35.32a.64.64,0,0,1-.58-.39.63.63,0,0,1,.35-.81,9.15,9.15,0,0,0,0-17A.63.63,0,1,1,34.93,16a10.4,10.4,0,0,1,0,19.3A.67.67,0,0,1,34.69,35.32Z"/><path class="cls-1" d="M34.69,30.32a.6.6,0,0,1-.46-.21.62.62,0,0,1,.05-.88,4.84,4.84,0,0,0,0-7.21.62.62,0,1,1,.83-.92,6.07,6.07,0,0,1,0,9.06A.61.61,0,0,1,34.69,30.32Z"/><path class="cls-1" d="M34.69,30.32a.6.6,0,0,1-.46-.21.62.62,0,0,1,.05-.88,4.84,4.84,0,0,0,0-7.21.62.62,0,1,1,.83-.92,6.07,6.07,0,0,1,0,9.06A.61.61,0,0,1,34.69,30.32Z"/></g></svg>