<svg xmlns="http://www.w3.org/2000/svg" viewBox="0 0 51.26 51.26">
  <g fill="#FFFFFF">
    <path d="m30.05 10.12-13.31 8.49V32l13.31 8.5a1.21 1.21 0 0 0 1.76-1.07V11.19a1.21 1.21 0 0 0-1.76-1.07ZM9.81 20.78v9.11A2.17 2.17 0 0 0 12 32.06h3.41V18.61H12a2.17 2.17 0 0 0-2.19 2.17ZM34.93 15.66a.64.64 0 0 0-.82.35.62.62 0 0 0 .35.81 9.15 9.15 0 0 1 0 17 .62.62 0 0 0 .23 1.2.67.67 0 0 0 .24 0 10.4 10.4 0 0 0 0-19.3Z"/>
    <path d="M34.23 29.8a.63.63 0 0 0 .46.2.61.61 0 0 0 .42-.16 6.07 6.07 0 0 0 0-9.06.62.62 0 1 0-.83.93 4.83 4.83 0 0 1 0 7.2.63.63 0 0 0-.05.89Z"/>
  </g>
</svg>
