<svg xmlns="http://www.w3.org/2000/svg" viewBox="0 0 51.26 51.26"><defs><style>.cls-1{fill:#ececed;}.cls-2{fill:#fff;}</style></defs><g id="Layer_2" data-name="Layer 2"><path class="cls-1" d="M46.87,13.52V11a2.78,2.78,0,0,0-2.78-2.77H7.16A2.78,2.78,0,0,0,4.38,11v3.73h0V40.21A2.78,2.78,0,0,0,7.16,43H44.09a2.78,2.78,0,0,0,2.78-2.78V13.52ZM14.2,10.44a1.08,1.08,0,1,1-1.08,1.08A1.08,1.08,0,0,1,14.2,10.44Zm-3.12,0A1.08,1.08,0,1,1,10,11.52,1.08,1.08,0,0,1,11.08,10.44Zm-3.19,0A1.08,1.08,0,1,1,6.8,11.52,1.08,1.08,0,0,1,7.89,10.44ZM45.62,40.21a1.53,1.53,0,0,1-1.53,1.53H7.16a1.53,1.53,0,0,1-1.52-1.53V14.77h40Z"/><path class="cls-2" d="M33.62,35.39a10.69,10.69,0,1,0-16,0l.08.09a10.65,10.65,0,0,0,15.84,0ZM16.22,29H19a16.41,16.41,0,0,0,.62,3.92,4.69,4.69,0,0,0-1.59,1A9.35,9.35,0,0,1,16.22,29ZM18,22.83a4.35,4.35,0,0,0,1.61,1A16.6,16.6,0,0,0,19,27.75H16.22A9.35,9.35,0,0,1,18,22.83ZM35,27.75H32.27a16.6,16.6,0,0,0-.59-3.93,4.43,4.43,0,0,0,1.61-1A9.35,9.35,0,0,1,35,27.75Zm-4,0H26.25v-3a19.35,19.35,0,0,0,4.21-.54A14.73,14.73,0,0,1,31,27.75Zm-4.77-4.26V19c1.56.33,2.95,1.87,3.82,4.06A18,18,0,0,1,26.25,23.49ZM25,19v4.53A17.94,17.94,0,0,1,21.19,23C22.06,20.83,23.44,19.29,25,19Zm0,5.78v3H20.24a15.24,15.24,0,0,1,.55-3.55A19.43,19.43,0,0,0,25,24.74ZM20.24,29H25v3a19.89,19.89,0,0,0-4.18.53A15.06,15.06,0,0,1,20.24,29ZM25,33.26v4.43c-1.53-.33-2.9-1.83-3.77-4A18.45,18.45,0,0,1,25,33.26Zm1.25,4.43V33.26a18.26,18.26,0,0,1,3.77.46C29.15,35.86,27.79,37.36,26.25,37.69Zm0-5.68V29H31a14.56,14.56,0,0,1-.57,3.54A19.9,19.9,0,0,0,26.25,32Zm6-3H35a9.34,9.34,0,0,1-1.79,4.88,4.69,4.69,0,0,0-1.59-1A15.93,15.93,0,0,0,32.26,29Zm.23-7.14a2.34,2.34,0,0,1-1.2.78,10.08,10.08,0,0,0-1.6-2.82A9.43,9.43,0,0,1,32.49,21.86Zm-10.93-2A10.32,10.32,0,0,0,20,22.64a2.29,2.29,0,0,1-1.2-.78A9.39,9.39,0,0,1,21.56,19.82Zm-2.75,15A2.68,2.68,0,0,1,20,34.1a10.71,10.71,0,0,0,1.56,2.73A9.57,9.57,0,0,1,18.81,34.83Zm10.88,2a10.15,10.15,0,0,0,1.56-2.73,2.67,2.67,0,0,1,1.2.73A9.62,9.62,0,0,1,29.69,36.83Z"/></g></svg>