<svg xmlns="http://www.w3.org/2000/svg" viewBox="0 0 51.26 51.26">
  <g fill="#FFFFFF">
    <path d="M44.09,8H7.16a2.77,2.77,0,0,0-2.77,2.78V39.89a2.77,2.77,0,0,0,2.77,2.78H44.09a2.77,2.77,0,0,0,2.78-2.78V10.73A2.77,2.77,0,0,0,44.09,8Zm1.53,31.94a1.52,1.52,0,0,1-1.53,1.53H7.16a1.52,1.52,0,0,1-1.52-1.53V14.45h40ZM5.64,13.2V10.73A1.52,1.52,0,0,1,7.16,9.2H44.09a1.52,1.52,0,0,1,1.53,1.53V13.2Z"/>
    <path d="M13.73,10.12a1.09,1.09,0,0,0,0,2.17,1.09,1.09,0,1,0,0-2.17Z"/>
    <path d="M10.81,10.12a1.09,1.09,0,1,0,1.08,1.08A1.08,1.08,0,0,0,10.81,10.12Z"/>
    <path d="M7.89,10.12A1.09,1.09,0,1,0,9,11.2,1.08,1.08,0,0,0,7.89,10.12Z"/>
    <path d="M17.5,34.21a10.63,10.63,0,0,0,15.84,0,.27.27,0,0,0,.07-.08,10.6,10.6,0,0,0,2.7-7.07,10.69,10.69,0,1,0-18.68,7.07A.27.27,0,0,0,17.5,34.21Zm.26-12.65a4.58,4.58,0,0,0,1.61,1,16.6,16.6,0,0,0-.59,3.93H16A9.41,9.41,0,0,1,17.76,21.56Zm17.07,4.93H32.06a16.6,16.6,0,0,0-.59-3.93,4.58,4.58,0,0,0,1.61-1A9.41,9.41,0,0,1,34.83,26.49ZM33,32.62a4.39,4.39,0,0,0-1.59-1,16.08,16.08,0,0,0,.61-3.92h2.77A9.37,9.37,0,0,1,33,32.62Zm-8.24-1.88a19.23,19.23,0,0,0-4.18.54A14.64,14.64,0,0,1,20,27.74h4.75Zm0,1.25v4.44c-1.53-.33-2.89-1.84-3.77-4A18.37,18.37,0,0,1,24.79,32ZM26,36.43V32a18.39,18.39,0,0,1,3.78.47C28.94,34.59,27.58,36.1,26,36.43Zm0-5.69v-3h4.77a15.14,15.14,0,0,1-.58,3.54A19.24,19.24,0,0,0,26,30.74Zm4.77-4.25H26v-3a19.44,19.44,0,0,0,4.22-.54A15.24,15.24,0,0,1,30.81,26.49ZM26,22.23V17.69c1.57.33,2.95,1.88,3.82,4.07A18.72,18.72,0,0,1,26,22.23Zm-1.25-4.54v4.54A18.71,18.71,0,0,1,21,21.76C21.85,19.57,23.23,18,24.79,17.69Zm0,5.79v3H20a15.24,15.24,0,0,1,.55-3.55A19.43,19.43,0,0,0,24.79,23.48Zm-6,4.26a16.08,16.08,0,0,0,.61,3.92,4.39,4.39,0,0,0-1.59,1A9.37,9.37,0,0,1,16,27.74Zm-.19,5.83a2.67,2.67,0,0,1,1.2-.74,10.09,10.09,0,0,0,1.55,2.73A9.49,9.49,0,0,1,18.6,33.57Zm10.89,2A10.09,10.09,0,0,0,31,32.83a2.67,2.67,0,0,1,1.2.74A9.49,9.49,0,0,1,29.49,35.56Zm2.79-15a2.35,2.35,0,0,1-1.2.78,10.38,10.38,0,0,0-1.59-2.83A9.42,9.42,0,0,1,32.28,20.6ZM21.35,18.55a10.38,10.38,0,0,0-1.59,2.83,2.4,2.4,0,0,1-1.2-.78A9.55,9.55,0,0,1,21.35,18.55Z"/>
  </g>
</svg>