<svg xmlns="http://www.w3.org/2000/svg" viewBox="0 0 51.26 51.26"><defs><style>.cls-1{fill:#fff;}</style></defs><g id="Layer_2" data-name="Layer 2"><path class="cls-1" d="M46.87,13.2V10.73A2.77,2.77,0,0,0,44.09,8H7.16a2.78,2.78,0,0,0-2.78,2.78v3.72h0V39.89a2.77,2.77,0,0,0,2.77,2.78H44.09a2.77,2.77,0,0,0,2.78-2.78V13.2ZM14.2,10.12a1.09,1.09,0,1,1-1.08,1.08A1.08,1.08,0,0,1,14.2,10.12Zm-3.12,0A1.09,1.09,0,1,1,10,11.2,1.08,1.08,0,0,1,11.08,10.12Zm-3.19,0a1.09,1.09,0,0,1,0,2.17,1.09,1.09,0,1,1,0-2.17ZM45.62,39.89a1.52,1.52,0,0,1-1.53,1.53H7.16a1.52,1.52,0,0,1-1.52-1.53V14.45h40Z"/><path class="cls-1" d="M17.71,34.27a10.65,10.65,0,0,0,15.84,0l.07-.09a10.69,10.69,0,1,0-16,0Zm12,1.35a10.15,10.15,0,0,0,1.56-2.73,2.67,2.67,0,0,1,1.2.73A9.62,9.62,0,0,1,29.69,35.62Zm3.55-2.95a4.69,4.69,0,0,0-1.59-1,15.93,15.93,0,0,0,.61-3.92H35A9.34,9.34,0,0,1,33.24,32.67Zm0-11A9.35,9.35,0,0,1,35,26.54H32.27a16.6,16.6,0,0,0-.59-3.93A4.57,4.57,0,0,0,33.29,21.62Zm-.8-1a2.4,2.4,0,0,1-1.2.78,10.08,10.08,0,0,0-1.6-2.82A9.43,9.43,0,0,1,32.49,20.65Zm-6.24-2.9c1.56.33,2.95,1.87,3.82,4.06a18,18,0,0,1-3.82.47Zm0,5.78A19.35,19.35,0,0,0,30.46,23,14.73,14.73,0,0,1,31,26.54H26.25Zm0,4.26H31a14.56,14.56,0,0,1-.57,3.54,19.9,19.9,0,0,0-4.19-.53Zm0,4.26a18.35,18.35,0,0,1,3.77.46c-.87,2.14-2.23,3.64-3.77,4Zm-7.44,1.57A2.68,2.68,0,0,1,20,32.89a10.71,10.71,0,0,0,1.56,2.73A9.57,9.57,0,0,1,18.81,33.62ZM25,36.48c-1.53-.33-2.9-1.83-3.77-4A18.45,18.45,0,0,1,25,32.05Zm0-5.68a19.8,19.8,0,0,0-4.18.53,15.06,15.06,0,0,1-.58-3.54H25Zm0-4.26H20.24A15.24,15.24,0,0,1,20.79,23a19.35,19.35,0,0,0,4.21.54Zm0-8.79v4.53a17.94,17.94,0,0,1-3.81-.47C22.06,19.62,23.44,18.08,25,17.75Zm-3.44.86A10.32,10.32,0,0,0,20,21.43a2.35,2.35,0,0,1-1.2-.78A9.39,9.39,0,0,1,21.56,18.61Zm-3.59,3a4.48,4.48,0,0,0,1.61,1A16.1,16.1,0,0,0,19,26.54H16.22A9.35,9.35,0,0,1,18,21.62Zm1,6.17a16.41,16.41,0,0,0,.62,3.92,4.59,4.59,0,0,0-1.59,1,9.35,9.35,0,0,1-1.8-4.88Z"/></g></svg>