<svg xmlns="http://www.w3.org/2000/svg" viewBox="0 0 51.26 51.26"><defs><style>.cls-1{fill:#fff;}</style></defs><g id="Layer_2" data-name="Layer 2"><path class="cls-1" d="M23.9,27.9a.47.47,0,0,0-.47.47.47.47,0,1,0,.94,0A.47.47,0,0,0,23.9,27.9Z"/><path class="cls-1" d="M21.68,29a1.6,1.6,0,0,0-1.42,1.43,1.23,1.23,0,0,0,1.3,1.07A1.58,1.58,0,0,0,23,30.05,1.24,1.24,0,0,0,21.68,29Z"/><path class="cls-1" d="M28.78,25.85a6.89,6.89,0,0,0-1.26-.73,9.27,9.27,0,0,0-5.92-.51A8.29,8.29,0,0,0,17.26,27a3.53,3.53,0,0,0,.52,5.44,8.57,8.57,0,0,0,4.92,1.43c.25,0,.49,0,.73,0a8.79,8.79,0,0,0,5.74-2.41A3.46,3.46,0,0,0,28.78,25.85Zm-3,5.24a4.18,4.18,0,0,1-4.95,1.29,2.76,2.76,0,0,1-1.29-4,4,4,0,0,1,3.63-2,7.21,7.21,0,0,1,1,.11A2.84,2.84,0,0,1,25.79,31.09Z"/><path class="cls-1" d="M25.63,6.6h0a19,19,0,0,0-19,19h0a19,19,0,0,0,19,19h0a19,19,0,0,0,19-19h0A19,19,0,0,0,25.63,6.6Zm8.18,23.55a7.3,7.3,0,0,1-2.88,3A13.76,13.76,0,0,1,23.35,35a12.61,12.61,0,0,1-7.09-2.16,4.73,4.73,0,0,1-1.81-6.14A14,14,0,0,1,22,19.27,5,5,0,0,1,23.82,19a1.51,1.51,0,0,1,1.64,1.62c0,.28,0,.55-.05.83s0,.66,0,1a6.52,6.52,0,0,0,1-.19,7.35,7.35,0,0,1,2.85-.52,3,3,0,0,1,.42,0,1.69,1.69,0,0,1,1.6,2.19c-.24,1.25-.24,1.25.93,1.79A3.07,3.07,0,0,1,33.81,30.15ZM31,20.77c-.17,0-.38,0-.5-.05S30,20.4,30,20.21a.73.73,0,0,1,.29-.6,1.49,1.49,0,0,1,.78-.2,2.93,2.93,0,0,1,3,3.27,2.36,2.36,0,0,1-.17.59.55.55,0,0,1-.75.37c-.2-.09-.33-.37-.45-.6s0-.27,0-.41C32.66,21.4,32.16,20.86,31,20.77Zm6,3.31a.76.76,0,0,1-.92.65c-.46-.07-.69-.45-.64-1a4.59,4.59,0,0,1,.1-.51,4.49,4.49,0,0,0-4.43-5.34c-.31,0-.63,0-.94,0-.59,0-.83-.21-.87-.68a.74.74,0,0,1,.72-.86,7.6,7.6,0,0,1,2.18,0,6.11,6.11,0,0,1,5.11,6.05C37.18,22.93,37.1,23.51,37,24.08Z"/></g></svg>