<svg xmlns="http://www.w3.org/2000/svg" viewBox="0 0 51.26 51.26"><defs><style>.cls-1{fill:#fff;}</style></defs><g id="Layer_2" data-name="Layer 2"><path class="cls-1" d="M36.48,25.7c-1.94-.9-1.94-.9-1.53-3a2.81,2.81,0,0,0-2.65-3.62c-.23,0-.46,0-.69,0A12.08,12.08,0,0,0,26.9,20a10.78,10.78,0,0,1-1.62.31c0-.54,0-1.08,0-1.62s.1-.92.08-1.37a2.49,2.49,0,0,0-2.71-2.67,8.33,8.33,0,0,0-3,.52A23.09,23.09,0,0,0,7.17,27.43c-1.73,4-.56,7.65,3,10.15a20.85,20.85,0,0,0,11.69,3.55c4.91,0,8.9-.9,12.51-3.16a12.09,12.09,0,0,0,4.77-4.87C40.66,30,39.65,27.18,36.48,25.7Zm-5,9.49a14.47,14.47,0,0,1-9.48,4c-.4,0-.8,0-1.2,0a14,14,0,0,1-8.12-2.37,5.83,5.83,0,0,1-.87-9A13.85,13.85,0,0,1,19,23.94a15.43,15.43,0,0,1,9.78.85A11.59,11.59,0,0,1,30.83,26C34.13,28.41,34.39,32.32,31.48,35.19Z"/><path class="cls-1" d="M36.43,10.23a13.58,13.58,0,0,0-3.6,0,1.25,1.25,0,0,0-1.19,1.44c.06.76.46,1.09,1.44,1.12.51,0,1-.05,1.55-.06A7.44,7.44,0,0,1,42,21.61a8.39,8.39,0,0,0-.18.84c-.08,1,.31,1.59,1.06,1.69a1.25,1.25,0,0,0,1.52-1.06c.22-.94.35-1.91.52-2.87A10.09,10.09,0,0,0,36.43,10.23Z"/><path class="cls-1" d="M37.24,21.36a2.13,2.13,0,0,0,.75,1,.91.91,0,0,0,1.23-.61,3.78,3.78,0,0,0,.28-1,4.84,4.84,0,0,0-4.87-5.4,2.46,2.46,0,0,0-1.29.34,1.25,1.25,0,0,0-.48,1c0,.31.41.64.72.84s.56.07.84.09c2,.14,2.82,1,2.8,3.07C37.22,20.91,37.14,21.18,37.24,21.36Z"/><path class="cls-1" d="M23.19,27.17a10.88,10.88,0,0,0-1.6-.18,6.52,6.52,0,0,0-6,3.26,4.53,4.53,0,0,0,2.12,6.52,6.92,6.92,0,0,0,8.18-2.12A4.69,4.69,0,0,0,23.19,27.17Zm-4.27,8.11a2,2,0,0,1-2.15-1.77,2.64,2.64,0,0,1,2.33-2.36,2,2,0,0,1,2.15,1.78A2.62,2.62,0,0,1,18.92,35.28Zm3.86-4.34a.78.78,0,1,1,.78-.78A.77.77,0,0,1,22.78,30.94Z"/></g></svg>