<svg xmlns="http://www.w3.org/2000/svg" viewBox="0 0 51.26 51.26"><defs><style>.cls-1{fill:#fff;}.cls-2{fill:#ececed;}</style></defs><g id="Layer_2" data-name="Layer 2"><path class="cls-1" d="M32.66,23.36c.12.22.25.51.45.6a.55.55,0,0,0,.75-.37A2.48,2.48,0,0,0,34,23a2.93,2.93,0,0,0-3-3.27,1.49,1.49,0,0,0-.78.2.73.73,0,0,0-.29.6c0,.19.25.38.44.51s.33,0,.5.05c1.21.09,1.71.63,1.7,1.86C32.65,23.09,32.6,23.25,32.66,23.36Z"/><path class="cls-1" d="M32.2,26c-1.18-.55-1.18-.55-.93-1.79a1.7,1.7,0,0,0-1.6-2.2l-.42,0a7.36,7.36,0,0,0-2.85.53,6.52,6.52,0,0,1-1,.19c0-.33,0-.65,0-1s.06-.56.05-.83a1.5,1.5,0,0,0-1.64-1.62,5,5,0,0,0-1.84.32A14,14,0,0,0,14.45,27a4.74,4.74,0,0,0,1.81,6.15,12.69,12.69,0,0,0,7.09,2.16,13.85,13.85,0,0,0,7.58-1.92,7.3,7.3,0,0,0,2.88-3A3.07,3.07,0,0,0,32.2,26Zm-3,5.75a8.73,8.73,0,0,1-5.74,2.4c-.24,0-.48,0-.73,0a8.5,8.5,0,0,1-4.92-1.44,3.53,3.53,0,0,1-.52-5.44,8.44,8.44,0,0,1,4.34-2.35,9.34,9.34,0,0,1,5.92.52,6.89,6.89,0,0,1,1.26.73A3.46,3.46,0,0,1,29.17,31.74Z"/><path class="cls-1" d="M24.15,26.88a7.21,7.21,0,0,0-1-.11,4,4,0,0,0-3.63,2,2.76,2.76,0,0,0,1.29,3.95,4.19,4.19,0,0,0,4.95-1.28A2.84,2.84,0,0,0,24.15,26.88Zm-2.59,4.91a1.24,1.24,0,0,1-1.3-1.07,1.6,1.6,0,0,1,1.42-1.43A1.24,1.24,0,0,1,23,30.37,1.58,1.58,0,0,1,21.56,31.79Zm2.34-2.63a.47.47,0,1,1,.47-.47A.47.47,0,0,1,23.9,29.16Z"/><path class="cls-1" d="M32.17,16.62a8,8,0,0,0-2.18,0,.75.75,0,0,0-.72.87c0,.46.28.66.87.68.31,0,.63,0,.94,0a4.49,4.49,0,0,1,4.43,5.34,4.59,4.59,0,0,0-.1.51c0,.58.18,1,.64,1A.76.76,0,0,0,37,24.4c.13-.57.21-1.15.31-1.73A6.11,6.11,0,0,0,32.17,16.62Z"/><path class="cls-2" d="M23.9,28.22a.47.47,0,1,0,.47.47A.47.47,0,0,0,23.9,28.22Z"/><path class="cls-2" d="M21.68,29.29a1.6,1.6,0,0,0-1.42,1.43,1.24,1.24,0,0,0,1.3,1.07A1.58,1.58,0,0,0,23,30.37,1.24,1.24,0,0,0,21.68,29.29Z"/><path class="cls-2" d="M28.78,26.17a6.89,6.89,0,0,0-1.26-.73,9.34,9.34,0,0,0-5.92-.52,8.44,8.44,0,0,0-4.34,2.35,3.53,3.53,0,0,0,.52,5.44,8.5,8.5,0,0,0,4.92,1.44c.25,0,.49,0,.73,0a8.73,8.73,0,0,0,5.74-2.4A3.46,3.46,0,0,0,28.78,26.17Zm-3,5.24a4.19,4.19,0,0,1-4.95,1.28,2.76,2.76,0,0,1-1.29-3.95,4,4,0,0,1,3.63-2,7.21,7.21,0,0,1,1,.11A2.84,2.84,0,0,1,25.79,31.41Z"/><path class="cls-2" d="M25.63,6.92a19,19,0,0,0-19,19h0a19,19,0,0,0,38.06,0h0A19,19,0,0,0,25.63,6.92ZM37,24.4a.76.76,0,0,1-.92.65c-.46-.07-.69-.45-.64-1a4.59,4.59,0,0,1,.1-.51,4.49,4.49,0,0,0-4.43-5.34c-.31,0-.63,0-.94,0-.59,0-.83-.22-.87-.68a.75.75,0,0,1,.72-.87,8,8,0,0,1,2.18,0,6.11,6.11,0,0,1,5.11,6.05C37.18,23.25,37.1,23.83,37,24.4ZM16.26,33.18A4.74,4.74,0,0,1,14.45,27,14,14,0,0,1,22,19.59a5,5,0,0,1,1.84-.32,1.5,1.5,0,0,1,1.64,1.62c0,.27,0,.55-.05.83s0,.65,0,1a6.52,6.52,0,0,0,1-.19A7.36,7.36,0,0,1,29.25,22l.42,0a1.7,1.7,0,0,1,1.6,2.2C31,25.44,31,25.44,32.2,26a3.07,3.07,0,0,1,1.61,4.48,7.3,7.3,0,0,1-2.88,3,13.85,13.85,0,0,1-7.58,1.92A12.69,12.69,0,0,1,16.26,33.18ZM31,21.09c-.17,0-.38,0-.5-.05s-.42-.32-.44-.51a.73.73,0,0,1,.29-.6,1.49,1.49,0,0,1,.78-.2A2.93,2.93,0,0,1,34,23a2.48,2.48,0,0,1-.17.59.55.55,0,0,1-.75.37c-.2-.09-.33-.38-.45-.6s0-.27,0-.41C32.66,21.72,32.16,21.18,31,21.09Z"/></g></svg>