<svg xmlns="http://www.w3.org/2000/svg" viewBox="0 0 51.26 51.26"><defs><style>.cls-1{fill:#fff;}.cls-2{fill:#ececed;}</style></defs><g id="Layer_2" data-name="Layer 2"><path class="cls-1" d="M25.82,15.51a10.21,10.21,0,0,0-10.24,9.72c0,.15,0,.3,0,.45A10.09,10.09,0,0,0,17,30.93l-1.85,5.46,5.68-1.81a10.26,10.26,0,0,0,15.2-8.9,2.17,2.17,0,0,0,0-.26A10.21,10.21,0,0,0,25.82,15.51Zm8.62,10.17a8.62,8.62,0,0,1-13.36,7.13l-3.31,1.06,1.07-3.18a8.46,8.46,0,0,1-1.64-5c0-.28,0-.56,0-.83A8.62,8.62,0,0,1,34.41,25C34.43,25.23,34.44,25.45,34.44,25.68Z"/><path class="cls-1" d="M30.52,27.73c-.26-.12-1.49-.73-1.72-.81s-.4-.12-.57.13-.65.81-.8,1-.29.19-.54.06a6.57,6.57,0,0,1-2-1.24,7.33,7.33,0,0,1-1.4-1.72c-.14-.25,0-.38.11-.51s.25-.29.38-.43a.62.62,0,0,1,.09-.12c.06-.1.1-.18.16-.3a.45.45,0,0,0,0-.44c-.06-.12-.56-1.35-.78-1.85s-.41-.41-.56-.41-.31,0-.48,0a1,1,0,0,0-.67.31,2.81,2.81,0,0,0-.88,2.09,3.07,3.07,0,0,0,.13.85,5.42,5.42,0,0,0,.9,1.72,10.18,10.18,0,0,0,4.28,3.77c2.56,1,2.56.66,3,.62a2.52,2.52,0,0,0,1.7-1.19A2,2,0,0,0,31,28C30.93,27.92,30.76,27.86,30.52,27.73Z"/><path class="cls-2" d="M25.82,17.13a8.61,8.61,0,0,0-8.58,7.72c0,.27,0,.55,0,.83a8.46,8.46,0,0,0,1.64,5l-1.07,3.18,3.31-1.06a8.62,8.62,0,0,0,13.36-7.13c0-.23,0-.45,0-.67A8.61,8.61,0,0,0,25.82,17.13Zm5,12.07a2.52,2.52,0,0,1-1.7,1.19c-.46,0-.46.37-3-.62A10.18,10.18,0,0,1,21.85,26a5.42,5.42,0,0,1-.9-1.72,3.07,3.07,0,0,1-.13-.85,2.81,2.81,0,0,1,.88-2.09,1,1,0,0,1,.67-.31c.17,0,.33,0,.48,0s.36-.09.56.41.72,1.73.78,1.85a.45.45,0,0,1,0,.44c-.06.12-.1.2-.16.3a.62.62,0,0,0-.09.12c-.13.14-.26.32-.38.43s-.25.26-.11.51a7.33,7.33,0,0,0,1.4,1.72,6.57,6.57,0,0,0,2,1.24c.25.13.4.11.54-.06s.63-.73.8-1,.34-.22.57-.13,1.46.69,1.72.81.41.19.47.29A2,2,0,0,1,30.85,29.2Z"/><path class="cls-2" d="M25.63,6.92h0a19,19,0,0,0-19,19h0a19,19,0,0,0,19,19h0a19,19,0,0,0,19-19h0A19,19,0,0,0,25.63,6.92Zm.19,28.93a10.18,10.18,0,0,1-4.95-1.27l-5.68,1.81L17,30.93a10.09,10.09,0,0,1-1.47-5.25c0-.15,0-.3,0-.45a10.25,10.25,0,0,1,20.48.19,2.17,2.17,0,0,1,0,.26A10.21,10.21,0,0,1,25.82,35.85Z"/></g></svg>