<svg xmlns="http://www.w3.org/2000/svg" viewBox="0 0 51.26 51.26"><defs><style>.cls-1{fill:#fff;}</style></defs><g id="Layer_2" data-name="Layer 2"><path class="cls-1" d="M25.82,16.81a8.61,8.61,0,0,0-8.58,7.72,7.56,7.56,0,0,0,0,.83,8.46,8.46,0,0,0,1.64,5l-1.07,3.18,3.31-1.06a8.62,8.62,0,0,0,13.36-7.13c0-.23,0-.45,0-.67A8.61,8.61,0,0,0,25.82,16.81Zm5,12.08a2.54,2.54,0,0,1-1.7,1.18c-.46,0-.46.38-3-.62a10.25,10.25,0,0,1-4.28-3.76A5.52,5.52,0,0,1,21,24a3.07,3.07,0,0,1-.13-.85A2.78,2.78,0,0,1,21.7,21a.92.92,0,0,1,.67-.31l.48,0c.15,0,.36-.09.56.41s.72,1.73.78,1.85a.45.45,0,0,1,0,.44,2.72,2.72,0,0,1-.16.3,1.25,1.25,0,0,0-.09.12c-.13.14-.26.32-.38.43s-.25.26-.11.51a7.53,7.53,0,0,0,1.4,1.73,6.67,6.67,0,0,0,2,1.23c.25.13.4.11.54-.06s.63-.72.8-1,.34-.21.57-.13,1.46.69,1.72.81.41.19.47.29A2,2,0,0,1,30.85,28.89Z"/><path class="cls-1" d="M25.63,6.6h0a19,19,0,0,0-19,19h0a19,19,0,0,0,19,19h0a19,19,0,0,0,19-19h0A19,19,0,0,0,25.63,6.6Zm.19,28.93a10.18,10.18,0,0,1-4.95-1.27l-5.68,1.81L17,30.61a10.09,10.09,0,0,1-1.47-5.25c0-.15,0-.3,0-.45a10.25,10.25,0,0,1,20.48.19,2.26,2.26,0,0,1,0,.26A10.21,10.21,0,0,1,25.82,35.53Z"/></g></svg>