<svg xmlns="http://www.w3.org/2000/svg" viewBox="0 0 51.26 51.26"><defs><style>.cls-1{fill:#fff;fill-rule:evenodd;}</style></defs><g id="Layer_2" data-name="Layer 2"><path class="cls-1" d="M38.63,25a12.77,12.77,0,0,0-25.52-.23c0,.18,0,.37,0,.55a12.57,12.57,0,0,0,1.83,6.55l-2.3,6.8,7.07-2.25a12.79,12.79,0,0,0,19-11.1C38.64,25.19,38.64,25.08,38.63,25ZM25.86,36A10.67,10.67,0,0,1,20,34.18L15.83,35.5l1.34-4a10.57,10.57,0,0,1-2-6.25,8.88,8.88,0,0,1,0-1,10.74,10.74,0,0,1,21.39.2c0,.28,0,.55,0,.83A10.71,10.71,0,0,1,25.86,36Z"/><path class="cls-1" d="M31.72,27.85c-.32-.15-1.86-.91-2.14-1s-.5-.15-.71.16-.81,1-1,1.21-.37.23-.68.08a8.71,8.71,0,0,1-2.52-1.54,9.24,9.24,0,0,1-1.74-2.15c-.18-.31,0-.48.14-.63s.31-.37.47-.55l.11-.15a2.12,2.12,0,0,0,.2-.37.54.54,0,0,0,0-.54c-.08-.16-.71-1.69-1-2.31s-.52-.51-.71-.51-.38,0-.59,0a1.15,1.15,0,0,0-.84.38,3.5,3.5,0,0,0-1.1,2.6,3.79,3.79,0,0,0,.17,1.06,7,7,0,0,0,1.11,2.15,13,13,0,0,0,5.35,4.69c3.19,1.24,3.19.83,3.76.77a3.1,3.1,0,0,0,2.11-1.47,2.71,2.71,0,0,0,.19-1.48C32.24,28.09,32,28,31.72,27.85Z"/></g></svg>