<svg xmlns="http://www.w3.org/2000/svg" viewBox="0 0 51.26 51.26"><defs><style>.cls-1{fill:#fff;}.cls-2{fill:#ececed;}</style></defs><g id="Layer_2" data-name="Layer 2"><path class="cls-1" d="M21.31,16.54a1.33,1.33,0,0,1-.21,0V28.77h4.29a2,2,0,1,1,0,3.95H21.1v1.85a.63.63,0,0,0,.62.63H46.27a.63.63,0,0,0,.62-.63V16.51l-.21,0Zm22.15,14.6H29.94a.63.63,0,1,1,0-1.25H43.46a.63.63,0,1,1,0,1.25Zm0-3.49H24.94a.63.63,0,1,1,0-1.25H43.46a.63.63,0,1,1,0,1.25Zm0-3.5H24.94a.63.63,0,1,1,0-1.25H43.46a.63.63,0,1,1,0,1.25Zm0-3.49H24.94a.63.63,0,1,1,0-1.25H43.46a.63.63,0,1,1,0,1.25Z"/><path class="cls-2" d="M11.63,27.9a5.54,5.54,0,1,0-5.54-5.54A5.54,5.54,0,0,0,11.63,27.9Z"/><path class="cls-2" d="M25.39,28.77H11.63a10.29,10.29,0,0,0-8.57,4.59,3.33,3.33,0,0,0-.53,1.81v3.95A1.91,1.91,0,0,0,4.45,41H18.82a1.9,1.9,0,0,0,1.85-1.44,1.47,1.47,0,0,0,0-.78L19.1,32.72h6.29a2,2,0,1,0,0-3.95Z"/><path class="cls-2" d="M46.68,10.86H21.31a2.05,2.05,0,0,0-2,2.05v1.58a2,2,0,0,0,1.84,2,1.33,1.33,0,0,0,.21,0H46.68l.21,0a2,2,0,0,0,1.83-2V12.91A2,2,0,0,0,46.68,10.86Z"/><path class="cls-2" d="M43.46,19.41H24.94a.63.63,0,1,0,0,1.25H43.46a.63.63,0,1,0,0-1.25Z"/><path class="cls-2" d="M43.46,22.9H24.94a.63.63,0,1,0,0,1.25H43.46a.63.63,0,1,0,0-1.25Z"/><path class="cls-2" d="M43.46,26.4H24.94a.63.63,0,1,0,0,1.25H43.46a.63.63,0,1,0,0-1.25Z"/><path class="cls-2" d="M43.46,29.89H29.94a.63.63,0,1,0,0,1.25H43.46a.63.63,0,1,0,0-1.25Z"/></g></svg>