<?xml version="1.0" encoding="UTF-8"?>
<svg id="Layer_2" data-name="Layer 2" xmlns="http://www.w3.org/2000/svg" viewBox="0 0 51.26 51.26">
  <defs>
    <style>
      .cls-1 {
        fill: #fff;
      }

      .cls-2 {
        fill: #707372;
      }
    </style>
  </defs>
  <g>
    <path class="cls-2" d="m25.53,6.17C15.01,6.17,6.5,14.7,6.5,25.2s8.53,19.03,19.03,19.03,19.03-8.53,19.03-19.03S36.03,6.17,25.53,6.17Zm3.9,28.88l-5.26-7.65-6.58,7.65h-1.7l7.52-8.75-7.52-10.95h5.74l4.97,7.25,6.23-7.25h1.7l-7.18,8.34h0l7.8,11.36h-5.74Z"/>
    <polygon class="cls-2" points="25.71 23.64 20.81 16.63 18.2 16.63 24.26 25.3 25.03 26.39 25.02 26.39 25.02 26.39 25.02 26.41 30.22 33.84 32.83 33.84 26.48 24.73 25.71 23.64"/>
  </g>
  <g id="Layer_1-2" data-name="Layer 1-2">
    <path class="cls-1" d="m27.36,23.69l7.18-8.34h-1.7l-6.23,7.25-4.97-7.25h-5.74l7.52,10.95-7.52,8.75h1.7l6.58-7.65,5.26,7.65h5.74l-7.8-11.36s0,0,0,0Zm-2.33,2.7l-.76-1.1-6.06-8.67h2.61l4.9,7.01.76,1.1,6.36,9.11h-2.61l-5.2-7.43h0v-.02h.01Z"/>
  </g>
</svg>