<?xml version="1.0" encoding="UTF-8"?>
<svg id="Layer_2" data-name="Layer 2" xmlns="http://www.w3.org/2000/svg" viewBox="0 0 51.26 51.26">
  <defs>
    <style>
      .cls-1 {
        fill: #fff;
      }
    </style>
  </defs>
  <path class="cls-1" d="m25.43,6.17C14.91,6.17,6.4,14.7,6.4,25.2s8.53,19.03,19.03,19.03,19.03-8.53,19.03-19.03S35.93,6.17,25.43,6.17Zm3.9,28.88l-5.26-7.65-6.58,7.65h-1.7l7.52-8.75-7.52-10.95h5.74l4.97,7.25,6.23-7.25h1.7l-7.18,8.34h0l7.8,11.36h-5.74Z"/>
  <polygon class="cls-1" points="25.61 23.64 20.71 16.63 18.1 16.63 24.16 25.3 24.93 26.39 24.92 26.39 24.91 26.39 24.91 26.41 30.12 33.84 32.73 33.84 26.38 24.73 25.61 23.64"/>
</svg>