<svg xmlns="http://www.w3.org/2000/svg" viewBox="0 0 51.26 51.26">
  <path fill="#FFFFFF" d="m33.1,19.28c1.12.92,4.19,3.46,3.69,5.24-.23.8-1.15,1.06-1.83,1.31-1.57.57-3.18,1.02-4.82,1.35-1.32.27-4.16.86-3.63-1.49.21-.91.94-1.67,1.52-2.36,1.21-1.42,2.44-2.92,3.89-4.08.12-.09.26-.12.39-.1.24-.1.54-.09.79.13Z"/>
  <path fill="#FFFFFF" d="m31.45,37.97c-.98-.79-1.67-2.04-2.27-3.12-.59-1.05-1.51-2.44-1.67-3.66-.32-2.51,3.31-1,4.36-.64,1.39.49,5.11,1.02,4.69,3.19-.34,1.77-2.47,3.92-4.26,4.2-.02,0-.04,0-.07,0l-.02.02c-.05.02-.11.06-.16.08-.21.11-.42.07-.6-.07Z"/>
  <path fill="#FFFFFF" d="m23.33,31.52c1.97-.82,2.16,1.39,2.14,2.72-.02,1.59-.07,3.19-.19,4.78-.04.64-.02,1.42-.63,1.82-.76.5-2.21.11-2.99-.14-.02-.01-.05-.02-.07-.03-1.64-.29-3.65-1.04-3.84-2.56-.02-.17.05-.33.16-.45.05-.09.1-.18.16-.26.24-.34.52-.64.81-.94.47-.71.99-1.39,1.53-2.04.79-.95,1.76-2.41,2.94-2.9Z"/>
  <path fill="#FFFFFF" d="m23.62,24.67c-2.88-2.37-5.69-6.04-7.14-9.43-1.11-2.58,1.71-4.16,3.87-4.87,2.92-.96,4.09-.13,4.38,2.8.24,2.52.36,5.06.34,7.59,0,1.07.29,2.79-.33,3.76.1.39-.49.67-.83.41-.05-.04-.1-.09-.16-.13-.05-.03-.09-.07-.14-.12Z"/>
  <path fill="#FFFFFF" d="m23.31,28.34c.23,1.02-.49,1.44-1.34,1.82-1.51.68-3.1,1.22-4.69,1.67-.92.26-2.34.87-3.24.19-.67-.51-.72-1.58-.78-2.36-.14-1.73.13-5.86,2.52-6.04,1.17-.08,2.64.97,3.61,1.52,1.28.74,2.66,1.58,3.61,2.74.14.08.26.22.31.45Z"/>
</svg>