<svg xmlns="http://www.w3.org/2000/svg" viewBox="0 0 51.26 51.26">
  <path fill="#FFFFFF" d="m25.63,6.6C15.11,6.6,6.6,15.13,6.6,25.63s8.53,19.03,19.03,19.03,19.03-8.53,19.03-19.03S36.13,6.6,25.63,6.6Zm-3.61,7.31c2.26-.74,3.16-.1,3.39,2.16.19,1.95.28,3.91.26,5.86,0,.83.23,2.16-.26,2.9.08.3-.38.52-.64.31-.04-.03-.08-.07-.12-.1-.04-.02-.07-.05-.11-.09-2.23-1.83-4.39-4.66-5.51-7.29-.85-1.99,1.32-3.21,2.99-3.76Zm-4.89,16.73c-.52-.4-.56-1.22-.6-1.82-.11-1.34.1-4.53,1.95-4.66.91-.06,2.04.75,2.79,1.17.99.57,2.05,1.22,2.79,2.12.11.06.2.17.24.35.18.79-.38,1.11-1.04,1.41-1.17.53-2.4.95-3.63,1.29-.71.2-1.81.67-2.5.14Zm8.7,5.41c-.03.5-.01,1.1-.49,1.41-.58.39-1.71.08-2.31-.11-.02,0-.04-.02-.06-.02-1.27-.22-2.82-.81-2.97-1.98-.01-.14.04-.26.12-.35.04-.07.08-.14.12-.2.19-.26.41-.49.62-.73.37-.55.76-1.07,1.18-1.58.61-.73,1.36-1.86,2.27-2.24,1.53-.63,1.67,1.07,1.66,2.11-.01,1.23-.05,2.47-.14,3.69Zm8.71-4.08c-.27,1.37-1.91,3.03-3.29,3.25-.01,0-.03,0-.05,0,0,0,0,0-.01.01-.04.02-.08.04-.13.06-.16.09-.32.05-.46-.06-.76-.61-1.29-1.57-1.76-2.41-.45-.81-1.17-1.88-1.29-2.82-.25-1.94,2.56-.77,3.37-.49,1.07.38,3.95.79,3.63,2.47Zm.18-7.13c-.18.62-.89.82-1.41,1.01-1.21.44-2.46.79-3.72,1.04-1.02.21-3.21.66-2.81-1.15.16-.7.72-1.29,1.18-1.82.93-1.1,1.88-2.26,3.01-3.15.09-.07.2-.09.3-.08.19-.08.42-.07.61.1.86.71,3.24,2.68,2.85,4.05Z"/>
</svg>