<svg xmlns="http://www.w3.org/2000/svg" viewBox="0 0 51.26 51.26"><defs><style>.cls-1{fill:#fff;}.cls-2{fill:#ececed;}</style></defs><g id="Layer_2" data-name="Layer 2"><path class="cls-1" d="M37,20.18a3,3,0,0,0-2.1-2.12c-1.86-.5-9.3-.5-9.3-.5s-7.44,0-9.3.5a3,3,0,0,0-2.11,2.12A31.88,31.88,0,0,0,13.73,26a31.79,31.79,0,0,0,.49,5.76,3,3,0,0,0,2.11,2.12c1.86.5,9.3.5,9.3.5s7.44,0,9.3-.5A3,3,0,0,0,37,31.71a31.17,31.17,0,0,0,.5-5.76A31.26,31.26,0,0,0,37,20.18ZM23.19,29.49V22.41L29.41,26Z"/><path class="cls-2" d="M25.63,6.92a19,19,0,1,0,19,19A19,19,0,0,0,25.63,6.92Zm9.3,26.91c-1.86.5-9.3.5-9.3.5s-7.44,0-9.3-.5a3,3,0,0,1-2.11-2.12A31.79,31.79,0,0,1,13.73,26a31.88,31.88,0,0,1,.49-5.77,3,3,0,0,1,2.11-2.12c1.86-.5,9.3-.5,9.3-.5s7.44,0,9.3.5A3,3,0,0,1,37,20.18a31.26,31.26,0,0,1,.5,5.77,31.17,31.17,0,0,1-.5,5.76A3,3,0,0,1,34.93,33.83Z"/><polygon class="cls-2" points="23.19 29.48 29.41 25.95 23.19 22.41 23.19 29.48"/></g></svg>