<svg xmlns="http://www.w3.org/2000/svg" viewBox="0 0 51.26 51.26"><defs><style>.cls-1{fill:#fff;}</style></defs><g id="Layer_2" data-name="Layer 2"><path class="cls-1" d="M25.63,6.6h0a19,19,0,0,0,0,38.06h0a19,19,0,0,0,0-38.06ZM37,31.39a3,3,0,0,1-2.1,2.12c-1.86.5-9.3.5-9.3.5s-7.44,0-9.3-.5a3,3,0,0,1-2.11-2.12,31.73,31.73,0,0,1-.49-5.76,31.88,31.88,0,0,1,.49-5.77,3,3,0,0,1,2.11-2.12c1.86-.5,9.3-.5,9.3-.5s7.44,0,9.3.5A3,3,0,0,1,37,19.86a31.26,31.26,0,0,1,.5,5.77A31.11,31.11,0,0,1,37,31.39Z"/><polygon class="cls-1" points="23.19 29.17 29.41 25.63 23.19 22.09 23.19 29.17"/></g></svg>